%TF.GenerationSoftware,KiCad,Pcbnew,10.0.1*%
%TF.CreationDate,2026-04-23T15:22:00-04:00*%
%TF.ProjectId,dev-board,6465762d-626f-4617-9264-2e6b69636164,rev?*%
%TF.SameCoordinates,PX1312d00PY13ab6680*%
%TF.FileFunction,Paste,Top*%
%TF.FilePolarity,Positive*%
%FSLAX46Y46*%
G04 Gerber Fmt 4.6, Leading zero omitted, Abs format (unit mm)*
G04 Created by KiCad (PCBNEW 10.0.1) date 2026-04-23 15:22:00*
%MOMM*%
%LPD*%
G01*
G04 APERTURE LIST*
G04 Aperture macros list*
%AMRoundRect*
0 Rectangle with rounded corners*
0 $1 Rounding radius*
0 $2 $3 $4 $5 $6 $7 $8 $9 X,Y pos of 4 corners*
0 Add a 4 corners polygon primitive as box body*
4,1,4,$2,$3,$4,$5,$6,$7,$8,$9,$2,$3,0*
0 Add four circle primitives for the rounded corners*
1,1,$1+$1,$2,$3*
1,1,$1+$1,$4,$5*
1,1,$1+$1,$6,$7*
1,1,$1+$1,$8,$9*
0 Add four rect primitives between the rounded corners*
20,1,$1+$1,$2,$3,$4,$5,0*
20,1,$1+$1,$4,$5,$6,$7,0*
20,1,$1+$1,$6,$7,$8,$9,0*
20,1,$1+$1,$8,$9,$2,$3,0*%
G04 Aperture macros list end*
%ADD10RoundRect,0.075000X-0.075000X0.550000X-0.075000X-0.550000X0.075000X-0.550000X0.075000X0.550000X0*%
%ADD11RoundRect,0.150000X0.150000X0.200000X-0.150000X0.200000X-0.150000X-0.200000X0.150000X-0.200000X0*%
%ADD12RoundRect,0.250000X-0.650000X0.325000X-0.650000X-0.325000X0.650000X-0.325000X0.650000X0.325000X0*%
%ADD13R,1.400000X0.800000*%
%ADD14RoundRect,0.140000X0.170000X-0.140000X0.170000X0.140000X-0.170000X0.140000X-0.170000X-0.140000X0*%
%ADD15RoundRect,0.135000X0.135000X0.185000X-0.135000X0.185000X-0.135000X-0.185000X0.135000X-0.185000X0*%
%ADD16RoundRect,0.137500X0.662500X-0.137500X0.662500X0.137500X-0.662500X0.137500X-0.662500X-0.137500X0*%
%ADD17RoundRect,0.250000X-0.475000X0.250000X-0.475000X-0.250000X0.475000X-0.250000X0.475000X0.250000X0*%
%ADD18RoundRect,0.135000X0.185000X-0.135000X0.185000X0.135000X-0.185000X0.135000X-0.185000X-0.135000X0*%
%ADD19RoundRect,0.135000X-0.135000X-0.185000X0.135000X-0.185000X0.135000X0.185000X-0.135000X0.185000X0*%
%ADD20R,0.800000X1.600000*%
%ADD21R,2.100000X3.000000*%
%ADD22RoundRect,0.250000X-0.255000X-0.255000X0.255000X-0.255000X0.255000X0.255000X-0.255000X0.255000X0*%
%ADD23RoundRect,0.075000X-0.662500X-0.075000X0.662500X-0.075000X0.662500X0.075000X-0.662500X0.075000X0*%
%ADD24RoundRect,0.075000X-0.075000X-0.662500X0.075000X-0.662500X0.075000X0.662500X-0.075000X0.662500X0*%
%ADD25RoundRect,0.250000X-0.375000X-0.850000X0.375000X-0.850000X0.375000X0.850000X-0.375000X0.850000X0*%
%ADD26RoundRect,0.250000X0.475000X-0.250000X0.475000X0.250000X-0.475000X0.250000X-0.475000X-0.250000X0*%
%ADD27RoundRect,0.250000X-0.315000X-0.315000X0.315000X-0.315000X0.315000X0.315000X-0.315000X0.315000X0*%
%ADD28RoundRect,0.062500X-0.350000X-0.062500X0.350000X-0.062500X0.350000X0.062500X-0.350000X0.062500X0*%
%ADD29RoundRect,0.062500X-0.062500X-0.350000X0.062500X-0.350000X0.062500X0.350000X-0.062500X0.350000X0*%
%ADD30RoundRect,0.250000X0.300000X0.300000X-0.300000X0.300000X-0.300000X-0.300000X0.300000X-0.300000X0*%
%ADD31R,0.600000X1.550000*%
%ADD32R,1.200000X1.800000*%
%ADD33RoundRect,0.135000X-0.185000X0.135000X-0.185000X-0.135000X0.185000X-0.135000X0.185000X0.135000X0*%
%ADD34RoundRect,0.225000X0.225000X0.250000X-0.225000X0.250000X-0.225000X-0.250000X0.225000X-0.250000X0*%
%ADD35RoundRect,0.250000X0.300000X-0.300000X0.300000X0.300000X-0.300000X0.300000X-0.300000X-0.300000X0*%
%ADD36R,0.600000X1.140000*%
%ADD37R,0.300000X1.140000*%
%ADD38RoundRect,0.150000X-0.150000X-0.200000X0.150000X-0.200000X0.150000X0.200000X-0.150000X0.200000X0*%
%ADD39RoundRect,0.006000X0.094000X-0.276500X0.094000X0.276500X-0.094000X0.276500X-0.094000X-0.276500X0*%
%ADD40RoundRect,0.020000X0.180000X-0.262500X0.180000X0.262500X-0.180000X0.262500X-0.180000X-0.262500X0*%
%ADD41RoundRect,0.140000X-0.140000X-0.170000X0.140000X-0.170000X0.140000X0.170000X-0.140000X0.170000X0*%
%ADD42RoundRect,0.225000X-0.250000X0.225000X-0.250000X-0.225000X0.250000X-0.225000X0.250000X0.225000X0*%
%ADD43RoundRect,0.050000X-0.375000X-0.050000X0.375000X-0.050000X0.375000X0.050000X-0.375000X0.050000X0*%
%ADD44RoundRect,0.050000X-0.050000X-0.275000X0.050000X-0.275000X0.050000X0.275000X-0.050000X0.275000X0*%
%ADD45RoundRect,0.100000X-0.100000X0.275000X-0.100000X-0.275000X0.100000X-0.275000X0.100000X0.275000X0*%
%ADD46RoundRect,0.225000X0.250000X-0.225000X0.250000X0.225000X-0.250000X0.225000X-0.250000X-0.225000X0*%
%ADD47RoundRect,0.125000X0.175000X0.125000X-0.175000X0.125000X-0.175000X-0.125000X0.175000X-0.125000X0*%
%ADD48RoundRect,0.157500X-0.157500X-0.222500X0.157500X-0.222500X0.157500X0.222500X-0.157500X0.222500X0*%
%ADD49RoundRect,0.100000X-0.625000X-0.100000X0.625000X-0.100000X0.625000X0.100000X-0.625000X0.100000X0*%
%ADD50RoundRect,0.112500X-0.612500X-0.112500X0.612500X-0.112500X0.612500X0.112500X-0.612500X0.112500X0*%
%ADD51R,0.700000X2.600000*%
%ADD52R,1.100000X1.900000*%
%ADD53RoundRect,0.225000X-0.225000X-0.250000X0.225000X-0.250000X0.225000X0.250000X-0.225000X0.250000X0*%
%ADD54RoundRect,0.140000X-0.170000X0.140000X-0.170000X-0.140000X0.170000X-0.140000X0.170000X0.140000X0*%
%ADD55RoundRect,0.140000X0.140000X0.170000X-0.140000X0.170000X-0.140000X-0.170000X0.140000X-0.170000X0*%
%ADD56R,0.700000X1.500000*%
%ADD57R,1.000000X0.800000*%
%ADD58R,0.600000X0.400000*%
%ADD59R,0.400000X0.600000*%
G04 APERTURE END LIST*
D10*
%TO.C,U6*%
X155750000Y-16292500D03*
X155250000Y-16292500D03*
X154750000Y-16292500D03*
X154250000Y-16292500D03*
X154250000Y-19092500D03*
X154750000Y-19092500D03*
X155250000Y-19092500D03*
X155750000Y-19092500D03*
%TD*%
D11*
%TO.C,D124*%
X8050000Y-42300000D03*
X9450000Y-42300000D03*
%TD*%
D12*
%TO.C,C2*%
X112525000Y-17225000D03*
X112525000Y-20175000D03*
%TD*%
D13*
%TO.C,LED28*%
X14255195Y-32529774D03*
X9055195Y-32529774D03*
X9055195Y-33979774D03*
X14255195Y-33979774D03*
%TD*%
D14*
%TO.C,C15*%
X243950000Y-35630000D03*
X243950000Y-34670000D03*
%TD*%
D15*
%TO.C,R11*%
X163155000Y-14912500D03*
X162135000Y-14912500D03*
%TD*%
D16*
%TO.C,L4*%
X164275000Y-5375000D03*
X164275000Y-3925000D03*
%TD*%
D17*
%TO.C,C6*%
X171675000Y-17025000D03*
X171675000Y-18925000D03*
%TD*%
D18*
%TO.C,R46*%
X13325000Y-43060000D03*
X13325000Y-42040000D03*
%TD*%
D19*
%TO.C,R31*%
X152965000Y-21000000D03*
X153985000Y-21000000D03*
%TD*%
%TO.C,R16*%
X142940000Y-9925000D03*
X143960000Y-9925000D03*
%TD*%
D13*
%TO.C,LED25*%
X68259695Y-32529774D03*
X63059695Y-32529774D03*
X63059695Y-33979774D03*
X68259695Y-33979774D03*
%TD*%
D20*
%TO.C,J6*%
X8800000Y-44575000D03*
X10050000Y-44575000D03*
X11300000Y-44575000D03*
D21*
X6250000Y-47475000D03*
X13850000Y-47475000D03*
%TD*%
D20*
%TO.C,J4*%
X181925000Y-22100000D03*
X180675000Y-22100000D03*
X179425000Y-22100000D03*
D21*
X184475000Y-19200000D03*
X176875000Y-19200000D03*
%TD*%
D18*
%TO.C,R39*%
X240275000Y-35635000D03*
X240275000Y-34615000D03*
%TD*%
D22*
%TO.C,U7*%
X239475000Y-39625000D03*
X239475000Y-40875000D03*
X239475000Y-42125000D03*
X239475000Y-43375000D03*
X240725000Y-39625000D03*
X240725000Y-40875000D03*
X240725000Y-42125000D03*
X240725000Y-43375000D03*
X241975000Y-39625000D03*
X241975000Y-40875000D03*
X241975000Y-42125000D03*
X241975000Y-43375000D03*
X243225000Y-39625000D03*
X243225000Y-40875000D03*
X243225000Y-42125000D03*
X243225000Y-43375000D03*
D23*
X237187500Y-38750000D03*
X237187500Y-39250000D03*
X237187500Y-39750000D03*
X237187500Y-40250000D03*
X237187500Y-40750000D03*
X237187500Y-41250000D03*
X237187500Y-41750000D03*
X237187500Y-42250000D03*
X237187500Y-42750000D03*
X237187500Y-43250000D03*
X237187500Y-43750000D03*
X237187500Y-44250000D03*
D24*
X238600000Y-45662500D03*
X239100000Y-45662500D03*
X239600000Y-45662500D03*
X240100000Y-45662500D03*
X240600000Y-45662500D03*
X241100000Y-45662500D03*
X241600000Y-45662500D03*
X242100000Y-45662500D03*
X242600000Y-45662500D03*
X243100000Y-45662500D03*
X243600000Y-45662500D03*
X244100000Y-45662500D03*
D23*
X245512500Y-44250000D03*
X245512500Y-43750000D03*
X245512500Y-43250000D03*
X245512500Y-42750000D03*
X245512500Y-42250000D03*
X245512500Y-41750000D03*
X245512500Y-41250000D03*
X245512500Y-40750000D03*
X245512500Y-40250000D03*
X245512500Y-39750000D03*
X245512500Y-39250000D03*
X245512500Y-38750000D03*
D24*
X244100000Y-37337500D03*
X243600000Y-37337500D03*
X243100000Y-37337500D03*
X242600000Y-37337500D03*
X242100000Y-37337500D03*
X241600000Y-37337500D03*
X241100000Y-37337500D03*
X240600000Y-37337500D03*
X240100000Y-37337500D03*
X239600000Y-37337500D03*
X239100000Y-37337500D03*
X238600000Y-37337500D03*
%TD*%
D18*
%TO.C,R40*%
X80550000Y-35635000D03*
X80550000Y-34615000D03*
%TD*%
D25*
%TO.C,L3*%
X170725000Y-11350000D03*
X172875000Y-11350000D03*
%TD*%
D19*
%TO.C,R22*%
X150740000Y-19802500D03*
X151760000Y-19802500D03*
%TD*%
D15*
%TO.C,R29*%
X167035000Y-8200000D03*
X166015000Y-8200000D03*
%TD*%
D26*
%TO.C,C10*%
X173025000Y-6375000D03*
X173025000Y-4475000D03*
%TD*%
D15*
%TO.C,R20*%
X149210000Y-17087500D03*
X148190000Y-17087500D03*
%TD*%
D19*
%TO.C,R25*%
X170315000Y-8200000D03*
X171335000Y-8200000D03*
%TD*%
D27*
%TO.C,U2*%
X167200000Y-14825000D03*
X167200000Y-16175000D03*
X168550000Y-14825000D03*
X168550000Y-16175000D03*
D28*
X165912500Y-14250000D03*
X165912500Y-14750000D03*
X165912500Y-15250000D03*
X165912500Y-15750000D03*
X165912500Y-16250000D03*
X165912500Y-16750000D03*
D29*
X166625000Y-17462500D03*
X167125000Y-17462500D03*
X167625000Y-17462500D03*
X168125000Y-17462500D03*
X168625000Y-17462500D03*
X169125000Y-17462500D03*
D28*
X169837500Y-16750000D03*
X169837500Y-16250000D03*
X169837500Y-15750000D03*
X169837500Y-15250000D03*
X169837500Y-14750000D03*
X169837500Y-14250000D03*
D29*
X169125000Y-13537500D03*
X168625000Y-13537500D03*
X168125000Y-13537500D03*
X167625000Y-13537500D03*
X167125000Y-13537500D03*
X166625000Y-13537500D03*
%TD*%
D14*
%TO.C,C16*%
X242750000Y-35630000D03*
X242750000Y-34670000D03*
%TD*%
D30*
%TO.C,D20*%
X176925000Y-41850000D03*
X174125000Y-41850000D03*
%TD*%
D31*
%TO.C,J5*%
X11550000Y-40575000D03*
X10550000Y-40575000D03*
X9550000Y-40575000D03*
X8550000Y-40575000D03*
D32*
X12850000Y-36700000D03*
X7250000Y-36700000D03*
%TD*%
D33*
%TO.C,R49*%
X79350000Y-34615000D03*
X79350000Y-35635000D03*
%TD*%
D30*
%TO.C,D22*%
X132325000Y-41850000D03*
X129525000Y-41850000D03*
%TD*%
D14*
%TO.C,C23*%
X87500000Y-41705000D03*
X87500000Y-40745000D03*
%TD*%
D34*
%TO.C,C29*%
X5350000Y-42750000D03*
X3800000Y-42750000D03*
%TD*%
D15*
%TO.C,R21*%
X149210000Y-18287500D03*
X148190000Y-18287500D03*
%TD*%
%TO.C,R2*%
X118885000Y-4950000D03*
X117865000Y-4950000D03*
%TD*%
D33*
%TO.C,R14*%
X168800000Y-18740000D03*
X168800000Y-19760000D03*
%TD*%
D35*
%TO.C,D27*%
X20650000Y-34650000D03*
X20650000Y-31850000D03*
%TD*%
D30*
%TO.C,D21*%
X157875000Y-41850000D03*
X155075000Y-41850000D03*
%TD*%
D36*
%TO.C,J7*%
X148575000Y-6150000D03*
X147775000Y-6150000D03*
D37*
X146625000Y-6150000D03*
X145625000Y-6150000D03*
X145125000Y-6150000D03*
X144125000Y-6150000D03*
D36*
X142175000Y-6150000D03*
X142975000Y-6150000D03*
D37*
X143625000Y-6150000D03*
X144625000Y-6150000D03*
X146125000Y-6150000D03*
X147125000Y-6150000D03*
%TD*%
D15*
%TO.C,R1*%
X118885000Y-6150000D03*
X117865000Y-6150000D03*
%TD*%
D38*
%TO.C,D123*%
X12050000Y-42300000D03*
X10650000Y-42300000D03*
%TD*%
D35*
%TO.C,D26*%
X38650000Y-34650000D03*
X38650000Y-31850000D03*
%TD*%
D19*
%TO.C,R5*%
X117815000Y-9375000D03*
X118835000Y-9375000D03*
%TD*%
D15*
%TO.C,R30*%
X151760000Y-21002500D03*
X150740000Y-21002500D03*
%TD*%
D39*
%TO.C,U3*%
X144375000Y-8667500D03*
X144875000Y-8667500D03*
D40*
X145375000Y-8667500D03*
D39*
X145875000Y-8667500D03*
X146375000Y-8667500D03*
X146375000Y-7832500D03*
X145875000Y-7832500D03*
D40*
X145375000Y-7832500D03*
D39*
X144875000Y-7832500D03*
X144375000Y-7832500D03*
%TD*%
D30*
%TO.C,D18*%
X215025000Y-41850000D03*
X212225000Y-41850000D03*
%TD*%
D15*
%TO.C,R15*%
X147810000Y-9925000D03*
X146790000Y-9925000D03*
%TD*%
D41*
%TO.C,C12*%
X166020000Y-3275000D03*
X166980000Y-3275000D03*
%TD*%
D13*
%TO.C,LED27*%
X32255195Y-32529774D03*
X27055195Y-32529774D03*
X27055195Y-33979774D03*
X32255195Y-33979774D03*
%TD*%
D19*
%TO.C,R43*%
X13265000Y-44200000D03*
X14285000Y-44200000D03*
%TD*%
D22*
%TO.C,U8*%
X79725000Y-39625000D03*
X79725000Y-40875000D03*
X79725000Y-42125000D03*
X79725000Y-43375000D03*
X80975000Y-39625000D03*
X80975000Y-40875000D03*
X80975000Y-42125000D03*
X80975000Y-43375000D03*
X82225000Y-39625000D03*
X82225000Y-40875000D03*
X82225000Y-42125000D03*
X82225000Y-43375000D03*
X83475000Y-39625000D03*
X83475000Y-40875000D03*
X83475000Y-42125000D03*
X83475000Y-43375000D03*
D23*
X77437500Y-38750000D03*
X77437500Y-39250000D03*
X77437500Y-39750000D03*
X77437500Y-40250000D03*
X77437500Y-40750000D03*
X77437500Y-41250000D03*
X77437500Y-41750000D03*
X77437500Y-42250000D03*
X77437500Y-42750000D03*
X77437500Y-43250000D03*
X77437500Y-43750000D03*
X77437500Y-44250000D03*
D24*
X78850000Y-45662500D03*
X79350000Y-45662500D03*
X79850000Y-45662500D03*
X80350000Y-45662500D03*
X80850000Y-45662500D03*
X81350000Y-45662500D03*
X81850000Y-45662500D03*
X82350000Y-45662500D03*
X82850000Y-45662500D03*
X83350000Y-45662500D03*
X83850000Y-45662500D03*
X84350000Y-45662500D03*
D23*
X85762500Y-44250000D03*
X85762500Y-43750000D03*
X85762500Y-43250000D03*
X85762500Y-42750000D03*
X85762500Y-42250000D03*
X85762500Y-41750000D03*
X85762500Y-41250000D03*
X85762500Y-40750000D03*
X85762500Y-40250000D03*
X85762500Y-39750000D03*
X85762500Y-39250000D03*
X85762500Y-38750000D03*
D24*
X84350000Y-37337500D03*
X83850000Y-37337500D03*
X83350000Y-37337500D03*
X82850000Y-37337500D03*
X82350000Y-37337500D03*
X81850000Y-37337500D03*
X81350000Y-37337500D03*
X80850000Y-37337500D03*
X80350000Y-37337500D03*
X79850000Y-37337500D03*
X79350000Y-37337500D03*
X78850000Y-37337500D03*
%TD*%
D33*
%TO.C,R42*%
X87500000Y-38640000D03*
X87500000Y-39660000D03*
%TD*%
D42*
%TO.C,C1*%
X104375000Y-12100000D03*
X104375000Y-13650000D03*
%TD*%
D15*
%TO.C,R4*%
X118885000Y-12950000D03*
X117865000Y-12950000D03*
%TD*%
%TO.C,R3*%
X118885000Y-14150000D03*
X117865000Y-14150000D03*
%TD*%
D43*
%TO.C,U4*%
X150525000Y-17487500D03*
X150525000Y-17887500D03*
D44*
X150650000Y-18512500D03*
X151050000Y-18512500D03*
X151450000Y-18512500D03*
X151850000Y-18512500D03*
D43*
X151975000Y-17887500D03*
X151975000Y-17487500D03*
D44*
X151850000Y-16862500D03*
X151450000Y-16862500D03*
X151050000Y-16862500D03*
X150650000Y-16862500D03*
%TD*%
D30*
%TO.C,D24*%
X94225000Y-41850000D03*
X91425000Y-41850000D03*
%TD*%
D45*
%TO.C,L2*%
X145775000Y-10050000D03*
X144975000Y-10050000D03*
X144975000Y-11900000D03*
X145775000Y-11900000D03*
%TD*%
D46*
%TO.C,C5*%
X164675000Y-12925000D03*
X164675000Y-11375000D03*
%TD*%
D19*
%TO.C,R24*%
X163890000Y-6625000D03*
X164910000Y-6625000D03*
%TD*%
D18*
%TO.C,R28*%
X153025000Y-16477500D03*
X153025000Y-15457500D03*
%TD*%
D15*
%TO.C,R12*%
X163155000Y-16112500D03*
X162135000Y-16112500D03*
%TD*%
D26*
%TO.C,C9*%
X171675000Y-15500000D03*
X171675000Y-13600000D03*
%TD*%
D33*
%TO.C,R38*%
X239075000Y-34615000D03*
X239075000Y-35635000D03*
%TD*%
D47*
%TO.C,Q1*%
X148225000Y-20162500D03*
X149525000Y-20662500D03*
X149525000Y-19662500D03*
%TD*%
D15*
%TO.C,R48*%
X20275000Y-44425000D03*
X19255000Y-44425000D03*
%TD*%
D48*
%TO.C,U5*%
X168285000Y-5255000D03*
X168285000Y-6195000D03*
X169065000Y-5255000D03*
X169065000Y-6195000D03*
D49*
X166525000Y-4750000D03*
D50*
X166525000Y-5400000D03*
X166525000Y-6050000D03*
X166525000Y-6700000D03*
X170825000Y-6700000D03*
X170825000Y-6050000D03*
X170825000Y-5400000D03*
X170825000Y-4750000D03*
%TD*%
D38*
%TO.C,D125*%
X18015000Y-44425000D03*
X16615000Y-44425000D03*
%TD*%
D51*
%TO.C,J3*%
X179175000Y-5050000D03*
X180675000Y-5050000D03*
X182175000Y-5050000D03*
D52*
X177225000Y-8700000D03*
X184125000Y-8700000D03*
%TD*%
D33*
%TO.C,R10*%
X167600000Y-18740000D03*
X167600000Y-19760000D03*
%TD*%
D53*
%TO.C,C28*%
X14750000Y-42750000D03*
X16300000Y-42750000D03*
%TD*%
D18*
%TO.C,R47*%
X6775000Y-43060000D03*
X6775000Y-42040000D03*
%TD*%
D35*
%TO.C,D25*%
X56650000Y-34650000D03*
X56650000Y-31850000D03*
%TD*%
D30*
%TO.C,D19*%
X195975000Y-41850000D03*
X193175000Y-41850000D03*
%TD*%
D15*
%TO.C,R45*%
X20275000Y-43275000D03*
X19255000Y-43275000D03*
%TD*%
D54*
%TO.C,C14*%
X245250000Y-36070000D03*
X245250000Y-37030000D03*
%TD*%
D12*
%TO.C,C3*%
X115125000Y-17225000D03*
X115125000Y-20175000D03*
%TD*%
D19*
%TO.C,R23*%
X163890000Y-7825000D03*
X164910000Y-7825000D03*
%TD*%
D14*
%TO.C,C26*%
X83000000Y-35630000D03*
X83000000Y-34670000D03*
%TD*%
D30*
%TO.C,D23*%
X113275000Y-41850000D03*
X110475000Y-41850000D03*
%TD*%
D19*
%TO.C,R6*%
X117815000Y-10575000D03*
X118835000Y-10575000D03*
%TD*%
D13*
%TO.C,LED26*%
X50257445Y-32529774D03*
X45057445Y-32529774D03*
X45057445Y-33979774D03*
X50257445Y-33979774D03*
%TD*%
D33*
%TO.C,R36*%
X237425000Y-34990000D03*
X237425000Y-36010000D03*
%TD*%
D14*
%TO.C,C25*%
X84200000Y-35630000D03*
X84200000Y-34670000D03*
%TD*%
D18*
%TO.C,R35*%
X166400000Y-19760000D03*
X166400000Y-18740000D03*
%TD*%
D53*
%TO.C,C30*%
X21640000Y-44375000D03*
X23190000Y-44375000D03*
%TD*%
D55*
%TO.C,C13*%
X156030000Y-20675000D03*
X155070000Y-20675000D03*
%TD*%
D14*
%TO.C,C17*%
X247250000Y-41625000D03*
X247250000Y-40665000D03*
%TD*%
D33*
%TO.C,R37*%
X247275000Y-38640000D03*
X247275000Y-39660000D03*
%TD*%
D56*
%TO.C,SW1*%
X18025000Y-46375000D03*
X21025000Y-46375000D03*
X22525000Y-46375000D03*
D57*
X16625000Y-47160000D03*
X16625000Y-49090000D03*
X23925000Y-47160000D03*
X23925000Y-49090000D03*
%TD*%
D54*
%TO.C,C19*%
X247250000Y-42850000D03*
X247250000Y-43810000D03*
%TD*%
D58*
%TO.C,U1*%
X106700000Y-4050000D03*
X106700000Y-5150000D03*
X106700000Y-5950000D03*
X106700000Y-7550000D03*
X107600000Y-7950000D03*
X106700000Y-8350000D03*
X107600000Y-8750000D03*
X106700000Y-9150000D03*
X107600000Y-9550000D03*
X106700000Y-9950000D03*
X107600000Y-10350000D03*
X106700000Y-10750000D03*
X107600000Y-11150000D03*
X106700000Y-11550000D03*
D59*
X106550000Y-14950000D03*
X107350000Y-14950000D03*
X108150000Y-14950000D03*
X108950000Y-14950000D03*
X109350000Y-14050000D03*
X109750000Y-14950000D03*
X110150000Y-14050000D03*
X110550000Y-14950000D03*
X110950000Y-14050000D03*
X111350000Y-14950000D03*
X111750000Y-14050000D03*
X112150000Y-14950000D03*
X112550000Y-14050000D03*
X112950000Y-14950000D03*
X113350000Y-14050000D03*
X113750000Y-14950000D03*
X114550000Y-14950000D03*
X115350000Y-14950000D03*
X116150000Y-14950000D03*
D58*
X116000000Y-13950000D03*
X116000000Y-13150000D03*
X115100000Y-12750000D03*
X116000000Y-12350000D03*
X115100000Y-11950000D03*
X116000000Y-11550000D03*
X115100000Y-11150000D03*
X116000000Y-10750000D03*
X115100000Y-10350000D03*
X115100000Y-9550000D03*
X116000000Y-9150000D03*
X115100000Y-8750000D03*
X116000000Y-8350000D03*
X115100000Y-7950000D03*
X116000000Y-7550000D03*
X115100000Y-7150000D03*
X115100000Y-6350000D03*
X116000000Y-5950000D03*
X115100000Y-5550000D03*
X116000000Y-5150000D03*
X115100000Y-4750000D03*
X116000000Y-4050000D03*
D59*
X109350000Y-8350000D03*
X110150000Y-8350000D03*
X110950000Y-8350000D03*
X111750000Y-8350000D03*
X112550000Y-8350000D03*
X113350000Y-8350000D03*
%TD*%
D41*
%TO.C,C11*%
X148670000Y-15912500D03*
X149630000Y-15912500D03*
%TD*%
%TO.C,C4*%
X168220000Y-12225000D03*
X169180000Y-12225000D03*
%TD*%
D54*
%TO.C,C27*%
X85500000Y-36070000D03*
X85500000Y-37030000D03*
%TD*%
D15*
%TO.C,R44*%
X6835000Y-44200000D03*
X5815000Y-44200000D03*
%TD*%
D19*
%TO.C,R34*%
X154490000Y-14675000D03*
X155510000Y-14675000D03*
%TD*%
%TO.C,R9*%
X164240000Y-18800000D03*
X165260000Y-18800000D03*
%TD*%
D18*
%TO.C,R8*%
X164300000Y-17710000D03*
X164300000Y-16690000D03*
%TD*%
D33*
%TO.C,R41*%
X77675000Y-36015000D03*
X77675000Y-37035000D03*
%TD*%
D18*
%TO.C,R17*%
X170000000Y-19760000D03*
X170000000Y-18740000D03*
%TD*%
D26*
%TO.C,C8*%
X166625000Y-11925000D03*
X166625000Y-10025000D03*
%TD*%
D33*
%TO.C,R26*%
X153025000Y-18907500D03*
X153025000Y-19927500D03*
%TD*%
D54*
%TO.C,C21*%
X87500000Y-42795000D03*
X87500000Y-43755000D03*
%TD*%
D15*
%TO.C,R27*%
X151760000Y-15450000D03*
X150740000Y-15450000D03*
%TD*%
M02*
