M48
; DRILL file KiCad 10.0.1 date 2026-04-22T17:25:46
; FORMAT={-:-/ absolute / metric / decimal}
; #@! TF.CreationDate,2026-04-22T17:25:46-04:00
; #@! TF.GenerationSoftware,Kicad,Pcbnew,10.0.1
; #@! TF.FileFunction,Plated,1,4,PTH
FMAT,2
METRIC
; #@! TA.AperFunction,Plated,PTH,ViaDrill
T1C0.250
; #@! TA.AperFunction,Plated,PTH,ViaDrill
T2C0.300
; #@! TA.AperFunction,Plated,PTH,ViaDrill
T3C0.450
; #@! TA.AperFunction,Plated,PTH,ComponentDrill
T4C0.600
; #@! TA.AperFunction,Plated,PTH,ComponentDrill
T5C1.270
; #@! TA.AperFunction,Plated,PTH,ComponentDrill
T6C4.400
%
G90
G05
T1
X1.0Y-24.85
X1.0Y-36.925
X1.0Y-49.0
X2.15Y-34.65
X2.525Y-35.15
X2.9Y-35.65
X3.45Y-41.8
X4.15Y-45.9
X5.3Y-44.2
X5.45Y-33.675
X6.275Y-38.012
X6.35Y-27.95
X6.835Y-43.6
X8.075Y-39.45
X8.375Y-43.625
X8.4Y-35.55
X8.8Y-30.5
X8.825Y-45.675
X9.05Y-31.825
X9.85Y-35.775
X10.05Y-42.3
X10.05Y-49.2
X12.375Y-43.05
X13.265Y-43.6
X13.375Y-39.875
X14.35Y-31.525
X14.375Y-36.025
X14.8Y-44.2
X15.9Y-45.775
X16.037Y-48.387
X16.325Y-42.0
X18.1Y-39.275
X18.2Y-35.775
X18.45Y-38.525
X18.75Y-43.275
X18.9Y-35.075
X19.0Y-32.55
X19.4Y-37.575
X20.275Y-27.825
X20.275Y-48.95
X20.287Y-29.912
X20.35Y-46.375
X20.65Y-35.85
X20.875Y-44.425
X21.0Y-24.85
X21.275Y-41.9
X23.25Y-39.2
X23.4Y-29.912
X23.4Y-31.85
X23.425Y-35.05
X23.95Y-44.375
X24.525Y-48.137
X27.05Y-30.65
X27.6Y-35.325
X27.7Y-36.45
X29.0Y-49.2
X31.125Y-39.35
X32.25Y-39.5
X32.25Y-40.85
X32.4Y-31.55
X33.95Y-39.5
X33.95Y-41.55
X34.65Y-42.925
X34.925Y-38.825
X35.95Y-31.6
X38.65Y-28.05
X38.65Y-29.9
X38.65Y-33.25
X38.65Y-35.85
X41.0Y-24.85
X41.387Y-29.925
X41.4Y-38.925
X41.413Y-31.85
X45.05Y-30.65
X45.6Y-35.325
X45.75Y-36.475
X48.4Y-43.3
X48.525Y-39.475
X49.0Y-49.2
X50.25Y-39.85
X50.25Y-41.55
X50.375Y-31.55
X51.95Y-39.85
X51.95Y-42.625
X54.05Y-31.75
X54.875Y-29.9
X56.25Y-27.8
X56.525Y-38.3
X56.65Y-33.25
X56.65Y-35.85
X59.0Y-29.9
X59.412Y-31.85
X61.0Y-24.85
X63.05Y-30.65
X63.6Y-35.325
X63.75Y-36.45
X66.275Y-44.225
X66.575Y-39.375
X67.725Y-39.5
X67.725Y-42.6
X68.25Y-36.425
X68.375Y-31.5
X69.0Y-49.2
X70.4Y-39.825
X71.225Y-39.025
X71.725Y-36.55
X71.9Y-35.85
X72.475Y-28.025
X73.75Y-33.075
X74.6Y-31.85
X74.675Y-33.975
X74.675Y-38.8
X75.325Y-45.6
X75.5Y-41.025
X75.8Y-41.75
X75.8Y-42.75
X75.925Y-36.325
X76.2Y-42.25
X76.2Y-43.75
X76.312Y-33.55
X76.45Y-39.7
X76.45Y-40.35
X76.575Y-29.775
X76.6Y-38.225
X76.975Y-30.275
X77.35Y-32.5
X77.375Y-30.775
X77.775Y-31.275
X77.975Y-27.925
X78.2Y-45.675
X78.2Y-46.55
X78.225Y-37.575
X78.55Y-35.075
X78.85Y-38.75
X78.85Y-41.5
X78.85Y-44.25
X79.375Y-33.225
X79.95Y-47.825
X80.175Y-47.125
X80.55Y-34.075
X80.725Y-32.9
X81.025Y-36.25
X81.075Y-32.375
X81.6Y-38.75
X81.6Y-44.25
X81.9Y-29.95
X82.35Y-23.6
X82.475Y-32.275
X82.475Y-32.9
X83.5Y-4.3
X83.5Y-12.05
X83.5Y-20.35
X83.925Y-33.65
X84.35Y-38.75
X84.35Y-41.5
X84.35Y-44.25
X84.9Y-37.025
X85.925Y-31.2
X86.125Y-46.65
X86.425Y-25.925
X88.3Y-37.6
X88.55Y-38.825
X88.725Y-42.225
X88.875Y-46.65
X88.9Y-44.1
X89.0Y-49.2
X90.525Y-44.525
X90.525Y-46.775
X90.975Y-28.8
X90.975Y-40.825
X91.15Y-4.3
X91.15Y-12.05
X91.4Y-36.475
X91.575Y-25.475
X91.925Y-29.85
X92.675Y-19.925
X93.425Y-40.75
X93.975Y-22.675
X94.85Y-30.625
X95.412Y-40.925
X95.45Y-42.275
X96.037Y-40.925
X96.25Y-28.675
X96.575Y-30.65
X96.625Y-42.975
X96.725Y-40.375
X97.625Y-44.175
X98.675Y-38.8
X98.725Y-25.475
X98.75Y-4.3
X100.25Y-30.625
X100.325Y-36.95
X100.35Y-12.05
X100.675Y-18.275
X103.625Y-13.625
X104.325Y-30.625
X104.35Y-36.95
X104.5Y-4.05
X104.5Y-5.15
X104.725Y-22.625
X105.45Y-14.95
X105.45Y-16.05
X105.6Y-4.05
X105.6Y-5.15
X106.55Y-16.05
X106.7Y-12.075
X106.7Y-25.475
X107.325Y-15.525
X107.375Y-44.1
X107.5Y-40.4
X107.725Y-4.05
X107.725Y-5.15
X107.775Y-30.8
X107.8Y-38.25
X107.975Y-15.525
X108.625Y-15.525
X108.8Y-4.05
X108.8Y-5.15
X108.9Y-6.75
X109.0Y-41.05
X109.0Y-49.2
X109.35Y-13.475
X109.55Y-9.3
X109.55Y-11.025
X109.55Y-12.75
X109.625Y-15.525
X110.025Y-28.8
X110.15Y-13.475
X110.35Y-21.45
X110.675Y-15.525
X110.95Y-13.475
X110.975Y-29.85
X111.35Y-4.05
X111.35Y-6.75
X111.35Y-9.3
X111.35Y-11.025
X111.35Y-12.75
X111.675Y-15.525
X111.95Y-36.1
X113.15Y-9.3
X113.15Y-11.025
X113.15Y-12.75
X113.475Y-39.2
X113.725Y-30.775
X113.8Y-6.75
X114.0Y-4.05
X114.0Y-5.15
X114.35Y-15.95
X114.425Y-41.275
X114.425Y-42.275
X114.5Y-11.15
X114.5Y-13.4
X114.95Y-28.575
X115.075Y-41.275
X115.212Y-14.125
X115.325Y-42.8
X115.675Y-30.75
X115.675Y-40.5
X115.8Y-6.75
X116.15Y-16.05
X116.5Y-17.8
X116.575Y-43.075
X116.7Y-25.475
X116.925Y-14.275
X117.1Y-4.05
X117.175Y-38.7
X117.25Y-14.95
X117.25Y-16.05
X118.2Y-4.05
X118.825Y-9.975
X118.887Y-6.987
X119.6Y-12.825
X119.6Y-14.3
X119.65Y-4.775
X120.05Y-8.8
X120.575Y-10.65
X120.675Y-12.425
X121.162Y-14.3
X121.175Y-12.05
X121.3Y-16.425
X121.3Y-17.825
X121.425Y-22.8
X121.75Y-12.375
X121.8Y-14.65
X122.175Y-22.95
X122.312Y-15.025
X122.475Y-7.275
X122.675Y-22.575
X122.775Y-9.3
X122.825Y-14.65
X122.95Y-11.375
X122.975Y-12.825
X123.025Y-24.025
X123.175Y-22.2
X123.5Y-16.425
X123.5Y-17.8
X123.512Y-14.237
X123.625Y-24.375
X124.0Y-12.4
X124.0Y-14.65
X124.0Y-22.9
X124.025Y-8.625
X124.225Y-24.0
X124.5Y-4.3
X124.65Y-12.4
X124.65Y-14.65
X124.725Y-23.625
X125.025Y-7.525
X125.125Y-12.825
X125.162Y-14.262
X125.25Y-16.425
X125.25Y-17.8
X125.65Y-12.4
X125.65Y-15.025
X125.675Y-22.275
X126.1Y-8.625
X126.15Y-12.025
X126.15Y-14.65
X126.175Y-10.775
X126.65Y-12.4
X126.65Y-15.025
X126.65Y-38.325
X126.7Y-25.475
X126.725Y-11.775
X127.0Y-40.875
X127.0Y-43.075
X127.1Y-30.675
X127.15Y-14.65
X127.65Y-15.025
X127.95Y-16.425
X127.95Y-17.825
X128.15Y-14.3
X128.375Y-41.525
X128.925Y-12.8
X129.0Y-49.2
X129.075Y-28.8
X129.85Y-14.3
X130.025Y-29.85
X130.85Y-12.8
X130.95Y-35.85
X131.0Y-26.875
X131.15Y-8.675
X131.25Y-4.3
X131.65Y-7.475
X131.75Y-14.3
X131.775Y-16.375
X132.675Y-17.725
X132.825Y-12.8
X132.95Y-30.275
X133.05Y-39.275
X133.95Y-14.3
X134.625Y-40.35
X134.65Y-32.775
X135.35Y-12.8
X136.225Y-11.975
X136.425Y-14.3
X136.55Y-27.125
X137.075Y-9.375
X137.4Y-37.712
X137.5Y-12.8
X137.95Y-23.0
X138.45Y-14.3
X138.475Y-36.15
X138.6Y-33.525
X138.8Y-1.0
X138.975Y-12.8
X139.425Y-33.9
X139.525Y-20.05
X139.85Y-6.575
X139.9Y-34.35
X140.225Y-17.775
X140.4Y-33.9
X140.425Y-14.3
X140.7Y-12.8
X140.775Y-37.225
X140.9Y-34.35
X142.0Y-3.0
X142.0Y-4.05
X142.15Y-17.875
X142.375Y-9.925
X142.525Y-12.8
X142.775Y-14.3
X142.825Y-4.3
X142.975Y-6.975
X143.35Y-3.0
X143.4Y-5.15
X143.4Y-28.425
X143.45Y-10.525
X143.5Y-39.25
X143.65Y-7.5
X143.862Y-44.637
X144.025Y-4.275
X144.387Y-12.8
X144.575Y-4.6
X144.7Y-3.0
X144.925Y-10.95
X144.95Y-14.25
X145.05Y-5.05
X145.375Y-4.1
X145.375Y-8.25
X145.7Y-5.05
X145.7Y-17.075
X145.75Y-21.425
X145.85Y-24.375
X146.0Y-34.35
X146.025Y-36.0
X146.05Y-3.0
X146.15Y-13.225
X146.175Y-4.6
X146.425Y-30.975
X146.45Y-10.675
X146.45Y-12.15
X146.5Y-33.975
X146.725Y-4.275
X146.925Y-7.425
X147.0Y-34.35
X147.3Y-10.525
X147.35Y-5.15
X147.4Y-3.0
X147.5Y-16.775
X147.5Y-33.975
X147.775Y-17.837
X147.925Y-4.3
X148.0Y-34.35
X148.125Y-10.675
X148.2Y-16.512
X148.35Y-19.25
X148.675Y-15.337
X148.75Y-3.0
X148.75Y-4.05
X148.875Y-20.162
X149.0Y-49.2
X149.525Y-35.2
X149.85Y-16.8
X149.9Y-19.287
X150.0Y-45.725
X150.25Y-20.662
X151.0Y-0.825
X151.0Y-4.875
X151.1Y-37.9
X151.3Y-42.975
X151.525Y-16.225
X151.75Y-12.45
X151.75Y-14.025
X152.125Y-16.0
X152.175Y-19.125
X152.375Y-21.0
X152.775Y-14.925
X153.475Y-20.3
X153.725Y-35.275
X153.8Y-12.45
X153.8Y-13.9
X153.8Y-37.925
X153.975Y-16.975
X153.975Y-18.375
X154.25Y-15.375
X154.675Y-28.975
X155.062Y-21.212
X155.25Y-15.325
X155.575Y-29.85
X155.8Y-17.575
X156.475Y-26.75
X156.475Y-41.925
X156.6Y-19.325
X156.9Y-20.3
X157.05Y-1.0
X157.35Y-22.35
X158.475Y-30.575
X158.575Y-39.9
X158.9Y-41.95
X159.375Y-41.5
X159.412Y-19.287
X159.85Y-28.975
X160.1Y-40.775
X160.125Y-37.65
X160.25Y-30.65
X160.675Y-41.2
X160.775Y-14.775
X160.775Y-16.25
X160.912Y-43.175
X162.225Y-20.625
X162.65Y-14.3
X162.825Y-2.65
X162.825Y-4.925
X163.225Y-16.9
X163.3Y-8.887
X163.325Y-6.65
X164.075Y-14.775
X164.24Y-18.225
X164.675Y-10.625
X164.775Y-19.462
X165.275Y-16.75
X165.4Y-7.525
X165.412Y-12.725
X165.6Y-10.025
X165.95Y-24.45
X166.0Y-17.825
X166.77Y-14.387
X166.77Y-15.487
X166.77Y-16.587
X166.975Y-2.65
X167.0Y-20.275
X167.6Y-8.2
X167.774Y-12.85
X167.87Y-14.387
X167.87Y-15.487
X167.87Y-16.587
X168.125Y-5.025
X168.125Y-6.425
X168.2Y-20.275
X168.25Y-10.925
X168.675Y-5.725
X168.725Y-18.095
X168.8Y-45.75
X168.97Y-14.387
X168.97Y-15.487
X168.97Y-16.587
X169.0Y-49.2
X169.225Y-5.025
X169.225Y-6.425
X169.4Y-20.275
X169.625Y-8.2
X170.3Y-14.062
X170.45Y-28.475
X170.512Y-14.612
X170.825Y-2.812
X170.838Y-13.512
X170.9Y-43.175
X170.95Y-14.25
X171.025Y-38.325
X171.137Y-40.9
X171.3Y-30.7
X171.325Y-7.525
X171.425Y-12.912
X171.55Y-14.25
X171.675Y-19.725
X171.925Y-4.875
X172.05Y-12.912
X172.05Y-41.3
X172.05Y-42.65
X172.137Y-14.25
X172.9Y-41.2
X173.5Y-29.175
X173.925Y-18.275
X174.625Y-29.85
X176.15Y-13.0
X176.225Y-8.075
X177.05Y-1.0
X177.125Y-11.0
X177.35Y-30.725
X177.45Y-39.325
X177.9Y-22.65
X177.975Y-13.0
X178.425Y-42.35
X178.575Y-40.95
X178.75Y-22.1
X179.0Y-30.575
X179.025Y-28.8
X179.1Y-37.7
X179.1Y-40.375
X179.2Y-20.175
X179.463Y-42.987
X181.9Y-24.45
X182.125Y-45.75
X183.075Y-22.1
X183.475Y-29.675
X183.775Y-13.012
X183.775Y-16.875
X184.875Y-10.85
X185.4Y-6.2
X186.575Y-29.675
X188.287Y-24.45
X189.0Y-49.2
X189.825Y-42.987
X190.15Y-8.812
X190.35Y-38.4
X190.55Y-40.425
X190.6Y-30.6
X190.775Y-28.925
X191.1Y-40.95
X191.1Y-43.0
X191.875Y-40.45
X191.925Y-36.925
X192.6Y-29.125
X193.075Y-12.925
X193.65Y-16.95
X193.675Y-29.85
X194.55Y-10.325
X195.25Y-13.0
X195.625Y-17.025
X196.525Y-30.6
X196.55Y-38.925
X197.0Y-13.0
X197.05Y-1.0
X197.475Y-42.275
X197.6Y-40.6
X198.05Y-28.9
X198.062Y-12.575
X198.1Y-30.6
X198.1Y-45.75
X198.112Y-37.788
X198.55Y-40.325
X199.05Y-6.175
X203.075Y-6.175
X204.225Y-10.3
X205.0Y-1.0
X208.625Y-8.812
X209.0Y-49.2
X209.3Y-12.575
X209.45Y-40.125
X209.525Y-38.35
X209.675Y-30.6
X209.825Y-28.975
X210.15Y-40.6
X210.15Y-43.325
X210.95Y-37.125
X211.1Y-40.075
X211.725Y-17.225
X211.725Y-29.125
X212.725Y-29.85
X214.7Y-38.15
X214.925Y-20.488
X215.05Y-16.225
X215.55Y-30.6
X216.4Y-6.175
X216.525Y-41.75
X216.65Y-39.725
X216.85Y-21.675
X217.15Y-14.1
X217.175Y-30.6
X217.3Y-39.35
X217.375Y-29.55
X217.775Y-25.5
X217.775Y-27.875
X218.0Y-45.75
X219.5Y-1.0
X220.1Y-10.287
X220.825Y-26.9
X220.825Y-28.925
X220.825Y-39.575
X221.5Y-15.625
X222.15Y-19.525
X222.65Y-23.85
X223.6Y-28.975
X223.6Y-39.575
X224.975Y-15.7
X225.1Y-21.4
X225.15Y-19.825
X225.4Y-24.65
X226.525Y-14.0
X226.7Y-19.925
X226.975Y-16.275
X227.4Y-22.25
X227.45Y-45.075
X228.175Y-8.787
X229.0Y-49.2
X229.075Y-6.175
X230.25Y-18.85
X230.95Y-20.925
X231.275Y-16.15
X231.512Y-29.112
X231.7Y-18.725
X232.5Y-24.775
X233.0Y-13.15
X233.05Y-39.575
X233.075Y-17.725
X233.075Y-20.175
X233.1Y-22.625
X234.2Y-45.075
X234.5Y-1.0
X234.975Y-34.0
X235.075Y-12.15
X235.2Y-19.15
X235.3Y-22.35
X235.45Y-32.85
X235.45Y-39.75
X235.45Y-41.75
X235.45Y-42.75
X235.45Y-43.75
X235.95Y-39.25
X235.95Y-40.25
X235.95Y-41.25
X235.95Y-42.25
X235.95Y-43.25
X235.95Y-46.8
X236.225Y-35.7
X236.425Y-44.625
X236.9Y-35.375
X238.2Y-45.675
X238.512Y-22.275
X238.6Y-38.75
X238.6Y-41.5
X238.6Y-44.25
X238.6Y-46.8
X238.825Y-31.75
X239.075Y-27.45
X239.45Y-46.725
X239.525Y-20.975
X239.525Y-22.025
X240.1Y-46.7
X240.175Y-20.975
X240.175Y-22.025
X240.275Y-8.0
X240.275Y-34.05
X240.725Y-46.7
X241.35Y-38.75
X241.35Y-44.25
X244.1Y-38.75
X244.1Y-41.5
X244.1Y-44.25
X244.525Y-34.125
X246.575Y-46.85
X246.95Y-36.325
X248.45Y-40.675
X249.0Y-1.0
X249.0Y-20.0
X249.0Y-49.0
T2
X137.5Y-15.05
T3
X82.35Y-46.755
X84.9Y-35.625
X87.5Y-42.25
X112.85Y-16.25
X113.3Y-15.625
X115.125Y-16.4
X165.45Y-3.95
X166.2Y-3.95
X172.662Y-15.1
X173.2Y-15.625
X173.737Y-15.1
X174.275Y-15.625
X174.812Y-15.1
X175.35Y-15.625
X242.1Y-46.755
X244.85Y-35.425
X247.25Y-42.25
T5
X92.825Y-39.155
X97.825Y-37.055
X111.875Y-39.155
X116.875Y-37.055
X130.925Y-39.155
X135.925Y-37.055
X156.473Y-39.155
X161.473Y-37.055
X175.523Y-39.155
X180.523Y-37.055
X194.573Y-39.155
X199.573Y-37.055
X213.623Y-39.155
X218.623Y-37.055
T6
X29.05Y-45.6
X229.55Y-33.45
T4
X141.055Y-1.8G85X141.055Y-1.0
G05
X141.055Y-6.13G85X141.055Y-5.03
G05
X149.695Y-1.8G85X149.695Y-1.0
G05
X149.695Y-6.13G85X149.695Y-5.03
G05
M30
