%TF.GenerationSoftware,KiCad,Pcbnew,10.0.1*%
%TF.CreationDate,2026-04-23T15:22:00-04:00*%
%TF.ProjectId,dev-board,6465762d-626f-4617-9264-2e6b69636164,rev?*%
%TF.SameCoordinates,PX1312d00PY13ab6680*%
%TF.FileFunction,Legend,Bot*%
%TF.FilePolarity,Positive*%
%FSLAX46Y46*%
G04 Gerber Fmt 4.6, Leading zero omitted, Abs format (unit mm)*
G04 Created by KiCad (PCBNEW 10.0.1) date 2026-04-23 15:22:00*
%MOMM*%
%LPD*%
G01*
G04 APERTURE LIST*
G04 Aperture macros list*
%AMRoundRect*
0 Rectangle with rounded corners*
0 $1 Rounding radius*
0 $2 $3 $4 $5 $6 $7 $8 $9 X,Y pos of 4 corners*
0 Add a 4 corners polygon primitive as box body*
4,1,4,$2,$3,$4,$5,$6,$7,$8,$9,$2,$3,0*
0 Add four circle primitives for the rounded corners*
1,1,$1+$1,$2,$3*
1,1,$1+$1,$4,$5*
1,1,$1+$1,$6,$7*
1,1,$1+$1,$8,$9*
0 Add four rect primitives between the rounded corners*
20,1,$1+$1,$2,$3,$4,$5,0*
20,1,$1+$1,$4,$5,$6,$7,0*
20,1,$1+$1,$6,$7,$8,$9,0*
20,1,$1+$1,$8,$9,$2,$3,0*%
G04 Aperture macros list end*
%ADD10C,0.150000*%
%ADD11C,0.120000*%
%ADD12C,0.140000*%
%ADD13C,0.010000*%
%ADD14C,2.500000*%
%ADD15C,2.400000*%
%ADD16C,0.650000*%
%ADD17O,1.050000X2.100000*%
%ADD18O,0.900000X1.800000*%
%ADD19C,2.374900*%
%ADD20C,0.990600*%
%ADD21C,0.900000*%
%ADD22RoundRect,0.100000X-0.350000X-0.300000X0.350000X-0.300000X0.350000X0.300000X-0.350000X0.300000X0*%
%ADD23RoundRect,0.135000X0.135000X0.185000X-0.135000X0.185000X-0.135000X-0.185000X0.135000X-0.185000X0*%
%ADD24C,6.500000*%
%ADD25RoundRect,0.250000X0.300000X-0.300000X0.300000X0.300000X-0.300000X0.300000X-0.300000X-0.300000X0*%
%ADD26RoundRect,0.135000X-0.185000X0.135000X-0.185000X-0.135000X0.185000X-0.135000X0.185000X0.135000X0*%
%ADD27RoundRect,0.250000X-0.300000X0.300000X-0.300000X-0.300000X0.300000X-0.300000X0.300000X0.300000X0*%
%ADD28RoundRect,0.218750X0.256250X-0.218750X0.256250X0.218750X-0.256250X0.218750X-0.256250X-0.218750X0*%
%ADD29RoundRect,0.140000X0.170000X-0.140000X0.170000X0.140000X-0.170000X0.140000X-0.170000X-0.140000X0*%
%ADD30C,1.701800*%
%ADD31C,3.429000*%
%ADD32RoundRect,0.100000X0.350000X0.300000X-0.350000X0.300000X-0.350000X-0.300000X0.350000X-0.300000X0*%
%ADD33RoundRect,0.135000X0.185000X-0.135000X0.185000X0.135000X-0.185000X0.135000X-0.185000X-0.135000X0*%
%ADD34RoundRect,0.140000X-0.170000X0.140000X-0.170000X-0.140000X0.170000X-0.140000X0.170000X0.140000X0*%
G04 APERTURE END LIST*
D10*
X10227380Y-41287295D02*
X10227380Y-40487295D01*
X10227380Y-40487295D02*
X10036904Y-40487295D01*
X10036904Y-40487295D02*
X9922618Y-40525390D01*
X9922618Y-40525390D02*
X9846428Y-40601580D01*
X9846428Y-40601580D02*
X9808333Y-40677771D01*
X9808333Y-40677771D02*
X9770237Y-40830152D01*
X9770237Y-40830152D02*
X9770237Y-40944438D01*
X9770237Y-40944438D02*
X9808333Y-41096819D01*
X9808333Y-41096819D02*
X9846428Y-41173009D01*
X9846428Y-41173009D02*
X9922618Y-41249200D01*
X9922618Y-41249200D02*
X10036904Y-41287295D01*
X10036904Y-41287295D02*
X10227380Y-41287295D01*
X9008333Y-41287295D02*
X9465476Y-41287295D01*
X9236904Y-41287295D02*
X9236904Y-40487295D01*
X9236904Y-40487295D02*
X9313095Y-40601580D01*
X9313095Y-40601580D02*
X9389285Y-40677771D01*
X9389285Y-40677771D02*
X9465476Y-40715866D01*
X8703571Y-40563485D02*
X8665475Y-40525390D01*
X8665475Y-40525390D02*
X8589285Y-40487295D01*
X8589285Y-40487295D02*
X8398809Y-40487295D01*
X8398809Y-40487295D02*
X8322618Y-40525390D01*
X8322618Y-40525390D02*
X8284523Y-40563485D01*
X8284523Y-40563485D02*
X8246428Y-40639676D01*
X8246428Y-40639676D02*
X8246428Y-40715866D01*
X8246428Y-40715866D02*
X8284523Y-40830152D01*
X8284523Y-40830152D02*
X8741666Y-41287295D01*
X8741666Y-41287295D02*
X8246428Y-41287295D01*
X7560713Y-40753961D02*
X7560713Y-41287295D01*
X7751189Y-40449200D02*
X7941666Y-41020628D01*
X7941666Y-41020628D02*
X7446427Y-41020628D01*
X13687295Y-41460714D02*
X13306342Y-41194047D01*
X13687295Y-41003571D02*
X12887295Y-41003571D01*
X12887295Y-41003571D02*
X12887295Y-41308333D01*
X12887295Y-41308333D02*
X12925390Y-41384523D01*
X12925390Y-41384523D02*
X12963485Y-41422618D01*
X12963485Y-41422618D02*
X13039676Y-41460714D01*
X13039676Y-41460714D02*
X13153961Y-41460714D01*
X13153961Y-41460714D02*
X13230152Y-41422618D01*
X13230152Y-41422618D02*
X13268247Y-41384523D01*
X13268247Y-41384523D02*
X13306342Y-41308333D01*
X13306342Y-41308333D02*
X13306342Y-41003571D01*
X13153961Y-42146428D02*
X13687295Y-42146428D01*
X12849200Y-41955952D02*
X13420628Y-41765475D01*
X13420628Y-41765475D02*
X13420628Y-42260714D01*
X12887295Y-42908333D02*
X12887295Y-42755952D01*
X12887295Y-42755952D02*
X12925390Y-42679761D01*
X12925390Y-42679761D02*
X12963485Y-42641666D01*
X12963485Y-42641666D02*
X13077771Y-42565476D01*
X13077771Y-42565476D02*
X13230152Y-42527380D01*
X13230152Y-42527380D02*
X13534914Y-42527380D01*
X13534914Y-42527380D02*
X13611104Y-42565476D01*
X13611104Y-42565476D02*
X13649200Y-42603571D01*
X13649200Y-42603571D02*
X13687295Y-42679761D01*
X13687295Y-42679761D02*
X13687295Y-42832142D01*
X13687295Y-42832142D02*
X13649200Y-42908333D01*
X13649200Y-42908333D02*
X13611104Y-42946428D01*
X13611104Y-42946428D02*
X13534914Y-42984523D01*
X13534914Y-42984523D02*
X13344438Y-42984523D01*
X13344438Y-42984523D02*
X13268247Y-42946428D01*
X13268247Y-42946428D02*
X13230152Y-42908333D01*
X13230152Y-42908333D02*
X13192057Y-42832142D01*
X13192057Y-42832142D02*
X13192057Y-42679761D01*
X13192057Y-42679761D02*
X13230152Y-42603571D01*
X13230152Y-42603571D02*
X13268247Y-42565476D01*
X13268247Y-42565476D02*
X13344438Y-42527380D01*
X12577380Y-44112295D02*
X12577380Y-43312295D01*
X12577380Y-43312295D02*
X12386904Y-43312295D01*
X12386904Y-43312295D02*
X12272618Y-43350390D01*
X12272618Y-43350390D02*
X12196428Y-43426580D01*
X12196428Y-43426580D02*
X12158333Y-43502771D01*
X12158333Y-43502771D02*
X12120237Y-43655152D01*
X12120237Y-43655152D02*
X12120237Y-43769438D01*
X12120237Y-43769438D02*
X12158333Y-43921819D01*
X12158333Y-43921819D02*
X12196428Y-43998009D01*
X12196428Y-43998009D02*
X12272618Y-44074200D01*
X12272618Y-44074200D02*
X12386904Y-44112295D01*
X12386904Y-44112295D02*
X12577380Y-44112295D01*
X11358333Y-44112295D02*
X11815476Y-44112295D01*
X11586904Y-44112295D02*
X11586904Y-43312295D01*
X11586904Y-43312295D02*
X11663095Y-43426580D01*
X11663095Y-43426580D02*
X11739285Y-43502771D01*
X11739285Y-43502771D02*
X11815476Y-43540866D01*
X11053571Y-43388485D02*
X11015475Y-43350390D01*
X11015475Y-43350390D02*
X10939285Y-43312295D01*
X10939285Y-43312295D02*
X10748809Y-43312295D01*
X10748809Y-43312295D02*
X10672618Y-43350390D01*
X10672618Y-43350390D02*
X10634523Y-43388485D01*
X10634523Y-43388485D02*
X10596428Y-43464676D01*
X10596428Y-43464676D02*
X10596428Y-43540866D01*
X10596428Y-43540866D02*
X10634523Y-43655152D01*
X10634523Y-43655152D02*
X11091666Y-44112295D01*
X11091666Y-44112295D02*
X10596428Y-44112295D01*
X10329761Y-43312295D02*
X9834523Y-43312295D01*
X9834523Y-43312295D02*
X10101189Y-43617057D01*
X10101189Y-43617057D02*
X9986904Y-43617057D01*
X9986904Y-43617057D02*
X9910713Y-43655152D01*
X9910713Y-43655152D02*
X9872618Y-43693247D01*
X9872618Y-43693247D02*
X9834523Y-43769438D01*
X9834523Y-43769438D02*
X9834523Y-43959914D01*
X9834523Y-43959914D02*
X9872618Y-44036104D01*
X9872618Y-44036104D02*
X9910713Y-44074200D01*
X9910713Y-44074200D02*
X9986904Y-44112295D01*
X9986904Y-44112295D02*
X10215475Y-44112295D01*
X10215475Y-44112295D02*
X10291666Y-44074200D01*
X10291666Y-44074200D02*
X10329761Y-44036104D01*
X18677380Y-43337295D02*
X18677380Y-42537295D01*
X18677380Y-42537295D02*
X18486904Y-42537295D01*
X18486904Y-42537295D02*
X18372618Y-42575390D01*
X18372618Y-42575390D02*
X18296428Y-42651580D01*
X18296428Y-42651580D02*
X18258333Y-42727771D01*
X18258333Y-42727771D02*
X18220237Y-42880152D01*
X18220237Y-42880152D02*
X18220237Y-42994438D01*
X18220237Y-42994438D02*
X18258333Y-43146819D01*
X18258333Y-43146819D02*
X18296428Y-43223009D01*
X18296428Y-43223009D02*
X18372618Y-43299200D01*
X18372618Y-43299200D02*
X18486904Y-43337295D01*
X18486904Y-43337295D02*
X18677380Y-43337295D01*
X17458333Y-43337295D02*
X17915476Y-43337295D01*
X17686904Y-43337295D02*
X17686904Y-42537295D01*
X17686904Y-42537295D02*
X17763095Y-42651580D01*
X17763095Y-42651580D02*
X17839285Y-42727771D01*
X17839285Y-42727771D02*
X17915476Y-42765866D01*
X17153571Y-42613485D02*
X17115475Y-42575390D01*
X17115475Y-42575390D02*
X17039285Y-42537295D01*
X17039285Y-42537295D02*
X16848809Y-42537295D01*
X16848809Y-42537295D02*
X16772618Y-42575390D01*
X16772618Y-42575390D02*
X16734523Y-42613485D01*
X16734523Y-42613485D02*
X16696428Y-42689676D01*
X16696428Y-42689676D02*
X16696428Y-42765866D01*
X16696428Y-42765866D02*
X16734523Y-42880152D01*
X16734523Y-42880152D02*
X17191666Y-43337295D01*
X17191666Y-43337295D02*
X16696428Y-43337295D01*
X15972618Y-42537295D02*
X16353570Y-42537295D01*
X16353570Y-42537295D02*
X16391666Y-42918247D01*
X16391666Y-42918247D02*
X16353570Y-42880152D01*
X16353570Y-42880152D02*
X16277380Y-42842057D01*
X16277380Y-42842057D02*
X16086904Y-42842057D01*
X16086904Y-42842057D02*
X16010713Y-42880152D01*
X16010713Y-42880152D02*
X15972618Y-42918247D01*
X15972618Y-42918247D02*
X15934523Y-42994438D01*
X15934523Y-42994438D02*
X15934523Y-43184914D01*
X15934523Y-43184914D02*
X15972618Y-43261104D01*
X15972618Y-43261104D02*
X16010713Y-43299200D01*
X16010713Y-43299200D02*
X16086904Y-43337295D01*
X16086904Y-43337295D02*
X16277380Y-43337295D01*
X16277380Y-43337295D02*
X16353570Y-43299200D01*
X16353570Y-43299200D02*
X16391666Y-43261104D01*
X7137295Y-41660714D02*
X6756342Y-41394047D01*
X7137295Y-41203571D02*
X6337295Y-41203571D01*
X6337295Y-41203571D02*
X6337295Y-41508333D01*
X6337295Y-41508333D02*
X6375390Y-41584523D01*
X6375390Y-41584523D02*
X6413485Y-41622618D01*
X6413485Y-41622618D02*
X6489676Y-41660714D01*
X6489676Y-41660714D02*
X6603961Y-41660714D01*
X6603961Y-41660714D02*
X6680152Y-41622618D01*
X6680152Y-41622618D02*
X6718247Y-41584523D01*
X6718247Y-41584523D02*
X6756342Y-41508333D01*
X6756342Y-41508333D02*
X6756342Y-41203571D01*
X6603961Y-42346428D02*
X7137295Y-42346428D01*
X6299200Y-42155952D02*
X6870628Y-41965475D01*
X6870628Y-41965475D02*
X6870628Y-42460714D01*
X6337295Y-42689285D02*
X6337295Y-43222619D01*
X6337295Y-43222619D02*
X7137295Y-42879761D01*
X176799140Y-26674795D02*
X177180092Y-26674795D01*
X177180092Y-26674795D02*
X177180092Y-25874795D01*
X176532473Y-26255747D02*
X176265807Y-26255747D01*
X176151521Y-26674795D02*
X176532473Y-26674795D01*
X176532473Y-26674795D02*
X176532473Y-25874795D01*
X176532473Y-25874795D02*
X176151521Y-25874795D01*
X175808663Y-26674795D02*
X175808663Y-25874795D01*
X175808663Y-25874795D02*
X175618187Y-25874795D01*
X175618187Y-25874795D02*
X175503901Y-25912890D01*
X175503901Y-25912890D02*
X175427711Y-25989080D01*
X175427711Y-25989080D02*
X175389616Y-26065271D01*
X175389616Y-26065271D02*
X175351520Y-26217652D01*
X175351520Y-26217652D02*
X175351520Y-26331938D01*
X175351520Y-26331938D02*
X175389616Y-26484319D01*
X175389616Y-26484319D02*
X175427711Y-26560509D01*
X175427711Y-26560509D02*
X175503901Y-26636700D01*
X175503901Y-26636700D02*
X175618187Y-26674795D01*
X175618187Y-26674795D02*
X175808663Y-26674795D01*
X175046759Y-25950985D02*
X175008663Y-25912890D01*
X175008663Y-25912890D02*
X174932473Y-25874795D01*
X174932473Y-25874795D02*
X174741997Y-25874795D01*
X174741997Y-25874795D02*
X174665806Y-25912890D01*
X174665806Y-25912890D02*
X174627711Y-25950985D01*
X174627711Y-25950985D02*
X174589616Y-26027176D01*
X174589616Y-26027176D02*
X174589616Y-26103366D01*
X174589616Y-26103366D02*
X174627711Y-26217652D01*
X174627711Y-26217652D02*
X175084854Y-26674795D01*
X175084854Y-26674795D02*
X174589616Y-26674795D01*
X174094377Y-25874795D02*
X174018187Y-25874795D01*
X174018187Y-25874795D02*
X173941996Y-25912890D01*
X173941996Y-25912890D02*
X173903901Y-25950985D01*
X173903901Y-25950985D02*
X173865806Y-26027176D01*
X173865806Y-26027176D02*
X173827711Y-26179557D01*
X173827711Y-26179557D02*
X173827711Y-26370033D01*
X173827711Y-26370033D02*
X173865806Y-26522414D01*
X173865806Y-26522414D02*
X173903901Y-26598604D01*
X173903901Y-26598604D02*
X173941996Y-26636700D01*
X173941996Y-26636700D02*
X174018187Y-26674795D01*
X174018187Y-26674795D02*
X174094377Y-26674795D01*
X174094377Y-26674795D02*
X174170568Y-26636700D01*
X174170568Y-26636700D02*
X174208663Y-26598604D01*
X174208663Y-26598604D02*
X174246758Y-26522414D01*
X174246758Y-26522414D02*
X174284854Y-26370033D01*
X174284854Y-26370033D02*
X174284854Y-26179557D01*
X174284854Y-26179557D02*
X174246758Y-26027176D01*
X174246758Y-26027176D02*
X174208663Y-25950985D01*
X174208663Y-25950985D02*
X174170568Y-25912890D01*
X174170568Y-25912890D02*
X174094377Y-25874795D01*
X214901190Y-26674795D02*
X215282142Y-26674795D01*
X215282142Y-26674795D02*
X215282142Y-25874795D01*
X214634523Y-26255747D02*
X214367857Y-26255747D01*
X214253571Y-26674795D02*
X214634523Y-26674795D01*
X214634523Y-26674795D02*
X214634523Y-25874795D01*
X214634523Y-25874795D02*
X214253571Y-25874795D01*
X213910713Y-26674795D02*
X213910713Y-25874795D01*
X213910713Y-25874795D02*
X213720237Y-25874795D01*
X213720237Y-25874795D02*
X213605951Y-25912890D01*
X213605951Y-25912890D02*
X213529761Y-25989080D01*
X213529761Y-25989080D02*
X213491666Y-26065271D01*
X213491666Y-26065271D02*
X213453570Y-26217652D01*
X213453570Y-26217652D02*
X213453570Y-26331938D01*
X213453570Y-26331938D02*
X213491666Y-26484319D01*
X213491666Y-26484319D02*
X213529761Y-26560509D01*
X213529761Y-26560509D02*
X213605951Y-26636700D01*
X213605951Y-26636700D02*
X213720237Y-26674795D01*
X213720237Y-26674795D02*
X213910713Y-26674795D01*
X212691666Y-26674795D02*
X213148809Y-26674795D01*
X212920237Y-26674795D02*
X212920237Y-25874795D01*
X212920237Y-25874795D02*
X212996428Y-25989080D01*
X212996428Y-25989080D02*
X213072618Y-26065271D01*
X213072618Y-26065271D02*
X213148809Y-26103366D01*
X212234523Y-26217652D02*
X212310713Y-26179557D01*
X212310713Y-26179557D02*
X212348808Y-26141461D01*
X212348808Y-26141461D02*
X212386904Y-26065271D01*
X212386904Y-26065271D02*
X212386904Y-26027176D01*
X212386904Y-26027176D02*
X212348808Y-25950985D01*
X212348808Y-25950985D02*
X212310713Y-25912890D01*
X212310713Y-25912890D02*
X212234523Y-25874795D01*
X212234523Y-25874795D02*
X212082142Y-25874795D01*
X212082142Y-25874795D02*
X212005951Y-25912890D01*
X212005951Y-25912890D02*
X211967856Y-25950985D01*
X211967856Y-25950985D02*
X211929761Y-26027176D01*
X211929761Y-26027176D02*
X211929761Y-26065271D01*
X211929761Y-26065271D02*
X211967856Y-26141461D01*
X211967856Y-26141461D02*
X212005951Y-26179557D01*
X212005951Y-26179557D02*
X212082142Y-26217652D01*
X212082142Y-26217652D02*
X212234523Y-26217652D01*
X212234523Y-26217652D02*
X212310713Y-26255747D01*
X212310713Y-26255747D02*
X212348808Y-26293842D01*
X212348808Y-26293842D02*
X212386904Y-26370033D01*
X212386904Y-26370033D02*
X212386904Y-26522414D01*
X212386904Y-26522414D02*
X212348808Y-26598604D01*
X212348808Y-26598604D02*
X212310713Y-26636700D01*
X212310713Y-26636700D02*
X212234523Y-26674795D01*
X212234523Y-26674795D02*
X212082142Y-26674795D01*
X212082142Y-26674795D02*
X212005951Y-26636700D01*
X212005951Y-26636700D02*
X211967856Y-26598604D01*
X211967856Y-26598604D02*
X211929761Y-26522414D01*
X211929761Y-26522414D02*
X211929761Y-26370033D01*
X211929761Y-26370033D02*
X211967856Y-26293842D01*
X211967856Y-26293842D02*
X212005951Y-26255747D01*
X212005951Y-26255747D02*
X212082142Y-26217652D01*
X167054285Y-17805296D02*
X167320952Y-17424343D01*
X167511428Y-17805296D02*
X167511428Y-17005296D01*
X167511428Y-17005296D02*
X167206666Y-17005296D01*
X167206666Y-17005296D02*
X167130476Y-17043391D01*
X167130476Y-17043391D02*
X167092381Y-17081486D01*
X167092381Y-17081486D02*
X167054285Y-17157677D01*
X167054285Y-17157677D02*
X167054285Y-17271962D01*
X167054285Y-17271962D02*
X167092381Y-17348153D01*
X167092381Y-17348153D02*
X167130476Y-17386248D01*
X167130476Y-17386248D02*
X167206666Y-17424343D01*
X167206666Y-17424343D02*
X167511428Y-17424343D01*
X166292381Y-17805296D02*
X166749524Y-17805296D01*
X166520952Y-17805296D02*
X166520952Y-17005296D01*
X166520952Y-17005296D02*
X166597143Y-17119581D01*
X166597143Y-17119581D02*
X166673333Y-17195772D01*
X166673333Y-17195772D02*
X166749524Y-17233867D01*
X165835238Y-17348153D02*
X165911428Y-17310058D01*
X165911428Y-17310058D02*
X165949523Y-17271962D01*
X165949523Y-17271962D02*
X165987619Y-17195772D01*
X165987619Y-17195772D02*
X165987619Y-17157677D01*
X165987619Y-17157677D02*
X165949523Y-17081486D01*
X165949523Y-17081486D02*
X165911428Y-17043391D01*
X165911428Y-17043391D02*
X165835238Y-17005296D01*
X165835238Y-17005296D02*
X165682857Y-17005296D01*
X165682857Y-17005296D02*
X165606666Y-17043391D01*
X165606666Y-17043391D02*
X165568571Y-17081486D01*
X165568571Y-17081486D02*
X165530476Y-17157677D01*
X165530476Y-17157677D02*
X165530476Y-17195772D01*
X165530476Y-17195772D02*
X165568571Y-17271962D01*
X165568571Y-17271962D02*
X165606666Y-17310058D01*
X165606666Y-17310058D02*
X165682857Y-17348153D01*
X165682857Y-17348153D02*
X165835238Y-17348153D01*
X165835238Y-17348153D02*
X165911428Y-17386248D01*
X165911428Y-17386248D02*
X165949523Y-17424343D01*
X165949523Y-17424343D02*
X165987619Y-17500534D01*
X165987619Y-17500534D02*
X165987619Y-17652915D01*
X165987619Y-17652915D02*
X165949523Y-17729105D01*
X165949523Y-17729105D02*
X165911428Y-17767201D01*
X165911428Y-17767201D02*
X165835238Y-17805296D01*
X165835238Y-17805296D02*
X165682857Y-17805296D01*
X165682857Y-17805296D02*
X165606666Y-17767201D01*
X165606666Y-17767201D02*
X165568571Y-17729105D01*
X165568571Y-17729105D02*
X165530476Y-17652915D01*
X165530476Y-17652915D02*
X165530476Y-17500534D01*
X165530476Y-17500534D02*
X165568571Y-17424343D01*
X165568571Y-17424343D02*
X165606666Y-17386248D01*
X165606666Y-17386248D02*
X165682857Y-17348153D01*
X22917295Y-32405571D02*
X22117295Y-32405571D01*
X22117295Y-32405571D02*
X22117295Y-32596047D01*
X22117295Y-32596047D02*
X22155390Y-32710333D01*
X22155390Y-32710333D02*
X22231580Y-32786523D01*
X22231580Y-32786523D02*
X22307771Y-32824618D01*
X22307771Y-32824618D02*
X22460152Y-32862714D01*
X22460152Y-32862714D02*
X22574438Y-32862714D01*
X22574438Y-32862714D02*
X22726819Y-32824618D01*
X22726819Y-32824618D02*
X22803009Y-32786523D01*
X22803009Y-32786523D02*
X22879200Y-32710333D01*
X22879200Y-32710333D02*
X22917295Y-32596047D01*
X22917295Y-32596047D02*
X22917295Y-32405571D01*
X22193485Y-33167475D02*
X22155390Y-33205571D01*
X22155390Y-33205571D02*
X22117295Y-33281761D01*
X22117295Y-33281761D02*
X22117295Y-33472237D01*
X22117295Y-33472237D02*
X22155390Y-33548428D01*
X22155390Y-33548428D02*
X22193485Y-33586523D01*
X22193485Y-33586523D02*
X22269676Y-33624618D01*
X22269676Y-33624618D02*
X22345866Y-33624618D01*
X22345866Y-33624618D02*
X22460152Y-33586523D01*
X22460152Y-33586523D02*
X22917295Y-33129380D01*
X22917295Y-33129380D02*
X22917295Y-33624618D01*
X22460152Y-34081761D02*
X22422057Y-34005571D01*
X22422057Y-34005571D02*
X22383961Y-33967476D01*
X22383961Y-33967476D02*
X22307771Y-33929380D01*
X22307771Y-33929380D02*
X22269676Y-33929380D01*
X22269676Y-33929380D02*
X22193485Y-33967476D01*
X22193485Y-33967476D02*
X22155390Y-34005571D01*
X22155390Y-34005571D02*
X22117295Y-34081761D01*
X22117295Y-34081761D02*
X22117295Y-34234142D01*
X22117295Y-34234142D02*
X22155390Y-34310333D01*
X22155390Y-34310333D02*
X22193485Y-34348428D01*
X22193485Y-34348428D02*
X22269676Y-34386523D01*
X22269676Y-34386523D02*
X22307771Y-34386523D01*
X22307771Y-34386523D02*
X22383961Y-34348428D01*
X22383961Y-34348428D02*
X22422057Y-34310333D01*
X22422057Y-34310333D02*
X22460152Y-34234142D01*
X22460152Y-34234142D02*
X22460152Y-34081761D01*
X22460152Y-34081761D02*
X22498247Y-34005571D01*
X22498247Y-34005571D02*
X22536342Y-33967476D01*
X22536342Y-33967476D02*
X22612533Y-33929380D01*
X22612533Y-33929380D02*
X22764914Y-33929380D01*
X22764914Y-33929380D02*
X22841104Y-33967476D01*
X22841104Y-33967476D02*
X22879200Y-34005571D01*
X22879200Y-34005571D02*
X22917295Y-34081761D01*
X22917295Y-34081761D02*
X22917295Y-34234142D01*
X22917295Y-34234142D02*
X22879200Y-34310333D01*
X22879200Y-34310333D02*
X22841104Y-34348428D01*
X22841104Y-34348428D02*
X22764914Y-34386523D01*
X22764914Y-34386523D02*
X22612533Y-34386523D01*
X22612533Y-34386523D02*
X22536342Y-34348428D01*
X22536342Y-34348428D02*
X22498247Y-34310333D01*
X22498247Y-34310333D02*
X22460152Y-34234142D01*
X132201185Y-26674795D02*
X132582137Y-26674795D01*
X132582137Y-26674795D02*
X132582137Y-25874795D01*
X131934518Y-26255747D02*
X131667852Y-26255747D01*
X131553566Y-26674795D02*
X131934518Y-26674795D01*
X131934518Y-26674795D02*
X131934518Y-25874795D01*
X131934518Y-25874795D02*
X131553566Y-25874795D01*
X131210708Y-26674795D02*
X131210708Y-25874795D01*
X131210708Y-25874795D02*
X131020232Y-25874795D01*
X131020232Y-25874795D02*
X130905946Y-25912890D01*
X130905946Y-25912890D02*
X130829756Y-25989080D01*
X130829756Y-25989080D02*
X130791661Y-26065271D01*
X130791661Y-26065271D02*
X130753565Y-26217652D01*
X130753565Y-26217652D02*
X130753565Y-26331938D01*
X130753565Y-26331938D02*
X130791661Y-26484319D01*
X130791661Y-26484319D02*
X130829756Y-26560509D01*
X130829756Y-26560509D02*
X130905946Y-26636700D01*
X130905946Y-26636700D02*
X131020232Y-26674795D01*
X131020232Y-26674795D02*
X131210708Y-26674795D01*
X130448804Y-25950985D02*
X130410708Y-25912890D01*
X130410708Y-25912890D02*
X130334518Y-25874795D01*
X130334518Y-25874795D02*
X130144042Y-25874795D01*
X130144042Y-25874795D02*
X130067851Y-25912890D01*
X130067851Y-25912890D02*
X130029756Y-25950985D01*
X130029756Y-25950985D02*
X129991661Y-26027176D01*
X129991661Y-26027176D02*
X129991661Y-26103366D01*
X129991661Y-26103366D02*
X130029756Y-26217652D01*
X130029756Y-26217652D02*
X130486899Y-26674795D01*
X130486899Y-26674795D02*
X129991661Y-26674795D01*
X129686899Y-25950985D02*
X129648803Y-25912890D01*
X129648803Y-25912890D02*
X129572613Y-25874795D01*
X129572613Y-25874795D02*
X129382137Y-25874795D01*
X129382137Y-25874795D02*
X129305946Y-25912890D01*
X129305946Y-25912890D02*
X129267851Y-25950985D01*
X129267851Y-25950985D02*
X129229756Y-26027176D01*
X129229756Y-26027176D02*
X129229756Y-26103366D01*
X129229756Y-26103366D02*
X129267851Y-26217652D01*
X129267851Y-26217652D02*
X129724994Y-26674795D01*
X129724994Y-26674795D02*
X129229756Y-26674795D01*
X114862295Y-14216667D02*
X114481342Y-13950000D01*
X114862295Y-13759524D02*
X114062295Y-13759524D01*
X114062295Y-13759524D02*
X114062295Y-14064286D01*
X114062295Y-14064286D02*
X114100390Y-14140476D01*
X114100390Y-14140476D02*
X114138485Y-14178571D01*
X114138485Y-14178571D02*
X114214676Y-14216667D01*
X114214676Y-14216667D02*
X114328961Y-14216667D01*
X114328961Y-14216667D02*
X114405152Y-14178571D01*
X114405152Y-14178571D02*
X114443247Y-14140476D01*
X114443247Y-14140476D02*
X114481342Y-14064286D01*
X114481342Y-14064286D02*
X114481342Y-13759524D01*
X114062295Y-14483333D02*
X114062295Y-15016667D01*
X114062295Y-15016667D02*
X114862295Y-14673809D01*
X143402380Y-7762295D02*
X143402380Y-6962295D01*
X143402380Y-6962295D02*
X143211904Y-6962295D01*
X143211904Y-6962295D02*
X143097618Y-7000390D01*
X143097618Y-7000390D02*
X143021428Y-7076580D01*
X143021428Y-7076580D02*
X142983333Y-7152771D01*
X142983333Y-7152771D02*
X142945237Y-7305152D01*
X142945237Y-7305152D02*
X142945237Y-7419438D01*
X142945237Y-7419438D02*
X142983333Y-7571819D01*
X142983333Y-7571819D02*
X143021428Y-7648009D01*
X143021428Y-7648009D02*
X143097618Y-7724200D01*
X143097618Y-7724200D02*
X143211904Y-7762295D01*
X143211904Y-7762295D02*
X143402380Y-7762295D01*
X142183333Y-7762295D02*
X142640476Y-7762295D01*
X142411904Y-7762295D02*
X142411904Y-6962295D01*
X142411904Y-6962295D02*
X142488095Y-7076580D01*
X142488095Y-7076580D02*
X142564285Y-7152771D01*
X142564285Y-7152771D02*
X142640476Y-7190866D01*
X141878571Y-7038485D02*
X141840475Y-7000390D01*
X141840475Y-7000390D02*
X141764285Y-6962295D01*
X141764285Y-6962295D02*
X141573809Y-6962295D01*
X141573809Y-6962295D02*
X141497618Y-7000390D01*
X141497618Y-7000390D02*
X141459523Y-7038485D01*
X141459523Y-7038485D02*
X141421428Y-7114676D01*
X141421428Y-7114676D02*
X141421428Y-7190866D01*
X141421428Y-7190866D02*
X141459523Y-7305152D01*
X141459523Y-7305152D02*
X141916666Y-7762295D01*
X141916666Y-7762295D02*
X141421428Y-7762295D01*
X141116666Y-7038485D02*
X141078570Y-7000390D01*
X141078570Y-7000390D02*
X141002380Y-6962295D01*
X141002380Y-6962295D02*
X140811904Y-6962295D01*
X140811904Y-6962295D02*
X140735713Y-7000390D01*
X140735713Y-7000390D02*
X140697618Y-7038485D01*
X140697618Y-7038485D02*
X140659523Y-7114676D01*
X140659523Y-7114676D02*
X140659523Y-7190866D01*
X140659523Y-7190866D02*
X140697618Y-7305152D01*
X140697618Y-7305152D02*
X141154761Y-7762295D01*
X141154761Y-7762295D02*
X140659523Y-7762295D01*
X31059523Y-26562295D02*
X31059523Y-25762295D01*
X31059523Y-25762295D02*
X30792857Y-26333723D01*
X30792857Y-26333723D02*
X30526190Y-25762295D01*
X30526190Y-25762295D02*
X30526190Y-26562295D01*
X30221428Y-25762295D02*
X29688094Y-26562295D01*
X29688094Y-25762295D02*
X30221428Y-26562295D01*
X29421428Y-25838485D02*
X29383332Y-25800390D01*
X29383332Y-25800390D02*
X29307142Y-25762295D01*
X29307142Y-25762295D02*
X29116666Y-25762295D01*
X29116666Y-25762295D02*
X29040475Y-25800390D01*
X29040475Y-25800390D02*
X29002380Y-25838485D01*
X29002380Y-25838485D02*
X28964285Y-25914676D01*
X28964285Y-25914676D02*
X28964285Y-25990866D01*
X28964285Y-25990866D02*
X29002380Y-26105152D01*
X29002380Y-26105152D02*
X29459523Y-26562295D01*
X29459523Y-26562295D02*
X28964285Y-26562295D01*
X28697618Y-25762295D02*
X28164284Y-25762295D01*
X28164284Y-25762295D02*
X28507142Y-26562295D01*
X195851190Y-26674795D02*
X196232142Y-26674795D01*
X196232142Y-26674795D02*
X196232142Y-25874795D01*
X195584523Y-26255747D02*
X195317857Y-26255747D01*
X195203571Y-26674795D02*
X195584523Y-26674795D01*
X195584523Y-26674795D02*
X195584523Y-25874795D01*
X195584523Y-25874795D02*
X195203571Y-25874795D01*
X194860713Y-26674795D02*
X194860713Y-25874795D01*
X194860713Y-25874795D02*
X194670237Y-25874795D01*
X194670237Y-25874795D02*
X194555951Y-25912890D01*
X194555951Y-25912890D02*
X194479761Y-25989080D01*
X194479761Y-25989080D02*
X194441666Y-26065271D01*
X194441666Y-26065271D02*
X194403570Y-26217652D01*
X194403570Y-26217652D02*
X194403570Y-26331938D01*
X194403570Y-26331938D02*
X194441666Y-26484319D01*
X194441666Y-26484319D02*
X194479761Y-26560509D01*
X194479761Y-26560509D02*
X194555951Y-26636700D01*
X194555951Y-26636700D02*
X194670237Y-26674795D01*
X194670237Y-26674795D02*
X194860713Y-26674795D01*
X193641666Y-26674795D02*
X194098809Y-26674795D01*
X193870237Y-26674795D02*
X193870237Y-25874795D01*
X193870237Y-25874795D02*
X193946428Y-25989080D01*
X193946428Y-25989080D02*
X194022618Y-26065271D01*
X194022618Y-26065271D02*
X194098809Y-26103366D01*
X193260713Y-26674795D02*
X193108332Y-26674795D01*
X193108332Y-26674795D02*
X193032142Y-26636700D01*
X193032142Y-26636700D02*
X192994046Y-26598604D01*
X192994046Y-26598604D02*
X192917856Y-26484319D01*
X192917856Y-26484319D02*
X192879761Y-26331938D01*
X192879761Y-26331938D02*
X192879761Y-26027176D01*
X192879761Y-26027176D02*
X192917856Y-25950985D01*
X192917856Y-25950985D02*
X192955951Y-25912890D01*
X192955951Y-25912890D02*
X193032142Y-25874795D01*
X193032142Y-25874795D02*
X193184523Y-25874795D01*
X193184523Y-25874795D02*
X193260713Y-25912890D01*
X193260713Y-25912890D02*
X193298808Y-25950985D01*
X193298808Y-25950985D02*
X193336904Y-26027176D01*
X193336904Y-26027176D02*
X193336904Y-26217652D01*
X193336904Y-26217652D02*
X193298808Y-26293842D01*
X193298808Y-26293842D02*
X193260713Y-26331938D01*
X193260713Y-26331938D02*
X193184523Y-26370033D01*
X193184523Y-26370033D02*
X193032142Y-26370033D01*
X193032142Y-26370033D02*
X192955951Y-26331938D01*
X192955951Y-26331938D02*
X192917856Y-26293842D01*
X192917856Y-26293842D02*
X192879761Y-26217652D01*
X147333333Y-3012295D02*
X147714285Y-3012295D01*
X147714285Y-3012295D02*
X147714285Y-2212295D01*
X146647619Y-3012295D02*
X147104762Y-3012295D01*
X146876190Y-3012295D02*
X146876190Y-2212295D01*
X146876190Y-2212295D02*
X146952381Y-2326580D01*
X146952381Y-2326580D02*
X147028571Y-2402771D01*
X147028571Y-2402771D02*
X147104762Y-2440866D01*
X244261104Y-45760714D02*
X244299200Y-45722618D01*
X244299200Y-45722618D02*
X244337295Y-45608333D01*
X244337295Y-45608333D02*
X244337295Y-45532142D01*
X244337295Y-45532142D02*
X244299200Y-45417856D01*
X244299200Y-45417856D02*
X244223009Y-45341666D01*
X244223009Y-45341666D02*
X244146819Y-45303571D01*
X244146819Y-45303571D02*
X243994438Y-45265475D01*
X243994438Y-45265475D02*
X243880152Y-45265475D01*
X243880152Y-45265475D02*
X243727771Y-45303571D01*
X243727771Y-45303571D02*
X243651580Y-45341666D01*
X243651580Y-45341666D02*
X243575390Y-45417856D01*
X243575390Y-45417856D02*
X243537295Y-45532142D01*
X243537295Y-45532142D02*
X243537295Y-45608333D01*
X243537295Y-45608333D02*
X243575390Y-45722618D01*
X243575390Y-45722618D02*
X243613485Y-45760714D01*
X244337295Y-46522618D02*
X244337295Y-46065475D01*
X244337295Y-46294047D02*
X243537295Y-46294047D01*
X243537295Y-46294047D02*
X243651580Y-46217856D01*
X243651580Y-46217856D02*
X243727771Y-46141666D01*
X243727771Y-46141666D02*
X243765866Y-46065475D01*
X243880152Y-46979761D02*
X243842057Y-46903571D01*
X243842057Y-46903571D02*
X243803961Y-46865476D01*
X243803961Y-46865476D02*
X243727771Y-46827380D01*
X243727771Y-46827380D02*
X243689676Y-46827380D01*
X243689676Y-46827380D02*
X243613485Y-46865476D01*
X243613485Y-46865476D02*
X243575390Y-46903571D01*
X243575390Y-46903571D02*
X243537295Y-46979761D01*
X243537295Y-46979761D02*
X243537295Y-47132142D01*
X243537295Y-47132142D02*
X243575390Y-47208333D01*
X243575390Y-47208333D02*
X243613485Y-47246428D01*
X243613485Y-47246428D02*
X243689676Y-47284523D01*
X243689676Y-47284523D02*
X243727771Y-47284523D01*
X243727771Y-47284523D02*
X243803961Y-47246428D01*
X243803961Y-47246428D02*
X243842057Y-47208333D01*
X243842057Y-47208333D02*
X243880152Y-47132142D01*
X243880152Y-47132142D02*
X243880152Y-46979761D01*
X243880152Y-46979761D02*
X243918247Y-46903571D01*
X243918247Y-46903571D02*
X243956342Y-46865476D01*
X243956342Y-46865476D02*
X244032533Y-46827380D01*
X244032533Y-46827380D02*
X244184914Y-46827380D01*
X244184914Y-46827380D02*
X244261104Y-46865476D01*
X244261104Y-46865476D02*
X244299200Y-46903571D01*
X244299200Y-46903571D02*
X244337295Y-46979761D01*
X244337295Y-46979761D02*
X244337295Y-47132142D01*
X244337295Y-47132142D02*
X244299200Y-47208333D01*
X244299200Y-47208333D02*
X244261104Y-47246428D01*
X244261104Y-47246428D02*
X244184914Y-47284523D01*
X244184914Y-47284523D02*
X244032533Y-47284523D01*
X244032533Y-47284523D02*
X243956342Y-47246428D01*
X243956342Y-47246428D02*
X243918247Y-47208333D01*
X243918247Y-47208333D02*
X243880152Y-47132142D01*
X13084523Y-26562295D02*
X13084523Y-25762295D01*
X13084523Y-25762295D02*
X12817857Y-26333723D01*
X12817857Y-26333723D02*
X12551190Y-25762295D01*
X12551190Y-25762295D02*
X12551190Y-26562295D01*
X12246428Y-25762295D02*
X11713094Y-26562295D01*
X11713094Y-25762295D02*
X12246428Y-26562295D01*
X11446428Y-25838485D02*
X11408332Y-25800390D01*
X11408332Y-25800390D02*
X11332142Y-25762295D01*
X11332142Y-25762295D02*
X11141666Y-25762295D01*
X11141666Y-25762295D02*
X11065475Y-25800390D01*
X11065475Y-25800390D02*
X11027380Y-25838485D01*
X11027380Y-25838485D02*
X10989285Y-25914676D01*
X10989285Y-25914676D02*
X10989285Y-25990866D01*
X10989285Y-25990866D02*
X11027380Y-26105152D01*
X11027380Y-26105152D02*
X11484523Y-26562295D01*
X11484523Y-26562295D02*
X10989285Y-26562295D01*
X10532142Y-26105152D02*
X10608332Y-26067057D01*
X10608332Y-26067057D02*
X10646427Y-26028961D01*
X10646427Y-26028961D02*
X10684523Y-25952771D01*
X10684523Y-25952771D02*
X10684523Y-25914676D01*
X10684523Y-25914676D02*
X10646427Y-25838485D01*
X10646427Y-25838485D02*
X10608332Y-25800390D01*
X10608332Y-25800390D02*
X10532142Y-25762295D01*
X10532142Y-25762295D02*
X10379761Y-25762295D01*
X10379761Y-25762295D02*
X10303570Y-25800390D01*
X10303570Y-25800390D02*
X10265475Y-25838485D01*
X10265475Y-25838485D02*
X10227380Y-25914676D01*
X10227380Y-25914676D02*
X10227380Y-25952771D01*
X10227380Y-25952771D02*
X10265475Y-26028961D01*
X10265475Y-26028961D02*
X10303570Y-26067057D01*
X10303570Y-26067057D02*
X10379761Y-26105152D01*
X10379761Y-26105152D02*
X10532142Y-26105152D01*
X10532142Y-26105152D02*
X10608332Y-26143247D01*
X10608332Y-26143247D02*
X10646427Y-26181342D01*
X10646427Y-26181342D02*
X10684523Y-26257533D01*
X10684523Y-26257533D02*
X10684523Y-26409914D01*
X10684523Y-26409914D02*
X10646427Y-26486104D01*
X10646427Y-26486104D02*
X10608332Y-26524200D01*
X10608332Y-26524200D02*
X10532142Y-26562295D01*
X10532142Y-26562295D02*
X10379761Y-26562295D01*
X10379761Y-26562295D02*
X10303570Y-26524200D01*
X10303570Y-26524200D02*
X10265475Y-26486104D01*
X10265475Y-26486104D02*
X10227380Y-26409914D01*
X10227380Y-26409914D02*
X10227380Y-26257533D01*
X10227380Y-26257533D02*
X10265475Y-26181342D01*
X10265475Y-26181342D02*
X10303570Y-26143247D01*
X10303570Y-26143247D02*
X10379761Y-26105152D01*
X80786104Y-45760714D02*
X80824200Y-45722618D01*
X80824200Y-45722618D02*
X80862295Y-45608333D01*
X80862295Y-45608333D02*
X80862295Y-45532142D01*
X80862295Y-45532142D02*
X80824200Y-45417856D01*
X80824200Y-45417856D02*
X80748009Y-45341666D01*
X80748009Y-45341666D02*
X80671819Y-45303571D01*
X80671819Y-45303571D02*
X80519438Y-45265475D01*
X80519438Y-45265475D02*
X80405152Y-45265475D01*
X80405152Y-45265475D02*
X80252771Y-45303571D01*
X80252771Y-45303571D02*
X80176580Y-45341666D01*
X80176580Y-45341666D02*
X80100390Y-45417856D01*
X80100390Y-45417856D02*
X80062295Y-45532142D01*
X80062295Y-45532142D02*
X80062295Y-45608333D01*
X80062295Y-45608333D02*
X80100390Y-45722618D01*
X80100390Y-45722618D02*
X80138485Y-45760714D01*
X80138485Y-46065475D02*
X80100390Y-46103571D01*
X80100390Y-46103571D02*
X80062295Y-46179761D01*
X80062295Y-46179761D02*
X80062295Y-46370237D01*
X80062295Y-46370237D02*
X80100390Y-46446428D01*
X80100390Y-46446428D02*
X80138485Y-46484523D01*
X80138485Y-46484523D02*
X80214676Y-46522618D01*
X80214676Y-46522618D02*
X80290866Y-46522618D01*
X80290866Y-46522618D02*
X80405152Y-46484523D01*
X80405152Y-46484523D02*
X80862295Y-46027380D01*
X80862295Y-46027380D02*
X80862295Y-46522618D01*
X80328961Y-47208333D02*
X80862295Y-47208333D01*
X80024200Y-47017857D02*
X80595628Y-46827380D01*
X80595628Y-46827380D02*
X80595628Y-47322619D01*
X113151185Y-26674795D02*
X113532137Y-26674795D01*
X113532137Y-26674795D02*
X113532137Y-25874795D01*
X112884518Y-26255747D02*
X112617852Y-26255747D01*
X112503566Y-26674795D02*
X112884518Y-26674795D01*
X112884518Y-26674795D02*
X112884518Y-25874795D01*
X112884518Y-25874795D02*
X112503566Y-25874795D01*
X112160708Y-26674795D02*
X112160708Y-25874795D01*
X112160708Y-25874795D02*
X111970232Y-25874795D01*
X111970232Y-25874795D02*
X111855946Y-25912890D01*
X111855946Y-25912890D02*
X111779756Y-25989080D01*
X111779756Y-25989080D02*
X111741661Y-26065271D01*
X111741661Y-26065271D02*
X111703565Y-26217652D01*
X111703565Y-26217652D02*
X111703565Y-26331938D01*
X111703565Y-26331938D02*
X111741661Y-26484319D01*
X111741661Y-26484319D02*
X111779756Y-26560509D01*
X111779756Y-26560509D02*
X111855946Y-26636700D01*
X111855946Y-26636700D02*
X111970232Y-26674795D01*
X111970232Y-26674795D02*
X112160708Y-26674795D01*
X111398804Y-25950985D02*
X111360708Y-25912890D01*
X111360708Y-25912890D02*
X111284518Y-25874795D01*
X111284518Y-25874795D02*
X111094042Y-25874795D01*
X111094042Y-25874795D02*
X111017851Y-25912890D01*
X111017851Y-25912890D02*
X110979756Y-25950985D01*
X110979756Y-25950985D02*
X110941661Y-26027176D01*
X110941661Y-26027176D02*
X110941661Y-26103366D01*
X110941661Y-26103366D02*
X110979756Y-26217652D01*
X110979756Y-26217652D02*
X111436899Y-26674795D01*
X111436899Y-26674795D02*
X110941661Y-26674795D01*
X110674994Y-25874795D02*
X110179756Y-25874795D01*
X110179756Y-25874795D02*
X110446422Y-26179557D01*
X110446422Y-26179557D02*
X110332137Y-26179557D01*
X110332137Y-26179557D02*
X110255946Y-26217652D01*
X110255946Y-26217652D02*
X110217851Y-26255747D01*
X110217851Y-26255747D02*
X110179756Y-26331938D01*
X110179756Y-26331938D02*
X110179756Y-26522414D01*
X110179756Y-26522414D02*
X110217851Y-26598604D01*
X110217851Y-26598604D02*
X110255946Y-26636700D01*
X110255946Y-26636700D02*
X110332137Y-26674795D01*
X110332137Y-26674795D02*
X110560708Y-26674795D01*
X110560708Y-26674795D02*
X110636899Y-26636700D01*
X110636899Y-26636700D02*
X110674994Y-26598604D01*
X240561104Y-45760714D02*
X240599200Y-45722618D01*
X240599200Y-45722618D02*
X240637295Y-45608333D01*
X240637295Y-45608333D02*
X240637295Y-45532142D01*
X240637295Y-45532142D02*
X240599200Y-45417856D01*
X240599200Y-45417856D02*
X240523009Y-45341666D01*
X240523009Y-45341666D02*
X240446819Y-45303571D01*
X240446819Y-45303571D02*
X240294438Y-45265475D01*
X240294438Y-45265475D02*
X240180152Y-45265475D01*
X240180152Y-45265475D02*
X240027771Y-45303571D01*
X240027771Y-45303571D02*
X239951580Y-45341666D01*
X239951580Y-45341666D02*
X239875390Y-45417856D01*
X239875390Y-45417856D02*
X239837295Y-45532142D01*
X239837295Y-45532142D02*
X239837295Y-45608333D01*
X239837295Y-45608333D02*
X239875390Y-45722618D01*
X239875390Y-45722618D02*
X239913485Y-45760714D01*
X239913485Y-46065475D02*
X239875390Y-46103571D01*
X239875390Y-46103571D02*
X239837295Y-46179761D01*
X239837295Y-46179761D02*
X239837295Y-46370237D01*
X239837295Y-46370237D02*
X239875390Y-46446428D01*
X239875390Y-46446428D02*
X239913485Y-46484523D01*
X239913485Y-46484523D02*
X239989676Y-46522618D01*
X239989676Y-46522618D02*
X240065866Y-46522618D01*
X240065866Y-46522618D02*
X240180152Y-46484523D01*
X240180152Y-46484523D02*
X240637295Y-46027380D01*
X240637295Y-46027380D02*
X240637295Y-46522618D01*
X239837295Y-47017857D02*
X239837295Y-47094047D01*
X239837295Y-47094047D02*
X239875390Y-47170238D01*
X239875390Y-47170238D02*
X239913485Y-47208333D01*
X239913485Y-47208333D02*
X239989676Y-47246428D01*
X239989676Y-47246428D02*
X240142057Y-47284523D01*
X240142057Y-47284523D02*
X240332533Y-47284523D01*
X240332533Y-47284523D02*
X240484914Y-47246428D01*
X240484914Y-47246428D02*
X240561104Y-47208333D01*
X240561104Y-47208333D02*
X240599200Y-47170238D01*
X240599200Y-47170238D02*
X240637295Y-47094047D01*
X240637295Y-47094047D02*
X240637295Y-47017857D01*
X240637295Y-47017857D02*
X240599200Y-46941666D01*
X240599200Y-46941666D02*
X240561104Y-46903571D01*
X240561104Y-46903571D02*
X240484914Y-46865476D01*
X240484914Y-46865476D02*
X240332533Y-46827380D01*
X240332533Y-46827380D02*
X240142057Y-46827380D01*
X240142057Y-46827380D02*
X239989676Y-46865476D01*
X239989676Y-46865476D02*
X239913485Y-46903571D01*
X239913485Y-46903571D02*
X239875390Y-46941666D01*
X239875390Y-46941666D02*
X239837295Y-47017857D01*
X107062295Y-15185714D02*
X106681342Y-14919047D01*
X107062295Y-14728571D02*
X106262295Y-14728571D01*
X106262295Y-14728571D02*
X106262295Y-15033333D01*
X106262295Y-15033333D02*
X106300390Y-15109523D01*
X106300390Y-15109523D02*
X106338485Y-15147618D01*
X106338485Y-15147618D02*
X106414676Y-15185714D01*
X106414676Y-15185714D02*
X106528961Y-15185714D01*
X106528961Y-15185714D02*
X106605152Y-15147618D01*
X106605152Y-15147618D02*
X106643247Y-15109523D01*
X106643247Y-15109523D02*
X106681342Y-15033333D01*
X106681342Y-15033333D02*
X106681342Y-14728571D01*
X106262295Y-15452380D02*
X106262295Y-15947618D01*
X106262295Y-15947618D02*
X106567057Y-15680952D01*
X106567057Y-15680952D02*
X106567057Y-15795237D01*
X106567057Y-15795237D02*
X106605152Y-15871428D01*
X106605152Y-15871428D02*
X106643247Y-15909523D01*
X106643247Y-15909523D02*
X106719438Y-15947618D01*
X106719438Y-15947618D02*
X106909914Y-15947618D01*
X106909914Y-15947618D02*
X106986104Y-15909523D01*
X106986104Y-15909523D02*
X107024200Y-15871428D01*
X107024200Y-15871428D02*
X107062295Y-15795237D01*
X107062295Y-15795237D02*
X107062295Y-15566666D01*
X107062295Y-15566666D02*
X107024200Y-15490475D01*
X107024200Y-15490475D02*
X106986104Y-15452380D01*
X106338485Y-16252380D02*
X106300390Y-16290476D01*
X106300390Y-16290476D02*
X106262295Y-16366666D01*
X106262295Y-16366666D02*
X106262295Y-16557142D01*
X106262295Y-16557142D02*
X106300390Y-16633333D01*
X106300390Y-16633333D02*
X106338485Y-16671428D01*
X106338485Y-16671428D02*
X106414676Y-16709523D01*
X106414676Y-16709523D02*
X106490866Y-16709523D01*
X106490866Y-16709523D02*
X106605152Y-16671428D01*
X106605152Y-16671428D02*
X107062295Y-16214285D01*
X107062295Y-16214285D02*
X107062295Y-16709523D01*
X67059523Y-26562295D02*
X67059523Y-25762295D01*
X67059523Y-25762295D02*
X66792857Y-26333723D01*
X66792857Y-26333723D02*
X66526190Y-25762295D01*
X66526190Y-25762295D02*
X66526190Y-26562295D01*
X66221428Y-25762295D02*
X65688094Y-26562295D01*
X65688094Y-25762295D02*
X66221428Y-26562295D01*
X65421428Y-25838485D02*
X65383332Y-25800390D01*
X65383332Y-25800390D02*
X65307142Y-25762295D01*
X65307142Y-25762295D02*
X65116666Y-25762295D01*
X65116666Y-25762295D02*
X65040475Y-25800390D01*
X65040475Y-25800390D02*
X65002380Y-25838485D01*
X65002380Y-25838485D02*
X64964285Y-25914676D01*
X64964285Y-25914676D02*
X64964285Y-25990866D01*
X64964285Y-25990866D02*
X65002380Y-26105152D01*
X65002380Y-26105152D02*
X65459523Y-26562295D01*
X65459523Y-26562295D02*
X64964285Y-26562295D01*
X64240475Y-25762295D02*
X64621427Y-25762295D01*
X64621427Y-25762295D02*
X64659523Y-26143247D01*
X64659523Y-26143247D02*
X64621427Y-26105152D01*
X64621427Y-26105152D02*
X64545237Y-26067057D01*
X64545237Y-26067057D02*
X64354761Y-26067057D01*
X64354761Y-26067057D02*
X64278570Y-26105152D01*
X64278570Y-26105152D02*
X64240475Y-26143247D01*
X64240475Y-26143247D02*
X64202380Y-26219438D01*
X64202380Y-26219438D02*
X64202380Y-26409914D01*
X64202380Y-26409914D02*
X64240475Y-26486104D01*
X64240475Y-26486104D02*
X64278570Y-26524200D01*
X64278570Y-26524200D02*
X64354761Y-26562295D01*
X64354761Y-26562295D02*
X64545237Y-26562295D01*
X64545237Y-26562295D02*
X64621427Y-26524200D01*
X64621427Y-26524200D02*
X64659523Y-26486104D01*
X196907143Y-15612295D02*
X197288095Y-15612295D01*
X197288095Y-15612295D02*
X197288095Y-14812295D01*
X196640476Y-15193247D02*
X196373810Y-15193247D01*
X196259524Y-15612295D02*
X196640476Y-15612295D01*
X196640476Y-15612295D02*
X196640476Y-14812295D01*
X196640476Y-14812295D02*
X196259524Y-14812295D01*
X195916666Y-15612295D02*
X195916666Y-14812295D01*
X195916666Y-14812295D02*
X195726190Y-14812295D01*
X195726190Y-14812295D02*
X195611904Y-14850390D01*
X195611904Y-14850390D02*
X195535714Y-14926580D01*
X195535714Y-14926580D02*
X195497619Y-15002771D01*
X195497619Y-15002771D02*
X195459523Y-15155152D01*
X195459523Y-15155152D02*
X195459523Y-15269438D01*
X195459523Y-15269438D02*
X195497619Y-15421819D01*
X195497619Y-15421819D02*
X195535714Y-15498009D01*
X195535714Y-15498009D02*
X195611904Y-15574200D01*
X195611904Y-15574200D02*
X195726190Y-15612295D01*
X195726190Y-15612295D02*
X195916666Y-15612295D01*
X194697619Y-15612295D02*
X195154762Y-15612295D01*
X194926190Y-15612295D02*
X194926190Y-14812295D01*
X194926190Y-14812295D02*
X195002381Y-14926580D01*
X195002381Y-14926580D02*
X195078571Y-15002771D01*
X195078571Y-15002771D02*
X195154762Y-15040866D01*
X194392857Y-14888485D02*
X194354761Y-14850390D01*
X194354761Y-14850390D02*
X194278571Y-14812295D01*
X194278571Y-14812295D02*
X194088095Y-14812295D01*
X194088095Y-14812295D02*
X194011904Y-14850390D01*
X194011904Y-14850390D02*
X193973809Y-14888485D01*
X193973809Y-14888485D02*
X193935714Y-14964676D01*
X193935714Y-14964676D02*
X193935714Y-15040866D01*
X193935714Y-15040866D02*
X193973809Y-15155152D01*
X193973809Y-15155152D02*
X194430952Y-15612295D01*
X194430952Y-15612295D02*
X193935714Y-15612295D01*
X193630952Y-14888485D02*
X193592856Y-14850390D01*
X193592856Y-14850390D02*
X193516666Y-14812295D01*
X193516666Y-14812295D02*
X193326190Y-14812295D01*
X193326190Y-14812295D02*
X193249999Y-14850390D01*
X193249999Y-14850390D02*
X193211904Y-14888485D01*
X193211904Y-14888485D02*
X193173809Y-14964676D01*
X193173809Y-14964676D02*
X193173809Y-15040866D01*
X193173809Y-15040866D02*
X193211904Y-15155152D01*
X193211904Y-15155152D02*
X193669047Y-15612295D01*
X193669047Y-15612295D02*
X193173809Y-15612295D01*
X177807143Y-15612295D02*
X178188095Y-15612295D01*
X178188095Y-15612295D02*
X178188095Y-14812295D01*
X177540476Y-15193247D02*
X177273810Y-15193247D01*
X177159524Y-15612295D02*
X177540476Y-15612295D01*
X177540476Y-15612295D02*
X177540476Y-14812295D01*
X177540476Y-14812295D02*
X177159524Y-14812295D01*
X176816666Y-15612295D02*
X176816666Y-14812295D01*
X176816666Y-14812295D02*
X176626190Y-14812295D01*
X176626190Y-14812295D02*
X176511904Y-14850390D01*
X176511904Y-14850390D02*
X176435714Y-14926580D01*
X176435714Y-14926580D02*
X176397619Y-15002771D01*
X176397619Y-15002771D02*
X176359523Y-15155152D01*
X176359523Y-15155152D02*
X176359523Y-15269438D01*
X176359523Y-15269438D02*
X176397619Y-15421819D01*
X176397619Y-15421819D02*
X176435714Y-15498009D01*
X176435714Y-15498009D02*
X176511904Y-15574200D01*
X176511904Y-15574200D02*
X176626190Y-15612295D01*
X176626190Y-15612295D02*
X176816666Y-15612295D01*
X175597619Y-15612295D02*
X176054762Y-15612295D01*
X175826190Y-15612295D02*
X175826190Y-14812295D01*
X175826190Y-14812295D02*
X175902381Y-14926580D01*
X175902381Y-14926580D02*
X175978571Y-15002771D01*
X175978571Y-15002771D02*
X176054762Y-15040866D01*
X175292857Y-14888485D02*
X175254761Y-14850390D01*
X175254761Y-14850390D02*
X175178571Y-14812295D01*
X175178571Y-14812295D02*
X174988095Y-14812295D01*
X174988095Y-14812295D02*
X174911904Y-14850390D01*
X174911904Y-14850390D02*
X174873809Y-14888485D01*
X174873809Y-14888485D02*
X174835714Y-14964676D01*
X174835714Y-14964676D02*
X174835714Y-15040866D01*
X174835714Y-15040866D02*
X174873809Y-15155152D01*
X174873809Y-15155152D02*
X175330952Y-15612295D01*
X175330952Y-15612295D02*
X174835714Y-15612295D01*
X174569047Y-14812295D02*
X174073809Y-14812295D01*
X174073809Y-14812295D02*
X174340475Y-15117057D01*
X174340475Y-15117057D02*
X174226190Y-15117057D01*
X174226190Y-15117057D02*
X174149999Y-15155152D01*
X174149999Y-15155152D02*
X174111904Y-15193247D01*
X174111904Y-15193247D02*
X174073809Y-15269438D01*
X174073809Y-15269438D02*
X174073809Y-15459914D01*
X174073809Y-15459914D02*
X174111904Y-15536104D01*
X174111904Y-15536104D02*
X174149999Y-15574200D01*
X174149999Y-15574200D02*
X174226190Y-15612295D01*
X174226190Y-15612295D02*
X174454761Y-15612295D01*
X174454761Y-15612295D02*
X174530952Y-15574200D01*
X174530952Y-15574200D02*
X174569047Y-15536104D01*
X105862295Y-15185714D02*
X105481342Y-14919047D01*
X105862295Y-14728571D02*
X105062295Y-14728571D01*
X105062295Y-14728571D02*
X105062295Y-15033333D01*
X105062295Y-15033333D02*
X105100390Y-15109523D01*
X105100390Y-15109523D02*
X105138485Y-15147618D01*
X105138485Y-15147618D02*
X105214676Y-15185714D01*
X105214676Y-15185714D02*
X105328961Y-15185714D01*
X105328961Y-15185714D02*
X105405152Y-15147618D01*
X105405152Y-15147618D02*
X105443247Y-15109523D01*
X105443247Y-15109523D02*
X105481342Y-15033333D01*
X105481342Y-15033333D02*
X105481342Y-14728571D01*
X105062295Y-15452380D02*
X105062295Y-15947618D01*
X105062295Y-15947618D02*
X105367057Y-15680952D01*
X105367057Y-15680952D02*
X105367057Y-15795237D01*
X105367057Y-15795237D02*
X105405152Y-15871428D01*
X105405152Y-15871428D02*
X105443247Y-15909523D01*
X105443247Y-15909523D02*
X105519438Y-15947618D01*
X105519438Y-15947618D02*
X105709914Y-15947618D01*
X105709914Y-15947618D02*
X105786104Y-15909523D01*
X105786104Y-15909523D02*
X105824200Y-15871428D01*
X105824200Y-15871428D02*
X105862295Y-15795237D01*
X105862295Y-15795237D02*
X105862295Y-15566666D01*
X105862295Y-15566666D02*
X105824200Y-15490475D01*
X105824200Y-15490475D02*
X105786104Y-15452380D01*
X105062295Y-16214285D02*
X105062295Y-16709523D01*
X105062295Y-16709523D02*
X105367057Y-16442857D01*
X105367057Y-16442857D02*
X105367057Y-16557142D01*
X105367057Y-16557142D02*
X105405152Y-16633333D01*
X105405152Y-16633333D02*
X105443247Y-16671428D01*
X105443247Y-16671428D02*
X105519438Y-16709523D01*
X105519438Y-16709523D02*
X105709914Y-16709523D01*
X105709914Y-16709523D02*
X105786104Y-16671428D01*
X105786104Y-16671428D02*
X105824200Y-16633333D01*
X105824200Y-16633333D02*
X105862295Y-16557142D01*
X105862295Y-16557142D02*
X105862295Y-16328571D01*
X105862295Y-16328571D02*
X105824200Y-16252380D01*
X105824200Y-16252380D02*
X105786104Y-16214285D01*
X84486104Y-45760714D02*
X84524200Y-45722618D01*
X84524200Y-45722618D02*
X84562295Y-45608333D01*
X84562295Y-45608333D02*
X84562295Y-45532142D01*
X84562295Y-45532142D02*
X84524200Y-45417856D01*
X84524200Y-45417856D02*
X84448009Y-45341666D01*
X84448009Y-45341666D02*
X84371819Y-45303571D01*
X84371819Y-45303571D02*
X84219438Y-45265475D01*
X84219438Y-45265475D02*
X84105152Y-45265475D01*
X84105152Y-45265475D02*
X83952771Y-45303571D01*
X83952771Y-45303571D02*
X83876580Y-45341666D01*
X83876580Y-45341666D02*
X83800390Y-45417856D01*
X83800390Y-45417856D02*
X83762295Y-45532142D01*
X83762295Y-45532142D02*
X83762295Y-45608333D01*
X83762295Y-45608333D02*
X83800390Y-45722618D01*
X83800390Y-45722618D02*
X83838485Y-45760714D01*
X83838485Y-46065475D02*
X83800390Y-46103571D01*
X83800390Y-46103571D02*
X83762295Y-46179761D01*
X83762295Y-46179761D02*
X83762295Y-46370237D01*
X83762295Y-46370237D02*
X83800390Y-46446428D01*
X83800390Y-46446428D02*
X83838485Y-46484523D01*
X83838485Y-46484523D02*
X83914676Y-46522618D01*
X83914676Y-46522618D02*
X83990866Y-46522618D01*
X83990866Y-46522618D02*
X84105152Y-46484523D01*
X84105152Y-46484523D02*
X84562295Y-46027380D01*
X84562295Y-46027380D02*
X84562295Y-46522618D01*
X83838485Y-46827380D02*
X83800390Y-46865476D01*
X83800390Y-46865476D02*
X83762295Y-46941666D01*
X83762295Y-46941666D02*
X83762295Y-47132142D01*
X83762295Y-47132142D02*
X83800390Y-47208333D01*
X83800390Y-47208333D02*
X83838485Y-47246428D01*
X83838485Y-47246428D02*
X83914676Y-47284523D01*
X83914676Y-47284523D02*
X83990866Y-47284523D01*
X83990866Y-47284523D02*
X84105152Y-47246428D01*
X84105152Y-47246428D02*
X84562295Y-46789285D01*
X84562295Y-46789285D02*
X84562295Y-47284523D01*
X157751190Y-26674795D02*
X158132142Y-26674795D01*
X158132142Y-26674795D02*
X158132142Y-25874795D01*
X157484523Y-26255747D02*
X157217857Y-26255747D01*
X157103571Y-26674795D02*
X157484523Y-26674795D01*
X157484523Y-26674795D02*
X157484523Y-25874795D01*
X157484523Y-25874795D02*
X157103571Y-25874795D01*
X156760713Y-26674795D02*
X156760713Y-25874795D01*
X156760713Y-25874795D02*
X156570237Y-25874795D01*
X156570237Y-25874795D02*
X156455951Y-25912890D01*
X156455951Y-25912890D02*
X156379761Y-25989080D01*
X156379761Y-25989080D02*
X156341666Y-26065271D01*
X156341666Y-26065271D02*
X156303570Y-26217652D01*
X156303570Y-26217652D02*
X156303570Y-26331938D01*
X156303570Y-26331938D02*
X156341666Y-26484319D01*
X156341666Y-26484319D02*
X156379761Y-26560509D01*
X156379761Y-26560509D02*
X156455951Y-26636700D01*
X156455951Y-26636700D02*
X156570237Y-26674795D01*
X156570237Y-26674795D02*
X156760713Y-26674795D01*
X155998809Y-25950985D02*
X155960713Y-25912890D01*
X155960713Y-25912890D02*
X155884523Y-25874795D01*
X155884523Y-25874795D02*
X155694047Y-25874795D01*
X155694047Y-25874795D02*
X155617856Y-25912890D01*
X155617856Y-25912890D02*
X155579761Y-25950985D01*
X155579761Y-25950985D02*
X155541666Y-26027176D01*
X155541666Y-26027176D02*
X155541666Y-26103366D01*
X155541666Y-26103366D02*
X155579761Y-26217652D01*
X155579761Y-26217652D02*
X156036904Y-26674795D01*
X156036904Y-26674795D02*
X155541666Y-26674795D01*
X154779761Y-26674795D02*
X155236904Y-26674795D01*
X155008332Y-26674795D02*
X155008332Y-25874795D01*
X155008332Y-25874795D02*
X155084523Y-25989080D01*
X155084523Y-25989080D02*
X155160713Y-26065271D01*
X155160713Y-26065271D02*
X155236904Y-26103366D01*
X49059523Y-26562295D02*
X49059523Y-25762295D01*
X49059523Y-25762295D02*
X48792857Y-26333723D01*
X48792857Y-26333723D02*
X48526190Y-25762295D01*
X48526190Y-25762295D02*
X48526190Y-26562295D01*
X48221428Y-25762295D02*
X47688094Y-26562295D01*
X47688094Y-25762295D02*
X48221428Y-26562295D01*
X47421428Y-25838485D02*
X47383332Y-25800390D01*
X47383332Y-25800390D02*
X47307142Y-25762295D01*
X47307142Y-25762295D02*
X47116666Y-25762295D01*
X47116666Y-25762295D02*
X47040475Y-25800390D01*
X47040475Y-25800390D02*
X47002380Y-25838485D01*
X47002380Y-25838485D02*
X46964285Y-25914676D01*
X46964285Y-25914676D02*
X46964285Y-25990866D01*
X46964285Y-25990866D02*
X47002380Y-26105152D01*
X47002380Y-26105152D02*
X47459523Y-26562295D01*
X47459523Y-26562295D02*
X46964285Y-26562295D01*
X46278570Y-25762295D02*
X46430951Y-25762295D01*
X46430951Y-25762295D02*
X46507142Y-25800390D01*
X46507142Y-25800390D02*
X46545237Y-25838485D01*
X46545237Y-25838485D02*
X46621427Y-25952771D01*
X46621427Y-25952771D02*
X46659523Y-26105152D01*
X46659523Y-26105152D02*
X46659523Y-26409914D01*
X46659523Y-26409914D02*
X46621427Y-26486104D01*
X46621427Y-26486104D02*
X46583332Y-26524200D01*
X46583332Y-26524200D02*
X46507142Y-26562295D01*
X46507142Y-26562295D02*
X46354761Y-26562295D01*
X46354761Y-26562295D02*
X46278570Y-26524200D01*
X46278570Y-26524200D02*
X46240475Y-26486104D01*
X46240475Y-26486104D02*
X46202380Y-26409914D01*
X46202380Y-26409914D02*
X46202380Y-26219438D01*
X46202380Y-26219438D02*
X46240475Y-26143247D01*
X46240475Y-26143247D02*
X46278570Y-26105152D01*
X46278570Y-26105152D02*
X46354761Y-26067057D01*
X46354761Y-26067057D02*
X46507142Y-26067057D01*
X46507142Y-26067057D02*
X46583332Y-26105152D01*
X46583332Y-26105152D02*
X46621427Y-26143247D01*
X46621427Y-26143247D02*
X46659523Y-26219438D01*
X168516104Y-16285714D02*
X168554200Y-16247618D01*
X168554200Y-16247618D02*
X168592295Y-16133333D01*
X168592295Y-16133333D02*
X168592295Y-16057142D01*
X168592295Y-16057142D02*
X168554200Y-15942856D01*
X168554200Y-15942856D02*
X168478009Y-15866666D01*
X168478009Y-15866666D02*
X168401819Y-15828571D01*
X168401819Y-15828571D02*
X168249438Y-15790475D01*
X168249438Y-15790475D02*
X168135152Y-15790475D01*
X168135152Y-15790475D02*
X167982771Y-15828571D01*
X167982771Y-15828571D02*
X167906580Y-15866666D01*
X167906580Y-15866666D02*
X167830390Y-15942856D01*
X167830390Y-15942856D02*
X167792295Y-16057142D01*
X167792295Y-16057142D02*
X167792295Y-16133333D01*
X167792295Y-16133333D02*
X167830390Y-16247618D01*
X167830390Y-16247618D02*
X167868485Y-16285714D01*
X167792295Y-16552380D02*
X167792295Y-17047618D01*
X167792295Y-17047618D02*
X168097057Y-16780952D01*
X168097057Y-16780952D02*
X168097057Y-16895237D01*
X168097057Y-16895237D02*
X168135152Y-16971428D01*
X168135152Y-16971428D02*
X168173247Y-17009523D01*
X168173247Y-17009523D02*
X168249438Y-17047618D01*
X168249438Y-17047618D02*
X168439914Y-17047618D01*
X168439914Y-17047618D02*
X168516104Y-17009523D01*
X168516104Y-17009523D02*
X168554200Y-16971428D01*
X168554200Y-16971428D02*
X168592295Y-16895237D01*
X168592295Y-16895237D02*
X168592295Y-16666666D01*
X168592295Y-16666666D02*
X168554200Y-16590475D01*
X168554200Y-16590475D02*
X168516104Y-16552380D01*
X168592295Y-17809523D02*
X168592295Y-17352380D01*
X168592295Y-17580952D02*
X167792295Y-17580952D01*
X167792295Y-17580952D02*
X167906580Y-17504761D01*
X167906580Y-17504761D02*
X167982771Y-17428571D01*
X167982771Y-17428571D02*
X168020866Y-17352380D01*
X169221104Y-11716667D02*
X169259200Y-11678571D01*
X169259200Y-11678571D02*
X169297295Y-11564286D01*
X169297295Y-11564286D02*
X169297295Y-11488095D01*
X169297295Y-11488095D02*
X169259200Y-11373809D01*
X169259200Y-11373809D02*
X169183009Y-11297619D01*
X169183009Y-11297619D02*
X169106819Y-11259524D01*
X169106819Y-11259524D02*
X168954438Y-11221428D01*
X168954438Y-11221428D02*
X168840152Y-11221428D01*
X168840152Y-11221428D02*
X168687771Y-11259524D01*
X168687771Y-11259524D02*
X168611580Y-11297619D01*
X168611580Y-11297619D02*
X168535390Y-11373809D01*
X168535390Y-11373809D02*
X168497295Y-11488095D01*
X168497295Y-11488095D02*
X168497295Y-11564286D01*
X168497295Y-11564286D02*
X168535390Y-11678571D01*
X168535390Y-11678571D02*
X168573485Y-11716667D01*
X168497295Y-11983333D02*
X168497295Y-12516667D01*
X168497295Y-12516667D02*
X169297295Y-12173809D01*
X94101190Y-26674795D02*
X94482142Y-26674795D01*
X94482142Y-26674795D02*
X94482142Y-25874795D01*
X93834523Y-26255747D02*
X93567857Y-26255747D01*
X93453571Y-26674795D02*
X93834523Y-26674795D01*
X93834523Y-26674795D02*
X93834523Y-25874795D01*
X93834523Y-25874795D02*
X93453571Y-25874795D01*
X93110713Y-26674795D02*
X93110713Y-25874795D01*
X93110713Y-25874795D02*
X92920237Y-25874795D01*
X92920237Y-25874795D02*
X92805951Y-25912890D01*
X92805951Y-25912890D02*
X92729761Y-25989080D01*
X92729761Y-25989080D02*
X92691666Y-26065271D01*
X92691666Y-26065271D02*
X92653570Y-26217652D01*
X92653570Y-26217652D02*
X92653570Y-26331938D01*
X92653570Y-26331938D02*
X92691666Y-26484319D01*
X92691666Y-26484319D02*
X92729761Y-26560509D01*
X92729761Y-26560509D02*
X92805951Y-26636700D01*
X92805951Y-26636700D02*
X92920237Y-26674795D01*
X92920237Y-26674795D02*
X93110713Y-26674795D01*
X92348809Y-25950985D02*
X92310713Y-25912890D01*
X92310713Y-25912890D02*
X92234523Y-25874795D01*
X92234523Y-25874795D02*
X92044047Y-25874795D01*
X92044047Y-25874795D02*
X91967856Y-25912890D01*
X91967856Y-25912890D02*
X91929761Y-25950985D01*
X91929761Y-25950985D02*
X91891666Y-26027176D01*
X91891666Y-26027176D02*
X91891666Y-26103366D01*
X91891666Y-26103366D02*
X91929761Y-26217652D01*
X91929761Y-26217652D02*
X92386904Y-26674795D01*
X92386904Y-26674795D02*
X91891666Y-26674795D01*
X91205951Y-26141461D02*
X91205951Y-26674795D01*
X91396427Y-25836700D02*
X91586904Y-26408128D01*
X91586904Y-26408128D02*
X91091665Y-26408128D01*
X169722295Y-16285714D02*
X169341342Y-16019047D01*
X169722295Y-15828571D02*
X168922295Y-15828571D01*
X168922295Y-15828571D02*
X168922295Y-16133333D01*
X168922295Y-16133333D02*
X168960390Y-16209523D01*
X168960390Y-16209523D02*
X168998485Y-16247618D01*
X168998485Y-16247618D02*
X169074676Y-16285714D01*
X169074676Y-16285714D02*
X169188961Y-16285714D01*
X169188961Y-16285714D02*
X169265152Y-16247618D01*
X169265152Y-16247618D02*
X169303247Y-16209523D01*
X169303247Y-16209523D02*
X169341342Y-16133333D01*
X169341342Y-16133333D02*
X169341342Y-15828571D01*
X169722295Y-17047618D02*
X169722295Y-16590475D01*
X169722295Y-16819047D02*
X168922295Y-16819047D01*
X168922295Y-16819047D02*
X169036580Y-16742856D01*
X169036580Y-16742856D02*
X169112771Y-16666666D01*
X169112771Y-16666666D02*
X169150866Y-16590475D01*
X169722295Y-17428571D02*
X169722295Y-17580952D01*
X169722295Y-17580952D02*
X169684200Y-17657142D01*
X169684200Y-17657142D02*
X169646104Y-17695238D01*
X169646104Y-17695238D02*
X169531819Y-17771428D01*
X169531819Y-17771428D02*
X169379438Y-17809523D01*
X169379438Y-17809523D02*
X169074676Y-17809523D01*
X169074676Y-17809523D02*
X168998485Y-17771428D01*
X168998485Y-17771428D02*
X168960390Y-17733333D01*
X168960390Y-17733333D02*
X168922295Y-17657142D01*
X168922295Y-17657142D02*
X168922295Y-17504761D01*
X168922295Y-17504761D02*
X168960390Y-17428571D01*
X168960390Y-17428571D02*
X168998485Y-17390476D01*
X168998485Y-17390476D02*
X169074676Y-17352380D01*
X169074676Y-17352380D02*
X169265152Y-17352380D01*
X169265152Y-17352380D02*
X169341342Y-17390476D01*
X169341342Y-17390476D02*
X169379438Y-17428571D01*
X169379438Y-17428571D02*
X169417533Y-17504761D01*
X169417533Y-17504761D02*
X169417533Y-17657142D01*
X169417533Y-17657142D02*
X169379438Y-17733333D01*
X169379438Y-17733333D02*
X169341342Y-17771428D01*
X169341342Y-17771428D02*
X169265152Y-17809523D01*
X164789285Y-15942295D02*
X165055952Y-15561342D01*
X165246428Y-15942295D02*
X165246428Y-15142295D01*
X165246428Y-15142295D02*
X164941666Y-15142295D01*
X164941666Y-15142295D02*
X164865476Y-15180390D01*
X164865476Y-15180390D02*
X164827381Y-15218485D01*
X164827381Y-15218485D02*
X164789285Y-15294676D01*
X164789285Y-15294676D02*
X164789285Y-15408961D01*
X164789285Y-15408961D02*
X164827381Y-15485152D01*
X164827381Y-15485152D02*
X164865476Y-15523247D01*
X164865476Y-15523247D02*
X164941666Y-15561342D01*
X164941666Y-15561342D02*
X165246428Y-15561342D01*
X164027381Y-15942295D02*
X164484524Y-15942295D01*
X164255952Y-15942295D02*
X164255952Y-15142295D01*
X164255952Y-15142295D02*
X164332143Y-15256580D01*
X164332143Y-15256580D02*
X164408333Y-15332771D01*
X164408333Y-15332771D02*
X164484524Y-15370866D01*
X163760714Y-15142295D02*
X163265476Y-15142295D01*
X163265476Y-15142295D02*
X163532142Y-15447057D01*
X163532142Y-15447057D02*
X163417857Y-15447057D01*
X163417857Y-15447057D02*
X163341666Y-15485152D01*
X163341666Y-15485152D02*
X163303571Y-15523247D01*
X163303571Y-15523247D02*
X163265476Y-15599438D01*
X163265476Y-15599438D02*
X163265476Y-15789914D01*
X163265476Y-15789914D02*
X163303571Y-15866104D01*
X163303571Y-15866104D02*
X163341666Y-15904200D01*
X163341666Y-15904200D02*
X163417857Y-15942295D01*
X163417857Y-15942295D02*
X163646428Y-15942295D01*
X163646428Y-15942295D02*
X163722619Y-15904200D01*
X163722619Y-15904200D02*
X163760714Y-15866104D01*
%TO.C,LED20*%
D11*
X173972950Y-29762500D02*
X173972950Y-29102500D01*
X174632950Y-29762500D02*
X173972950Y-29762500D01*
%TO.C,LED18*%
X212075000Y-29762500D02*
X212075000Y-29102500D01*
X212735000Y-29762500D02*
X212075000Y-29762500D01*
%TO.C,R18*%
X166693641Y-18233001D02*
X166386359Y-18233001D01*
X166693641Y-18993001D02*
X166386359Y-18993001D01*
%TO.C,D28*%
X19650000Y-35460000D02*
X19650000Y-31600000D01*
X21650000Y-35460000D02*
X19650000Y-35460000D01*
X21650000Y-35460000D02*
X21650000Y-31600000D01*
%TO.C,LED22*%
X129374995Y-29762500D02*
X129374995Y-29102500D01*
X130034995Y-29762500D02*
X129374995Y-29762500D01*
%TO.C,R7*%
X114120000Y-12196359D02*
X114120000Y-12503641D01*
X114880000Y-12196359D02*
X114880000Y-12503641D01*
%TO.C,D122*%
X144375000Y-5190000D02*
X144375000Y-9050000D01*
X144375000Y-5190000D02*
X146375000Y-5190000D01*
X146375000Y-5190000D02*
X146375000Y-9050000D01*
%TO.C,LED19*%
X193025000Y-29762500D02*
X193025000Y-29102500D01*
X193685000Y-29762500D02*
X193025000Y-29762500D01*
%TO.C,L1*%
X144865000Y-2812779D02*
X144865000Y-2487221D01*
X145885000Y-2812779D02*
X145885000Y-2487221D01*
%TO.C,C18*%
X242340000Y-46382836D02*
X242340000Y-46167164D01*
X243060000Y-46382836D02*
X243060000Y-46167164D01*
%TO.C,MX21*%
D12*
X149972950Y-26754774D02*
X149972950Y-27754774D01*
X149972950Y-26754774D02*
X150972950Y-26754774D01*
X149972950Y-38754774D02*
X149972950Y-39754774D01*
X150972950Y-39754774D02*
X149972950Y-39754774D01*
X161972950Y-26754774D02*
X162972950Y-26754774D01*
X162972950Y-27754774D02*
X162972950Y-26754774D01*
X162972950Y-39754774D02*
X161972950Y-39754774D01*
X162972950Y-39754774D02*
X162972950Y-38754774D01*
%TO.C,MX18*%
X207122950Y-26754774D02*
X207122950Y-27754774D01*
X207122950Y-26754774D02*
X208122950Y-26754774D01*
X207122950Y-38754774D02*
X207122950Y-39754774D01*
X208122950Y-39754774D02*
X207122950Y-39754774D01*
X219122950Y-26754774D02*
X220122950Y-26754774D01*
X220122950Y-27754774D02*
X220122950Y-26754774D01*
X220122950Y-39754774D02*
X219122950Y-39754774D01*
X220122950Y-39754774D02*
X220122950Y-38754774D01*
%TO.C,C24*%
D11*
X81390000Y-46382836D02*
X81390000Y-46167164D01*
X82110000Y-46382836D02*
X82110000Y-46167164D01*
%TO.C,LED23*%
X110324995Y-29762500D02*
X110324995Y-29102500D01*
X110984995Y-29762500D02*
X110324995Y-29762500D01*
%TO.C,C20*%
X241140000Y-46382836D02*
X241140000Y-46167164D01*
X241860000Y-46382836D02*
X241860000Y-46167164D01*
%TO.C,R32*%
X106320000Y-12996359D02*
X106320000Y-13303641D01*
X107080000Y-12996359D02*
X107080000Y-13303641D01*
%TO.C,MX20*%
D12*
X169022950Y-26754774D02*
X169022950Y-27754774D01*
X169022950Y-26754774D02*
X170022950Y-26754774D01*
X169022950Y-38754774D02*
X169022950Y-39754774D01*
X170022950Y-39754774D02*
X169022950Y-39754774D01*
X181022950Y-26754774D02*
X182022950Y-26754774D01*
X182022950Y-27754774D02*
X182022950Y-26754774D01*
X182022950Y-39754774D02*
X181022950Y-39754774D01*
X182022950Y-39754774D02*
X182022950Y-38754774D01*
%TO.C,MX22*%
X124424995Y-26754774D02*
X124424995Y-27754774D01*
X124424995Y-26754774D02*
X125424995Y-26754774D01*
X124424995Y-38754774D02*
X124424995Y-39754774D01*
X125424995Y-39754774D02*
X124424995Y-39754774D01*
X136424995Y-26754774D02*
X137424995Y-26754774D01*
X137424995Y-27754774D02*
X137424995Y-26754774D01*
X137424995Y-39754774D02*
X136424995Y-39754774D01*
X137424995Y-39754774D02*
X137424995Y-38754774D01*
%TO.C,LED122*%
D11*
X196140000Y-11800000D02*
X196800000Y-11800000D01*
X196800000Y-11800000D02*
X196800000Y-12460000D01*
%TO.C,LED123*%
X177040000Y-11800000D02*
X177700000Y-11800000D01*
X177700000Y-11800000D02*
X177700000Y-12460000D01*
%TO.C,MX19*%
D12*
X188072950Y-26754774D02*
X188072950Y-27754774D01*
X188072950Y-26754774D02*
X189072950Y-26754774D01*
X188072950Y-38754774D02*
X188072950Y-39754774D01*
X189072950Y-39754774D02*
X188072950Y-39754774D01*
X200072950Y-26754774D02*
X201072950Y-26754774D01*
X201072950Y-27754774D02*
X201072950Y-26754774D01*
X201072950Y-39754774D02*
X200072950Y-39754774D01*
X201072950Y-39754774D02*
X201072950Y-38754774D01*
%TO.C,MX24*%
X86324995Y-26754774D02*
X86324995Y-27754774D01*
X86324995Y-26754774D02*
X87324995Y-26754774D01*
X86324995Y-38754774D02*
X86324995Y-39754774D01*
X87324995Y-39754774D02*
X86324995Y-39754774D01*
X98324995Y-26754774D02*
X99324995Y-26754774D01*
X99324995Y-27754774D02*
X99324995Y-26754774D01*
X99324995Y-39754774D02*
X98324995Y-39754774D01*
X99324995Y-39754774D02*
X99324995Y-38754774D01*
%TO.C,R33*%
D11*
X105120000Y-13303641D02*
X105120000Y-12996359D01*
X105880000Y-13303641D02*
X105880000Y-12996359D01*
%TO.C,C22*%
X82590000Y-46382836D02*
X82590000Y-46167164D01*
X83310000Y-46382836D02*
X83310000Y-46167164D01*
%TO.C,LED21*%
X154925000Y-29762500D02*
X154925000Y-29102500D01*
X155585000Y-29762500D02*
X154925000Y-29762500D01*
%TO.C,C31*%
X169030000Y-18955165D02*
X169030000Y-19170837D01*
X169750000Y-18955165D02*
X169750000Y-19170837D01*
%TO.C,C7*%
X167415000Y-11957836D02*
X167415000Y-11742164D01*
X168135000Y-11957836D02*
X168135000Y-11742164D01*
%TO.C,LED24*%
X91275000Y-29762500D02*
X91275000Y-29102500D01*
X91935000Y-29762500D02*
X91275000Y-29762500D01*
%TO.C,R19*%
X167810000Y-19216642D02*
X167810000Y-18909360D01*
X168570000Y-19216642D02*
X168570000Y-18909360D01*
%TO.C,MX23*%
D12*
X105374995Y-26754774D02*
X105374995Y-27754774D01*
X105374995Y-26754774D02*
X106374995Y-26754774D01*
X105374995Y-38754774D02*
X105374995Y-39754774D01*
X106374995Y-39754774D02*
X105374995Y-39754774D01*
X117374995Y-26754774D02*
X118374995Y-26754774D01*
X118374995Y-27754774D02*
X118374995Y-26754774D01*
X118374995Y-39754774D02*
X117374995Y-39754774D01*
X118374995Y-39754774D02*
X118374995Y-38754774D01*
%TO.C,R13*%
D11*
X164428641Y-16370000D02*
X164121359Y-16370000D01*
X164428641Y-17130000D02*
X164121359Y-17130000D01*
%TD*%
%LPC*%
D13*
%TO.C,MX27*%
X35245195Y-29494774D02*
X35245195Y-32094774D01*
X32275195Y-32094774D01*
X32025195Y-32344774D01*
X32025195Y-34164774D01*
X32275195Y-34414774D01*
X35245195Y-34414774D01*
X35245195Y-37014774D01*
X33415195Y-38844774D01*
X25895195Y-38844774D01*
X24065195Y-37014774D01*
X24065195Y-29494774D01*
X25895195Y-27664774D01*
X33415195Y-27664774D01*
X35245195Y-29494774D01*
G36*
X35245195Y-29494774D02*
G01*
X35245195Y-32094774D01*
X32275195Y-32094774D01*
X32025195Y-32344774D01*
X32025195Y-34164774D01*
X32275195Y-34414774D01*
X35245195Y-34414774D01*
X35245195Y-37014774D01*
X33415195Y-38844774D01*
X25895195Y-38844774D01*
X24065195Y-37014774D01*
X24065195Y-29494774D01*
X25895195Y-27664774D01*
X33415195Y-27664774D01*
X35245195Y-29494774D01*
G37*
%TO.C,MX28*%
X17245195Y-29494774D02*
X17245195Y-32094774D01*
X14275195Y-32094774D01*
X14025195Y-32344774D01*
X14025195Y-34164774D01*
X14275195Y-34414774D01*
X17245195Y-34414774D01*
X17245195Y-37014774D01*
X15415195Y-38844774D01*
X7895195Y-38844774D01*
X6065195Y-37014774D01*
X6065195Y-29494774D01*
X7895195Y-27664774D01*
X15415195Y-27664774D01*
X17245195Y-29494774D01*
G36*
X17245195Y-29494774D02*
G01*
X17245195Y-32094774D01*
X14275195Y-32094774D01*
X14025195Y-32344774D01*
X14025195Y-34164774D01*
X14275195Y-34414774D01*
X17245195Y-34414774D01*
X17245195Y-37014774D01*
X15415195Y-38844774D01*
X7895195Y-38844774D01*
X6065195Y-37014774D01*
X6065195Y-29494774D01*
X7895195Y-27664774D01*
X15415195Y-27664774D01*
X17245195Y-29494774D01*
G37*
%TO.C,MX25*%
X71249695Y-29494774D02*
X71249695Y-32094774D01*
X68279695Y-32094774D01*
X68029695Y-32344774D01*
X68029695Y-34164774D01*
X68279695Y-34414774D01*
X71249695Y-34414774D01*
X71249695Y-37014774D01*
X69419695Y-38844774D01*
X61899695Y-38844774D01*
X60069695Y-37014774D01*
X60069695Y-29494774D01*
X61899695Y-27664774D01*
X69419695Y-27664774D01*
X71249695Y-29494774D01*
G36*
X71249695Y-29494774D02*
G01*
X71249695Y-32094774D01*
X68279695Y-32094774D01*
X68029695Y-32344774D01*
X68029695Y-34164774D01*
X68279695Y-34414774D01*
X71249695Y-34414774D01*
X71249695Y-37014774D01*
X69419695Y-38844774D01*
X61899695Y-38844774D01*
X60069695Y-37014774D01*
X60069695Y-29494774D01*
X61899695Y-27664774D01*
X69419695Y-27664774D01*
X71249695Y-29494774D01*
G37*
%TO.C,MX26*%
X53247445Y-29494774D02*
X53247445Y-32094774D01*
X50277445Y-32094774D01*
X50027445Y-32344774D01*
X50027445Y-34164774D01*
X50277445Y-34414774D01*
X53247445Y-34414774D01*
X53247445Y-37014774D01*
X51417445Y-38844774D01*
X43897445Y-38844774D01*
X42067445Y-37014774D01*
X42067445Y-29494774D01*
X43897445Y-27664774D01*
X51417445Y-27664774D01*
X53247445Y-29494774D01*
G36*
X53247445Y-29494774D02*
G01*
X53247445Y-32094774D01*
X50277445Y-32094774D01*
X50027445Y-32344774D01*
X50027445Y-34164774D01*
X50277445Y-34414774D01*
X53247445Y-34414774D01*
X53247445Y-37014774D01*
X51417445Y-38844774D01*
X43897445Y-38844774D01*
X42067445Y-37014774D01*
X42067445Y-29494774D01*
X43897445Y-27664774D01*
X51417445Y-27664774D01*
X53247445Y-29494774D01*
G37*
%TD*%
D14*
%TO.C,*%
X239850000Y-17150000D03*
%TD*%
%TO.C,*%
X4650000Y-26250000D03*
%TD*%
D15*
%TO.C,LED28*%
X11655195Y-33254774D03*
%TD*%
D14*
%TO.C,REF\u002A\u002A*%
X38650000Y-26250000D03*
%TD*%
D15*
%TO.C,LED25*%
X65659695Y-33254774D03*
%TD*%
D14*
%TO.C,*%
X72650000Y-40250000D03*
%TD*%
D16*
%TO.C,J7*%
X148265000Y-5080000D03*
X142485000Y-5080000D03*
D17*
X149695000Y-5580000D03*
D18*
X149695000Y-1400000D03*
D17*
X141055000Y-5580000D03*
D18*
X141055000Y-1400000D03*
%TD*%
D19*
%TO.C,J1*%
X223315000Y-16110000D03*
D20*
X223315000Y-18650000D03*
D19*
X223315000Y-21190000D03*
X229030000Y-16110000D03*
X229030000Y-21190000D03*
D20*
X230935000Y-17634000D03*
X230935000Y-19666000D03*
%TD*%
D14*
%TO.C,*%
X38650000Y-38200000D03*
%TD*%
D15*
%TO.C,LED27*%
X29655195Y-33254774D03*
%TD*%
D14*
%TO.C,*%
X4650000Y-40250000D03*
%TD*%
%TO.C,*%
X239850000Y-3200000D03*
%TD*%
D15*
%TO.C,LED26*%
X47657445Y-33254774D03*
%TD*%
D21*
%TO.C,SW1*%
X18775000Y-48125000D03*
X21775000Y-48125000D03*
%TD*%
D14*
%TO.C,*%
X72650000Y-26250000D03*
%TD*%
D22*
%TO.C,LED20*%
X174622950Y-29162500D03*
X174622950Y-27962500D03*
X176422950Y-27962500D03*
X176422950Y-29162500D03*
%TD*%
%TO.C,LED18*%
X212725000Y-29162500D03*
X212725000Y-27962500D03*
X214525000Y-27962500D03*
X214525000Y-29162500D03*
%TD*%
D23*
%TO.C,R18*%
X167050000Y-18613001D03*
X166030000Y-18613001D03*
%TD*%
D24*
%TO.C,*%
X229550000Y-33450000D03*
%TD*%
D25*
%TO.C,D28*%
X20650000Y-34650000D03*
X20650000Y-31850000D03*
%TD*%
D22*
%TO.C,LED22*%
X130024995Y-29162500D03*
X130024995Y-27962500D03*
X131824995Y-27962500D03*
X131824995Y-29162500D03*
%TD*%
D26*
%TO.C,R7*%
X114500000Y-11840000D03*
X114500000Y-12860000D03*
%TD*%
D27*
%TO.C,D122*%
X145375000Y-6000000D03*
X145375000Y-8800000D03*
%TD*%
D22*
%TO.C,LED19*%
X193675000Y-29162500D03*
X193675000Y-27962500D03*
X195475000Y-27962500D03*
X195475000Y-29162500D03*
%TD*%
D28*
%TO.C,L1*%
X145375000Y-3437500D03*
X145375000Y-1862500D03*
%TD*%
D29*
%TO.C,C18*%
X242700000Y-46755000D03*
X242700000Y-45795000D03*
%TD*%
D30*
%TO.C,MX21*%
X161972950Y-33254774D03*
D31*
X156472950Y-33254774D03*
D30*
X150972950Y-33254774D03*
%TD*%
%TO.C,MX18*%
X219122950Y-33254774D03*
D31*
X213622950Y-33254774D03*
D30*
X208122950Y-33254774D03*
%TD*%
D29*
%TO.C,C24*%
X81750000Y-46755000D03*
X81750000Y-45795000D03*
%TD*%
D22*
%TO.C,LED23*%
X110974995Y-29162500D03*
X110974995Y-27962500D03*
X112774995Y-27962500D03*
X112774995Y-29162500D03*
%TD*%
D29*
%TO.C,C20*%
X241500000Y-46755000D03*
X241500000Y-45795000D03*
%TD*%
D24*
%TO.C,*%
X29050000Y-45600000D03*
%TD*%
D26*
%TO.C,R32*%
X106700000Y-12640000D03*
X106700000Y-13660000D03*
%TD*%
D30*
%TO.C,MX20*%
X181022950Y-33254774D03*
D31*
X175522950Y-33254774D03*
D30*
X170022950Y-33254774D03*
%TD*%
%TO.C,MX22*%
X136424995Y-33254774D03*
D31*
X130924995Y-33254774D03*
D30*
X125424995Y-33254774D03*
%TD*%
D32*
%TO.C,LED122*%
X196150000Y-12400000D03*
X196150000Y-13600000D03*
X194350000Y-13600000D03*
X194350000Y-12400000D03*
%TD*%
%TO.C,LED123*%
X177050000Y-12400000D03*
X177050000Y-13600000D03*
X175250000Y-13600000D03*
X175250000Y-12400000D03*
%TD*%
D30*
%TO.C,MX19*%
X200072950Y-33254774D03*
D31*
X194572950Y-33254774D03*
D30*
X189072950Y-33254774D03*
%TD*%
%TO.C,MX24*%
X98324995Y-33254774D03*
D31*
X92824995Y-33254774D03*
D30*
X87324995Y-33254774D03*
%TD*%
D33*
%TO.C,R33*%
X105500000Y-13660000D03*
X105500000Y-12640000D03*
%TD*%
D29*
%TO.C,C22*%
X82950000Y-46755000D03*
X82950000Y-45795000D03*
%TD*%
D22*
%TO.C,LED21*%
X155575000Y-29162500D03*
X155575000Y-27962500D03*
X157375000Y-27962500D03*
X157375000Y-29162500D03*
%TD*%
D34*
%TO.C,C31*%
X169390000Y-18583001D03*
X169390000Y-19543001D03*
%TD*%
D29*
%TO.C,C7*%
X167775000Y-12330000D03*
X167775000Y-11370000D03*
%TD*%
D22*
%TO.C,LED24*%
X91925000Y-29162500D03*
X91925000Y-27962500D03*
X93725000Y-27962500D03*
X93725000Y-29162500D03*
%TD*%
D33*
%TO.C,R19*%
X168190000Y-19573001D03*
X168190000Y-18553001D03*
%TD*%
D30*
%TO.C,MX23*%
X117374995Y-33254774D03*
D31*
X111874995Y-33254774D03*
D30*
X106374995Y-33254774D03*
%TD*%
D23*
%TO.C,R13*%
X164785000Y-16750000D03*
X163765000Y-16750000D03*
%TD*%
%LPD*%
M02*
