%TF.GenerationSoftware,KiCad,Pcbnew,10.0.1*%
%TF.CreationDate,2026-04-23T15:22:00-04:00*%
%TF.ProjectId,dev-board,6465762d-626f-4617-9264-2e6b69636164,rev?*%
%TF.SameCoordinates,PX1312d00PY13ab6680*%
%TF.FileFunction,Profile,NP*%
%FSLAX46Y46*%
G04 Gerber Fmt 4.6, Leading zero omitted, Abs format (unit mm)*
G04 Created by KiCad (PCBNEW 10.0.1) date 2026-04-23 15:22:00*
%MOMM*%
%LPD*%
G01*
G04 APERTURE LIST*
%TA.AperFunction,Profile*%
%ADD10C,0.050000*%
%TD*%
G04 APERTURE END LIST*
D10*
X198050000Y-2850000D02*
X198050000Y-2850000D01*
G75*
G03*
X204050000Y-2850000I3000000J0D01*
G01*
X204050000Y0D01*
X250000000Y0D01*
X250000000Y-50000000D01*
X0Y-50000000D01*
X0Y-23850000D01*
X79000000Y-23850000D01*
G75*
G03*
X82500000Y-20350000I0J3500000D01*
G01*
X82500000Y0D01*
X198050000Y0D01*
X198050000Y-2850000D01*
X139100000Y-5150000D02*
G75*
G02*
X132100000Y-5150000I-3500000J0D01*
G01*
X132100000Y-5150000D02*
G75*
G02*
X139100000Y-5150000I3500000J0D01*
G01*
%TO.C,REF\u002A\u002A*%
X102561981Y-30907290D02*
X102702615Y-30923268D01*
X102842121Y-30947173D01*
X102980052Y-30978928D01*
X103115966Y-31018428D01*
X103249431Y-31065551D01*
X103380018Y-31120145D01*
X103507309Y-31182033D01*
X103630898Y-31251019D01*
X103750387Y-31326883D01*
X103865398Y-31409382D01*
X103975560Y-31498251D01*
X104080521Y-31593206D01*
X104179946Y-31693942D01*
X104273516Y-31800139D01*
X104360932Y-31911458D01*
X104441915Y-32027540D01*
X104516204Y-32148015D01*
X104583565Y-32272498D01*
X104643780Y-32400590D01*
X104645658Y-32405253D01*
X106375000Y-32405253D01*
X106414278Y-32405674D01*
X106492500Y-32412923D01*
X106569719Y-32427358D01*
X106645277Y-32448856D01*
X106718529Y-32477234D01*
X106788850Y-32512249D01*
X106855641Y-32553604D01*
X106918330Y-32600945D01*
X106976384Y-32653869D01*
X107029308Y-32711923D01*
X107076649Y-32774612D01*
X107118004Y-32841403D01*
X107153019Y-32911724D01*
X107181397Y-32984976D01*
X107202895Y-33060534D01*
X107217330Y-33137753D01*
X107224579Y-33215975D01*
X107224579Y-33294531D01*
X107217330Y-33372753D01*
X107202895Y-33449972D01*
X107181397Y-33525530D01*
X107153019Y-33598782D01*
X107118004Y-33669103D01*
X107076649Y-33735894D01*
X107029308Y-33798583D01*
X106976384Y-33856637D01*
X106918330Y-33909561D01*
X106855641Y-33956902D01*
X106788850Y-33998257D01*
X106718529Y-34033272D01*
X106645277Y-34061650D01*
X106569719Y-34083148D01*
X106492500Y-34097583D01*
X106414278Y-34104832D01*
X106375000Y-34105253D01*
X104750196Y-34105253D01*
X104721931Y-34197956D01*
X104673062Y-34330791D01*
X104616761Y-34460651D01*
X104553207Y-34587119D01*
X104482606Y-34709792D01*
X104405182Y-34828277D01*
X104321182Y-34942196D01*
X104230877Y-35051183D01*
X104134553Y-35154890D01*
X104032521Y-35252984D01*
X103925106Y-35345154D01*
X103812651Y-35431102D01*
X103695517Y-35510556D01*
X103574078Y-35583261D01*
X103448723Y-35648982D01*
X103319852Y-35707511D01*
X103187879Y-35758660D01*
X103053224Y-35802267D01*
X102984898Y-35820712D01*
X102984899Y-36900712D01*
X101714898Y-36900712D01*
X101714899Y-35820712D01*
X101646574Y-35802267D01*
X101511918Y-35758660D01*
X101379945Y-35707511D01*
X101251075Y-35648982D01*
X101125719Y-35583261D01*
X101004281Y-35510556D01*
X100887147Y-35431102D01*
X100774692Y-35345154D01*
X100667277Y-35252984D01*
X100565244Y-35154890D01*
X100468920Y-35051183D01*
X100378615Y-34942196D01*
X100294616Y-34828277D01*
X100217192Y-34709792D01*
X100146590Y-34587119D01*
X100083037Y-34460651D01*
X100026735Y-34330791D01*
X99977867Y-34197956D01*
X99949601Y-34105253D01*
X98325000Y-34105253D01*
X98285722Y-34104832D01*
X98207500Y-34097583D01*
X98130281Y-34083148D01*
X98054723Y-34061650D01*
X97981471Y-34033272D01*
X97911150Y-33998257D01*
X97844359Y-33956902D01*
X97781670Y-33909561D01*
X97723616Y-33856637D01*
X97670692Y-33798583D01*
X97623351Y-33735894D01*
X97581996Y-33669103D01*
X97546981Y-33598782D01*
X97518603Y-33525530D01*
X97497105Y-33449972D01*
X97482670Y-33372753D01*
X97475421Y-33294531D01*
X97475421Y-33215975D01*
X97482670Y-33137753D01*
X97497105Y-33060534D01*
X97518603Y-32984976D01*
X97546981Y-32911724D01*
X97581996Y-32841403D01*
X97623351Y-32774612D01*
X97670692Y-32711923D01*
X97723616Y-32653869D01*
X97781670Y-32600945D01*
X97844359Y-32553604D01*
X97911150Y-32512249D01*
X97981471Y-32477234D01*
X98054723Y-32448856D01*
X98130281Y-32427358D01*
X98207500Y-32412923D01*
X98285722Y-32405674D01*
X98325000Y-32405253D01*
X100054139Y-32405253D01*
X100056017Y-32400590D01*
X100116233Y-32272498D01*
X100183593Y-32148015D01*
X100257882Y-32027540D01*
X100338865Y-31911458D01*
X100426282Y-31800139D01*
X100519851Y-31693942D01*
X100619277Y-31593206D01*
X100724238Y-31498251D01*
X100834400Y-31409382D01*
X100949410Y-31326883D01*
X101068900Y-31251019D01*
X101192489Y-31182033D01*
X101319780Y-31120145D01*
X101450366Y-31065551D01*
X101583831Y-31018428D01*
X101719746Y-30978928D01*
X101857677Y-30947173D01*
X101997183Y-30923268D01*
X102137817Y-30907290D01*
X102279130Y-30899287D01*
X102420667Y-30899287D01*
X102561981Y-30907290D01*
X185685000Y-24230000D02*
X185685000Y-24230000D01*
G75*
G02*
X185685000Y-29070000I-635000J-2420000D01*
G01*
X185685000Y-30150000D01*
X184415000Y-30150000D01*
X184415000Y-29070000D01*
G75*
G02*
X184415000Y-24230000I655000J2420000D01*
G01*
X184415000Y-23150000D01*
X185685000Y-23150000D01*
X185685000Y-24230000D01*
%TD*%
M02*
