%TF.GenerationSoftware,KiCad,Pcbnew,10.0.1*%
%TF.CreationDate,2026-04-23T15:22:00-04:00*%
%TF.ProjectId,dev-board,6465762d-626f-4617-9264-2e6b69636164,rev?*%
%TF.SameCoordinates,PX1312d00PY13ab6680*%
%TF.FileFunction,Legend,Top*%
%TF.FilePolarity,Positive*%
%FSLAX46Y46*%
G04 Gerber Fmt 4.6, Leading zero omitted, Abs format (unit mm)*
G04 Created by KiCad (PCBNEW 10.0.1) date 2026-04-23 15:22:00*
%MOMM*%
%LPD*%
G01*
G04 APERTURE LIST*
G04 Aperture macros list*
%AMRoundRect*
0 Rectangle with rounded corners*
0 $1 Rounding radius*
0 $2 $3 $4 $5 $6 $7 $8 $9 X,Y pos of 4 corners*
0 Add a 4 corners polygon primitive as box body*
4,1,4,$2,$3,$4,$5,$6,$7,$8,$9,$2,$3,0*
0 Add four circle primitives for the rounded corners*
1,1,$1+$1,$2,$3*
1,1,$1+$1,$4,$5*
1,1,$1+$1,$6,$7*
1,1,$1+$1,$8,$9*
0 Add four rect primitives between the rounded corners*
20,1,$1+$1,$2,$3,$4,$5,0*
20,1,$1+$1,$4,$5,$6,$7,0*
20,1,$1+$1,$6,$7,$8,$9,0*
20,1,$1+$1,$8,$9,$2,$3,0*%
%AMFreePoly0*
4,1,23,0.550000,-0.750000,0.000000,-0.750000,0.000000,-0.745722,-0.065263,-0.745722,-0.191342,-0.711940,-0.304381,-0.646677,-0.396677,-0.554381,-0.461940,-0.441342,-0.495722,-0.315263,-0.495722,-0.250000,-0.500000,-0.250000,-0.500000,0.250000,-0.495722,0.250000,-0.495722,0.315263,-0.461940,0.441342,-0.396677,0.554381,-0.304381,0.646677,-0.191342,0.711940,-0.065263,0.745722,0.000000,0.745722,
0.000000,0.750000,0.550000,0.750000,0.550000,-0.750000,0.550000,-0.750000,$1*%
%AMFreePoly1*
4,1,23,0.000000,0.745722,0.065263,0.745722,0.191342,0.711940,0.304381,0.646677,0.396677,0.554381,0.461940,0.441342,0.495722,0.315263,0.495722,0.250000,0.500000,0.250000,0.500000,-0.250000,0.495722,-0.250000,0.495722,-0.315263,0.461940,-0.441342,0.396677,-0.554381,0.304381,-0.646677,0.191342,-0.711940,0.065263,-0.745722,0.000000,-0.745722,0.000000,-0.750000,-0.550000,-0.750000,
-0.550000,0.750000,0.000000,0.750000,0.000000,0.745722,0.000000,0.745722,$1*%
G04 Aperture macros list end*
%ADD10C,0.150000*%
%ADD11C,0.120000*%
%ADD12C,0.200000*%
%ADD13C,0.127000*%
%ADD14C,0.100000*%
%ADD15C,0.250000*%
%ADD16RoundRect,0.075000X-0.075000X0.550000X-0.075000X-0.550000X0.075000X-0.550000X0.075000X0.550000X0*%
%ADD17C,2.500000*%
%ADD18RoundRect,0.150000X0.150000X0.200000X-0.150000X0.200000X-0.150000X-0.200000X0.150000X-0.200000X0*%
%ADD19RoundRect,0.250000X-0.650000X0.325000X-0.650000X-0.325000X0.650000X-0.325000X0.650000X0.325000X0*%
%ADD20FreePoly0,90.000000*%
%ADD21R,1.500000X1.000000*%
%ADD22FreePoly1,90.000000*%
%ADD23C,2.400000*%
%ADD24R,1.400000X0.800000*%
%ADD25RoundRect,0.140000X0.170000X-0.140000X0.170000X0.140000X-0.170000X0.140000X-0.170000X-0.140000X0*%
%ADD26RoundRect,0.135000X0.135000X0.185000X-0.135000X0.185000X-0.135000X-0.185000X0.135000X-0.185000X0*%
%ADD27RoundRect,0.137500X0.662500X-0.137500X0.662500X0.137500X-0.662500X0.137500X-0.662500X-0.137500X0*%
%ADD28RoundRect,0.250000X-0.475000X0.250000X-0.475000X-0.250000X0.475000X-0.250000X0.475000X0.250000X0*%
%ADD29RoundRect,0.135000X0.185000X-0.135000X0.185000X0.135000X-0.185000X0.135000X-0.185000X-0.135000X0*%
%ADD30RoundRect,0.135000X-0.135000X-0.185000X0.135000X-0.185000X0.135000X0.185000X-0.135000X0.185000X0*%
%ADD31R,0.800000X1.600000*%
%ADD32R,2.100000X3.000000*%
%ADD33RoundRect,0.075000X-0.662500X-0.075000X0.662500X-0.075000X0.662500X0.075000X-0.662500X0.075000X0*%
%ADD34RoundRect,0.075000X-0.075000X-0.662500X0.075000X-0.662500X0.075000X0.662500X-0.075000X0.662500X0*%
%ADD35R,5.000000X5.000000*%
%ADD36RoundRect,0.250000X-0.375000X-0.850000X0.375000X-0.850000X0.375000X0.850000X-0.375000X0.850000X0*%
%ADD37RoundRect,0.250000X0.475000X-0.250000X0.475000X0.250000X-0.475000X0.250000X-0.475000X-0.250000X0*%
%ADD38RoundRect,0.062500X-0.350000X-0.062500X0.350000X-0.062500X0.350000X0.062500X-0.350000X0.062500X0*%
%ADD39RoundRect,0.062500X-0.062500X-0.350000X0.062500X-0.350000X0.062500X0.350000X-0.062500X0.350000X0*%
%ADD40R,2.700000X2.700000*%
%ADD41RoundRect,0.250000X0.300000X0.300000X-0.300000X0.300000X-0.300000X-0.300000X0.300000X-0.300000X0*%
%ADD42R,0.600000X1.550000*%
%ADD43R,1.200000X1.800000*%
%ADD44RoundRect,0.135000X-0.185000X0.135000X-0.185000X-0.135000X0.185000X-0.135000X0.185000X0.135000X0*%
%ADD45RoundRect,0.225000X0.225000X0.250000X-0.225000X0.250000X-0.225000X-0.250000X0.225000X-0.250000X0*%
%ADD46RoundRect,0.250000X0.300000X-0.300000X0.300000X0.300000X-0.300000X0.300000X-0.300000X-0.300000X0*%
%ADD47C,0.650000*%
%ADD48R,0.600000X1.140000*%
%ADD49R,0.300000X1.140000*%
%ADD50O,1.050000X2.100000*%
%ADD51O,0.900000X1.800000*%
%ADD52C,2.374900*%
%ADD53C,0.990600*%
%ADD54C,0.787400*%
%ADD55RoundRect,0.150000X-0.150000X-0.200000X0.150000X-0.200000X0.150000X0.200000X-0.150000X0.200000X0*%
%ADD56RoundRect,0.006000X0.094000X-0.276500X0.094000X0.276500X-0.094000X0.276500X-0.094000X-0.276500X0*%
%ADD57RoundRect,0.020000X0.180000X-0.262500X0.180000X0.262500X-0.180000X0.262500X-0.180000X-0.262500X0*%
%ADD58RoundRect,0.140000X-0.140000X-0.170000X0.140000X-0.170000X0.140000X0.170000X-0.140000X0.170000X0*%
%ADD59RoundRect,0.225000X-0.250000X0.225000X-0.250000X-0.225000X0.250000X-0.225000X0.250000X0.225000X0*%
%ADD60RoundRect,0.050000X-0.375000X-0.050000X0.375000X-0.050000X0.375000X0.050000X-0.375000X0.050000X0*%
%ADD61RoundRect,0.050000X-0.050000X-0.275000X0.050000X-0.275000X0.050000X0.275000X-0.050000X0.275000X0*%
%ADD62RoundRect,0.100000X-0.100000X0.275000X-0.100000X-0.275000X0.100000X-0.275000X0.100000X0.275000X0*%
%ADD63RoundRect,0.225000X0.250000X-0.225000X0.250000X0.225000X-0.250000X0.225000X-0.250000X-0.225000X0*%
%ADD64C,1.000000*%
%ADD65RoundRect,0.125000X0.175000X0.125000X-0.175000X0.125000X-0.175000X-0.125000X0.175000X-0.125000X0*%
%ADD66RoundRect,0.100000X-0.625000X-0.100000X0.625000X-0.100000X0.625000X0.100000X-0.625000X0.100000X0*%
%ADD67RoundRect,0.112500X-0.612500X-0.112500X0.612500X-0.112500X0.612500X0.112500X-0.612500X0.112500X0*%
%ADD68R,1.570000X1.890000*%
%ADD69R,0.700000X2.600000*%
%ADD70R,1.100000X1.900000*%
%ADD71RoundRect,0.225000X-0.225000X-0.250000X0.225000X-0.250000X0.225000X0.250000X-0.225000X0.250000X0*%
%ADD72RoundRect,0.140000X-0.170000X0.140000X-0.170000X-0.140000X0.170000X-0.140000X0.170000X0.140000X0*%
%ADD73RoundRect,0.140000X0.140000X0.170000X-0.140000X0.170000X-0.140000X-0.170000X0.140000X-0.170000X0*%
%ADD74C,0.900000*%
%ADD75R,0.700000X1.500000*%
%ADD76R,1.000000X0.800000*%
%ADD77R,0.600000X0.400000*%
%ADD78R,0.400000X0.600000*%
%ADD79C,6.500000*%
%ADD80C,1.701800*%
%ADD81C,3.429000*%
%ADD82C,2.000000*%
G04 APERTURE END LIST*
D10*
X157787295Y-18302023D02*
X158434914Y-18302023D01*
X158434914Y-18302023D02*
X158511104Y-18263928D01*
X158511104Y-18263928D02*
X158549200Y-18225833D01*
X158549200Y-18225833D02*
X158587295Y-18149642D01*
X158587295Y-18149642D02*
X158587295Y-17997261D01*
X158587295Y-17997261D02*
X158549200Y-17921071D01*
X158549200Y-17921071D02*
X158511104Y-17882976D01*
X158511104Y-17882976D02*
X158434914Y-17844880D01*
X158434914Y-17844880D02*
X157787295Y-17844880D01*
X157787295Y-17121071D02*
X157787295Y-17273452D01*
X157787295Y-17273452D02*
X157825390Y-17349643D01*
X157825390Y-17349643D02*
X157863485Y-17387738D01*
X157863485Y-17387738D02*
X157977771Y-17463928D01*
X157977771Y-17463928D02*
X158130152Y-17502024D01*
X158130152Y-17502024D02*
X158434914Y-17502024D01*
X158434914Y-17502024D02*
X158511104Y-17463928D01*
X158511104Y-17463928D02*
X158549200Y-17425833D01*
X158549200Y-17425833D02*
X158587295Y-17349643D01*
X158587295Y-17349643D02*
X158587295Y-17197262D01*
X158587295Y-17197262D02*
X158549200Y-17121071D01*
X158549200Y-17121071D02*
X158511104Y-17082976D01*
X158511104Y-17082976D02*
X158434914Y-17044881D01*
X158434914Y-17044881D02*
X158244438Y-17044881D01*
X158244438Y-17044881D02*
X158168247Y-17082976D01*
X158168247Y-17082976D02*
X158130152Y-17121071D01*
X158130152Y-17121071D02*
X158092057Y-17197262D01*
X158092057Y-17197262D02*
X158092057Y-17349643D01*
X158092057Y-17349643D02*
X158130152Y-17425833D01*
X158130152Y-17425833D02*
X158168247Y-17463928D01*
X158168247Y-17463928D02*
X158244438Y-17502024D01*
X112391667Y-22036104D02*
X112353571Y-22074200D01*
X112353571Y-22074200D02*
X112239286Y-22112295D01*
X112239286Y-22112295D02*
X112163095Y-22112295D01*
X112163095Y-22112295D02*
X112048809Y-22074200D01*
X112048809Y-22074200D02*
X111972619Y-21998009D01*
X111972619Y-21998009D02*
X111934524Y-21921819D01*
X111934524Y-21921819D02*
X111896428Y-21769438D01*
X111896428Y-21769438D02*
X111896428Y-21655152D01*
X111896428Y-21655152D02*
X111934524Y-21502771D01*
X111934524Y-21502771D02*
X111972619Y-21426580D01*
X111972619Y-21426580D02*
X112048809Y-21350390D01*
X112048809Y-21350390D02*
X112163095Y-21312295D01*
X112163095Y-21312295D02*
X112239286Y-21312295D01*
X112239286Y-21312295D02*
X112353571Y-21350390D01*
X112353571Y-21350390D02*
X112391667Y-21388485D01*
X112696428Y-21388485D02*
X112734524Y-21350390D01*
X112734524Y-21350390D02*
X112810714Y-21312295D01*
X112810714Y-21312295D02*
X113001190Y-21312295D01*
X113001190Y-21312295D02*
X113077381Y-21350390D01*
X113077381Y-21350390D02*
X113115476Y-21388485D01*
X113115476Y-21388485D02*
X113153571Y-21464676D01*
X113153571Y-21464676D02*
X113153571Y-21540866D01*
X113153571Y-21540866D02*
X113115476Y-21655152D01*
X113115476Y-21655152D02*
X112658333Y-22112295D01*
X112658333Y-22112295D02*
X113153571Y-22112295D01*
X234887295Y-21316666D02*
X235458723Y-21316666D01*
X235458723Y-21316666D02*
X235573009Y-21354761D01*
X235573009Y-21354761D02*
X235649200Y-21430952D01*
X235649200Y-21430952D02*
X235687295Y-21545237D01*
X235687295Y-21545237D02*
X235687295Y-21621428D01*
X235687295Y-20935713D02*
X234887295Y-20935713D01*
X234887295Y-20935713D02*
X234887295Y-20630951D01*
X234887295Y-20630951D02*
X234925390Y-20554761D01*
X234925390Y-20554761D02*
X234963485Y-20516666D01*
X234963485Y-20516666D02*
X235039676Y-20478570D01*
X235039676Y-20478570D02*
X235153961Y-20478570D01*
X235153961Y-20478570D02*
X235230152Y-20516666D01*
X235230152Y-20516666D02*
X235268247Y-20554761D01*
X235268247Y-20554761D02*
X235306342Y-20630951D01*
X235306342Y-20630951D02*
X235306342Y-20935713D01*
X235687295Y-19716666D02*
X235687295Y-20173809D01*
X235687295Y-19945237D02*
X234887295Y-19945237D01*
X234887295Y-19945237D02*
X235001580Y-20021428D01*
X235001580Y-20021428D02*
X235077771Y-20097618D01*
X235077771Y-20097618D02*
X235115866Y-20173809D01*
X10373809Y-30737295D02*
X9992857Y-30737295D01*
X9992857Y-30737295D02*
X9992857Y-29937295D01*
X10640476Y-30318247D02*
X10907142Y-30318247D01*
X11021428Y-30737295D02*
X10640476Y-30737295D01*
X10640476Y-30737295D02*
X10640476Y-29937295D01*
X10640476Y-29937295D02*
X11021428Y-29937295D01*
X11364286Y-30737295D02*
X11364286Y-29937295D01*
X11364286Y-29937295D02*
X11554762Y-29937295D01*
X11554762Y-29937295D02*
X11669048Y-29975390D01*
X11669048Y-29975390D02*
X11745238Y-30051580D01*
X11745238Y-30051580D02*
X11783333Y-30127771D01*
X11783333Y-30127771D02*
X11821429Y-30280152D01*
X11821429Y-30280152D02*
X11821429Y-30394438D01*
X11821429Y-30394438D02*
X11783333Y-30546819D01*
X11783333Y-30546819D02*
X11745238Y-30623009D01*
X11745238Y-30623009D02*
X11669048Y-30699200D01*
X11669048Y-30699200D02*
X11554762Y-30737295D01*
X11554762Y-30737295D02*
X11364286Y-30737295D01*
X12126190Y-30013485D02*
X12164286Y-29975390D01*
X12164286Y-29975390D02*
X12240476Y-29937295D01*
X12240476Y-29937295D02*
X12430952Y-29937295D01*
X12430952Y-29937295D02*
X12507143Y-29975390D01*
X12507143Y-29975390D02*
X12545238Y-30013485D01*
X12545238Y-30013485D02*
X12583333Y-30089676D01*
X12583333Y-30089676D02*
X12583333Y-30165866D01*
X12583333Y-30165866D02*
X12545238Y-30280152D01*
X12545238Y-30280152D02*
X12088095Y-30737295D01*
X12088095Y-30737295D02*
X12583333Y-30737295D01*
X13040476Y-30280152D02*
X12964286Y-30242057D01*
X12964286Y-30242057D02*
X12926191Y-30203961D01*
X12926191Y-30203961D02*
X12888095Y-30127771D01*
X12888095Y-30127771D02*
X12888095Y-30089676D01*
X12888095Y-30089676D02*
X12926191Y-30013485D01*
X12926191Y-30013485D02*
X12964286Y-29975390D01*
X12964286Y-29975390D02*
X13040476Y-29937295D01*
X13040476Y-29937295D02*
X13192857Y-29937295D01*
X13192857Y-29937295D02*
X13269048Y-29975390D01*
X13269048Y-29975390D02*
X13307143Y-30013485D01*
X13307143Y-30013485D02*
X13345238Y-30089676D01*
X13345238Y-30089676D02*
X13345238Y-30127771D01*
X13345238Y-30127771D02*
X13307143Y-30203961D01*
X13307143Y-30203961D02*
X13269048Y-30242057D01*
X13269048Y-30242057D02*
X13192857Y-30280152D01*
X13192857Y-30280152D02*
X13040476Y-30280152D01*
X13040476Y-30280152D02*
X12964286Y-30318247D01*
X12964286Y-30318247D02*
X12926191Y-30356342D01*
X12926191Y-30356342D02*
X12888095Y-30432533D01*
X12888095Y-30432533D02*
X12888095Y-30584914D01*
X12888095Y-30584914D02*
X12926191Y-30661104D01*
X12926191Y-30661104D02*
X12964286Y-30699200D01*
X12964286Y-30699200D02*
X13040476Y-30737295D01*
X13040476Y-30737295D02*
X13192857Y-30737295D01*
X13192857Y-30737295D02*
X13269048Y-30699200D01*
X13269048Y-30699200D02*
X13307143Y-30661104D01*
X13307143Y-30661104D02*
X13345238Y-30584914D01*
X13345238Y-30584914D02*
X13345238Y-30432533D01*
X13345238Y-30432533D02*
X13307143Y-30356342D01*
X13307143Y-30356342D02*
X13269048Y-30318247D01*
X13269048Y-30318247D02*
X13192857Y-30280152D01*
X244236104Y-33364285D02*
X244274200Y-33402381D01*
X244274200Y-33402381D02*
X244312295Y-33516666D01*
X244312295Y-33516666D02*
X244312295Y-33592857D01*
X244312295Y-33592857D02*
X244274200Y-33707143D01*
X244274200Y-33707143D02*
X244198009Y-33783333D01*
X244198009Y-33783333D02*
X244121819Y-33821428D01*
X244121819Y-33821428D02*
X243969438Y-33859524D01*
X243969438Y-33859524D02*
X243855152Y-33859524D01*
X243855152Y-33859524D02*
X243702771Y-33821428D01*
X243702771Y-33821428D02*
X243626580Y-33783333D01*
X243626580Y-33783333D02*
X243550390Y-33707143D01*
X243550390Y-33707143D02*
X243512295Y-33592857D01*
X243512295Y-33592857D02*
X243512295Y-33516666D01*
X243512295Y-33516666D02*
X243550390Y-33402381D01*
X243550390Y-33402381D02*
X243588485Y-33364285D01*
X244312295Y-32602381D02*
X244312295Y-33059524D01*
X244312295Y-32830952D02*
X243512295Y-32830952D01*
X243512295Y-32830952D02*
X243626580Y-32907143D01*
X243626580Y-32907143D02*
X243702771Y-32983333D01*
X243702771Y-32983333D02*
X243740866Y-33059524D01*
X243512295Y-31878571D02*
X243512295Y-32259523D01*
X243512295Y-32259523D02*
X243893247Y-32297619D01*
X243893247Y-32297619D02*
X243855152Y-32259523D01*
X243855152Y-32259523D02*
X243817057Y-32183333D01*
X243817057Y-32183333D02*
X243817057Y-31992857D01*
X243817057Y-31992857D02*
X243855152Y-31916666D01*
X243855152Y-31916666D02*
X243893247Y-31878571D01*
X243893247Y-31878571D02*
X243969438Y-31840476D01*
X243969438Y-31840476D02*
X244159914Y-31840476D01*
X244159914Y-31840476D02*
X244236104Y-31878571D01*
X244236104Y-31878571D02*
X244274200Y-31916666D01*
X244274200Y-31916666D02*
X244312295Y-31992857D01*
X244312295Y-31992857D02*
X244312295Y-32183333D01*
X244312295Y-32183333D02*
X244274200Y-32259523D01*
X244274200Y-32259523D02*
X244236104Y-32297619D01*
X159885714Y-15274795D02*
X159619047Y-14893842D01*
X159428571Y-15274795D02*
X159428571Y-14474795D01*
X159428571Y-14474795D02*
X159733333Y-14474795D01*
X159733333Y-14474795D02*
X159809523Y-14512890D01*
X159809523Y-14512890D02*
X159847618Y-14550985D01*
X159847618Y-14550985D02*
X159885714Y-14627176D01*
X159885714Y-14627176D02*
X159885714Y-14741461D01*
X159885714Y-14741461D02*
X159847618Y-14817652D01*
X159847618Y-14817652D02*
X159809523Y-14855747D01*
X159809523Y-14855747D02*
X159733333Y-14893842D01*
X159733333Y-14893842D02*
X159428571Y-14893842D01*
X160647618Y-15274795D02*
X160190475Y-15274795D01*
X160419047Y-15274795D02*
X160419047Y-14474795D01*
X160419047Y-14474795D02*
X160342856Y-14589080D01*
X160342856Y-14589080D02*
X160266666Y-14665271D01*
X160266666Y-14665271D02*
X160190475Y-14703366D01*
X161409523Y-15274795D02*
X160952380Y-15274795D01*
X161180952Y-15274795D02*
X161180952Y-14474795D01*
X161180952Y-14474795D02*
X161104761Y-14589080D01*
X161104761Y-14589080D02*
X161028571Y-14665271D01*
X161028571Y-14665271D02*
X160952380Y-14703366D01*
X161966666Y-5012295D02*
X161585714Y-5012295D01*
X161585714Y-5012295D02*
X161585714Y-4212295D01*
X162576190Y-4478961D02*
X162576190Y-5012295D01*
X162385714Y-4174200D02*
X162195237Y-4745628D01*
X162195237Y-4745628D02*
X162690476Y-4745628D01*
X173686104Y-18108332D02*
X173724200Y-18146428D01*
X173724200Y-18146428D02*
X173762295Y-18260713D01*
X173762295Y-18260713D02*
X173762295Y-18336904D01*
X173762295Y-18336904D02*
X173724200Y-18451190D01*
X173724200Y-18451190D02*
X173648009Y-18527380D01*
X173648009Y-18527380D02*
X173571819Y-18565475D01*
X173571819Y-18565475D02*
X173419438Y-18603571D01*
X173419438Y-18603571D02*
X173305152Y-18603571D01*
X173305152Y-18603571D02*
X173152771Y-18565475D01*
X173152771Y-18565475D02*
X173076580Y-18527380D01*
X173076580Y-18527380D02*
X173000390Y-18451190D01*
X173000390Y-18451190D02*
X172962295Y-18336904D01*
X172962295Y-18336904D02*
X172962295Y-18260713D01*
X172962295Y-18260713D02*
X173000390Y-18146428D01*
X173000390Y-18146428D02*
X173038485Y-18108332D01*
X172962295Y-17422618D02*
X172962295Y-17574999D01*
X172962295Y-17574999D02*
X173000390Y-17651190D01*
X173000390Y-17651190D02*
X173038485Y-17689285D01*
X173038485Y-17689285D02*
X173152771Y-17765475D01*
X173152771Y-17765475D02*
X173305152Y-17803571D01*
X173305152Y-17803571D02*
X173609914Y-17803571D01*
X173609914Y-17803571D02*
X173686104Y-17765475D01*
X173686104Y-17765475D02*
X173724200Y-17727380D01*
X173724200Y-17727380D02*
X173762295Y-17651190D01*
X173762295Y-17651190D02*
X173762295Y-17498809D01*
X173762295Y-17498809D02*
X173724200Y-17422618D01*
X173724200Y-17422618D02*
X173686104Y-17384523D01*
X173686104Y-17384523D02*
X173609914Y-17346428D01*
X173609914Y-17346428D02*
X173419438Y-17346428D01*
X173419438Y-17346428D02*
X173343247Y-17384523D01*
X173343247Y-17384523D02*
X173305152Y-17422618D01*
X173305152Y-17422618D02*
X173267057Y-17498809D01*
X173267057Y-17498809D02*
X173267057Y-17651190D01*
X173267057Y-17651190D02*
X173305152Y-17727380D01*
X173305152Y-17727380D02*
X173343247Y-17765475D01*
X173343247Y-17765475D02*
X173419438Y-17803571D01*
X152960714Y-24862295D02*
X152694047Y-24481342D01*
X152503571Y-24862295D02*
X152503571Y-24062295D01*
X152503571Y-24062295D02*
X152808333Y-24062295D01*
X152808333Y-24062295D02*
X152884523Y-24100390D01*
X152884523Y-24100390D02*
X152922618Y-24138485D01*
X152922618Y-24138485D02*
X152960714Y-24214676D01*
X152960714Y-24214676D02*
X152960714Y-24328961D01*
X152960714Y-24328961D02*
X152922618Y-24405152D01*
X152922618Y-24405152D02*
X152884523Y-24443247D01*
X152884523Y-24443247D02*
X152808333Y-24481342D01*
X152808333Y-24481342D02*
X152503571Y-24481342D01*
X153227380Y-24062295D02*
X153722618Y-24062295D01*
X153722618Y-24062295D02*
X153455952Y-24367057D01*
X153455952Y-24367057D02*
X153570237Y-24367057D01*
X153570237Y-24367057D02*
X153646428Y-24405152D01*
X153646428Y-24405152D02*
X153684523Y-24443247D01*
X153684523Y-24443247D02*
X153722618Y-24519438D01*
X153722618Y-24519438D02*
X153722618Y-24709914D01*
X153722618Y-24709914D02*
X153684523Y-24786104D01*
X153684523Y-24786104D02*
X153646428Y-24824200D01*
X153646428Y-24824200D02*
X153570237Y-24862295D01*
X153570237Y-24862295D02*
X153341666Y-24862295D01*
X153341666Y-24862295D02*
X153265475Y-24824200D01*
X153265475Y-24824200D02*
X153227380Y-24786104D01*
X154484523Y-24862295D02*
X154027380Y-24862295D01*
X154255952Y-24862295D02*
X154255952Y-24062295D01*
X154255952Y-24062295D02*
X154179761Y-24176580D01*
X154179761Y-24176580D02*
X154103571Y-24252771D01*
X154103571Y-24252771D02*
X154027380Y-24290866D01*
X140385714Y-10287295D02*
X140119047Y-9906342D01*
X139928571Y-10287295D02*
X139928571Y-9487295D01*
X139928571Y-9487295D02*
X140233333Y-9487295D01*
X140233333Y-9487295D02*
X140309523Y-9525390D01*
X140309523Y-9525390D02*
X140347618Y-9563485D01*
X140347618Y-9563485D02*
X140385714Y-9639676D01*
X140385714Y-9639676D02*
X140385714Y-9753961D01*
X140385714Y-9753961D02*
X140347618Y-9830152D01*
X140347618Y-9830152D02*
X140309523Y-9868247D01*
X140309523Y-9868247D02*
X140233333Y-9906342D01*
X140233333Y-9906342D02*
X139928571Y-9906342D01*
X141147618Y-10287295D02*
X140690475Y-10287295D01*
X140919047Y-10287295D02*
X140919047Y-9487295D01*
X140919047Y-9487295D02*
X140842856Y-9601580D01*
X140842856Y-9601580D02*
X140766666Y-9677771D01*
X140766666Y-9677771D02*
X140690475Y-9715866D01*
X141833333Y-9487295D02*
X141680952Y-9487295D01*
X141680952Y-9487295D02*
X141604761Y-9525390D01*
X141604761Y-9525390D02*
X141566666Y-9563485D01*
X141566666Y-9563485D02*
X141490476Y-9677771D01*
X141490476Y-9677771D02*
X141452380Y-9830152D01*
X141452380Y-9830152D02*
X141452380Y-10134914D01*
X141452380Y-10134914D02*
X141490476Y-10211104D01*
X141490476Y-10211104D02*
X141528571Y-10249200D01*
X141528571Y-10249200D02*
X141604761Y-10287295D01*
X141604761Y-10287295D02*
X141757142Y-10287295D01*
X141757142Y-10287295D02*
X141833333Y-10249200D01*
X141833333Y-10249200D02*
X141871428Y-10211104D01*
X141871428Y-10211104D02*
X141909523Y-10134914D01*
X141909523Y-10134914D02*
X141909523Y-9944438D01*
X141909523Y-9944438D02*
X141871428Y-9868247D01*
X141871428Y-9868247D02*
X141833333Y-9830152D01*
X141833333Y-9830152D02*
X141757142Y-9792057D01*
X141757142Y-9792057D02*
X141604761Y-9792057D01*
X141604761Y-9792057D02*
X141528571Y-9830152D01*
X141528571Y-9830152D02*
X141490476Y-9868247D01*
X141490476Y-9868247D02*
X141452380Y-9944438D01*
X64373809Y-30737295D02*
X63992857Y-30737295D01*
X63992857Y-30737295D02*
X63992857Y-29937295D01*
X64640476Y-30318247D02*
X64907142Y-30318247D01*
X65021428Y-30737295D02*
X64640476Y-30737295D01*
X64640476Y-30737295D02*
X64640476Y-29937295D01*
X64640476Y-29937295D02*
X65021428Y-29937295D01*
X65364286Y-30737295D02*
X65364286Y-29937295D01*
X65364286Y-29937295D02*
X65554762Y-29937295D01*
X65554762Y-29937295D02*
X65669048Y-29975390D01*
X65669048Y-29975390D02*
X65745238Y-30051580D01*
X65745238Y-30051580D02*
X65783333Y-30127771D01*
X65783333Y-30127771D02*
X65821429Y-30280152D01*
X65821429Y-30280152D02*
X65821429Y-30394438D01*
X65821429Y-30394438D02*
X65783333Y-30546819D01*
X65783333Y-30546819D02*
X65745238Y-30623009D01*
X65745238Y-30623009D02*
X65669048Y-30699200D01*
X65669048Y-30699200D02*
X65554762Y-30737295D01*
X65554762Y-30737295D02*
X65364286Y-30737295D01*
X66126190Y-30013485D02*
X66164286Y-29975390D01*
X66164286Y-29975390D02*
X66240476Y-29937295D01*
X66240476Y-29937295D02*
X66430952Y-29937295D01*
X66430952Y-29937295D02*
X66507143Y-29975390D01*
X66507143Y-29975390D02*
X66545238Y-30013485D01*
X66545238Y-30013485D02*
X66583333Y-30089676D01*
X66583333Y-30089676D02*
X66583333Y-30165866D01*
X66583333Y-30165866D02*
X66545238Y-30280152D01*
X66545238Y-30280152D02*
X66088095Y-30737295D01*
X66088095Y-30737295D02*
X66583333Y-30737295D01*
X67307143Y-29937295D02*
X66926191Y-29937295D01*
X66926191Y-29937295D02*
X66888095Y-30318247D01*
X66888095Y-30318247D02*
X66926191Y-30280152D01*
X66926191Y-30280152D02*
X67002381Y-30242057D01*
X67002381Y-30242057D02*
X67192857Y-30242057D01*
X67192857Y-30242057D02*
X67269048Y-30280152D01*
X67269048Y-30280152D02*
X67307143Y-30318247D01*
X67307143Y-30318247D02*
X67345238Y-30394438D01*
X67345238Y-30394438D02*
X67345238Y-30584914D01*
X67345238Y-30584914D02*
X67307143Y-30661104D01*
X67307143Y-30661104D02*
X67269048Y-30699200D01*
X67269048Y-30699200D02*
X67192857Y-30737295D01*
X67192857Y-30737295D02*
X67002381Y-30737295D01*
X67002381Y-30737295D02*
X66926191Y-30699200D01*
X66926191Y-30699200D02*
X66888095Y-30661104D01*
X3658333Y-46837295D02*
X3658333Y-47408723D01*
X3658333Y-47408723D02*
X3620238Y-47523009D01*
X3620238Y-47523009D02*
X3544047Y-47599200D01*
X3544047Y-47599200D02*
X3429762Y-47637295D01*
X3429762Y-47637295D02*
X3353571Y-47637295D01*
X4382143Y-46837295D02*
X4229762Y-46837295D01*
X4229762Y-46837295D02*
X4153571Y-46875390D01*
X4153571Y-46875390D02*
X4115476Y-46913485D01*
X4115476Y-46913485D02*
X4039286Y-47027771D01*
X4039286Y-47027771D02*
X4001190Y-47180152D01*
X4001190Y-47180152D02*
X4001190Y-47484914D01*
X4001190Y-47484914D02*
X4039286Y-47561104D01*
X4039286Y-47561104D02*
X4077381Y-47599200D01*
X4077381Y-47599200D02*
X4153571Y-47637295D01*
X4153571Y-47637295D02*
X4305952Y-47637295D01*
X4305952Y-47637295D02*
X4382143Y-47599200D01*
X4382143Y-47599200D02*
X4420238Y-47561104D01*
X4420238Y-47561104D02*
X4458333Y-47484914D01*
X4458333Y-47484914D02*
X4458333Y-47294438D01*
X4458333Y-47294438D02*
X4420238Y-47218247D01*
X4420238Y-47218247D02*
X4382143Y-47180152D01*
X4382143Y-47180152D02*
X4305952Y-47142057D01*
X4305952Y-47142057D02*
X4153571Y-47142057D01*
X4153571Y-47142057D02*
X4077381Y-47180152D01*
X4077381Y-47180152D02*
X4039286Y-47218247D01*
X4039286Y-47218247D02*
X4001190Y-47294438D01*
X180408333Y-23587295D02*
X180408333Y-24158723D01*
X180408333Y-24158723D02*
X180370238Y-24273009D01*
X180370238Y-24273009D02*
X180294047Y-24349200D01*
X180294047Y-24349200D02*
X180179762Y-24387295D01*
X180179762Y-24387295D02*
X180103571Y-24387295D01*
X181132143Y-23853961D02*
X181132143Y-24387295D01*
X180941667Y-23549200D02*
X180751190Y-24120628D01*
X180751190Y-24120628D02*
X181246429Y-24120628D01*
X240637295Y-33364285D02*
X240256342Y-33630952D01*
X240637295Y-33821428D02*
X239837295Y-33821428D01*
X239837295Y-33821428D02*
X239837295Y-33516666D01*
X239837295Y-33516666D02*
X239875390Y-33440476D01*
X239875390Y-33440476D02*
X239913485Y-33402381D01*
X239913485Y-33402381D02*
X239989676Y-33364285D01*
X239989676Y-33364285D02*
X240103961Y-33364285D01*
X240103961Y-33364285D02*
X240180152Y-33402381D01*
X240180152Y-33402381D02*
X240218247Y-33440476D01*
X240218247Y-33440476D02*
X240256342Y-33516666D01*
X240256342Y-33516666D02*
X240256342Y-33821428D01*
X239837295Y-33097619D02*
X239837295Y-32602381D01*
X239837295Y-32602381D02*
X240142057Y-32869047D01*
X240142057Y-32869047D02*
X240142057Y-32754762D01*
X240142057Y-32754762D02*
X240180152Y-32678571D01*
X240180152Y-32678571D02*
X240218247Y-32640476D01*
X240218247Y-32640476D02*
X240294438Y-32602381D01*
X240294438Y-32602381D02*
X240484914Y-32602381D01*
X240484914Y-32602381D02*
X240561104Y-32640476D01*
X240561104Y-32640476D02*
X240599200Y-32678571D01*
X240599200Y-32678571D02*
X240637295Y-32754762D01*
X240637295Y-32754762D02*
X240637295Y-32983333D01*
X240637295Y-32983333D02*
X240599200Y-33059524D01*
X240599200Y-33059524D02*
X240561104Y-33097619D01*
X240637295Y-32221428D02*
X240637295Y-32069047D01*
X240637295Y-32069047D02*
X240599200Y-31992857D01*
X240599200Y-31992857D02*
X240561104Y-31954761D01*
X240561104Y-31954761D02*
X240446819Y-31878571D01*
X240446819Y-31878571D02*
X240294438Y-31840476D01*
X240294438Y-31840476D02*
X239989676Y-31840476D01*
X239989676Y-31840476D02*
X239913485Y-31878571D01*
X239913485Y-31878571D02*
X239875390Y-31916666D01*
X239875390Y-31916666D02*
X239837295Y-31992857D01*
X239837295Y-31992857D02*
X239837295Y-32145238D01*
X239837295Y-32145238D02*
X239875390Y-32221428D01*
X239875390Y-32221428D02*
X239913485Y-32259523D01*
X239913485Y-32259523D02*
X239989676Y-32297619D01*
X239989676Y-32297619D02*
X240180152Y-32297619D01*
X240180152Y-32297619D02*
X240256342Y-32259523D01*
X240256342Y-32259523D02*
X240294438Y-32221428D01*
X240294438Y-32221428D02*
X240332533Y-32145238D01*
X240332533Y-32145238D02*
X240332533Y-31992857D01*
X240332533Y-31992857D02*
X240294438Y-31916666D01*
X240294438Y-31916666D02*
X240256342Y-31878571D01*
X240256342Y-31878571D02*
X240180152Y-31840476D01*
X236040476Y-45537295D02*
X236040476Y-46184914D01*
X236040476Y-46184914D02*
X236078571Y-46261104D01*
X236078571Y-46261104D02*
X236116666Y-46299200D01*
X236116666Y-46299200D02*
X236192857Y-46337295D01*
X236192857Y-46337295D02*
X236345238Y-46337295D01*
X236345238Y-46337295D02*
X236421428Y-46299200D01*
X236421428Y-46299200D02*
X236459523Y-46261104D01*
X236459523Y-46261104D02*
X236497619Y-46184914D01*
X236497619Y-46184914D02*
X236497619Y-45537295D01*
X236802380Y-45537295D02*
X237335714Y-45537295D01*
X237335714Y-45537295D02*
X236992856Y-46337295D01*
X80912295Y-33314285D02*
X80531342Y-33580952D01*
X80912295Y-33771428D02*
X80112295Y-33771428D01*
X80112295Y-33771428D02*
X80112295Y-33466666D01*
X80112295Y-33466666D02*
X80150390Y-33390476D01*
X80150390Y-33390476D02*
X80188485Y-33352381D01*
X80188485Y-33352381D02*
X80264676Y-33314285D01*
X80264676Y-33314285D02*
X80378961Y-33314285D01*
X80378961Y-33314285D02*
X80455152Y-33352381D01*
X80455152Y-33352381D02*
X80493247Y-33390476D01*
X80493247Y-33390476D02*
X80531342Y-33466666D01*
X80531342Y-33466666D02*
X80531342Y-33771428D01*
X80378961Y-32628571D02*
X80912295Y-32628571D01*
X80074200Y-32819047D02*
X80645628Y-33009524D01*
X80645628Y-33009524D02*
X80645628Y-32514285D01*
X80112295Y-32057142D02*
X80112295Y-31980952D01*
X80112295Y-31980952D02*
X80150390Y-31904761D01*
X80150390Y-31904761D02*
X80188485Y-31866666D01*
X80188485Y-31866666D02*
X80264676Y-31828571D01*
X80264676Y-31828571D02*
X80417057Y-31790476D01*
X80417057Y-31790476D02*
X80607533Y-31790476D01*
X80607533Y-31790476D02*
X80759914Y-31828571D01*
X80759914Y-31828571D02*
X80836104Y-31866666D01*
X80836104Y-31866666D02*
X80874200Y-31904761D01*
X80874200Y-31904761D02*
X80912295Y-31980952D01*
X80912295Y-31980952D02*
X80912295Y-32057142D01*
X80912295Y-32057142D02*
X80874200Y-32133333D01*
X80874200Y-32133333D02*
X80836104Y-32171428D01*
X80836104Y-32171428D02*
X80759914Y-32209523D01*
X80759914Y-32209523D02*
X80607533Y-32247619D01*
X80607533Y-32247619D02*
X80417057Y-32247619D01*
X80417057Y-32247619D02*
X80264676Y-32209523D01*
X80264676Y-32209523D02*
X80188485Y-32171428D01*
X80188485Y-32171428D02*
X80150390Y-32133333D01*
X80150390Y-32133333D02*
X80112295Y-32057142D01*
X171666666Y-9712295D02*
X171285714Y-9712295D01*
X171285714Y-9712295D02*
X171285714Y-8912295D01*
X171857142Y-8912295D02*
X172352380Y-8912295D01*
X172352380Y-8912295D02*
X172085714Y-9217057D01*
X172085714Y-9217057D02*
X172199999Y-9217057D01*
X172199999Y-9217057D02*
X172276190Y-9255152D01*
X172276190Y-9255152D02*
X172314285Y-9293247D01*
X172314285Y-9293247D02*
X172352380Y-9369438D01*
X172352380Y-9369438D02*
X172352380Y-9559914D01*
X172352380Y-9559914D02*
X172314285Y-9636104D01*
X172314285Y-9636104D02*
X172276190Y-9674200D01*
X172276190Y-9674200D02*
X172199999Y-9712295D01*
X172199999Y-9712295D02*
X171971428Y-9712295D01*
X171971428Y-9712295D02*
X171895237Y-9674200D01*
X171895237Y-9674200D02*
X171857142Y-9636104D01*
X150735714Y-22587295D02*
X150469047Y-22206342D01*
X150278571Y-22587295D02*
X150278571Y-21787295D01*
X150278571Y-21787295D02*
X150583333Y-21787295D01*
X150583333Y-21787295D02*
X150659523Y-21825390D01*
X150659523Y-21825390D02*
X150697618Y-21863485D01*
X150697618Y-21863485D02*
X150735714Y-21939676D01*
X150735714Y-21939676D02*
X150735714Y-22053961D01*
X150735714Y-22053961D02*
X150697618Y-22130152D01*
X150697618Y-22130152D02*
X150659523Y-22168247D01*
X150659523Y-22168247D02*
X150583333Y-22206342D01*
X150583333Y-22206342D02*
X150278571Y-22206342D01*
X151040475Y-21863485D02*
X151078571Y-21825390D01*
X151078571Y-21825390D02*
X151154761Y-21787295D01*
X151154761Y-21787295D02*
X151345237Y-21787295D01*
X151345237Y-21787295D02*
X151421428Y-21825390D01*
X151421428Y-21825390D02*
X151459523Y-21863485D01*
X151459523Y-21863485D02*
X151497618Y-21939676D01*
X151497618Y-21939676D02*
X151497618Y-22015866D01*
X151497618Y-22015866D02*
X151459523Y-22130152D01*
X151459523Y-22130152D02*
X151002380Y-22587295D01*
X151002380Y-22587295D02*
X151497618Y-22587295D01*
X151802380Y-21863485D02*
X151840476Y-21825390D01*
X151840476Y-21825390D02*
X151916666Y-21787295D01*
X151916666Y-21787295D02*
X152107142Y-21787295D01*
X152107142Y-21787295D02*
X152183333Y-21825390D01*
X152183333Y-21825390D02*
X152221428Y-21863485D01*
X152221428Y-21863485D02*
X152259523Y-21939676D01*
X152259523Y-21939676D02*
X152259523Y-22015866D01*
X152259523Y-22015866D02*
X152221428Y-22130152D01*
X152221428Y-22130152D02*
X151764285Y-22587295D01*
X151764285Y-22587295D02*
X152259523Y-22587295D01*
X163360714Y-9462295D02*
X163094047Y-9081342D01*
X162903571Y-9462295D02*
X162903571Y-8662295D01*
X162903571Y-8662295D02*
X163208333Y-8662295D01*
X163208333Y-8662295D02*
X163284523Y-8700390D01*
X163284523Y-8700390D02*
X163322618Y-8738485D01*
X163322618Y-8738485D02*
X163360714Y-8814676D01*
X163360714Y-8814676D02*
X163360714Y-8928961D01*
X163360714Y-8928961D02*
X163322618Y-9005152D01*
X163322618Y-9005152D02*
X163284523Y-9043247D01*
X163284523Y-9043247D02*
X163208333Y-9081342D01*
X163208333Y-9081342D02*
X162903571Y-9081342D01*
X163665475Y-8738485D02*
X163703571Y-8700390D01*
X163703571Y-8700390D02*
X163779761Y-8662295D01*
X163779761Y-8662295D02*
X163970237Y-8662295D01*
X163970237Y-8662295D02*
X164046428Y-8700390D01*
X164046428Y-8700390D02*
X164084523Y-8738485D01*
X164084523Y-8738485D02*
X164122618Y-8814676D01*
X164122618Y-8814676D02*
X164122618Y-8890866D01*
X164122618Y-8890866D02*
X164084523Y-9005152D01*
X164084523Y-9005152D02*
X163627380Y-9462295D01*
X163627380Y-9462295D02*
X164122618Y-9462295D01*
X164503571Y-9462295D02*
X164655952Y-9462295D01*
X164655952Y-9462295D02*
X164732142Y-9424200D01*
X164732142Y-9424200D02*
X164770238Y-9386104D01*
X164770238Y-9386104D02*
X164846428Y-9271819D01*
X164846428Y-9271819D02*
X164884523Y-9119438D01*
X164884523Y-9119438D02*
X164884523Y-8814676D01*
X164884523Y-8814676D02*
X164846428Y-8738485D01*
X164846428Y-8738485D02*
X164808333Y-8700390D01*
X164808333Y-8700390D02*
X164732142Y-8662295D01*
X164732142Y-8662295D02*
X164579761Y-8662295D01*
X164579761Y-8662295D02*
X164503571Y-8700390D01*
X164503571Y-8700390D02*
X164465476Y-8738485D01*
X164465476Y-8738485D02*
X164427380Y-8814676D01*
X164427380Y-8814676D02*
X164427380Y-9005152D01*
X164427380Y-9005152D02*
X164465476Y-9081342D01*
X164465476Y-9081342D02*
X164503571Y-9119438D01*
X164503571Y-9119438D02*
X164579761Y-9157533D01*
X164579761Y-9157533D02*
X164732142Y-9157533D01*
X164732142Y-9157533D02*
X164808333Y-9119438D01*
X164808333Y-9119438D02*
X164846428Y-9081342D01*
X164846428Y-9081342D02*
X164884523Y-9005152D01*
X175086104Y-5939285D02*
X175124200Y-5977381D01*
X175124200Y-5977381D02*
X175162295Y-6091666D01*
X175162295Y-6091666D02*
X175162295Y-6167857D01*
X175162295Y-6167857D02*
X175124200Y-6282143D01*
X175124200Y-6282143D02*
X175048009Y-6358333D01*
X175048009Y-6358333D02*
X174971819Y-6396428D01*
X174971819Y-6396428D02*
X174819438Y-6434524D01*
X174819438Y-6434524D02*
X174705152Y-6434524D01*
X174705152Y-6434524D02*
X174552771Y-6396428D01*
X174552771Y-6396428D02*
X174476580Y-6358333D01*
X174476580Y-6358333D02*
X174400390Y-6282143D01*
X174400390Y-6282143D02*
X174362295Y-6167857D01*
X174362295Y-6167857D02*
X174362295Y-6091666D01*
X174362295Y-6091666D02*
X174400390Y-5977381D01*
X174400390Y-5977381D02*
X174438485Y-5939285D01*
X175162295Y-5177381D02*
X175162295Y-5634524D01*
X175162295Y-5405952D02*
X174362295Y-5405952D01*
X174362295Y-5405952D02*
X174476580Y-5482143D01*
X174476580Y-5482143D02*
X174552771Y-5558333D01*
X174552771Y-5558333D02*
X174590866Y-5634524D01*
X174362295Y-4682142D02*
X174362295Y-4605952D01*
X174362295Y-4605952D02*
X174400390Y-4529761D01*
X174400390Y-4529761D02*
X174438485Y-4491666D01*
X174438485Y-4491666D02*
X174514676Y-4453571D01*
X174514676Y-4453571D02*
X174667057Y-4415476D01*
X174667057Y-4415476D02*
X174857533Y-4415476D01*
X174857533Y-4415476D02*
X175009914Y-4453571D01*
X175009914Y-4453571D02*
X175086104Y-4491666D01*
X175086104Y-4491666D02*
X175124200Y-4529761D01*
X175124200Y-4529761D02*
X175162295Y-4605952D01*
X175162295Y-4605952D02*
X175162295Y-4682142D01*
X175162295Y-4682142D02*
X175124200Y-4758333D01*
X175124200Y-4758333D02*
X175086104Y-4796428D01*
X175086104Y-4796428D02*
X175009914Y-4834523D01*
X175009914Y-4834523D02*
X174857533Y-4872619D01*
X174857533Y-4872619D02*
X174667057Y-4872619D01*
X174667057Y-4872619D02*
X174514676Y-4834523D01*
X174514676Y-4834523D02*
X174438485Y-4796428D01*
X174438485Y-4796428D02*
X174400390Y-4758333D01*
X174400390Y-4758333D02*
X174362295Y-4682142D01*
X145860714Y-17449795D02*
X145594047Y-17068842D01*
X145403571Y-17449795D02*
X145403571Y-16649795D01*
X145403571Y-16649795D02*
X145708333Y-16649795D01*
X145708333Y-16649795D02*
X145784523Y-16687890D01*
X145784523Y-16687890D02*
X145822618Y-16725985D01*
X145822618Y-16725985D02*
X145860714Y-16802176D01*
X145860714Y-16802176D02*
X145860714Y-16916461D01*
X145860714Y-16916461D02*
X145822618Y-16992652D01*
X145822618Y-16992652D02*
X145784523Y-17030747D01*
X145784523Y-17030747D02*
X145708333Y-17068842D01*
X145708333Y-17068842D02*
X145403571Y-17068842D01*
X146165475Y-16725985D02*
X146203571Y-16687890D01*
X146203571Y-16687890D02*
X146279761Y-16649795D01*
X146279761Y-16649795D02*
X146470237Y-16649795D01*
X146470237Y-16649795D02*
X146546428Y-16687890D01*
X146546428Y-16687890D02*
X146584523Y-16725985D01*
X146584523Y-16725985D02*
X146622618Y-16802176D01*
X146622618Y-16802176D02*
X146622618Y-16878366D01*
X146622618Y-16878366D02*
X146584523Y-16992652D01*
X146584523Y-16992652D02*
X146127380Y-17449795D01*
X146127380Y-17449795D02*
X146622618Y-17449795D01*
X147117857Y-16649795D02*
X147194047Y-16649795D01*
X147194047Y-16649795D02*
X147270238Y-16687890D01*
X147270238Y-16687890D02*
X147308333Y-16725985D01*
X147308333Y-16725985D02*
X147346428Y-16802176D01*
X147346428Y-16802176D02*
X147384523Y-16954557D01*
X147384523Y-16954557D02*
X147384523Y-17145033D01*
X147384523Y-17145033D02*
X147346428Y-17297414D01*
X147346428Y-17297414D02*
X147308333Y-17373604D01*
X147308333Y-17373604D02*
X147270238Y-17411700D01*
X147270238Y-17411700D02*
X147194047Y-17449795D01*
X147194047Y-17449795D02*
X147117857Y-17449795D01*
X147117857Y-17449795D02*
X147041666Y-17411700D01*
X147041666Y-17411700D02*
X147003571Y-17373604D01*
X147003571Y-17373604D02*
X146965476Y-17297414D01*
X146965476Y-17297414D02*
X146927380Y-17145033D01*
X146927380Y-17145033D02*
X146927380Y-16954557D01*
X146927380Y-16954557D02*
X146965476Y-16802176D01*
X146965476Y-16802176D02*
X147003571Y-16725985D01*
X147003571Y-16725985D02*
X147041666Y-16687890D01*
X147041666Y-16687890D02*
X147117857Y-16649795D01*
X172910714Y-8562295D02*
X172644047Y-8181342D01*
X172453571Y-8562295D02*
X172453571Y-7762295D01*
X172453571Y-7762295D02*
X172758333Y-7762295D01*
X172758333Y-7762295D02*
X172834523Y-7800390D01*
X172834523Y-7800390D02*
X172872618Y-7838485D01*
X172872618Y-7838485D02*
X172910714Y-7914676D01*
X172910714Y-7914676D02*
X172910714Y-8028961D01*
X172910714Y-8028961D02*
X172872618Y-8105152D01*
X172872618Y-8105152D02*
X172834523Y-8143247D01*
X172834523Y-8143247D02*
X172758333Y-8181342D01*
X172758333Y-8181342D02*
X172453571Y-8181342D01*
X173215475Y-7838485D02*
X173253571Y-7800390D01*
X173253571Y-7800390D02*
X173329761Y-7762295D01*
X173329761Y-7762295D02*
X173520237Y-7762295D01*
X173520237Y-7762295D02*
X173596428Y-7800390D01*
X173596428Y-7800390D02*
X173634523Y-7838485D01*
X173634523Y-7838485D02*
X173672618Y-7914676D01*
X173672618Y-7914676D02*
X173672618Y-7990866D01*
X173672618Y-7990866D02*
X173634523Y-8105152D01*
X173634523Y-8105152D02*
X173177380Y-8562295D01*
X173177380Y-8562295D02*
X173672618Y-8562295D01*
X174396428Y-7762295D02*
X174015476Y-7762295D01*
X174015476Y-7762295D02*
X173977380Y-8143247D01*
X173977380Y-8143247D02*
X174015476Y-8105152D01*
X174015476Y-8105152D02*
X174091666Y-8067057D01*
X174091666Y-8067057D02*
X174282142Y-8067057D01*
X174282142Y-8067057D02*
X174358333Y-8105152D01*
X174358333Y-8105152D02*
X174396428Y-8143247D01*
X174396428Y-8143247D02*
X174434523Y-8219438D01*
X174434523Y-8219438D02*
X174434523Y-8409914D01*
X174434523Y-8409914D02*
X174396428Y-8486104D01*
X174396428Y-8486104D02*
X174358333Y-8524200D01*
X174358333Y-8524200D02*
X174282142Y-8562295D01*
X174282142Y-8562295D02*
X174091666Y-8562295D01*
X174091666Y-8562295D02*
X174015476Y-8524200D01*
X174015476Y-8524200D02*
X173977380Y-8486104D01*
X164137295Y-15934523D02*
X164784914Y-15934523D01*
X164784914Y-15934523D02*
X164861104Y-15896428D01*
X164861104Y-15896428D02*
X164899200Y-15858333D01*
X164899200Y-15858333D02*
X164937295Y-15782142D01*
X164937295Y-15782142D02*
X164937295Y-15629761D01*
X164937295Y-15629761D02*
X164899200Y-15553571D01*
X164899200Y-15553571D02*
X164861104Y-15515476D01*
X164861104Y-15515476D02*
X164784914Y-15477380D01*
X164784914Y-15477380D02*
X164137295Y-15477380D01*
X164213485Y-15134524D02*
X164175390Y-15096428D01*
X164175390Y-15096428D02*
X164137295Y-15020238D01*
X164137295Y-15020238D02*
X164137295Y-14829762D01*
X164137295Y-14829762D02*
X164175390Y-14753571D01*
X164175390Y-14753571D02*
X164213485Y-14715476D01*
X164213485Y-14715476D02*
X164289676Y-14677381D01*
X164289676Y-14677381D02*
X164365866Y-14677381D01*
X164365866Y-14677381D02*
X164480152Y-14715476D01*
X164480152Y-14715476D02*
X164937295Y-15172619D01*
X164937295Y-15172619D02*
X164937295Y-14677381D01*
X243036104Y-33364285D02*
X243074200Y-33402381D01*
X243074200Y-33402381D02*
X243112295Y-33516666D01*
X243112295Y-33516666D02*
X243112295Y-33592857D01*
X243112295Y-33592857D02*
X243074200Y-33707143D01*
X243074200Y-33707143D02*
X242998009Y-33783333D01*
X242998009Y-33783333D02*
X242921819Y-33821428D01*
X242921819Y-33821428D02*
X242769438Y-33859524D01*
X242769438Y-33859524D02*
X242655152Y-33859524D01*
X242655152Y-33859524D02*
X242502771Y-33821428D01*
X242502771Y-33821428D02*
X242426580Y-33783333D01*
X242426580Y-33783333D02*
X242350390Y-33707143D01*
X242350390Y-33707143D02*
X242312295Y-33592857D01*
X242312295Y-33592857D02*
X242312295Y-33516666D01*
X242312295Y-33516666D02*
X242350390Y-33402381D01*
X242350390Y-33402381D02*
X242388485Y-33364285D01*
X243112295Y-32602381D02*
X243112295Y-33059524D01*
X243112295Y-32830952D02*
X242312295Y-32830952D01*
X242312295Y-32830952D02*
X242426580Y-32907143D01*
X242426580Y-32907143D02*
X242502771Y-32983333D01*
X242502771Y-32983333D02*
X242540866Y-33059524D01*
X242312295Y-31916666D02*
X242312295Y-32069047D01*
X242312295Y-32069047D02*
X242350390Y-32145238D01*
X242350390Y-32145238D02*
X242388485Y-32183333D01*
X242388485Y-32183333D02*
X242502771Y-32259523D01*
X242502771Y-32259523D02*
X242655152Y-32297619D01*
X242655152Y-32297619D02*
X242959914Y-32297619D01*
X242959914Y-32297619D02*
X243036104Y-32259523D01*
X243036104Y-32259523D02*
X243074200Y-32221428D01*
X243074200Y-32221428D02*
X243112295Y-32145238D01*
X243112295Y-32145238D02*
X243112295Y-31992857D01*
X243112295Y-31992857D02*
X243074200Y-31916666D01*
X243074200Y-31916666D02*
X243036104Y-31878571D01*
X243036104Y-31878571D02*
X242959914Y-31840476D01*
X242959914Y-31840476D02*
X242769438Y-31840476D01*
X242769438Y-31840476D02*
X242693247Y-31878571D01*
X242693247Y-31878571D02*
X242655152Y-31916666D01*
X242655152Y-31916666D02*
X242617057Y-31992857D01*
X242617057Y-31992857D02*
X242617057Y-32145238D01*
X242617057Y-32145238D02*
X242655152Y-32221428D01*
X242655152Y-32221428D02*
X242693247Y-32259523D01*
X242693247Y-32259523D02*
X242769438Y-32297619D01*
X174680571Y-44117295D02*
X174680571Y-43317295D01*
X174680571Y-43317295D02*
X174871047Y-43317295D01*
X174871047Y-43317295D02*
X174985333Y-43355390D01*
X174985333Y-43355390D02*
X175061523Y-43431580D01*
X175061523Y-43431580D02*
X175099618Y-43507771D01*
X175099618Y-43507771D02*
X175137714Y-43660152D01*
X175137714Y-43660152D02*
X175137714Y-43774438D01*
X175137714Y-43774438D02*
X175099618Y-43926819D01*
X175099618Y-43926819D02*
X175061523Y-44003009D01*
X175061523Y-44003009D02*
X174985333Y-44079200D01*
X174985333Y-44079200D02*
X174871047Y-44117295D01*
X174871047Y-44117295D02*
X174680571Y-44117295D01*
X175442475Y-43393485D02*
X175480571Y-43355390D01*
X175480571Y-43355390D02*
X175556761Y-43317295D01*
X175556761Y-43317295D02*
X175747237Y-43317295D01*
X175747237Y-43317295D02*
X175823428Y-43355390D01*
X175823428Y-43355390D02*
X175861523Y-43393485D01*
X175861523Y-43393485D02*
X175899618Y-43469676D01*
X175899618Y-43469676D02*
X175899618Y-43545866D01*
X175899618Y-43545866D02*
X175861523Y-43660152D01*
X175861523Y-43660152D02*
X175404380Y-44117295D01*
X175404380Y-44117295D02*
X175899618Y-44117295D01*
X176394857Y-43317295D02*
X176471047Y-43317295D01*
X176471047Y-43317295D02*
X176547238Y-43355390D01*
X176547238Y-43355390D02*
X176585333Y-43393485D01*
X176585333Y-43393485D02*
X176623428Y-43469676D01*
X176623428Y-43469676D02*
X176661523Y-43622057D01*
X176661523Y-43622057D02*
X176661523Y-43812533D01*
X176661523Y-43812533D02*
X176623428Y-43964914D01*
X176623428Y-43964914D02*
X176585333Y-44041104D01*
X176585333Y-44041104D02*
X176547238Y-44079200D01*
X176547238Y-44079200D02*
X176471047Y-44117295D01*
X176471047Y-44117295D02*
X176394857Y-44117295D01*
X176394857Y-44117295D02*
X176318666Y-44079200D01*
X176318666Y-44079200D02*
X176280571Y-44041104D01*
X176280571Y-44041104D02*
X176242476Y-43964914D01*
X176242476Y-43964914D02*
X176204380Y-43812533D01*
X176204380Y-43812533D02*
X176204380Y-43622057D01*
X176204380Y-43622057D02*
X176242476Y-43469676D01*
X176242476Y-43469676D02*
X176280571Y-43393485D01*
X176280571Y-43393485D02*
X176318666Y-43355390D01*
X176318666Y-43355390D02*
X176394857Y-43317295D01*
X5008333Y-37687295D02*
X5008333Y-38258723D01*
X5008333Y-38258723D02*
X4970238Y-38373009D01*
X4970238Y-38373009D02*
X4894047Y-38449200D01*
X4894047Y-38449200D02*
X4779762Y-38487295D01*
X4779762Y-38487295D02*
X4703571Y-38487295D01*
X5770238Y-37687295D02*
X5389286Y-37687295D01*
X5389286Y-37687295D02*
X5351190Y-38068247D01*
X5351190Y-38068247D02*
X5389286Y-38030152D01*
X5389286Y-38030152D02*
X5465476Y-37992057D01*
X5465476Y-37992057D02*
X5655952Y-37992057D01*
X5655952Y-37992057D02*
X5732143Y-38030152D01*
X5732143Y-38030152D02*
X5770238Y-38068247D01*
X5770238Y-38068247D02*
X5808333Y-38144438D01*
X5808333Y-38144438D02*
X5808333Y-38334914D01*
X5808333Y-38334914D02*
X5770238Y-38411104D01*
X5770238Y-38411104D02*
X5732143Y-38449200D01*
X5732143Y-38449200D02*
X5655952Y-38487295D01*
X5655952Y-38487295D02*
X5465476Y-38487295D01*
X5465476Y-38487295D02*
X5389286Y-38449200D01*
X5389286Y-38449200D02*
X5351190Y-38411104D01*
X79712295Y-33314285D02*
X79331342Y-33580952D01*
X79712295Y-33771428D02*
X78912295Y-33771428D01*
X78912295Y-33771428D02*
X78912295Y-33466666D01*
X78912295Y-33466666D02*
X78950390Y-33390476D01*
X78950390Y-33390476D02*
X78988485Y-33352381D01*
X78988485Y-33352381D02*
X79064676Y-33314285D01*
X79064676Y-33314285D02*
X79178961Y-33314285D01*
X79178961Y-33314285D02*
X79255152Y-33352381D01*
X79255152Y-33352381D02*
X79293247Y-33390476D01*
X79293247Y-33390476D02*
X79331342Y-33466666D01*
X79331342Y-33466666D02*
X79331342Y-33771428D01*
X79178961Y-32628571D02*
X79712295Y-32628571D01*
X78874200Y-32819047D02*
X79445628Y-33009524D01*
X79445628Y-33009524D02*
X79445628Y-32514285D01*
X79712295Y-32171428D02*
X79712295Y-32019047D01*
X79712295Y-32019047D02*
X79674200Y-31942857D01*
X79674200Y-31942857D02*
X79636104Y-31904761D01*
X79636104Y-31904761D02*
X79521819Y-31828571D01*
X79521819Y-31828571D02*
X79369438Y-31790476D01*
X79369438Y-31790476D02*
X79064676Y-31790476D01*
X79064676Y-31790476D02*
X78988485Y-31828571D01*
X78988485Y-31828571D02*
X78950390Y-31866666D01*
X78950390Y-31866666D02*
X78912295Y-31942857D01*
X78912295Y-31942857D02*
X78912295Y-32095238D01*
X78912295Y-32095238D02*
X78950390Y-32171428D01*
X78950390Y-32171428D02*
X78988485Y-32209523D01*
X78988485Y-32209523D02*
X79064676Y-32247619D01*
X79064676Y-32247619D02*
X79255152Y-32247619D01*
X79255152Y-32247619D02*
X79331342Y-32209523D01*
X79331342Y-32209523D02*
X79369438Y-32171428D01*
X79369438Y-32171428D02*
X79407533Y-32095238D01*
X79407533Y-32095238D02*
X79407533Y-31942857D01*
X79407533Y-31942857D02*
X79369438Y-31866666D01*
X79369438Y-31866666D02*
X79331342Y-31828571D01*
X79331342Y-31828571D02*
X79255152Y-31790476D01*
X130080571Y-44117295D02*
X130080571Y-43317295D01*
X130080571Y-43317295D02*
X130271047Y-43317295D01*
X130271047Y-43317295D02*
X130385333Y-43355390D01*
X130385333Y-43355390D02*
X130461523Y-43431580D01*
X130461523Y-43431580D02*
X130499618Y-43507771D01*
X130499618Y-43507771D02*
X130537714Y-43660152D01*
X130537714Y-43660152D02*
X130537714Y-43774438D01*
X130537714Y-43774438D02*
X130499618Y-43926819D01*
X130499618Y-43926819D02*
X130461523Y-44003009D01*
X130461523Y-44003009D02*
X130385333Y-44079200D01*
X130385333Y-44079200D02*
X130271047Y-44117295D01*
X130271047Y-44117295D02*
X130080571Y-44117295D01*
X130842475Y-43393485D02*
X130880571Y-43355390D01*
X130880571Y-43355390D02*
X130956761Y-43317295D01*
X130956761Y-43317295D02*
X131147237Y-43317295D01*
X131147237Y-43317295D02*
X131223428Y-43355390D01*
X131223428Y-43355390D02*
X131261523Y-43393485D01*
X131261523Y-43393485D02*
X131299618Y-43469676D01*
X131299618Y-43469676D02*
X131299618Y-43545866D01*
X131299618Y-43545866D02*
X131261523Y-43660152D01*
X131261523Y-43660152D02*
X130804380Y-44117295D01*
X130804380Y-44117295D02*
X131299618Y-44117295D01*
X131604380Y-43393485D02*
X131642476Y-43355390D01*
X131642476Y-43355390D02*
X131718666Y-43317295D01*
X131718666Y-43317295D02*
X131909142Y-43317295D01*
X131909142Y-43317295D02*
X131985333Y-43355390D01*
X131985333Y-43355390D02*
X132023428Y-43393485D01*
X132023428Y-43393485D02*
X132061523Y-43469676D01*
X132061523Y-43469676D02*
X132061523Y-43545866D01*
X132061523Y-43545866D02*
X132023428Y-43660152D01*
X132023428Y-43660152D02*
X131566285Y-44117295D01*
X131566285Y-44117295D02*
X132061523Y-44117295D01*
X89136104Y-41739285D02*
X89174200Y-41777381D01*
X89174200Y-41777381D02*
X89212295Y-41891666D01*
X89212295Y-41891666D02*
X89212295Y-41967857D01*
X89212295Y-41967857D02*
X89174200Y-42082143D01*
X89174200Y-42082143D02*
X89098009Y-42158333D01*
X89098009Y-42158333D02*
X89021819Y-42196428D01*
X89021819Y-42196428D02*
X88869438Y-42234524D01*
X88869438Y-42234524D02*
X88755152Y-42234524D01*
X88755152Y-42234524D02*
X88602771Y-42196428D01*
X88602771Y-42196428D02*
X88526580Y-42158333D01*
X88526580Y-42158333D02*
X88450390Y-42082143D01*
X88450390Y-42082143D02*
X88412295Y-41967857D01*
X88412295Y-41967857D02*
X88412295Y-41891666D01*
X88412295Y-41891666D02*
X88450390Y-41777381D01*
X88450390Y-41777381D02*
X88488485Y-41739285D01*
X88488485Y-41434524D02*
X88450390Y-41396428D01*
X88450390Y-41396428D02*
X88412295Y-41320238D01*
X88412295Y-41320238D02*
X88412295Y-41129762D01*
X88412295Y-41129762D02*
X88450390Y-41053571D01*
X88450390Y-41053571D02*
X88488485Y-41015476D01*
X88488485Y-41015476D02*
X88564676Y-40977381D01*
X88564676Y-40977381D02*
X88640866Y-40977381D01*
X88640866Y-40977381D02*
X88755152Y-41015476D01*
X88755152Y-41015476D02*
X89212295Y-41472619D01*
X89212295Y-41472619D02*
X89212295Y-40977381D01*
X88412295Y-40710714D02*
X88412295Y-40215476D01*
X88412295Y-40215476D02*
X88717057Y-40482142D01*
X88717057Y-40482142D02*
X88717057Y-40367857D01*
X88717057Y-40367857D02*
X88755152Y-40291666D01*
X88755152Y-40291666D02*
X88793247Y-40253571D01*
X88793247Y-40253571D02*
X88869438Y-40215476D01*
X88869438Y-40215476D02*
X89059914Y-40215476D01*
X89059914Y-40215476D02*
X89136104Y-40253571D01*
X89136104Y-40253571D02*
X89174200Y-40291666D01*
X89174200Y-40291666D02*
X89212295Y-40367857D01*
X89212295Y-40367857D02*
X89212295Y-40596428D01*
X89212295Y-40596428D02*
X89174200Y-40672619D01*
X89174200Y-40672619D02*
X89136104Y-40710714D01*
X1085714Y-43036104D02*
X1047618Y-43074200D01*
X1047618Y-43074200D02*
X933333Y-43112295D01*
X933333Y-43112295D02*
X857142Y-43112295D01*
X857142Y-43112295D02*
X742856Y-43074200D01*
X742856Y-43074200D02*
X666666Y-42998009D01*
X666666Y-42998009D02*
X628571Y-42921819D01*
X628571Y-42921819D02*
X590475Y-42769438D01*
X590475Y-42769438D02*
X590475Y-42655152D01*
X590475Y-42655152D02*
X628571Y-42502771D01*
X628571Y-42502771D02*
X666666Y-42426580D01*
X666666Y-42426580D02*
X742856Y-42350390D01*
X742856Y-42350390D02*
X857142Y-42312295D01*
X857142Y-42312295D02*
X933333Y-42312295D01*
X933333Y-42312295D02*
X1047618Y-42350390D01*
X1047618Y-42350390D02*
X1085714Y-42388485D01*
X1390475Y-42388485D02*
X1428571Y-42350390D01*
X1428571Y-42350390D02*
X1504761Y-42312295D01*
X1504761Y-42312295D02*
X1695237Y-42312295D01*
X1695237Y-42312295D02*
X1771428Y-42350390D01*
X1771428Y-42350390D02*
X1809523Y-42388485D01*
X1809523Y-42388485D02*
X1847618Y-42464676D01*
X1847618Y-42464676D02*
X1847618Y-42540866D01*
X1847618Y-42540866D02*
X1809523Y-42655152D01*
X1809523Y-42655152D02*
X1352380Y-43112295D01*
X1352380Y-43112295D02*
X1847618Y-43112295D01*
X2228571Y-43112295D02*
X2380952Y-43112295D01*
X2380952Y-43112295D02*
X2457142Y-43074200D01*
X2457142Y-43074200D02*
X2495238Y-43036104D01*
X2495238Y-43036104D02*
X2571428Y-42921819D01*
X2571428Y-42921819D02*
X2609523Y-42769438D01*
X2609523Y-42769438D02*
X2609523Y-42464676D01*
X2609523Y-42464676D02*
X2571428Y-42388485D01*
X2571428Y-42388485D02*
X2533333Y-42350390D01*
X2533333Y-42350390D02*
X2457142Y-42312295D01*
X2457142Y-42312295D02*
X2304761Y-42312295D01*
X2304761Y-42312295D02*
X2228571Y-42350390D01*
X2228571Y-42350390D02*
X2190476Y-42388485D01*
X2190476Y-42388485D02*
X2152380Y-42464676D01*
X2152380Y-42464676D02*
X2152380Y-42655152D01*
X2152380Y-42655152D02*
X2190476Y-42731342D01*
X2190476Y-42731342D02*
X2228571Y-42769438D01*
X2228571Y-42769438D02*
X2304761Y-42807533D01*
X2304761Y-42807533D02*
X2457142Y-42807533D01*
X2457142Y-42807533D02*
X2533333Y-42769438D01*
X2533333Y-42769438D02*
X2571428Y-42731342D01*
X2571428Y-42731342D02*
X2609523Y-42655152D01*
X145860714Y-18649795D02*
X145594047Y-18268842D01*
X145403571Y-18649795D02*
X145403571Y-17849795D01*
X145403571Y-17849795D02*
X145708333Y-17849795D01*
X145708333Y-17849795D02*
X145784523Y-17887890D01*
X145784523Y-17887890D02*
X145822618Y-17925985D01*
X145822618Y-17925985D02*
X145860714Y-18002176D01*
X145860714Y-18002176D02*
X145860714Y-18116461D01*
X145860714Y-18116461D02*
X145822618Y-18192652D01*
X145822618Y-18192652D02*
X145784523Y-18230747D01*
X145784523Y-18230747D02*
X145708333Y-18268842D01*
X145708333Y-18268842D02*
X145403571Y-18268842D01*
X146165475Y-17925985D02*
X146203571Y-17887890D01*
X146203571Y-17887890D02*
X146279761Y-17849795D01*
X146279761Y-17849795D02*
X146470237Y-17849795D01*
X146470237Y-17849795D02*
X146546428Y-17887890D01*
X146546428Y-17887890D02*
X146584523Y-17925985D01*
X146584523Y-17925985D02*
X146622618Y-18002176D01*
X146622618Y-18002176D02*
X146622618Y-18078366D01*
X146622618Y-18078366D02*
X146584523Y-18192652D01*
X146584523Y-18192652D02*
X146127380Y-18649795D01*
X146127380Y-18649795D02*
X146622618Y-18649795D01*
X147384523Y-18649795D02*
X146927380Y-18649795D01*
X147155952Y-18649795D02*
X147155952Y-17849795D01*
X147155952Y-17849795D02*
X147079761Y-17964080D01*
X147079761Y-17964080D02*
X147003571Y-18040271D01*
X147003571Y-18040271D02*
X146927380Y-18078366D01*
X120241667Y-5312295D02*
X119975000Y-4931342D01*
X119784524Y-5312295D02*
X119784524Y-4512295D01*
X119784524Y-4512295D02*
X120089286Y-4512295D01*
X120089286Y-4512295D02*
X120165476Y-4550390D01*
X120165476Y-4550390D02*
X120203571Y-4588485D01*
X120203571Y-4588485D02*
X120241667Y-4664676D01*
X120241667Y-4664676D02*
X120241667Y-4778961D01*
X120241667Y-4778961D02*
X120203571Y-4855152D01*
X120203571Y-4855152D02*
X120165476Y-4893247D01*
X120165476Y-4893247D02*
X120089286Y-4931342D01*
X120089286Y-4931342D02*
X119784524Y-4931342D01*
X120546428Y-4588485D02*
X120584524Y-4550390D01*
X120584524Y-4550390D02*
X120660714Y-4512295D01*
X120660714Y-4512295D02*
X120851190Y-4512295D01*
X120851190Y-4512295D02*
X120927381Y-4550390D01*
X120927381Y-4550390D02*
X120965476Y-4588485D01*
X120965476Y-4588485D02*
X121003571Y-4664676D01*
X121003571Y-4664676D02*
X121003571Y-4740866D01*
X121003571Y-4740866D02*
X120965476Y-4855152D01*
X120965476Y-4855152D02*
X120508333Y-5312295D01*
X120508333Y-5312295D02*
X121003571Y-5312295D01*
X170287295Y-22014285D02*
X169906342Y-22280952D01*
X170287295Y-22471428D02*
X169487295Y-22471428D01*
X169487295Y-22471428D02*
X169487295Y-22166666D01*
X169487295Y-22166666D02*
X169525390Y-22090476D01*
X169525390Y-22090476D02*
X169563485Y-22052381D01*
X169563485Y-22052381D02*
X169639676Y-22014285D01*
X169639676Y-22014285D02*
X169753961Y-22014285D01*
X169753961Y-22014285D02*
X169830152Y-22052381D01*
X169830152Y-22052381D02*
X169868247Y-22090476D01*
X169868247Y-22090476D02*
X169906342Y-22166666D01*
X169906342Y-22166666D02*
X169906342Y-22471428D01*
X170287295Y-21252381D02*
X170287295Y-21709524D01*
X170287295Y-21480952D02*
X169487295Y-21480952D01*
X169487295Y-21480952D02*
X169601580Y-21557143D01*
X169601580Y-21557143D02*
X169677771Y-21633333D01*
X169677771Y-21633333D02*
X169715866Y-21709524D01*
X169753961Y-20566666D02*
X170287295Y-20566666D01*
X169449200Y-20757142D02*
X170020628Y-20947619D01*
X170020628Y-20947619D02*
X170020628Y-20452380D01*
X19107295Y-34348428D02*
X18307295Y-34348428D01*
X18307295Y-34348428D02*
X18307295Y-34157952D01*
X18307295Y-34157952D02*
X18345390Y-34043666D01*
X18345390Y-34043666D02*
X18421580Y-33967476D01*
X18421580Y-33967476D02*
X18497771Y-33929381D01*
X18497771Y-33929381D02*
X18650152Y-33891285D01*
X18650152Y-33891285D02*
X18764438Y-33891285D01*
X18764438Y-33891285D02*
X18916819Y-33929381D01*
X18916819Y-33929381D02*
X18993009Y-33967476D01*
X18993009Y-33967476D02*
X19069200Y-34043666D01*
X19069200Y-34043666D02*
X19107295Y-34157952D01*
X19107295Y-34157952D02*
X19107295Y-34348428D01*
X18383485Y-33586524D02*
X18345390Y-33548428D01*
X18345390Y-33548428D02*
X18307295Y-33472238D01*
X18307295Y-33472238D02*
X18307295Y-33281762D01*
X18307295Y-33281762D02*
X18345390Y-33205571D01*
X18345390Y-33205571D02*
X18383485Y-33167476D01*
X18383485Y-33167476D02*
X18459676Y-33129381D01*
X18459676Y-33129381D02*
X18535866Y-33129381D01*
X18535866Y-33129381D02*
X18650152Y-33167476D01*
X18650152Y-33167476D02*
X19107295Y-33624619D01*
X19107295Y-33624619D02*
X19107295Y-33129381D01*
X18307295Y-32862714D02*
X18307295Y-32329380D01*
X18307295Y-32329380D02*
X19107295Y-32672238D01*
X155630571Y-44117295D02*
X155630571Y-43317295D01*
X155630571Y-43317295D02*
X155821047Y-43317295D01*
X155821047Y-43317295D02*
X155935333Y-43355390D01*
X155935333Y-43355390D02*
X156011523Y-43431580D01*
X156011523Y-43431580D02*
X156049618Y-43507771D01*
X156049618Y-43507771D02*
X156087714Y-43660152D01*
X156087714Y-43660152D02*
X156087714Y-43774438D01*
X156087714Y-43774438D02*
X156049618Y-43926819D01*
X156049618Y-43926819D02*
X156011523Y-44003009D01*
X156011523Y-44003009D02*
X155935333Y-44079200D01*
X155935333Y-44079200D02*
X155821047Y-44117295D01*
X155821047Y-44117295D02*
X155630571Y-44117295D01*
X156392475Y-43393485D02*
X156430571Y-43355390D01*
X156430571Y-43355390D02*
X156506761Y-43317295D01*
X156506761Y-43317295D02*
X156697237Y-43317295D01*
X156697237Y-43317295D02*
X156773428Y-43355390D01*
X156773428Y-43355390D02*
X156811523Y-43393485D01*
X156811523Y-43393485D02*
X156849618Y-43469676D01*
X156849618Y-43469676D02*
X156849618Y-43545866D01*
X156849618Y-43545866D02*
X156811523Y-43660152D01*
X156811523Y-43660152D02*
X156354380Y-44117295D01*
X156354380Y-44117295D02*
X156849618Y-44117295D01*
X157611523Y-44117295D02*
X157154380Y-44117295D01*
X157382952Y-44117295D02*
X157382952Y-43317295D01*
X157382952Y-43317295D02*
X157306761Y-43431580D01*
X157306761Y-43431580D02*
X157230571Y-43507771D01*
X157230571Y-43507771D02*
X157154380Y-43545866D01*
X138933333Y-1412295D02*
X138933333Y-1983723D01*
X138933333Y-1983723D02*
X138895238Y-2098009D01*
X138895238Y-2098009D02*
X138819047Y-2174200D01*
X138819047Y-2174200D02*
X138704762Y-2212295D01*
X138704762Y-2212295D02*
X138628571Y-2212295D01*
X139238095Y-1412295D02*
X139771429Y-1412295D01*
X139771429Y-1412295D02*
X139428571Y-2212295D01*
X120241667Y-6512295D02*
X119975000Y-6131342D01*
X119784524Y-6512295D02*
X119784524Y-5712295D01*
X119784524Y-5712295D02*
X120089286Y-5712295D01*
X120089286Y-5712295D02*
X120165476Y-5750390D01*
X120165476Y-5750390D02*
X120203571Y-5788485D01*
X120203571Y-5788485D02*
X120241667Y-5864676D01*
X120241667Y-5864676D02*
X120241667Y-5978961D01*
X120241667Y-5978961D02*
X120203571Y-6055152D01*
X120203571Y-6055152D02*
X120165476Y-6093247D01*
X120165476Y-6093247D02*
X120089286Y-6131342D01*
X120089286Y-6131342D02*
X119784524Y-6131342D01*
X121003571Y-6512295D02*
X120546428Y-6512295D01*
X120775000Y-6512295D02*
X120775000Y-5712295D01*
X120775000Y-5712295D02*
X120698809Y-5826580D01*
X120698809Y-5826580D02*
X120622619Y-5902771D01*
X120622619Y-5902771D02*
X120546428Y-5940866D01*
X240337295Y-21316666D02*
X240908723Y-21316666D01*
X240908723Y-21316666D02*
X241023009Y-21354761D01*
X241023009Y-21354761D02*
X241099200Y-21430952D01*
X241099200Y-21430952D02*
X241137295Y-21545237D01*
X241137295Y-21545237D02*
X241137295Y-21621428D01*
X241137295Y-20935713D02*
X240337295Y-20935713D01*
X240337295Y-20935713D02*
X240337295Y-20630951D01*
X240337295Y-20630951D02*
X240375390Y-20554761D01*
X240375390Y-20554761D02*
X240413485Y-20516666D01*
X240413485Y-20516666D02*
X240489676Y-20478570D01*
X240489676Y-20478570D02*
X240603961Y-20478570D01*
X240603961Y-20478570D02*
X240680152Y-20516666D01*
X240680152Y-20516666D02*
X240718247Y-20554761D01*
X240718247Y-20554761D02*
X240756342Y-20630951D01*
X240756342Y-20630951D02*
X240756342Y-20935713D01*
X240413485Y-20173809D02*
X240375390Y-20135713D01*
X240375390Y-20135713D02*
X240337295Y-20059523D01*
X240337295Y-20059523D02*
X240337295Y-19869047D01*
X240337295Y-19869047D02*
X240375390Y-19792856D01*
X240375390Y-19792856D02*
X240413485Y-19754761D01*
X240413485Y-19754761D02*
X240489676Y-19716666D01*
X240489676Y-19716666D02*
X240565866Y-19716666D01*
X240565866Y-19716666D02*
X240680152Y-19754761D01*
X240680152Y-19754761D02*
X241137295Y-20211904D01*
X241137295Y-20211904D02*
X241137295Y-19716666D01*
X226858333Y-23212295D02*
X226858333Y-23783723D01*
X226858333Y-23783723D02*
X226820238Y-23898009D01*
X226820238Y-23898009D02*
X226744047Y-23974200D01*
X226744047Y-23974200D02*
X226629762Y-24012295D01*
X226629762Y-24012295D02*
X226553571Y-24012295D01*
X227658333Y-24012295D02*
X227201190Y-24012295D01*
X227429762Y-24012295D02*
X227429762Y-23212295D01*
X227429762Y-23212295D02*
X227353571Y-23326580D01*
X227353571Y-23326580D02*
X227277381Y-23402771D01*
X227277381Y-23402771D02*
X227201190Y-23440866D01*
X37107295Y-34348428D02*
X36307295Y-34348428D01*
X36307295Y-34348428D02*
X36307295Y-34157952D01*
X36307295Y-34157952D02*
X36345390Y-34043666D01*
X36345390Y-34043666D02*
X36421580Y-33967476D01*
X36421580Y-33967476D02*
X36497771Y-33929381D01*
X36497771Y-33929381D02*
X36650152Y-33891285D01*
X36650152Y-33891285D02*
X36764438Y-33891285D01*
X36764438Y-33891285D02*
X36916819Y-33929381D01*
X36916819Y-33929381D02*
X36993009Y-33967476D01*
X36993009Y-33967476D02*
X37069200Y-34043666D01*
X37069200Y-34043666D02*
X37107295Y-34157952D01*
X37107295Y-34157952D02*
X37107295Y-34348428D01*
X36383485Y-33586524D02*
X36345390Y-33548428D01*
X36345390Y-33548428D02*
X36307295Y-33472238D01*
X36307295Y-33472238D02*
X36307295Y-33281762D01*
X36307295Y-33281762D02*
X36345390Y-33205571D01*
X36345390Y-33205571D02*
X36383485Y-33167476D01*
X36383485Y-33167476D02*
X36459676Y-33129381D01*
X36459676Y-33129381D02*
X36535866Y-33129381D01*
X36535866Y-33129381D02*
X36650152Y-33167476D01*
X36650152Y-33167476D02*
X37107295Y-33624619D01*
X37107295Y-33624619D02*
X37107295Y-33129381D01*
X36307295Y-32443666D02*
X36307295Y-32596047D01*
X36307295Y-32596047D02*
X36345390Y-32672238D01*
X36345390Y-32672238D02*
X36383485Y-32710333D01*
X36383485Y-32710333D02*
X36497771Y-32786523D01*
X36497771Y-32786523D02*
X36650152Y-32824619D01*
X36650152Y-32824619D02*
X36954914Y-32824619D01*
X36954914Y-32824619D02*
X37031104Y-32786523D01*
X37031104Y-32786523D02*
X37069200Y-32748428D01*
X37069200Y-32748428D02*
X37107295Y-32672238D01*
X37107295Y-32672238D02*
X37107295Y-32519857D01*
X37107295Y-32519857D02*
X37069200Y-32443666D01*
X37069200Y-32443666D02*
X37031104Y-32405571D01*
X37031104Y-32405571D02*
X36954914Y-32367476D01*
X36954914Y-32367476D02*
X36764438Y-32367476D01*
X36764438Y-32367476D02*
X36688247Y-32405571D01*
X36688247Y-32405571D02*
X36650152Y-32443666D01*
X36650152Y-32443666D02*
X36612057Y-32519857D01*
X36612057Y-32519857D02*
X36612057Y-32672238D01*
X36612057Y-32672238D02*
X36650152Y-32748428D01*
X36650152Y-32748428D02*
X36688247Y-32786523D01*
X36688247Y-32786523D02*
X36764438Y-32824619D01*
X120241667Y-9737295D02*
X119975000Y-9356342D01*
X119784524Y-9737295D02*
X119784524Y-8937295D01*
X119784524Y-8937295D02*
X120089286Y-8937295D01*
X120089286Y-8937295D02*
X120165476Y-8975390D01*
X120165476Y-8975390D02*
X120203571Y-9013485D01*
X120203571Y-9013485D02*
X120241667Y-9089676D01*
X120241667Y-9089676D02*
X120241667Y-9203961D01*
X120241667Y-9203961D02*
X120203571Y-9280152D01*
X120203571Y-9280152D02*
X120165476Y-9318247D01*
X120165476Y-9318247D02*
X120089286Y-9356342D01*
X120089286Y-9356342D02*
X119784524Y-9356342D01*
X120965476Y-8937295D02*
X120584524Y-8937295D01*
X120584524Y-8937295D02*
X120546428Y-9318247D01*
X120546428Y-9318247D02*
X120584524Y-9280152D01*
X120584524Y-9280152D02*
X120660714Y-9242057D01*
X120660714Y-9242057D02*
X120851190Y-9242057D01*
X120851190Y-9242057D02*
X120927381Y-9280152D01*
X120927381Y-9280152D02*
X120965476Y-9318247D01*
X120965476Y-9318247D02*
X121003571Y-9394438D01*
X121003571Y-9394438D02*
X121003571Y-9584914D01*
X121003571Y-9584914D02*
X120965476Y-9661104D01*
X120965476Y-9661104D02*
X120927381Y-9699200D01*
X120927381Y-9699200D02*
X120851190Y-9737295D01*
X120851190Y-9737295D02*
X120660714Y-9737295D01*
X120660714Y-9737295D02*
X120584524Y-9699200D01*
X120584524Y-9699200D02*
X120546428Y-9661104D01*
X150735714Y-23762295D02*
X150469047Y-23381342D01*
X150278571Y-23762295D02*
X150278571Y-22962295D01*
X150278571Y-22962295D02*
X150583333Y-22962295D01*
X150583333Y-22962295D02*
X150659523Y-23000390D01*
X150659523Y-23000390D02*
X150697618Y-23038485D01*
X150697618Y-23038485D02*
X150735714Y-23114676D01*
X150735714Y-23114676D02*
X150735714Y-23228961D01*
X150735714Y-23228961D02*
X150697618Y-23305152D01*
X150697618Y-23305152D02*
X150659523Y-23343247D01*
X150659523Y-23343247D02*
X150583333Y-23381342D01*
X150583333Y-23381342D02*
X150278571Y-23381342D01*
X151002380Y-22962295D02*
X151497618Y-22962295D01*
X151497618Y-22962295D02*
X151230952Y-23267057D01*
X151230952Y-23267057D02*
X151345237Y-23267057D01*
X151345237Y-23267057D02*
X151421428Y-23305152D01*
X151421428Y-23305152D02*
X151459523Y-23343247D01*
X151459523Y-23343247D02*
X151497618Y-23419438D01*
X151497618Y-23419438D02*
X151497618Y-23609914D01*
X151497618Y-23609914D02*
X151459523Y-23686104D01*
X151459523Y-23686104D02*
X151421428Y-23724200D01*
X151421428Y-23724200D02*
X151345237Y-23762295D01*
X151345237Y-23762295D02*
X151116666Y-23762295D01*
X151116666Y-23762295D02*
X151040475Y-23724200D01*
X151040475Y-23724200D02*
X151002380Y-23686104D01*
X151992857Y-22962295D02*
X152069047Y-22962295D01*
X152069047Y-22962295D02*
X152145238Y-23000390D01*
X152145238Y-23000390D02*
X152183333Y-23038485D01*
X152183333Y-23038485D02*
X152221428Y-23114676D01*
X152221428Y-23114676D02*
X152259523Y-23267057D01*
X152259523Y-23267057D02*
X152259523Y-23457533D01*
X152259523Y-23457533D02*
X152221428Y-23609914D01*
X152221428Y-23609914D02*
X152183333Y-23686104D01*
X152183333Y-23686104D02*
X152145238Y-23724200D01*
X152145238Y-23724200D02*
X152069047Y-23762295D01*
X152069047Y-23762295D02*
X151992857Y-23762295D01*
X151992857Y-23762295D02*
X151916666Y-23724200D01*
X151916666Y-23724200D02*
X151878571Y-23686104D01*
X151878571Y-23686104D02*
X151840476Y-23609914D01*
X151840476Y-23609914D02*
X151802380Y-23457533D01*
X151802380Y-23457533D02*
X151802380Y-23267057D01*
X151802380Y-23267057D02*
X151840476Y-23114676D01*
X151840476Y-23114676D02*
X151878571Y-23038485D01*
X151878571Y-23038485D02*
X151916666Y-23000390D01*
X151916666Y-23000390D02*
X151992857Y-22962295D01*
X147265476Y-7812295D02*
X147265476Y-8459914D01*
X147265476Y-8459914D02*
X147303571Y-8536104D01*
X147303571Y-8536104D02*
X147341666Y-8574200D01*
X147341666Y-8574200D02*
X147417857Y-8612295D01*
X147417857Y-8612295D02*
X147570238Y-8612295D01*
X147570238Y-8612295D02*
X147646428Y-8574200D01*
X147646428Y-8574200D02*
X147684523Y-8536104D01*
X147684523Y-8536104D02*
X147722619Y-8459914D01*
X147722619Y-8459914D02*
X147722619Y-7812295D01*
X148027380Y-7812295D02*
X148522618Y-7812295D01*
X148522618Y-7812295D02*
X148255952Y-8117057D01*
X148255952Y-8117057D02*
X148370237Y-8117057D01*
X148370237Y-8117057D02*
X148446428Y-8155152D01*
X148446428Y-8155152D02*
X148484523Y-8193247D01*
X148484523Y-8193247D02*
X148522618Y-8269438D01*
X148522618Y-8269438D02*
X148522618Y-8459914D01*
X148522618Y-8459914D02*
X148484523Y-8536104D01*
X148484523Y-8536104D02*
X148446428Y-8574200D01*
X148446428Y-8574200D02*
X148370237Y-8612295D01*
X148370237Y-8612295D02*
X148141666Y-8612295D01*
X148141666Y-8612295D02*
X148065475Y-8574200D01*
X148065475Y-8574200D02*
X148027380Y-8536104D01*
X212780571Y-44117295D02*
X212780571Y-43317295D01*
X212780571Y-43317295D02*
X212971047Y-43317295D01*
X212971047Y-43317295D02*
X213085333Y-43355390D01*
X213085333Y-43355390D02*
X213161523Y-43431580D01*
X213161523Y-43431580D02*
X213199618Y-43507771D01*
X213199618Y-43507771D02*
X213237714Y-43660152D01*
X213237714Y-43660152D02*
X213237714Y-43774438D01*
X213237714Y-43774438D02*
X213199618Y-43926819D01*
X213199618Y-43926819D02*
X213161523Y-44003009D01*
X213161523Y-44003009D02*
X213085333Y-44079200D01*
X213085333Y-44079200D02*
X212971047Y-44117295D01*
X212971047Y-44117295D02*
X212780571Y-44117295D01*
X213999618Y-44117295D02*
X213542475Y-44117295D01*
X213771047Y-44117295D02*
X213771047Y-43317295D01*
X213771047Y-43317295D02*
X213694856Y-43431580D01*
X213694856Y-43431580D02*
X213618666Y-43507771D01*
X213618666Y-43507771D02*
X213542475Y-43545866D01*
X214456761Y-43660152D02*
X214380571Y-43622057D01*
X214380571Y-43622057D02*
X214342476Y-43583961D01*
X214342476Y-43583961D02*
X214304380Y-43507771D01*
X214304380Y-43507771D02*
X214304380Y-43469676D01*
X214304380Y-43469676D02*
X214342476Y-43393485D01*
X214342476Y-43393485D02*
X214380571Y-43355390D01*
X214380571Y-43355390D02*
X214456761Y-43317295D01*
X214456761Y-43317295D02*
X214609142Y-43317295D01*
X214609142Y-43317295D02*
X214685333Y-43355390D01*
X214685333Y-43355390D02*
X214723428Y-43393485D01*
X214723428Y-43393485D02*
X214761523Y-43469676D01*
X214761523Y-43469676D02*
X214761523Y-43507771D01*
X214761523Y-43507771D02*
X214723428Y-43583961D01*
X214723428Y-43583961D02*
X214685333Y-43622057D01*
X214685333Y-43622057D02*
X214609142Y-43660152D01*
X214609142Y-43660152D02*
X214456761Y-43660152D01*
X214456761Y-43660152D02*
X214380571Y-43698247D01*
X214380571Y-43698247D02*
X214342476Y-43736342D01*
X214342476Y-43736342D02*
X214304380Y-43812533D01*
X214304380Y-43812533D02*
X214304380Y-43964914D01*
X214304380Y-43964914D02*
X214342476Y-44041104D01*
X214342476Y-44041104D02*
X214380571Y-44079200D01*
X214380571Y-44079200D02*
X214456761Y-44117295D01*
X214456761Y-44117295D02*
X214609142Y-44117295D01*
X214609142Y-44117295D02*
X214685333Y-44079200D01*
X214685333Y-44079200D02*
X214723428Y-44041104D01*
X214723428Y-44041104D02*
X214761523Y-43964914D01*
X214761523Y-43964914D02*
X214761523Y-43812533D01*
X214761523Y-43812533D02*
X214723428Y-43736342D01*
X214723428Y-43736342D02*
X214685333Y-43698247D01*
X214685333Y-43698247D02*
X214609142Y-43660152D01*
X149260714Y-10287295D02*
X148994047Y-9906342D01*
X148803571Y-10287295D02*
X148803571Y-9487295D01*
X148803571Y-9487295D02*
X149108333Y-9487295D01*
X149108333Y-9487295D02*
X149184523Y-9525390D01*
X149184523Y-9525390D02*
X149222618Y-9563485D01*
X149222618Y-9563485D02*
X149260714Y-9639676D01*
X149260714Y-9639676D02*
X149260714Y-9753961D01*
X149260714Y-9753961D02*
X149222618Y-9830152D01*
X149222618Y-9830152D02*
X149184523Y-9868247D01*
X149184523Y-9868247D02*
X149108333Y-9906342D01*
X149108333Y-9906342D02*
X148803571Y-9906342D01*
X150022618Y-10287295D02*
X149565475Y-10287295D01*
X149794047Y-10287295D02*
X149794047Y-9487295D01*
X149794047Y-9487295D02*
X149717856Y-9601580D01*
X149717856Y-9601580D02*
X149641666Y-9677771D01*
X149641666Y-9677771D02*
X149565475Y-9715866D01*
X150746428Y-9487295D02*
X150365476Y-9487295D01*
X150365476Y-9487295D02*
X150327380Y-9868247D01*
X150327380Y-9868247D02*
X150365476Y-9830152D01*
X150365476Y-9830152D02*
X150441666Y-9792057D01*
X150441666Y-9792057D02*
X150632142Y-9792057D01*
X150632142Y-9792057D02*
X150708333Y-9830152D01*
X150708333Y-9830152D02*
X150746428Y-9868247D01*
X150746428Y-9868247D02*
X150784523Y-9944438D01*
X150784523Y-9944438D02*
X150784523Y-10134914D01*
X150784523Y-10134914D02*
X150746428Y-10211104D01*
X150746428Y-10211104D02*
X150708333Y-10249200D01*
X150708333Y-10249200D02*
X150632142Y-10287295D01*
X150632142Y-10287295D02*
X150441666Y-10287295D01*
X150441666Y-10287295D02*
X150365476Y-10249200D01*
X150365476Y-10249200D02*
X150327380Y-10211104D01*
X165985714Y-2386104D02*
X165947618Y-2424200D01*
X165947618Y-2424200D02*
X165833333Y-2462295D01*
X165833333Y-2462295D02*
X165757142Y-2462295D01*
X165757142Y-2462295D02*
X165642856Y-2424200D01*
X165642856Y-2424200D02*
X165566666Y-2348009D01*
X165566666Y-2348009D02*
X165528571Y-2271819D01*
X165528571Y-2271819D02*
X165490475Y-2119438D01*
X165490475Y-2119438D02*
X165490475Y-2005152D01*
X165490475Y-2005152D02*
X165528571Y-1852771D01*
X165528571Y-1852771D02*
X165566666Y-1776580D01*
X165566666Y-1776580D02*
X165642856Y-1700390D01*
X165642856Y-1700390D02*
X165757142Y-1662295D01*
X165757142Y-1662295D02*
X165833333Y-1662295D01*
X165833333Y-1662295D02*
X165947618Y-1700390D01*
X165947618Y-1700390D02*
X165985714Y-1738485D01*
X166747618Y-2462295D02*
X166290475Y-2462295D01*
X166519047Y-2462295D02*
X166519047Y-1662295D01*
X166519047Y-1662295D02*
X166442856Y-1776580D01*
X166442856Y-1776580D02*
X166366666Y-1852771D01*
X166366666Y-1852771D02*
X166290475Y-1890866D01*
X167052380Y-1738485D02*
X167090476Y-1700390D01*
X167090476Y-1700390D02*
X167166666Y-1662295D01*
X167166666Y-1662295D02*
X167357142Y-1662295D01*
X167357142Y-1662295D02*
X167433333Y-1700390D01*
X167433333Y-1700390D02*
X167471428Y-1738485D01*
X167471428Y-1738485D02*
X167509523Y-1814676D01*
X167509523Y-1814676D02*
X167509523Y-1890866D01*
X167509523Y-1890866D02*
X167471428Y-2005152D01*
X167471428Y-2005152D02*
X167014285Y-2462295D01*
X167014285Y-2462295D02*
X167509523Y-2462295D01*
X28373809Y-30737295D02*
X27992857Y-30737295D01*
X27992857Y-30737295D02*
X27992857Y-29937295D01*
X28640476Y-30318247D02*
X28907142Y-30318247D01*
X29021428Y-30737295D02*
X28640476Y-30737295D01*
X28640476Y-30737295D02*
X28640476Y-29937295D01*
X28640476Y-29937295D02*
X29021428Y-29937295D01*
X29364286Y-30737295D02*
X29364286Y-29937295D01*
X29364286Y-29937295D02*
X29554762Y-29937295D01*
X29554762Y-29937295D02*
X29669048Y-29975390D01*
X29669048Y-29975390D02*
X29745238Y-30051580D01*
X29745238Y-30051580D02*
X29783333Y-30127771D01*
X29783333Y-30127771D02*
X29821429Y-30280152D01*
X29821429Y-30280152D02*
X29821429Y-30394438D01*
X29821429Y-30394438D02*
X29783333Y-30546819D01*
X29783333Y-30546819D02*
X29745238Y-30623009D01*
X29745238Y-30623009D02*
X29669048Y-30699200D01*
X29669048Y-30699200D02*
X29554762Y-30737295D01*
X29554762Y-30737295D02*
X29364286Y-30737295D01*
X30126190Y-30013485D02*
X30164286Y-29975390D01*
X30164286Y-29975390D02*
X30240476Y-29937295D01*
X30240476Y-29937295D02*
X30430952Y-29937295D01*
X30430952Y-29937295D02*
X30507143Y-29975390D01*
X30507143Y-29975390D02*
X30545238Y-30013485D01*
X30545238Y-30013485D02*
X30583333Y-30089676D01*
X30583333Y-30089676D02*
X30583333Y-30165866D01*
X30583333Y-30165866D02*
X30545238Y-30280152D01*
X30545238Y-30280152D02*
X30088095Y-30737295D01*
X30088095Y-30737295D02*
X30583333Y-30737295D01*
X30850000Y-29937295D02*
X31383334Y-29937295D01*
X31383334Y-29937295D02*
X31040476Y-30737295D01*
X3585714Y-44562295D02*
X3319047Y-44181342D01*
X3128571Y-44562295D02*
X3128571Y-43762295D01*
X3128571Y-43762295D02*
X3433333Y-43762295D01*
X3433333Y-43762295D02*
X3509523Y-43800390D01*
X3509523Y-43800390D02*
X3547618Y-43838485D01*
X3547618Y-43838485D02*
X3585714Y-43914676D01*
X3585714Y-43914676D02*
X3585714Y-44028961D01*
X3585714Y-44028961D02*
X3547618Y-44105152D01*
X3547618Y-44105152D02*
X3509523Y-44143247D01*
X3509523Y-44143247D02*
X3433333Y-44181342D01*
X3433333Y-44181342D02*
X3128571Y-44181342D01*
X4271428Y-44028961D02*
X4271428Y-44562295D01*
X4080952Y-43724200D02*
X3890475Y-44295628D01*
X3890475Y-44295628D02*
X4385714Y-44295628D01*
X4614285Y-43762295D02*
X5109523Y-43762295D01*
X5109523Y-43762295D02*
X4842857Y-44067057D01*
X4842857Y-44067057D02*
X4957142Y-44067057D01*
X4957142Y-44067057D02*
X5033333Y-44105152D01*
X5033333Y-44105152D02*
X5071428Y-44143247D01*
X5071428Y-44143247D02*
X5109523Y-44219438D01*
X5109523Y-44219438D02*
X5109523Y-44409914D01*
X5109523Y-44409914D02*
X5071428Y-44486104D01*
X5071428Y-44486104D02*
X5033333Y-44524200D01*
X5033333Y-44524200D02*
X4957142Y-44562295D01*
X4957142Y-44562295D02*
X4728571Y-44562295D01*
X4728571Y-44562295D02*
X4652380Y-44524200D01*
X4652380Y-44524200D02*
X4614285Y-44486104D01*
X76290476Y-45487295D02*
X76290476Y-46134914D01*
X76290476Y-46134914D02*
X76328571Y-46211104D01*
X76328571Y-46211104D02*
X76366666Y-46249200D01*
X76366666Y-46249200D02*
X76442857Y-46287295D01*
X76442857Y-46287295D02*
X76595238Y-46287295D01*
X76595238Y-46287295D02*
X76671428Y-46249200D01*
X76671428Y-46249200D02*
X76709523Y-46211104D01*
X76709523Y-46211104D02*
X76747619Y-46134914D01*
X76747619Y-46134914D02*
X76747619Y-45487295D01*
X77242856Y-45830152D02*
X77166666Y-45792057D01*
X77166666Y-45792057D02*
X77128571Y-45753961D01*
X77128571Y-45753961D02*
X77090475Y-45677771D01*
X77090475Y-45677771D02*
X77090475Y-45639676D01*
X77090475Y-45639676D02*
X77128571Y-45563485D01*
X77128571Y-45563485D02*
X77166666Y-45525390D01*
X77166666Y-45525390D02*
X77242856Y-45487295D01*
X77242856Y-45487295D02*
X77395237Y-45487295D01*
X77395237Y-45487295D02*
X77471428Y-45525390D01*
X77471428Y-45525390D02*
X77509523Y-45563485D01*
X77509523Y-45563485D02*
X77547618Y-45639676D01*
X77547618Y-45639676D02*
X77547618Y-45677771D01*
X77547618Y-45677771D02*
X77509523Y-45753961D01*
X77509523Y-45753961D02*
X77471428Y-45792057D01*
X77471428Y-45792057D02*
X77395237Y-45830152D01*
X77395237Y-45830152D02*
X77242856Y-45830152D01*
X77242856Y-45830152D02*
X77166666Y-45868247D01*
X77166666Y-45868247D02*
X77128571Y-45906342D01*
X77128571Y-45906342D02*
X77090475Y-45982533D01*
X77090475Y-45982533D02*
X77090475Y-46134914D01*
X77090475Y-46134914D02*
X77128571Y-46211104D01*
X77128571Y-46211104D02*
X77166666Y-46249200D01*
X77166666Y-46249200D02*
X77242856Y-46287295D01*
X77242856Y-46287295D02*
X77395237Y-46287295D01*
X77395237Y-46287295D02*
X77471428Y-46249200D01*
X77471428Y-46249200D02*
X77509523Y-46211104D01*
X77509523Y-46211104D02*
X77547618Y-46134914D01*
X77547618Y-46134914D02*
X77547618Y-45982533D01*
X77547618Y-45982533D02*
X77509523Y-45906342D01*
X77509523Y-45906342D02*
X77471428Y-45868247D01*
X77471428Y-45868247D02*
X77395237Y-45830152D01*
X89187295Y-38864285D02*
X88806342Y-39130952D01*
X89187295Y-39321428D02*
X88387295Y-39321428D01*
X88387295Y-39321428D02*
X88387295Y-39016666D01*
X88387295Y-39016666D02*
X88425390Y-38940476D01*
X88425390Y-38940476D02*
X88463485Y-38902381D01*
X88463485Y-38902381D02*
X88539676Y-38864285D01*
X88539676Y-38864285D02*
X88653961Y-38864285D01*
X88653961Y-38864285D02*
X88730152Y-38902381D01*
X88730152Y-38902381D02*
X88768247Y-38940476D01*
X88768247Y-38940476D02*
X88806342Y-39016666D01*
X88806342Y-39016666D02*
X88806342Y-39321428D01*
X88653961Y-38178571D02*
X89187295Y-38178571D01*
X88349200Y-38369047D02*
X88920628Y-38559524D01*
X88920628Y-38559524D02*
X88920628Y-38064285D01*
X88463485Y-37797619D02*
X88425390Y-37759523D01*
X88425390Y-37759523D02*
X88387295Y-37683333D01*
X88387295Y-37683333D02*
X88387295Y-37492857D01*
X88387295Y-37492857D02*
X88425390Y-37416666D01*
X88425390Y-37416666D02*
X88463485Y-37378571D01*
X88463485Y-37378571D02*
X88539676Y-37340476D01*
X88539676Y-37340476D02*
X88615866Y-37340476D01*
X88615866Y-37340476D02*
X88730152Y-37378571D01*
X88730152Y-37378571D02*
X89187295Y-37835714D01*
X89187295Y-37835714D02*
X89187295Y-37340476D01*
X102416667Y-13161104D02*
X102378571Y-13199200D01*
X102378571Y-13199200D02*
X102264286Y-13237295D01*
X102264286Y-13237295D02*
X102188095Y-13237295D01*
X102188095Y-13237295D02*
X102073809Y-13199200D01*
X102073809Y-13199200D02*
X101997619Y-13123009D01*
X101997619Y-13123009D02*
X101959524Y-13046819D01*
X101959524Y-13046819D02*
X101921428Y-12894438D01*
X101921428Y-12894438D02*
X101921428Y-12780152D01*
X101921428Y-12780152D02*
X101959524Y-12627771D01*
X101959524Y-12627771D02*
X101997619Y-12551580D01*
X101997619Y-12551580D02*
X102073809Y-12475390D01*
X102073809Y-12475390D02*
X102188095Y-12437295D01*
X102188095Y-12437295D02*
X102264286Y-12437295D01*
X102264286Y-12437295D02*
X102378571Y-12475390D01*
X102378571Y-12475390D02*
X102416667Y-12513485D01*
X103178571Y-13237295D02*
X102721428Y-13237295D01*
X102950000Y-13237295D02*
X102950000Y-12437295D01*
X102950000Y-12437295D02*
X102873809Y-12551580D01*
X102873809Y-12551580D02*
X102797619Y-12627771D01*
X102797619Y-12627771D02*
X102721428Y-12665866D01*
X120241667Y-13312295D02*
X119975000Y-12931342D01*
X119784524Y-13312295D02*
X119784524Y-12512295D01*
X119784524Y-12512295D02*
X120089286Y-12512295D01*
X120089286Y-12512295D02*
X120165476Y-12550390D01*
X120165476Y-12550390D02*
X120203571Y-12588485D01*
X120203571Y-12588485D02*
X120241667Y-12664676D01*
X120241667Y-12664676D02*
X120241667Y-12778961D01*
X120241667Y-12778961D02*
X120203571Y-12855152D01*
X120203571Y-12855152D02*
X120165476Y-12893247D01*
X120165476Y-12893247D02*
X120089286Y-12931342D01*
X120089286Y-12931342D02*
X119784524Y-12931342D01*
X120927381Y-12778961D02*
X120927381Y-13312295D01*
X120736905Y-12474200D02*
X120546428Y-13045628D01*
X120546428Y-13045628D02*
X121041667Y-13045628D01*
X120241667Y-14512295D02*
X119975000Y-14131342D01*
X119784524Y-14512295D02*
X119784524Y-13712295D01*
X119784524Y-13712295D02*
X120089286Y-13712295D01*
X120089286Y-13712295D02*
X120165476Y-13750390D01*
X120165476Y-13750390D02*
X120203571Y-13788485D01*
X120203571Y-13788485D02*
X120241667Y-13864676D01*
X120241667Y-13864676D02*
X120241667Y-13978961D01*
X120241667Y-13978961D02*
X120203571Y-14055152D01*
X120203571Y-14055152D02*
X120165476Y-14093247D01*
X120165476Y-14093247D02*
X120089286Y-14131342D01*
X120089286Y-14131342D02*
X119784524Y-14131342D01*
X120508333Y-13712295D02*
X121003571Y-13712295D01*
X121003571Y-13712295D02*
X120736905Y-14017057D01*
X120736905Y-14017057D02*
X120851190Y-14017057D01*
X120851190Y-14017057D02*
X120927381Y-14055152D01*
X120927381Y-14055152D02*
X120965476Y-14093247D01*
X120965476Y-14093247D02*
X121003571Y-14169438D01*
X121003571Y-14169438D02*
X121003571Y-14359914D01*
X121003571Y-14359914D02*
X120965476Y-14436104D01*
X120965476Y-14436104D02*
X120927381Y-14474200D01*
X120927381Y-14474200D02*
X120851190Y-14512295D01*
X120851190Y-14512295D02*
X120622619Y-14512295D01*
X120622619Y-14512295D02*
X120546428Y-14474200D01*
X120546428Y-14474200D02*
X120508333Y-14436104D01*
X156662295Y-18309523D02*
X157309914Y-18309523D01*
X157309914Y-18309523D02*
X157386104Y-18271428D01*
X157386104Y-18271428D02*
X157424200Y-18233333D01*
X157424200Y-18233333D02*
X157462295Y-18157142D01*
X157462295Y-18157142D02*
X157462295Y-18004761D01*
X157462295Y-18004761D02*
X157424200Y-17928571D01*
X157424200Y-17928571D02*
X157386104Y-17890476D01*
X157386104Y-17890476D02*
X157309914Y-17852380D01*
X157309914Y-17852380D02*
X156662295Y-17852380D01*
X156928961Y-17128571D02*
X157462295Y-17128571D01*
X156624200Y-17319047D02*
X157195628Y-17509524D01*
X157195628Y-17509524D02*
X157195628Y-17014285D01*
X91980571Y-44117295D02*
X91980571Y-43317295D01*
X91980571Y-43317295D02*
X92171047Y-43317295D01*
X92171047Y-43317295D02*
X92285333Y-43355390D01*
X92285333Y-43355390D02*
X92361523Y-43431580D01*
X92361523Y-43431580D02*
X92399618Y-43507771D01*
X92399618Y-43507771D02*
X92437714Y-43660152D01*
X92437714Y-43660152D02*
X92437714Y-43774438D01*
X92437714Y-43774438D02*
X92399618Y-43926819D01*
X92399618Y-43926819D02*
X92361523Y-44003009D01*
X92361523Y-44003009D02*
X92285333Y-44079200D01*
X92285333Y-44079200D02*
X92171047Y-44117295D01*
X92171047Y-44117295D02*
X91980571Y-44117295D01*
X92742475Y-43393485D02*
X92780571Y-43355390D01*
X92780571Y-43355390D02*
X92856761Y-43317295D01*
X92856761Y-43317295D02*
X93047237Y-43317295D01*
X93047237Y-43317295D02*
X93123428Y-43355390D01*
X93123428Y-43355390D02*
X93161523Y-43393485D01*
X93161523Y-43393485D02*
X93199618Y-43469676D01*
X93199618Y-43469676D02*
X93199618Y-43545866D01*
X93199618Y-43545866D02*
X93161523Y-43660152D01*
X93161523Y-43660152D02*
X92704380Y-44117295D01*
X92704380Y-44117295D02*
X93199618Y-44117295D01*
X93885333Y-43583961D02*
X93885333Y-44117295D01*
X93694857Y-43279200D02*
X93504380Y-43850628D01*
X93504380Y-43850628D02*
X93999619Y-43850628D01*
X145216666Y-13612295D02*
X144835714Y-13612295D01*
X144835714Y-13612295D02*
X144835714Y-12812295D01*
X145445237Y-12888485D02*
X145483333Y-12850390D01*
X145483333Y-12850390D02*
X145559523Y-12812295D01*
X145559523Y-12812295D02*
X145749999Y-12812295D01*
X145749999Y-12812295D02*
X145826190Y-12850390D01*
X145826190Y-12850390D02*
X145864285Y-12888485D01*
X145864285Y-12888485D02*
X145902380Y-12964676D01*
X145902380Y-12964676D02*
X145902380Y-13040866D01*
X145902380Y-13040866D02*
X145864285Y-13155152D01*
X145864285Y-13155152D02*
X145407142Y-13612295D01*
X145407142Y-13612295D02*
X145902380Y-13612295D01*
X163536104Y-12283332D02*
X163574200Y-12321428D01*
X163574200Y-12321428D02*
X163612295Y-12435713D01*
X163612295Y-12435713D02*
X163612295Y-12511904D01*
X163612295Y-12511904D02*
X163574200Y-12626190D01*
X163574200Y-12626190D02*
X163498009Y-12702380D01*
X163498009Y-12702380D02*
X163421819Y-12740475D01*
X163421819Y-12740475D02*
X163269438Y-12778571D01*
X163269438Y-12778571D02*
X163155152Y-12778571D01*
X163155152Y-12778571D02*
X163002771Y-12740475D01*
X163002771Y-12740475D02*
X162926580Y-12702380D01*
X162926580Y-12702380D02*
X162850390Y-12626190D01*
X162850390Y-12626190D02*
X162812295Y-12511904D01*
X162812295Y-12511904D02*
X162812295Y-12435713D01*
X162812295Y-12435713D02*
X162850390Y-12321428D01*
X162850390Y-12321428D02*
X162888485Y-12283332D01*
X162812295Y-11559523D02*
X162812295Y-11940475D01*
X162812295Y-11940475D02*
X163193247Y-11978571D01*
X163193247Y-11978571D02*
X163155152Y-11940475D01*
X163155152Y-11940475D02*
X163117057Y-11864285D01*
X163117057Y-11864285D02*
X163117057Y-11673809D01*
X163117057Y-11673809D02*
X163155152Y-11597618D01*
X163155152Y-11597618D02*
X163193247Y-11559523D01*
X163193247Y-11559523D02*
X163269438Y-11521428D01*
X163269438Y-11521428D02*
X163459914Y-11521428D01*
X163459914Y-11521428D02*
X163536104Y-11559523D01*
X163536104Y-11559523D02*
X163574200Y-11597618D01*
X163574200Y-11597618D02*
X163612295Y-11673809D01*
X163612295Y-11673809D02*
X163612295Y-11864285D01*
X163612295Y-11864285D02*
X163574200Y-11940475D01*
X163574200Y-11940475D02*
X163536104Y-11978571D01*
X161260714Y-6987295D02*
X160994047Y-6606342D01*
X160803571Y-6987295D02*
X160803571Y-6187295D01*
X160803571Y-6187295D02*
X161108333Y-6187295D01*
X161108333Y-6187295D02*
X161184523Y-6225390D01*
X161184523Y-6225390D02*
X161222618Y-6263485D01*
X161222618Y-6263485D02*
X161260714Y-6339676D01*
X161260714Y-6339676D02*
X161260714Y-6453961D01*
X161260714Y-6453961D02*
X161222618Y-6530152D01*
X161222618Y-6530152D02*
X161184523Y-6568247D01*
X161184523Y-6568247D02*
X161108333Y-6606342D01*
X161108333Y-6606342D02*
X160803571Y-6606342D01*
X161565475Y-6263485D02*
X161603571Y-6225390D01*
X161603571Y-6225390D02*
X161679761Y-6187295D01*
X161679761Y-6187295D02*
X161870237Y-6187295D01*
X161870237Y-6187295D02*
X161946428Y-6225390D01*
X161946428Y-6225390D02*
X161984523Y-6263485D01*
X161984523Y-6263485D02*
X162022618Y-6339676D01*
X162022618Y-6339676D02*
X162022618Y-6415866D01*
X162022618Y-6415866D02*
X161984523Y-6530152D01*
X161984523Y-6530152D02*
X161527380Y-6987295D01*
X161527380Y-6987295D02*
X162022618Y-6987295D01*
X162708333Y-6453961D02*
X162708333Y-6987295D01*
X162517857Y-6149200D02*
X162327380Y-6720628D01*
X162327380Y-6720628D02*
X162822619Y-6720628D01*
X153387295Y-14189285D02*
X153006342Y-14455952D01*
X153387295Y-14646428D02*
X152587295Y-14646428D01*
X152587295Y-14646428D02*
X152587295Y-14341666D01*
X152587295Y-14341666D02*
X152625390Y-14265476D01*
X152625390Y-14265476D02*
X152663485Y-14227381D01*
X152663485Y-14227381D02*
X152739676Y-14189285D01*
X152739676Y-14189285D02*
X152853961Y-14189285D01*
X152853961Y-14189285D02*
X152930152Y-14227381D01*
X152930152Y-14227381D02*
X152968247Y-14265476D01*
X152968247Y-14265476D02*
X153006342Y-14341666D01*
X153006342Y-14341666D02*
X153006342Y-14646428D01*
X152663485Y-13884524D02*
X152625390Y-13846428D01*
X152625390Y-13846428D02*
X152587295Y-13770238D01*
X152587295Y-13770238D02*
X152587295Y-13579762D01*
X152587295Y-13579762D02*
X152625390Y-13503571D01*
X152625390Y-13503571D02*
X152663485Y-13465476D01*
X152663485Y-13465476D02*
X152739676Y-13427381D01*
X152739676Y-13427381D02*
X152815866Y-13427381D01*
X152815866Y-13427381D02*
X152930152Y-13465476D01*
X152930152Y-13465476D02*
X153387295Y-13922619D01*
X153387295Y-13922619D02*
X153387295Y-13427381D01*
X152930152Y-12970238D02*
X152892057Y-13046428D01*
X152892057Y-13046428D02*
X152853961Y-13084523D01*
X152853961Y-13084523D02*
X152777771Y-13122619D01*
X152777771Y-13122619D02*
X152739676Y-13122619D01*
X152739676Y-13122619D02*
X152663485Y-13084523D01*
X152663485Y-13084523D02*
X152625390Y-13046428D01*
X152625390Y-13046428D02*
X152587295Y-12970238D01*
X152587295Y-12970238D02*
X152587295Y-12817857D01*
X152587295Y-12817857D02*
X152625390Y-12741666D01*
X152625390Y-12741666D02*
X152663485Y-12703571D01*
X152663485Y-12703571D02*
X152739676Y-12665476D01*
X152739676Y-12665476D02*
X152777771Y-12665476D01*
X152777771Y-12665476D02*
X152853961Y-12703571D01*
X152853961Y-12703571D02*
X152892057Y-12741666D01*
X152892057Y-12741666D02*
X152930152Y-12817857D01*
X152930152Y-12817857D02*
X152930152Y-12970238D01*
X152930152Y-12970238D02*
X152968247Y-13046428D01*
X152968247Y-13046428D02*
X153006342Y-13084523D01*
X153006342Y-13084523D02*
X153082533Y-13122619D01*
X153082533Y-13122619D02*
X153234914Y-13122619D01*
X153234914Y-13122619D02*
X153311104Y-13084523D01*
X153311104Y-13084523D02*
X153349200Y-13046428D01*
X153349200Y-13046428D02*
X153387295Y-12970238D01*
X153387295Y-12970238D02*
X153387295Y-12817857D01*
X153387295Y-12817857D02*
X153349200Y-12741666D01*
X153349200Y-12741666D02*
X153311104Y-12703571D01*
X153311104Y-12703571D02*
X153234914Y-12665476D01*
X153234914Y-12665476D02*
X153082533Y-12665476D01*
X153082533Y-12665476D02*
X153006342Y-12703571D01*
X153006342Y-12703571D02*
X152968247Y-12741666D01*
X152968247Y-12741666D02*
X152930152Y-12817857D01*
X159885714Y-16474795D02*
X159619047Y-16093842D01*
X159428571Y-16474795D02*
X159428571Y-15674795D01*
X159428571Y-15674795D02*
X159733333Y-15674795D01*
X159733333Y-15674795D02*
X159809523Y-15712890D01*
X159809523Y-15712890D02*
X159847618Y-15750985D01*
X159847618Y-15750985D02*
X159885714Y-15827176D01*
X159885714Y-15827176D02*
X159885714Y-15941461D01*
X159885714Y-15941461D02*
X159847618Y-16017652D01*
X159847618Y-16017652D02*
X159809523Y-16055747D01*
X159809523Y-16055747D02*
X159733333Y-16093842D01*
X159733333Y-16093842D02*
X159428571Y-16093842D01*
X160647618Y-16474795D02*
X160190475Y-16474795D01*
X160419047Y-16474795D02*
X160419047Y-15674795D01*
X160419047Y-15674795D02*
X160342856Y-15789080D01*
X160342856Y-15789080D02*
X160266666Y-15865271D01*
X160266666Y-15865271D02*
X160190475Y-15903366D01*
X160952380Y-15750985D02*
X160990476Y-15712890D01*
X160990476Y-15712890D02*
X161066666Y-15674795D01*
X161066666Y-15674795D02*
X161257142Y-15674795D01*
X161257142Y-15674795D02*
X161333333Y-15712890D01*
X161333333Y-15712890D02*
X161371428Y-15750985D01*
X161371428Y-15750985D02*
X161409523Y-15827176D01*
X161409523Y-15827176D02*
X161409523Y-15903366D01*
X161409523Y-15903366D02*
X161371428Y-16017652D01*
X161371428Y-16017652D02*
X160914285Y-16474795D01*
X160914285Y-16474795D02*
X161409523Y-16474795D01*
X173586104Y-14158332D02*
X173624200Y-14196428D01*
X173624200Y-14196428D02*
X173662295Y-14310713D01*
X173662295Y-14310713D02*
X173662295Y-14386904D01*
X173662295Y-14386904D02*
X173624200Y-14501190D01*
X173624200Y-14501190D02*
X173548009Y-14577380D01*
X173548009Y-14577380D02*
X173471819Y-14615475D01*
X173471819Y-14615475D02*
X173319438Y-14653571D01*
X173319438Y-14653571D02*
X173205152Y-14653571D01*
X173205152Y-14653571D02*
X173052771Y-14615475D01*
X173052771Y-14615475D02*
X172976580Y-14577380D01*
X172976580Y-14577380D02*
X172900390Y-14501190D01*
X172900390Y-14501190D02*
X172862295Y-14386904D01*
X172862295Y-14386904D02*
X172862295Y-14310713D01*
X172862295Y-14310713D02*
X172900390Y-14196428D01*
X172900390Y-14196428D02*
X172938485Y-14158332D01*
X173662295Y-13777380D02*
X173662295Y-13624999D01*
X173662295Y-13624999D02*
X173624200Y-13548809D01*
X173624200Y-13548809D02*
X173586104Y-13510713D01*
X173586104Y-13510713D02*
X173471819Y-13434523D01*
X173471819Y-13434523D02*
X173319438Y-13396428D01*
X173319438Y-13396428D02*
X173014676Y-13396428D01*
X173014676Y-13396428D02*
X172938485Y-13434523D01*
X172938485Y-13434523D02*
X172900390Y-13472618D01*
X172900390Y-13472618D02*
X172862295Y-13548809D01*
X172862295Y-13548809D02*
X172862295Y-13701190D01*
X172862295Y-13701190D02*
X172900390Y-13777380D01*
X172900390Y-13777380D02*
X172938485Y-13815475D01*
X172938485Y-13815475D02*
X173014676Y-13853571D01*
X173014676Y-13853571D02*
X173205152Y-13853571D01*
X173205152Y-13853571D02*
X173281342Y-13815475D01*
X173281342Y-13815475D02*
X173319438Y-13777380D01*
X173319438Y-13777380D02*
X173357533Y-13701190D01*
X173357533Y-13701190D02*
X173357533Y-13548809D01*
X173357533Y-13548809D02*
X173319438Y-13472618D01*
X173319438Y-13472618D02*
X173281342Y-13434523D01*
X173281342Y-13434523D02*
X173205152Y-13396428D01*
X239437295Y-33364285D02*
X239056342Y-33630952D01*
X239437295Y-33821428D02*
X238637295Y-33821428D01*
X238637295Y-33821428D02*
X238637295Y-33516666D01*
X238637295Y-33516666D02*
X238675390Y-33440476D01*
X238675390Y-33440476D02*
X238713485Y-33402381D01*
X238713485Y-33402381D02*
X238789676Y-33364285D01*
X238789676Y-33364285D02*
X238903961Y-33364285D01*
X238903961Y-33364285D02*
X238980152Y-33402381D01*
X238980152Y-33402381D02*
X239018247Y-33440476D01*
X239018247Y-33440476D02*
X239056342Y-33516666D01*
X239056342Y-33516666D02*
X239056342Y-33821428D01*
X238637295Y-33097619D02*
X238637295Y-32602381D01*
X238637295Y-32602381D02*
X238942057Y-32869047D01*
X238942057Y-32869047D02*
X238942057Y-32754762D01*
X238942057Y-32754762D02*
X238980152Y-32678571D01*
X238980152Y-32678571D02*
X239018247Y-32640476D01*
X239018247Y-32640476D02*
X239094438Y-32602381D01*
X239094438Y-32602381D02*
X239284914Y-32602381D01*
X239284914Y-32602381D02*
X239361104Y-32640476D01*
X239361104Y-32640476D02*
X239399200Y-32678571D01*
X239399200Y-32678571D02*
X239437295Y-32754762D01*
X239437295Y-32754762D02*
X239437295Y-32983333D01*
X239437295Y-32983333D02*
X239399200Y-33059524D01*
X239399200Y-33059524D02*
X239361104Y-33097619D01*
X238980152Y-32145238D02*
X238942057Y-32221428D01*
X238942057Y-32221428D02*
X238903961Y-32259523D01*
X238903961Y-32259523D02*
X238827771Y-32297619D01*
X238827771Y-32297619D02*
X238789676Y-32297619D01*
X238789676Y-32297619D02*
X238713485Y-32259523D01*
X238713485Y-32259523D02*
X238675390Y-32221428D01*
X238675390Y-32221428D02*
X238637295Y-32145238D01*
X238637295Y-32145238D02*
X238637295Y-31992857D01*
X238637295Y-31992857D02*
X238675390Y-31916666D01*
X238675390Y-31916666D02*
X238713485Y-31878571D01*
X238713485Y-31878571D02*
X238789676Y-31840476D01*
X238789676Y-31840476D02*
X238827771Y-31840476D01*
X238827771Y-31840476D02*
X238903961Y-31878571D01*
X238903961Y-31878571D02*
X238942057Y-31916666D01*
X238942057Y-31916666D02*
X238980152Y-31992857D01*
X238980152Y-31992857D02*
X238980152Y-32145238D01*
X238980152Y-32145238D02*
X239018247Y-32221428D01*
X239018247Y-32221428D02*
X239056342Y-32259523D01*
X239056342Y-32259523D02*
X239132533Y-32297619D01*
X239132533Y-32297619D02*
X239284914Y-32297619D01*
X239284914Y-32297619D02*
X239361104Y-32259523D01*
X239361104Y-32259523D02*
X239399200Y-32221428D01*
X239399200Y-32221428D02*
X239437295Y-32145238D01*
X239437295Y-32145238D02*
X239437295Y-31992857D01*
X239437295Y-31992857D02*
X239399200Y-31916666D01*
X239399200Y-31916666D02*
X239361104Y-31878571D01*
X239361104Y-31878571D02*
X239284914Y-31840476D01*
X239284914Y-31840476D02*
X239132533Y-31840476D01*
X239132533Y-31840476D02*
X239056342Y-31878571D01*
X239056342Y-31878571D02*
X239018247Y-31916666D01*
X239018247Y-31916666D02*
X238980152Y-31992857D01*
X233515476Y-35987295D02*
X233972619Y-35987295D01*
X233744047Y-36787295D02*
X233744047Y-35987295D01*
X234239286Y-36787295D02*
X234239286Y-35987295D01*
X234239286Y-35987295D02*
X234544048Y-35987295D01*
X234544048Y-35987295D02*
X234620238Y-36025390D01*
X234620238Y-36025390D02*
X234658333Y-36063485D01*
X234658333Y-36063485D02*
X234696429Y-36139676D01*
X234696429Y-36139676D02*
X234696429Y-36253961D01*
X234696429Y-36253961D02*
X234658333Y-36330152D01*
X234658333Y-36330152D02*
X234620238Y-36368247D01*
X234620238Y-36368247D02*
X234544048Y-36406342D01*
X234544048Y-36406342D02*
X234239286Y-36406342D01*
X234963095Y-35987295D02*
X235458333Y-35987295D01*
X235458333Y-35987295D02*
X235191667Y-36292057D01*
X235191667Y-36292057D02*
X235305952Y-36292057D01*
X235305952Y-36292057D02*
X235382143Y-36330152D01*
X235382143Y-36330152D02*
X235420238Y-36368247D01*
X235420238Y-36368247D02*
X235458333Y-36444438D01*
X235458333Y-36444438D02*
X235458333Y-36634914D01*
X235458333Y-36634914D02*
X235420238Y-36711104D01*
X235420238Y-36711104D02*
X235382143Y-36749200D01*
X235382143Y-36749200D02*
X235305952Y-36787295D01*
X235305952Y-36787295D02*
X235077381Y-36787295D01*
X235077381Y-36787295D02*
X235001190Y-36749200D01*
X235001190Y-36749200D02*
X234963095Y-36711104D01*
X146573809Y-20600985D02*
X146497619Y-20562890D01*
X146497619Y-20562890D02*
X146421428Y-20486700D01*
X146421428Y-20486700D02*
X146307142Y-20372414D01*
X146307142Y-20372414D02*
X146230952Y-20334319D01*
X146230952Y-20334319D02*
X146154761Y-20334319D01*
X146192857Y-20524795D02*
X146116666Y-20486700D01*
X146116666Y-20486700D02*
X146040476Y-20410509D01*
X146040476Y-20410509D02*
X146002380Y-20258128D01*
X146002380Y-20258128D02*
X146002380Y-19991461D01*
X146002380Y-19991461D02*
X146040476Y-19839080D01*
X146040476Y-19839080D02*
X146116666Y-19762890D01*
X146116666Y-19762890D02*
X146192857Y-19724795D01*
X146192857Y-19724795D02*
X146345238Y-19724795D01*
X146345238Y-19724795D02*
X146421428Y-19762890D01*
X146421428Y-19762890D02*
X146497619Y-19839080D01*
X146497619Y-19839080D02*
X146535714Y-19991461D01*
X146535714Y-19991461D02*
X146535714Y-20258128D01*
X146535714Y-20258128D02*
X146497619Y-20410509D01*
X146497619Y-20410509D02*
X146421428Y-20486700D01*
X146421428Y-20486700D02*
X146345238Y-20524795D01*
X146345238Y-20524795D02*
X146192857Y-20524795D01*
X147297618Y-20524795D02*
X146840475Y-20524795D01*
X147069047Y-20524795D02*
X147069047Y-19724795D01*
X147069047Y-19724795D02*
X146992856Y-19839080D01*
X146992856Y-19839080D02*
X146916666Y-19915271D01*
X146916666Y-19915271D02*
X146840475Y-19953366D01*
X19560714Y-42412295D02*
X19294047Y-42031342D01*
X19103571Y-42412295D02*
X19103571Y-41612295D01*
X19103571Y-41612295D02*
X19408333Y-41612295D01*
X19408333Y-41612295D02*
X19484523Y-41650390D01*
X19484523Y-41650390D02*
X19522618Y-41688485D01*
X19522618Y-41688485D02*
X19560714Y-41764676D01*
X19560714Y-41764676D02*
X19560714Y-41878961D01*
X19560714Y-41878961D02*
X19522618Y-41955152D01*
X19522618Y-41955152D02*
X19484523Y-41993247D01*
X19484523Y-41993247D02*
X19408333Y-42031342D01*
X19408333Y-42031342D02*
X19103571Y-42031342D01*
X20246428Y-41878961D02*
X20246428Y-42412295D01*
X20055952Y-41574200D02*
X19865475Y-42145628D01*
X19865475Y-42145628D02*
X20360714Y-42145628D01*
X20779761Y-41955152D02*
X20703571Y-41917057D01*
X20703571Y-41917057D02*
X20665476Y-41878961D01*
X20665476Y-41878961D02*
X20627380Y-41802771D01*
X20627380Y-41802771D02*
X20627380Y-41764676D01*
X20627380Y-41764676D02*
X20665476Y-41688485D01*
X20665476Y-41688485D02*
X20703571Y-41650390D01*
X20703571Y-41650390D02*
X20779761Y-41612295D01*
X20779761Y-41612295D02*
X20932142Y-41612295D01*
X20932142Y-41612295D02*
X21008333Y-41650390D01*
X21008333Y-41650390D02*
X21046428Y-41688485D01*
X21046428Y-41688485D02*
X21084523Y-41764676D01*
X21084523Y-41764676D02*
X21084523Y-41802771D01*
X21084523Y-41802771D02*
X21046428Y-41878961D01*
X21046428Y-41878961D02*
X21008333Y-41917057D01*
X21008333Y-41917057D02*
X20932142Y-41955152D01*
X20932142Y-41955152D02*
X20779761Y-41955152D01*
X20779761Y-41955152D02*
X20703571Y-41993247D01*
X20703571Y-41993247D02*
X20665476Y-42031342D01*
X20665476Y-42031342D02*
X20627380Y-42107533D01*
X20627380Y-42107533D02*
X20627380Y-42259914D01*
X20627380Y-42259914D02*
X20665476Y-42336104D01*
X20665476Y-42336104D02*
X20703571Y-42374200D01*
X20703571Y-42374200D02*
X20779761Y-42412295D01*
X20779761Y-42412295D02*
X20932142Y-42412295D01*
X20932142Y-42412295D02*
X21008333Y-42374200D01*
X21008333Y-42374200D02*
X21046428Y-42336104D01*
X21046428Y-42336104D02*
X21084523Y-42259914D01*
X21084523Y-42259914D02*
X21084523Y-42107533D01*
X21084523Y-42107533D02*
X21046428Y-42031342D01*
X21046428Y-42031342D02*
X21008333Y-41993247D01*
X21008333Y-41993247D02*
X20932142Y-41955152D01*
X168065476Y-2862295D02*
X168065476Y-3509914D01*
X168065476Y-3509914D02*
X168103571Y-3586104D01*
X168103571Y-3586104D02*
X168141666Y-3624200D01*
X168141666Y-3624200D02*
X168217857Y-3662295D01*
X168217857Y-3662295D02*
X168370238Y-3662295D01*
X168370238Y-3662295D02*
X168446428Y-3624200D01*
X168446428Y-3624200D02*
X168484523Y-3586104D01*
X168484523Y-3586104D02*
X168522619Y-3509914D01*
X168522619Y-3509914D02*
X168522619Y-2862295D01*
X169284523Y-2862295D02*
X168903571Y-2862295D01*
X168903571Y-2862295D02*
X168865475Y-3243247D01*
X168865475Y-3243247D02*
X168903571Y-3205152D01*
X168903571Y-3205152D02*
X168979761Y-3167057D01*
X168979761Y-3167057D02*
X169170237Y-3167057D01*
X169170237Y-3167057D02*
X169246428Y-3205152D01*
X169246428Y-3205152D02*
X169284523Y-3243247D01*
X169284523Y-3243247D02*
X169322618Y-3319438D01*
X169322618Y-3319438D02*
X169322618Y-3509914D01*
X169322618Y-3509914D02*
X169284523Y-3586104D01*
X169284523Y-3586104D02*
X169246428Y-3624200D01*
X169246428Y-3624200D02*
X169170237Y-3662295D01*
X169170237Y-3662295D02*
X168979761Y-3662295D01*
X168979761Y-3662295D02*
X168903571Y-3624200D01*
X168903571Y-3624200D02*
X168865475Y-3586104D01*
X180408333Y-2187295D02*
X180408333Y-2758723D01*
X180408333Y-2758723D02*
X180370238Y-2873009D01*
X180370238Y-2873009D02*
X180294047Y-2949200D01*
X180294047Y-2949200D02*
X180179762Y-2987295D01*
X180179762Y-2987295D02*
X180103571Y-2987295D01*
X180713095Y-2187295D02*
X181208333Y-2187295D01*
X181208333Y-2187295D02*
X180941667Y-2492057D01*
X180941667Y-2492057D02*
X181055952Y-2492057D01*
X181055952Y-2492057D02*
X181132143Y-2530152D01*
X181132143Y-2530152D02*
X181170238Y-2568247D01*
X181170238Y-2568247D02*
X181208333Y-2644438D01*
X181208333Y-2644438D02*
X181208333Y-2834914D01*
X181208333Y-2834914D02*
X181170238Y-2911104D01*
X181170238Y-2911104D02*
X181132143Y-2949200D01*
X181132143Y-2949200D02*
X181055952Y-2987295D01*
X181055952Y-2987295D02*
X180827381Y-2987295D01*
X180827381Y-2987295D02*
X180751190Y-2949200D01*
X180751190Y-2949200D02*
X180713095Y-2911104D01*
X167962295Y-22014285D02*
X167581342Y-22280952D01*
X167962295Y-22471428D02*
X167162295Y-22471428D01*
X167162295Y-22471428D02*
X167162295Y-22166666D01*
X167162295Y-22166666D02*
X167200390Y-22090476D01*
X167200390Y-22090476D02*
X167238485Y-22052381D01*
X167238485Y-22052381D02*
X167314676Y-22014285D01*
X167314676Y-22014285D02*
X167428961Y-22014285D01*
X167428961Y-22014285D02*
X167505152Y-22052381D01*
X167505152Y-22052381D02*
X167543247Y-22090476D01*
X167543247Y-22090476D02*
X167581342Y-22166666D01*
X167581342Y-22166666D02*
X167581342Y-22471428D01*
X167962295Y-21252381D02*
X167962295Y-21709524D01*
X167962295Y-21480952D02*
X167162295Y-21480952D01*
X167162295Y-21480952D02*
X167276580Y-21557143D01*
X167276580Y-21557143D02*
X167352771Y-21633333D01*
X167352771Y-21633333D02*
X167390866Y-21709524D01*
X167162295Y-20757142D02*
X167162295Y-20680952D01*
X167162295Y-20680952D02*
X167200390Y-20604761D01*
X167200390Y-20604761D02*
X167238485Y-20566666D01*
X167238485Y-20566666D02*
X167314676Y-20528571D01*
X167314676Y-20528571D02*
X167467057Y-20490476D01*
X167467057Y-20490476D02*
X167657533Y-20490476D01*
X167657533Y-20490476D02*
X167809914Y-20528571D01*
X167809914Y-20528571D02*
X167886104Y-20566666D01*
X167886104Y-20566666D02*
X167924200Y-20604761D01*
X167924200Y-20604761D02*
X167962295Y-20680952D01*
X167962295Y-20680952D02*
X167962295Y-20757142D01*
X167962295Y-20757142D02*
X167924200Y-20833333D01*
X167924200Y-20833333D02*
X167886104Y-20871428D01*
X167886104Y-20871428D02*
X167809914Y-20909523D01*
X167809914Y-20909523D02*
X167657533Y-20947619D01*
X167657533Y-20947619D02*
X167467057Y-20947619D01*
X167467057Y-20947619D02*
X167314676Y-20909523D01*
X167314676Y-20909523D02*
X167238485Y-20871428D01*
X167238485Y-20871428D02*
X167200390Y-20833333D01*
X167200390Y-20833333D02*
X167162295Y-20757142D01*
X15010714Y-41561104D02*
X14972618Y-41599200D01*
X14972618Y-41599200D02*
X14858333Y-41637295D01*
X14858333Y-41637295D02*
X14782142Y-41637295D01*
X14782142Y-41637295D02*
X14667856Y-41599200D01*
X14667856Y-41599200D02*
X14591666Y-41523009D01*
X14591666Y-41523009D02*
X14553571Y-41446819D01*
X14553571Y-41446819D02*
X14515475Y-41294438D01*
X14515475Y-41294438D02*
X14515475Y-41180152D01*
X14515475Y-41180152D02*
X14553571Y-41027771D01*
X14553571Y-41027771D02*
X14591666Y-40951580D01*
X14591666Y-40951580D02*
X14667856Y-40875390D01*
X14667856Y-40875390D02*
X14782142Y-40837295D01*
X14782142Y-40837295D02*
X14858333Y-40837295D01*
X14858333Y-40837295D02*
X14972618Y-40875390D01*
X14972618Y-40875390D02*
X15010714Y-40913485D01*
X15315475Y-40913485D02*
X15353571Y-40875390D01*
X15353571Y-40875390D02*
X15429761Y-40837295D01*
X15429761Y-40837295D02*
X15620237Y-40837295D01*
X15620237Y-40837295D02*
X15696428Y-40875390D01*
X15696428Y-40875390D02*
X15734523Y-40913485D01*
X15734523Y-40913485D02*
X15772618Y-40989676D01*
X15772618Y-40989676D02*
X15772618Y-41065866D01*
X15772618Y-41065866D02*
X15734523Y-41180152D01*
X15734523Y-41180152D02*
X15277380Y-41637295D01*
X15277380Y-41637295D02*
X15772618Y-41637295D01*
X16229761Y-41180152D02*
X16153571Y-41142057D01*
X16153571Y-41142057D02*
X16115476Y-41103961D01*
X16115476Y-41103961D02*
X16077380Y-41027771D01*
X16077380Y-41027771D02*
X16077380Y-40989676D01*
X16077380Y-40989676D02*
X16115476Y-40913485D01*
X16115476Y-40913485D02*
X16153571Y-40875390D01*
X16153571Y-40875390D02*
X16229761Y-40837295D01*
X16229761Y-40837295D02*
X16382142Y-40837295D01*
X16382142Y-40837295D02*
X16458333Y-40875390D01*
X16458333Y-40875390D02*
X16496428Y-40913485D01*
X16496428Y-40913485D02*
X16534523Y-40989676D01*
X16534523Y-40989676D02*
X16534523Y-41027771D01*
X16534523Y-41027771D02*
X16496428Y-41103961D01*
X16496428Y-41103961D02*
X16458333Y-41142057D01*
X16458333Y-41142057D02*
X16382142Y-41180152D01*
X16382142Y-41180152D02*
X16229761Y-41180152D01*
X16229761Y-41180152D02*
X16153571Y-41218247D01*
X16153571Y-41218247D02*
X16115476Y-41256342D01*
X16115476Y-41256342D02*
X16077380Y-41332533D01*
X16077380Y-41332533D02*
X16077380Y-41484914D01*
X16077380Y-41484914D02*
X16115476Y-41561104D01*
X16115476Y-41561104D02*
X16153571Y-41599200D01*
X16153571Y-41599200D02*
X16229761Y-41637295D01*
X16229761Y-41637295D02*
X16382142Y-41637295D01*
X16382142Y-41637295D02*
X16458333Y-41599200D01*
X16458333Y-41599200D02*
X16496428Y-41561104D01*
X16496428Y-41561104D02*
X16534523Y-41484914D01*
X16534523Y-41484914D02*
X16534523Y-41332533D01*
X16534523Y-41332533D02*
X16496428Y-41256342D01*
X16496428Y-41256342D02*
X16458333Y-41218247D01*
X16458333Y-41218247D02*
X16382142Y-41180152D01*
X55107295Y-34348428D02*
X54307295Y-34348428D01*
X54307295Y-34348428D02*
X54307295Y-34157952D01*
X54307295Y-34157952D02*
X54345390Y-34043666D01*
X54345390Y-34043666D02*
X54421580Y-33967476D01*
X54421580Y-33967476D02*
X54497771Y-33929381D01*
X54497771Y-33929381D02*
X54650152Y-33891285D01*
X54650152Y-33891285D02*
X54764438Y-33891285D01*
X54764438Y-33891285D02*
X54916819Y-33929381D01*
X54916819Y-33929381D02*
X54993009Y-33967476D01*
X54993009Y-33967476D02*
X55069200Y-34043666D01*
X55069200Y-34043666D02*
X55107295Y-34157952D01*
X55107295Y-34157952D02*
X55107295Y-34348428D01*
X54383485Y-33586524D02*
X54345390Y-33548428D01*
X54345390Y-33548428D02*
X54307295Y-33472238D01*
X54307295Y-33472238D02*
X54307295Y-33281762D01*
X54307295Y-33281762D02*
X54345390Y-33205571D01*
X54345390Y-33205571D02*
X54383485Y-33167476D01*
X54383485Y-33167476D02*
X54459676Y-33129381D01*
X54459676Y-33129381D02*
X54535866Y-33129381D01*
X54535866Y-33129381D02*
X54650152Y-33167476D01*
X54650152Y-33167476D02*
X55107295Y-33624619D01*
X55107295Y-33624619D02*
X55107295Y-33129381D01*
X54307295Y-32405571D02*
X54307295Y-32786523D01*
X54307295Y-32786523D02*
X54688247Y-32824619D01*
X54688247Y-32824619D02*
X54650152Y-32786523D01*
X54650152Y-32786523D02*
X54612057Y-32710333D01*
X54612057Y-32710333D02*
X54612057Y-32519857D01*
X54612057Y-32519857D02*
X54650152Y-32443666D01*
X54650152Y-32443666D02*
X54688247Y-32405571D01*
X54688247Y-32405571D02*
X54764438Y-32367476D01*
X54764438Y-32367476D02*
X54954914Y-32367476D01*
X54954914Y-32367476D02*
X55031104Y-32405571D01*
X55031104Y-32405571D02*
X55069200Y-32443666D01*
X55069200Y-32443666D02*
X55107295Y-32519857D01*
X55107295Y-32519857D02*
X55107295Y-32710333D01*
X55107295Y-32710333D02*
X55069200Y-32786523D01*
X55069200Y-32786523D02*
X55031104Y-32824619D01*
X193730571Y-44117295D02*
X193730571Y-43317295D01*
X193730571Y-43317295D02*
X193921047Y-43317295D01*
X193921047Y-43317295D02*
X194035333Y-43355390D01*
X194035333Y-43355390D02*
X194111523Y-43431580D01*
X194111523Y-43431580D02*
X194149618Y-43507771D01*
X194149618Y-43507771D02*
X194187714Y-43660152D01*
X194187714Y-43660152D02*
X194187714Y-43774438D01*
X194187714Y-43774438D02*
X194149618Y-43926819D01*
X194149618Y-43926819D02*
X194111523Y-44003009D01*
X194111523Y-44003009D02*
X194035333Y-44079200D01*
X194035333Y-44079200D02*
X193921047Y-44117295D01*
X193921047Y-44117295D02*
X193730571Y-44117295D01*
X194949618Y-44117295D02*
X194492475Y-44117295D01*
X194721047Y-44117295D02*
X194721047Y-43317295D01*
X194721047Y-43317295D02*
X194644856Y-43431580D01*
X194644856Y-43431580D02*
X194568666Y-43507771D01*
X194568666Y-43507771D02*
X194492475Y-43545866D01*
X195330571Y-44117295D02*
X195482952Y-44117295D01*
X195482952Y-44117295D02*
X195559142Y-44079200D01*
X195559142Y-44079200D02*
X195597238Y-44041104D01*
X195597238Y-44041104D02*
X195673428Y-43926819D01*
X195673428Y-43926819D02*
X195711523Y-43774438D01*
X195711523Y-43774438D02*
X195711523Y-43469676D01*
X195711523Y-43469676D02*
X195673428Y-43393485D01*
X195673428Y-43393485D02*
X195635333Y-43355390D01*
X195635333Y-43355390D02*
X195559142Y-43317295D01*
X195559142Y-43317295D02*
X195406761Y-43317295D01*
X195406761Y-43317295D02*
X195330571Y-43355390D01*
X195330571Y-43355390D02*
X195292476Y-43393485D01*
X195292476Y-43393485D02*
X195254380Y-43469676D01*
X195254380Y-43469676D02*
X195254380Y-43660152D01*
X195254380Y-43660152D02*
X195292476Y-43736342D01*
X195292476Y-43736342D02*
X195330571Y-43774438D01*
X195330571Y-43774438D02*
X195406761Y-43812533D01*
X195406761Y-43812533D02*
X195559142Y-43812533D01*
X195559142Y-43812533D02*
X195635333Y-43774438D01*
X195635333Y-43774438D02*
X195673428Y-43736342D01*
X195673428Y-43736342D02*
X195711523Y-43660152D01*
X19660714Y-41187295D02*
X19394047Y-40806342D01*
X19203571Y-41187295D02*
X19203571Y-40387295D01*
X19203571Y-40387295D02*
X19508333Y-40387295D01*
X19508333Y-40387295D02*
X19584523Y-40425390D01*
X19584523Y-40425390D02*
X19622618Y-40463485D01*
X19622618Y-40463485D02*
X19660714Y-40539676D01*
X19660714Y-40539676D02*
X19660714Y-40653961D01*
X19660714Y-40653961D02*
X19622618Y-40730152D01*
X19622618Y-40730152D02*
X19584523Y-40768247D01*
X19584523Y-40768247D02*
X19508333Y-40806342D01*
X19508333Y-40806342D02*
X19203571Y-40806342D01*
X20346428Y-40653961D02*
X20346428Y-41187295D01*
X20155952Y-40349200D02*
X19965475Y-40920628D01*
X19965475Y-40920628D02*
X20460714Y-40920628D01*
X21146428Y-40387295D02*
X20765476Y-40387295D01*
X20765476Y-40387295D02*
X20727380Y-40768247D01*
X20727380Y-40768247D02*
X20765476Y-40730152D01*
X20765476Y-40730152D02*
X20841666Y-40692057D01*
X20841666Y-40692057D02*
X21032142Y-40692057D01*
X21032142Y-40692057D02*
X21108333Y-40730152D01*
X21108333Y-40730152D02*
X21146428Y-40768247D01*
X21146428Y-40768247D02*
X21184523Y-40844438D01*
X21184523Y-40844438D02*
X21184523Y-41034914D01*
X21184523Y-41034914D02*
X21146428Y-41111104D01*
X21146428Y-41111104D02*
X21108333Y-41149200D01*
X21108333Y-41149200D02*
X21032142Y-41187295D01*
X21032142Y-41187295D02*
X20841666Y-41187295D01*
X20841666Y-41187295D02*
X20765476Y-41149200D01*
X20765476Y-41149200D02*
X20727380Y-41111104D01*
X245536104Y-34739285D02*
X245574200Y-34777381D01*
X245574200Y-34777381D02*
X245612295Y-34891666D01*
X245612295Y-34891666D02*
X245612295Y-34967857D01*
X245612295Y-34967857D02*
X245574200Y-35082143D01*
X245574200Y-35082143D02*
X245498009Y-35158333D01*
X245498009Y-35158333D02*
X245421819Y-35196428D01*
X245421819Y-35196428D02*
X245269438Y-35234524D01*
X245269438Y-35234524D02*
X245155152Y-35234524D01*
X245155152Y-35234524D02*
X245002771Y-35196428D01*
X245002771Y-35196428D02*
X244926580Y-35158333D01*
X244926580Y-35158333D02*
X244850390Y-35082143D01*
X244850390Y-35082143D02*
X244812295Y-34967857D01*
X244812295Y-34967857D02*
X244812295Y-34891666D01*
X244812295Y-34891666D02*
X244850390Y-34777381D01*
X244850390Y-34777381D02*
X244888485Y-34739285D01*
X245612295Y-33977381D02*
X245612295Y-34434524D01*
X245612295Y-34205952D02*
X244812295Y-34205952D01*
X244812295Y-34205952D02*
X244926580Y-34282143D01*
X244926580Y-34282143D02*
X245002771Y-34358333D01*
X245002771Y-34358333D02*
X245040866Y-34434524D01*
X245078961Y-33291666D02*
X245612295Y-33291666D01*
X244774200Y-33482142D02*
X245345628Y-33672619D01*
X245345628Y-33672619D02*
X245345628Y-33177380D01*
X114991667Y-22036104D02*
X114953571Y-22074200D01*
X114953571Y-22074200D02*
X114839286Y-22112295D01*
X114839286Y-22112295D02*
X114763095Y-22112295D01*
X114763095Y-22112295D02*
X114648809Y-22074200D01*
X114648809Y-22074200D02*
X114572619Y-21998009D01*
X114572619Y-21998009D02*
X114534524Y-21921819D01*
X114534524Y-21921819D02*
X114496428Y-21769438D01*
X114496428Y-21769438D02*
X114496428Y-21655152D01*
X114496428Y-21655152D02*
X114534524Y-21502771D01*
X114534524Y-21502771D02*
X114572619Y-21426580D01*
X114572619Y-21426580D02*
X114648809Y-21350390D01*
X114648809Y-21350390D02*
X114763095Y-21312295D01*
X114763095Y-21312295D02*
X114839286Y-21312295D01*
X114839286Y-21312295D02*
X114953571Y-21350390D01*
X114953571Y-21350390D02*
X114991667Y-21388485D01*
X115258333Y-21312295D02*
X115753571Y-21312295D01*
X115753571Y-21312295D02*
X115486905Y-21617057D01*
X115486905Y-21617057D02*
X115601190Y-21617057D01*
X115601190Y-21617057D02*
X115677381Y-21655152D01*
X115677381Y-21655152D02*
X115715476Y-21693247D01*
X115715476Y-21693247D02*
X115753571Y-21769438D01*
X115753571Y-21769438D02*
X115753571Y-21959914D01*
X115753571Y-21959914D02*
X115715476Y-22036104D01*
X115715476Y-22036104D02*
X115677381Y-22074200D01*
X115677381Y-22074200D02*
X115601190Y-22112295D01*
X115601190Y-22112295D02*
X115372619Y-22112295D01*
X115372619Y-22112295D02*
X115296428Y-22074200D01*
X115296428Y-22074200D02*
X115258333Y-22036104D01*
X161260714Y-8187295D02*
X160994047Y-7806342D01*
X160803571Y-8187295D02*
X160803571Y-7387295D01*
X160803571Y-7387295D02*
X161108333Y-7387295D01*
X161108333Y-7387295D02*
X161184523Y-7425390D01*
X161184523Y-7425390D02*
X161222618Y-7463485D01*
X161222618Y-7463485D02*
X161260714Y-7539676D01*
X161260714Y-7539676D02*
X161260714Y-7653961D01*
X161260714Y-7653961D02*
X161222618Y-7730152D01*
X161222618Y-7730152D02*
X161184523Y-7768247D01*
X161184523Y-7768247D02*
X161108333Y-7806342D01*
X161108333Y-7806342D02*
X160803571Y-7806342D01*
X161565475Y-7463485D02*
X161603571Y-7425390D01*
X161603571Y-7425390D02*
X161679761Y-7387295D01*
X161679761Y-7387295D02*
X161870237Y-7387295D01*
X161870237Y-7387295D02*
X161946428Y-7425390D01*
X161946428Y-7425390D02*
X161984523Y-7463485D01*
X161984523Y-7463485D02*
X162022618Y-7539676D01*
X162022618Y-7539676D02*
X162022618Y-7615866D01*
X162022618Y-7615866D02*
X161984523Y-7730152D01*
X161984523Y-7730152D02*
X161527380Y-8187295D01*
X161527380Y-8187295D02*
X162022618Y-8187295D01*
X162289285Y-7387295D02*
X162784523Y-7387295D01*
X162784523Y-7387295D02*
X162517857Y-7692057D01*
X162517857Y-7692057D02*
X162632142Y-7692057D01*
X162632142Y-7692057D02*
X162708333Y-7730152D01*
X162708333Y-7730152D02*
X162746428Y-7768247D01*
X162746428Y-7768247D02*
X162784523Y-7844438D01*
X162784523Y-7844438D02*
X162784523Y-8034914D01*
X162784523Y-8034914D02*
X162746428Y-8111104D01*
X162746428Y-8111104D02*
X162708333Y-8149200D01*
X162708333Y-8149200D02*
X162632142Y-8187295D01*
X162632142Y-8187295D02*
X162403571Y-8187295D01*
X162403571Y-8187295D02*
X162327380Y-8149200D01*
X162327380Y-8149200D02*
X162289285Y-8111104D01*
X83286104Y-33264285D02*
X83324200Y-33302381D01*
X83324200Y-33302381D02*
X83362295Y-33416666D01*
X83362295Y-33416666D02*
X83362295Y-33492857D01*
X83362295Y-33492857D02*
X83324200Y-33607143D01*
X83324200Y-33607143D02*
X83248009Y-33683333D01*
X83248009Y-33683333D02*
X83171819Y-33721428D01*
X83171819Y-33721428D02*
X83019438Y-33759524D01*
X83019438Y-33759524D02*
X82905152Y-33759524D01*
X82905152Y-33759524D02*
X82752771Y-33721428D01*
X82752771Y-33721428D02*
X82676580Y-33683333D01*
X82676580Y-33683333D02*
X82600390Y-33607143D01*
X82600390Y-33607143D02*
X82562295Y-33492857D01*
X82562295Y-33492857D02*
X82562295Y-33416666D01*
X82562295Y-33416666D02*
X82600390Y-33302381D01*
X82600390Y-33302381D02*
X82638485Y-33264285D01*
X82638485Y-32959524D02*
X82600390Y-32921428D01*
X82600390Y-32921428D02*
X82562295Y-32845238D01*
X82562295Y-32845238D02*
X82562295Y-32654762D01*
X82562295Y-32654762D02*
X82600390Y-32578571D01*
X82600390Y-32578571D02*
X82638485Y-32540476D01*
X82638485Y-32540476D02*
X82714676Y-32502381D01*
X82714676Y-32502381D02*
X82790866Y-32502381D01*
X82790866Y-32502381D02*
X82905152Y-32540476D01*
X82905152Y-32540476D02*
X83362295Y-32997619D01*
X83362295Y-32997619D02*
X83362295Y-32502381D01*
X82562295Y-31816666D02*
X82562295Y-31969047D01*
X82562295Y-31969047D02*
X82600390Y-32045238D01*
X82600390Y-32045238D02*
X82638485Y-32083333D01*
X82638485Y-32083333D02*
X82752771Y-32159523D01*
X82752771Y-32159523D02*
X82905152Y-32197619D01*
X82905152Y-32197619D02*
X83209914Y-32197619D01*
X83209914Y-32197619D02*
X83286104Y-32159523D01*
X83286104Y-32159523D02*
X83324200Y-32121428D01*
X83324200Y-32121428D02*
X83362295Y-32045238D01*
X83362295Y-32045238D02*
X83362295Y-31892857D01*
X83362295Y-31892857D02*
X83324200Y-31816666D01*
X83324200Y-31816666D02*
X83286104Y-31778571D01*
X83286104Y-31778571D02*
X83209914Y-31740476D01*
X83209914Y-31740476D02*
X83019438Y-31740476D01*
X83019438Y-31740476D02*
X82943247Y-31778571D01*
X82943247Y-31778571D02*
X82905152Y-31816666D01*
X82905152Y-31816666D02*
X82867057Y-31892857D01*
X82867057Y-31892857D02*
X82867057Y-32045238D01*
X82867057Y-32045238D02*
X82905152Y-32121428D01*
X82905152Y-32121428D02*
X82943247Y-32159523D01*
X82943247Y-32159523D02*
X83019438Y-32197619D01*
X111030571Y-44117295D02*
X111030571Y-43317295D01*
X111030571Y-43317295D02*
X111221047Y-43317295D01*
X111221047Y-43317295D02*
X111335333Y-43355390D01*
X111335333Y-43355390D02*
X111411523Y-43431580D01*
X111411523Y-43431580D02*
X111449618Y-43507771D01*
X111449618Y-43507771D02*
X111487714Y-43660152D01*
X111487714Y-43660152D02*
X111487714Y-43774438D01*
X111487714Y-43774438D02*
X111449618Y-43926819D01*
X111449618Y-43926819D02*
X111411523Y-44003009D01*
X111411523Y-44003009D02*
X111335333Y-44079200D01*
X111335333Y-44079200D02*
X111221047Y-44117295D01*
X111221047Y-44117295D02*
X111030571Y-44117295D01*
X111792475Y-43393485D02*
X111830571Y-43355390D01*
X111830571Y-43355390D02*
X111906761Y-43317295D01*
X111906761Y-43317295D02*
X112097237Y-43317295D01*
X112097237Y-43317295D02*
X112173428Y-43355390D01*
X112173428Y-43355390D02*
X112211523Y-43393485D01*
X112211523Y-43393485D02*
X112249618Y-43469676D01*
X112249618Y-43469676D02*
X112249618Y-43545866D01*
X112249618Y-43545866D02*
X112211523Y-43660152D01*
X112211523Y-43660152D02*
X111754380Y-44117295D01*
X111754380Y-44117295D02*
X112249618Y-44117295D01*
X112516285Y-43317295D02*
X113011523Y-43317295D01*
X113011523Y-43317295D02*
X112744857Y-43622057D01*
X112744857Y-43622057D02*
X112859142Y-43622057D01*
X112859142Y-43622057D02*
X112935333Y-43660152D01*
X112935333Y-43660152D02*
X112973428Y-43698247D01*
X112973428Y-43698247D02*
X113011523Y-43774438D01*
X113011523Y-43774438D02*
X113011523Y-43964914D01*
X113011523Y-43964914D02*
X112973428Y-44041104D01*
X112973428Y-44041104D02*
X112935333Y-44079200D01*
X112935333Y-44079200D02*
X112859142Y-44117295D01*
X112859142Y-44117295D02*
X112630571Y-44117295D01*
X112630571Y-44117295D02*
X112554380Y-44079200D01*
X112554380Y-44079200D02*
X112516285Y-44041104D01*
X120241667Y-10937295D02*
X119975000Y-10556342D01*
X119784524Y-10937295D02*
X119784524Y-10137295D01*
X119784524Y-10137295D02*
X120089286Y-10137295D01*
X120089286Y-10137295D02*
X120165476Y-10175390D01*
X120165476Y-10175390D02*
X120203571Y-10213485D01*
X120203571Y-10213485D02*
X120241667Y-10289676D01*
X120241667Y-10289676D02*
X120241667Y-10403961D01*
X120241667Y-10403961D02*
X120203571Y-10480152D01*
X120203571Y-10480152D02*
X120165476Y-10518247D01*
X120165476Y-10518247D02*
X120089286Y-10556342D01*
X120089286Y-10556342D02*
X119784524Y-10556342D01*
X120927381Y-10137295D02*
X120775000Y-10137295D01*
X120775000Y-10137295D02*
X120698809Y-10175390D01*
X120698809Y-10175390D02*
X120660714Y-10213485D01*
X120660714Y-10213485D02*
X120584524Y-10327771D01*
X120584524Y-10327771D02*
X120546428Y-10480152D01*
X120546428Y-10480152D02*
X120546428Y-10784914D01*
X120546428Y-10784914D02*
X120584524Y-10861104D01*
X120584524Y-10861104D02*
X120622619Y-10899200D01*
X120622619Y-10899200D02*
X120698809Y-10937295D01*
X120698809Y-10937295D02*
X120851190Y-10937295D01*
X120851190Y-10937295D02*
X120927381Y-10899200D01*
X120927381Y-10899200D02*
X120965476Y-10861104D01*
X120965476Y-10861104D02*
X121003571Y-10784914D01*
X121003571Y-10784914D02*
X121003571Y-10594438D01*
X121003571Y-10594438D02*
X120965476Y-10518247D01*
X120965476Y-10518247D02*
X120927381Y-10480152D01*
X120927381Y-10480152D02*
X120851190Y-10442057D01*
X120851190Y-10442057D02*
X120698809Y-10442057D01*
X120698809Y-10442057D02*
X120622619Y-10480152D01*
X120622619Y-10480152D02*
X120584524Y-10518247D01*
X120584524Y-10518247D02*
X120546428Y-10594438D01*
X74590476Y-32737295D02*
X75047619Y-32737295D01*
X74819047Y-33537295D02*
X74819047Y-32737295D01*
X75314286Y-33537295D02*
X75314286Y-32737295D01*
X75314286Y-32737295D02*
X75619048Y-32737295D01*
X75619048Y-32737295D02*
X75695238Y-32775390D01*
X75695238Y-32775390D02*
X75733333Y-32813485D01*
X75733333Y-32813485D02*
X75771429Y-32889676D01*
X75771429Y-32889676D02*
X75771429Y-33003961D01*
X75771429Y-33003961D02*
X75733333Y-33080152D01*
X75733333Y-33080152D02*
X75695238Y-33118247D01*
X75695238Y-33118247D02*
X75619048Y-33156342D01*
X75619048Y-33156342D02*
X75314286Y-33156342D01*
X76076190Y-32813485D02*
X76114286Y-32775390D01*
X76114286Y-32775390D02*
X76190476Y-32737295D01*
X76190476Y-32737295D02*
X76380952Y-32737295D01*
X76380952Y-32737295D02*
X76457143Y-32775390D01*
X76457143Y-32775390D02*
X76495238Y-32813485D01*
X76495238Y-32813485D02*
X76533333Y-32889676D01*
X76533333Y-32889676D02*
X76533333Y-32965866D01*
X76533333Y-32965866D02*
X76495238Y-33080152D01*
X76495238Y-33080152D02*
X76038095Y-33537295D01*
X76038095Y-33537295D02*
X76533333Y-33537295D01*
X46373809Y-30737295D02*
X45992857Y-30737295D01*
X45992857Y-30737295D02*
X45992857Y-29937295D01*
X46640476Y-30318247D02*
X46907142Y-30318247D01*
X47021428Y-30737295D02*
X46640476Y-30737295D01*
X46640476Y-30737295D02*
X46640476Y-29937295D01*
X46640476Y-29937295D02*
X47021428Y-29937295D01*
X47364286Y-30737295D02*
X47364286Y-29937295D01*
X47364286Y-29937295D02*
X47554762Y-29937295D01*
X47554762Y-29937295D02*
X47669048Y-29975390D01*
X47669048Y-29975390D02*
X47745238Y-30051580D01*
X47745238Y-30051580D02*
X47783333Y-30127771D01*
X47783333Y-30127771D02*
X47821429Y-30280152D01*
X47821429Y-30280152D02*
X47821429Y-30394438D01*
X47821429Y-30394438D02*
X47783333Y-30546819D01*
X47783333Y-30546819D02*
X47745238Y-30623009D01*
X47745238Y-30623009D02*
X47669048Y-30699200D01*
X47669048Y-30699200D02*
X47554762Y-30737295D01*
X47554762Y-30737295D02*
X47364286Y-30737295D01*
X48126190Y-30013485D02*
X48164286Y-29975390D01*
X48164286Y-29975390D02*
X48240476Y-29937295D01*
X48240476Y-29937295D02*
X48430952Y-29937295D01*
X48430952Y-29937295D02*
X48507143Y-29975390D01*
X48507143Y-29975390D02*
X48545238Y-30013485D01*
X48545238Y-30013485D02*
X48583333Y-30089676D01*
X48583333Y-30089676D02*
X48583333Y-30165866D01*
X48583333Y-30165866D02*
X48545238Y-30280152D01*
X48545238Y-30280152D02*
X48088095Y-30737295D01*
X48088095Y-30737295D02*
X48583333Y-30737295D01*
X49269048Y-29937295D02*
X49116667Y-29937295D01*
X49116667Y-29937295D02*
X49040476Y-29975390D01*
X49040476Y-29975390D02*
X49002381Y-30013485D01*
X49002381Y-30013485D02*
X48926191Y-30127771D01*
X48926191Y-30127771D02*
X48888095Y-30280152D01*
X48888095Y-30280152D02*
X48888095Y-30584914D01*
X48888095Y-30584914D02*
X48926191Y-30661104D01*
X48926191Y-30661104D02*
X48964286Y-30699200D01*
X48964286Y-30699200D02*
X49040476Y-30737295D01*
X49040476Y-30737295D02*
X49192857Y-30737295D01*
X49192857Y-30737295D02*
X49269048Y-30699200D01*
X49269048Y-30699200D02*
X49307143Y-30661104D01*
X49307143Y-30661104D02*
X49345238Y-30584914D01*
X49345238Y-30584914D02*
X49345238Y-30394438D01*
X49345238Y-30394438D02*
X49307143Y-30318247D01*
X49307143Y-30318247D02*
X49269048Y-30280152D01*
X49269048Y-30280152D02*
X49192857Y-30242057D01*
X49192857Y-30242057D02*
X49040476Y-30242057D01*
X49040476Y-30242057D02*
X48964286Y-30280152D01*
X48964286Y-30280152D02*
X48926191Y-30318247D01*
X48926191Y-30318247D02*
X48888095Y-30394438D01*
X237787295Y-33739285D02*
X237406342Y-34005952D01*
X237787295Y-34196428D02*
X236987295Y-34196428D01*
X236987295Y-34196428D02*
X236987295Y-33891666D01*
X236987295Y-33891666D02*
X237025390Y-33815476D01*
X237025390Y-33815476D02*
X237063485Y-33777381D01*
X237063485Y-33777381D02*
X237139676Y-33739285D01*
X237139676Y-33739285D02*
X237253961Y-33739285D01*
X237253961Y-33739285D02*
X237330152Y-33777381D01*
X237330152Y-33777381D02*
X237368247Y-33815476D01*
X237368247Y-33815476D02*
X237406342Y-33891666D01*
X237406342Y-33891666D02*
X237406342Y-34196428D01*
X236987295Y-33472619D02*
X236987295Y-32977381D01*
X236987295Y-32977381D02*
X237292057Y-33244047D01*
X237292057Y-33244047D02*
X237292057Y-33129762D01*
X237292057Y-33129762D02*
X237330152Y-33053571D01*
X237330152Y-33053571D02*
X237368247Y-33015476D01*
X237368247Y-33015476D02*
X237444438Y-32977381D01*
X237444438Y-32977381D02*
X237634914Y-32977381D01*
X237634914Y-32977381D02*
X237711104Y-33015476D01*
X237711104Y-33015476D02*
X237749200Y-33053571D01*
X237749200Y-33053571D02*
X237787295Y-33129762D01*
X237787295Y-33129762D02*
X237787295Y-33358333D01*
X237787295Y-33358333D02*
X237749200Y-33434524D01*
X237749200Y-33434524D02*
X237711104Y-33472619D01*
X236987295Y-32291666D02*
X236987295Y-32444047D01*
X236987295Y-32444047D02*
X237025390Y-32520238D01*
X237025390Y-32520238D02*
X237063485Y-32558333D01*
X237063485Y-32558333D02*
X237177771Y-32634523D01*
X237177771Y-32634523D02*
X237330152Y-32672619D01*
X237330152Y-32672619D02*
X237634914Y-32672619D01*
X237634914Y-32672619D02*
X237711104Y-32634523D01*
X237711104Y-32634523D02*
X237749200Y-32596428D01*
X237749200Y-32596428D02*
X237787295Y-32520238D01*
X237787295Y-32520238D02*
X237787295Y-32367857D01*
X237787295Y-32367857D02*
X237749200Y-32291666D01*
X237749200Y-32291666D02*
X237711104Y-32253571D01*
X237711104Y-32253571D02*
X237634914Y-32215476D01*
X237634914Y-32215476D02*
X237444438Y-32215476D01*
X237444438Y-32215476D02*
X237368247Y-32253571D01*
X237368247Y-32253571D02*
X237330152Y-32291666D01*
X237330152Y-32291666D02*
X237292057Y-32367857D01*
X237292057Y-32367857D02*
X237292057Y-32520238D01*
X237292057Y-32520238D02*
X237330152Y-32596428D01*
X237330152Y-32596428D02*
X237368247Y-32634523D01*
X237368247Y-32634523D02*
X237444438Y-32672619D01*
X101283333Y-26225048D02*
X101016666Y-25844095D01*
X100826190Y-26225048D02*
X100826190Y-25425048D01*
X100826190Y-25425048D02*
X101130952Y-25425048D01*
X101130952Y-25425048D02*
X101207142Y-25463143D01*
X101207142Y-25463143D02*
X101245237Y-25501238D01*
X101245237Y-25501238D02*
X101283333Y-25577429D01*
X101283333Y-25577429D02*
X101283333Y-25691714D01*
X101283333Y-25691714D02*
X101245237Y-25767905D01*
X101245237Y-25767905D02*
X101207142Y-25806000D01*
X101207142Y-25806000D02*
X101130952Y-25844095D01*
X101130952Y-25844095D02*
X100826190Y-25844095D01*
X101626190Y-25806000D02*
X101892856Y-25806000D01*
X102007142Y-26225048D02*
X101626190Y-26225048D01*
X101626190Y-26225048D02*
X101626190Y-25425048D01*
X101626190Y-25425048D02*
X102007142Y-25425048D01*
X102616666Y-25806000D02*
X102350000Y-25806000D01*
X102350000Y-26225048D02*
X102350000Y-25425048D01*
X102350000Y-25425048D02*
X102730952Y-25425048D01*
X103149999Y-25425048D02*
X103149999Y-25615524D01*
X102959523Y-25539333D02*
X103149999Y-25615524D01*
X103149999Y-25615524D02*
X103340476Y-25539333D01*
X103035714Y-25767905D02*
X103149999Y-25615524D01*
X103149999Y-25615524D02*
X103264285Y-25767905D01*
X103759523Y-25425048D02*
X103759523Y-25615524D01*
X103569047Y-25539333D02*
X103759523Y-25615524D01*
X103759523Y-25615524D02*
X103950000Y-25539333D01*
X103645238Y-25767905D02*
X103759523Y-25615524D01*
X103759523Y-25615524D02*
X103873809Y-25767905D01*
X84486104Y-33264285D02*
X84524200Y-33302381D01*
X84524200Y-33302381D02*
X84562295Y-33416666D01*
X84562295Y-33416666D02*
X84562295Y-33492857D01*
X84562295Y-33492857D02*
X84524200Y-33607143D01*
X84524200Y-33607143D02*
X84448009Y-33683333D01*
X84448009Y-33683333D02*
X84371819Y-33721428D01*
X84371819Y-33721428D02*
X84219438Y-33759524D01*
X84219438Y-33759524D02*
X84105152Y-33759524D01*
X84105152Y-33759524D02*
X83952771Y-33721428D01*
X83952771Y-33721428D02*
X83876580Y-33683333D01*
X83876580Y-33683333D02*
X83800390Y-33607143D01*
X83800390Y-33607143D02*
X83762295Y-33492857D01*
X83762295Y-33492857D02*
X83762295Y-33416666D01*
X83762295Y-33416666D02*
X83800390Y-33302381D01*
X83800390Y-33302381D02*
X83838485Y-33264285D01*
X83838485Y-32959524D02*
X83800390Y-32921428D01*
X83800390Y-32921428D02*
X83762295Y-32845238D01*
X83762295Y-32845238D02*
X83762295Y-32654762D01*
X83762295Y-32654762D02*
X83800390Y-32578571D01*
X83800390Y-32578571D02*
X83838485Y-32540476D01*
X83838485Y-32540476D02*
X83914676Y-32502381D01*
X83914676Y-32502381D02*
X83990866Y-32502381D01*
X83990866Y-32502381D02*
X84105152Y-32540476D01*
X84105152Y-32540476D02*
X84562295Y-32997619D01*
X84562295Y-32997619D02*
X84562295Y-32502381D01*
X83762295Y-31778571D02*
X83762295Y-32159523D01*
X83762295Y-32159523D02*
X84143247Y-32197619D01*
X84143247Y-32197619D02*
X84105152Y-32159523D01*
X84105152Y-32159523D02*
X84067057Y-32083333D01*
X84067057Y-32083333D02*
X84067057Y-31892857D01*
X84067057Y-31892857D02*
X84105152Y-31816666D01*
X84105152Y-31816666D02*
X84143247Y-31778571D01*
X84143247Y-31778571D02*
X84219438Y-31740476D01*
X84219438Y-31740476D02*
X84409914Y-31740476D01*
X84409914Y-31740476D02*
X84486104Y-31778571D01*
X84486104Y-31778571D02*
X84524200Y-31816666D01*
X84524200Y-31816666D02*
X84562295Y-31892857D01*
X84562295Y-31892857D02*
X84562295Y-32083333D01*
X84562295Y-32083333D02*
X84524200Y-32159523D01*
X84524200Y-32159523D02*
X84486104Y-32197619D01*
X166762295Y-22014285D02*
X166381342Y-22280952D01*
X166762295Y-22471428D02*
X165962295Y-22471428D01*
X165962295Y-22471428D02*
X165962295Y-22166666D01*
X165962295Y-22166666D02*
X166000390Y-22090476D01*
X166000390Y-22090476D02*
X166038485Y-22052381D01*
X166038485Y-22052381D02*
X166114676Y-22014285D01*
X166114676Y-22014285D02*
X166228961Y-22014285D01*
X166228961Y-22014285D02*
X166305152Y-22052381D01*
X166305152Y-22052381D02*
X166343247Y-22090476D01*
X166343247Y-22090476D02*
X166381342Y-22166666D01*
X166381342Y-22166666D02*
X166381342Y-22471428D01*
X165962295Y-21747619D02*
X165962295Y-21252381D01*
X165962295Y-21252381D02*
X166267057Y-21519047D01*
X166267057Y-21519047D02*
X166267057Y-21404762D01*
X166267057Y-21404762D02*
X166305152Y-21328571D01*
X166305152Y-21328571D02*
X166343247Y-21290476D01*
X166343247Y-21290476D02*
X166419438Y-21252381D01*
X166419438Y-21252381D02*
X166609914Y-21252381D01*
X166609914Y-21252381D02*
X166686104Y-21290476D01*
X166686104Y-21290476D02*
X166724200Y-21328571D01*
X166724200Y-21328571D02*
X166762295Y-21404762D01*
X166762295Y-21404762D02*
X166762295Y-21633333D01*
X166762295Y-21633333D02*
X166724200Y-21709524D01*
X166724200Y-21709524D02*
X166686104Y-21747619D01*
X165962295Y-20528571D02*
X165962295Y-20909523D01*
X165962295Y-20909523D02*
X166343247Y-20947619D01*
X166343247Y-20947619D02*
X166305152Y-20909523D01*
X166305152Y-20909523D02*
X166267057Y-20833333D01*
X166267057Y-20833333D02*
X166267057Y-20642857D01*
X166267057Y-20642857D02*
X166305152Y-20566666D01*
X166305152Y-20566666D02*
X166343247Y-20528571D01*
X166343247Y-20528571D02*
X166419438Y-20490476D01*
X166419438Y-20490476D02*
X166609914Y-20490476D01*
X166609914Y-20490476D02*
X166686104Y-20528571D01*
X166686104Y-20528571D02*
X166724200Y-20566666D01*
X166724200Y-20566666D02*
X166762295Y-20642857D01*
X166762295Y-20642857D02*
X166762295Y-20833333D01*
X166762295Y-20833333D02*
X166724200Y-20909523D01*
X166724200Y-20909523D02*
X166686104Y-20947619D01*
X21900714Y-43236104D02*
X21862618Y-43274200D01*
X21862618Y-43274200D02*
X21748333Y-43312295D01*
X21748333Y-43312295D02*
X21672142Y-43312295D01*
X21672142Y-43312295D02*
X21557856Y-43274200D01*
X21557856Y-43274200D02*
X21481666Y-43198009D01*
X21481666Y-43198009D02*
X21443571Y-43121819D01*
X21443571Y-43121819D02*
X21405475Y-42969438D01*
X21405475Y-42969438D02*
X21405475Y-42855152D01*
X21405475Y-42855152D02*
X21443571Y-42702771D01*
X21443571Y-42702771D02*
X21481666Y-42626580D01*
X21481666Y-42626580D02*
X21557856Y-42550390D01*
X21557856Y-42550390D02*
X21672142Y-42512295D01*
X21672142Y-42512295D02*
X21748333Y-42512295D01*
X21748333Y-42512295D02*
X21862618Y-42550390D01*
X21862618Y-42550390D02*
X21900714Y-42588485D01*
X22167380Y-42512295D02*
X22662618Y-42512295D01*
X22662618Y-42512295D02*
X22395952Y-42817057D01*
X22395952Y-42817057D02*
X22510237Y-42817057D01*
X22510237Y-42817057D02*
X22586428Y-42855152D01*
X22586428Y-42855152D02*
X22624523Y-42893247D01*
X22624523Y-42893247D02*
X22662618Y-42969438D01*
X22662618Y-42969438D02*
X22662618Y-43159914D01*
X22662618Y-43159914D02*
X22624523Y-43236104D01*
X22624523Y-43236104D02*
X22586428Y-43274200D01*
X22586428Y-43274200D02*
X22510237Y-43312295D01*
X22510237Y-43312295D02*
X22281666Y-43312295D01*
X22281666Y-43312295D02*
X22205475Y-43274200D01*
X22205475Y-43274200D02*
X22167380Y-43236104D01*
X23157857Y-42512295D02*
X23234047Y-42512295D01*
X23234047Y-42512295D02*
X23310238Y-42550390D01*
X23310238Y-42550390D02*
X23348333Y-42588485D01*
X23348333Y-42588485D02*
X23386428Y-42664676D01*
X23386428Y-42664676D02*
X23424523Y-42817057D01*
X23424523Y-42817057D02*
X23424523Y-43007533D01*
X23424523Y-43007533D02*
X23386428Y-43159914D01*
X23386428Y-43159914D02*
X23348333Y-43236104D01*
X23348333Y-43236104D02*
X23310238Y-43274200D01*
X23310238Y-43274200D02*
X23234047Y-43312295D01*
X23234047Y-43312295D02*
X23157857Y-43312295D01*
X23157857Y-43312295D02*
X23081666Y-43274200D01*
X23081666Y-43274200D02*
X23043571Y-43236104D01*
X23043571Y-43236104D02*
X23005476Y-43159914D01*
X23005476Y-43159914D02*
X22967380Y-43007533D01*
X22967380Y-43007533D02*
X22967380Y-42817057D01*
X22967380Y-42817057D02*
X23005476Y-42664676D01*
X23005476Y-42664676D02*
X23043571Y-42588485D01*
X23043571Y-42588485D02*
X23081666Y-42550390D01*
X23081666Y-42550390D02*
X23157857Y-42512295D01*
X157285714Y-20961104D02*
X157247618Y-20999200D01*
X157247618Y-20999200D02*
X157133333Y-21037295D01*
X157133333Y-21037295D02*
X157057142Y-21037295D01*
X157057142Y-21037295D02*
X156942856Y-20999200D01*
X156942856Y-20999200D02*
X156866666Y-20923009D01*
X156866666Y-20923009D02*
X156828571Y-20846819D01*
X156828571Y-20846819D02*
X156790475Y-20694438D01*
X156790475Y-20694438D02*
X156790475Y-20580152D01*
X156790475Y-20580152D02*
X156828571Y-20427771D01*
X156828571Y-20427771D02*
X156866666Y-20351580D01*
X156866666Y-20351580D02*
X156942856Y-20275390D01*
X156942856Y-20275390D02*
X157057142Y-20237295D01*
X157057142Y-20237295D02*
X157133333Y-20237295D01*
X157133333Y-20237295D02*
X157247618Y-20275390D01*
X157247618Y-20275390D02*
X157285714Y-20313485D01*
X158047618Y-21037295D02*
X157590475Y-21037295D01*
X157819047Y-21037295D02*
X157819047Y-20237295D01*
X157819047Y-20237295D02*
X157742856Y-20351580D01*
X157742856Y-20351580D02*
X157666666Y-20427771D01*
X157666666Y-20427771D02*
X157590475Y-20465866D01*
X158314285Y-20237295D02*
X158809523Y-20237295D01*
X158809523Y-20237295D02*
X158542857Y-20542057D01*
X158542857Y-20542057D02*
X158657142Y-20542057D01*
X158657142Y-20542057D02*
X158733333Y-20580152D01*
X158733333Y-20580152D02*
X158771428Y-20618247D01*
X158771428Y-20618247D02*
X158809523Y-20694438D01*
X158809523Y-20694438D02*
X158809523Y-20884914D01*
X158809523Y-20884914D02*
X158771428Y-20961104D01*
X158771428Y-20961104D02*
X158733333Y-20999200D01*
X158733333Y-20999200D02*
X158657142Y-21037295D01*
X158657142Y-21037295D02*
X158428571Y-21037295D01*
X158428571Y-21037295D02*
X158352380Y-20999200D01*
X158352380Y-20999200D02*
X158314285Y-20961104D01*
X248811104Y-41767121D02*
X248849200Y-41805217D01*
X248849200Y-41805217D02*
X248887295Y-41919502D01*
X248887295Y-41919502D02*
X248887295Y-41995693D01*
X248887295Y-41995693D02*
X248849200Y-42109979D01*
X248849200Y-42109979D02*
X248773009Y-42186169D01*
X248773009Y-42186169D02*
X248696819Y-42224264D01*
X248696819Y-42224264D02*
X248544438Y-42262360D01*
X248544438Y-42262360D02*
X248430152Y-42262360D01*
X248430152Y-42262360D02*
X248277771Y-42224264D01*
X248277771Y-42224264D02*
X248201580Y-42186169D01*
X248201580Y-42186169D02*
X248125390Y-42109979D01*
X248125390Y-42109979D02*
X248087295Y-41995693D01*
X248087295Y-41995693D02*
X248087295Y-41919502D01*
X248087295Y-41919502D02*
X248125390Y-41805217D01*
X248125390Y-41805217D02*
X248163485Y-41767121D01*
X248887295Y-41005217D02*
X248887295Y-41462360D01*
X248887295Y-41233788D02*
X248087295Y-41233788D01*
X248087295Y-41233788D02*
X248201580Y-41309979D01*
X248201580Y-41309979D02*
X248277771Y-41386169D01*
X248277771Y-41386169D02*
X248315866Y-41462360D01*
X248087295Y-40738550D02*
X248087295Y-40205216D01*
X248087295Y-40205216D02*
X248887295Y-40548074D01*
X248887295Y-38939285D02*
X248506342Y-39205952D01*
X248887295Y-39396428D02*
X248087295Y-39396428D01*
X248087295Y-39396428D02*
X248087295Y-39091666D01*
X248087295Y-39091666D02*
X248125390Y-39015476D01*
X248125390Y-39015476D02*
X248163485Y-38977381D01*
X248163485Y-38977381D02*
X248239676Y-38939285D01*
X248239676Y-38939285D02*
X248353961Y-38939285D01*
X248353961Y-38939285D02*
X248430152Y-38977381D01*
X248430152Y-38977381D02*
X248468247Y-39015476D01*
X248468247Y-39015476D02*
X248506342Y-39091666D01*
X248506342Y-39091666D02*
X248506342Y-39396428D01*
X248087295Y-38672619D02*
X248087295Y-38177381D01*
X248087295Y-38177381D02*
X248392057Y-38444047D01*
X248392057Y-38444047D02*
X248392057Y-38329762D01*
X248392057Y-38329762D02*
X248430152Y-38253571D01*
X248430152Y-38253571D02*
X248468247Y-38215476D01*
X248468247Y-38215476D02*
X248544438Y-38177381D01*
X248544438Y-38177381D02*
X248734914Y-38177381D01*
X248734914Y-38177381D02*
X248811104Y-38215476D01*
X248811104Y-38215476D02*
X248849200Y-38253571D01*
X248849200Y-38253571D02*
X248887295Y-38329762D01*
X248887295Y-38329762D02*
X248887295Y-38558333D01*
X248887295Y-38558333D02*
X248849200Y-38634524D01*
X248849200Y-38634524D02*
X248811104Y-38672619D01*
X248087295Y-37910714D02*
X248087295Y-37377380D01*
X248087295Y-37377380D02*
X248887295Y-37720238D01*
X23333332Y-46224200D02*
X23447618Y-46262295D01*
X23447618Y-46262295D02*
X23638094Y-46262295D01*
X23638094Y-46262295D02*
X23714285Y-46224200D01*
X23714285Y-46224200D02*
X23752380Y-46186104D01*
X23752380Y-46186104D02*
X23790475Y-46109914D01*
X23790475Y-46109914D02*
X23790475Y-46033723D01*
X23790475Y-46033723D02*
X23752380Y-45957533D01*
X23752380Y-45957533D02*
X23714285Y-45919438D01*
X23714285Y-45919438D02*
X23638094Y-45881342D01*
X23638094Y-45881342D02*
X23485713Y-45843247D01*
X23485713Y-45843247D02*
X23409523Y-45805152D01*
X23409523Y-45805152D02*
X23371428Y-45767057D01*
X23371428Y-45767057D02*
X23333332Y-45690866D01*
X23333332Y-45690866D02*
X23333332Y-45614676D01*
X23333332Y-45614676D02*
X23371428Y-45538485D01*
X23371428Y-45538485D02*
X23409523Y-45500390D01*
X23409523Y-45500390D02*
X23485713Y-45462295D01*
X23485713Y-45462295D02*
X23676190Y-45462295D01*
X23676190Y-45462295D02*
X23790475Y-45500390D01*
X24057142Y-45462295D02*
X24247618Y-46262295D01*
X24247618Y-46262295D02*
X24399999Y-45690866D01*
X24399999Y-45690866D02*
X24552380Y-46262295D01*
X24552380Y-46262295D02*
X24742857Y-45462295D01*
X25466666Y-46262295D02*
X25009523Y-46262295D01*
X25238095Y-46262295D02*
X25238095Y-45462295D01*
X25238095Y-45462295D02*
X25161904Y-45576580D01*
X25161904Y-45576580D02*
X25085714Y-45652771D01*
X25085714Y-45652771D02*
X25009523Y-45690866D01*
X248811104Y-44639285D02*
X248849200Y-44677381D01*
X248849200Y-44677381D02*
X248887295Y-44791666D01*
X248887295Y-44791666D02*
X248887295Y-44867857D01*
X248887295Y-44867857D02*
X248849200Y-44982143D01*
X248849200Y-44982143D02*
X248773009Y-45058333D01*
X248773009Y-45058333D02*
X248696819Y-45096428D01*
X248696819Y-45096428D02*
X248544438Y-45134524D01*
X248544438Y-45134524D02*
X248430152Y-45134524D01*
X248430152Y-45134524D02*
X248277771Y-45096428D01*
X248277771Y-45096428D02*
X248201580Y-45058333D01*
X248201580Y-45058333D02*
X248125390Y-44982143D01*
X248125390Y-44982143D02*
X248087295Y-44867857D01*
X248087295Y-44867857D02*
X248087295Y-44791666D01*
X248087295Y-44791666D02*
X248125390Y-44677381D01*
X248125390Y-44677381D02*
X248163485Y-44639285D01*
X248887295Y-43877381D02*
X248887295Y-44334524D01*
X248887295Y-44105952D02*
X248087295Y-44105952D01*
X248087295Y-44105952D02*
X248201580Y-44182143D01*
X248201580Y-44182143D02*
X248277771Y-44258333D01*
X248277771Y-44258333D02*
X248315866Y-44334524D01*
X248887295Y-43496428D02*
X248887295Y-43344047D01*
X248887295Y-43344047D02*
X248849200Y-43267857D01*
X248849200Y-43267857D02*
X248811104Y-43229761D01*
X248811104Y-43229761D02*
X248696819Y-43153571D01*
X248696819Y-43153571D02*
X248544438Y-43115476D01*
X248544438Y-43115476D02*
X248239676Y-43115476D01*
X248239676Y-43115476D02*
X248163485Y-43153571D01*
X248163485Y-43153571D02*
X248125390Y-43191666D01*
X248125390Y-43191666D02*
X248087295Y-43267857D01*
X248087295Y-43267857D02*
X248087295Y-43420238D01*
X248087295Y-43420238D02*
X248125390Y-43496428D01*
X248125390Y-43496428D02*
X248163485Y-43534523D01*
X248163485Y-43534523D02*
X248239676Y-43572619D01*
X248239676Y-43572619D02*
X248430152Y-43572619D01*
X248430152Y-43572619D02*
X248506342Y-43534523D01*
X248506342Y-43534523D02*
X248544438Y-43496428D01*
X248544438Y-43496428D02*
X248582533Y-43420238D01*
X248582533Y-43420238D02*
X248582533Y-43267857D01*
X248582533Y-43267857D02*
X248544438Y-43191666D01*
X248544438Y-43191666D02*
X248506342Y-43153571D01*
X248506342Y-43153571D02*
X248430152Y-43115476D01*
X103765476Y-2462295D02*
X103765476Y-3109914D01*
X103765476Y-3109914D02*
X103803571Y-3186104D01*
X103803571Y-3186104D02*
X103841666Y-3224200D01*
X103841666Y-3224200D02*
X103917857Y-3262295D01*
X103917857Y-3262295D02*
X104070238Y-3262295D01*
X104070238Y-3262295D02*
X104146428Y-3224200D01*
X104146428Y-3224200D02*
X104184523Y-3186104D01*
X104184523Y-3186104D02*
X104222619Y-3109914D01*
X104222619Y-3109914D02*
X104222619Y-2462295D01*
X105022618Y-3262295D02*
X104565475Y-3262295D01*
X104794047Y-3262295D02*
X104794047Y-2462295D01*
X104794047Y-2462295D02*
X104717856Y-2576580D01*
X104717856Y-2576580D02*
X104641666Y-2652771D01*
X104641666Y-2652771D02*
X104565475Y-2690866D01*
X146360714Y-16198604D02*
X146322618Y-16236700D01*
X146322618Y-16236700D02*
X146208333Y-16274795D01*
X146208333Y-16274795D02*
X146132142Y-16274795D01*
X146132142Y-16274795D02*
X146017856Y-16236700D01*
X146017856Y-16236700D02*
X145941666Y-16160509D01*
X145941666Y-16160509D02*
X145903571Y-16084319D01*
X145903571Y-16084319D02*
X145865475Y-15931938D01*
X145865475Y-15931938D02*
X145865475Y-15817652D01*
X145865475Y-15817652D02*
X145903571Y-15665271D01*
X145903571Y-15665271D02*
X145941666Y-15589080D01*
X145941666Y-15589080D02*
X146017856Y-15512890D01*
X146017856Y-15512890D02*
X146132142Y-15474795D01*
X146132142Y-15474795D02*
X146208333Y-15474795D01*
X146208333Y-15474795D02*
X146322618Y-15512890D01*
X146322618Y-15512890D02*
X146360714Y-15550985D01*
X147122618Y-16274795D02*
X146665475Y-16274795D01*
X146894047Y-16274795D02*
X146894047Y-15474795D01*
X146894047Y-15474795D02*
X146817856Y-15589080D01*
X146817856Y-15589080D02*
X146741666Y-15665271D01*
X146741666Y-15665271D02*
X146665475Y-15703366D01*
X147884523Y-16274795D02*
X147427380Y-16274795D01*
X147655952Y-16274795D02*
X147655952Y-15474795D01*
X147655952Y-15474795D02*
X147579761Y-15589080D01*
X147579761Y-15589080D02*
X147503571Y-15665271D01*
X147503571Y-15665271D02*
X147427380Y-15703366D01*
X168891667Y-11436104D02*
X168853571Y-11474200D01*
X168853571Y-11474200D02*
X168739286Y-11512295D01*
X168739286Y-11512295D02*
X168663095Y-11512295D01*
X168663095Y-11512295D02*
X168548809Y-11474200D01*
X168548809Y-11474200D02*
X168472619Y-11398009D01*
X168472619Y-11398009D02*
X168434524Y-11321819D01*
X168434524Y-11321819D02*
X168396428Y-11169438D01*
X168396428Y-11169438D02*
X168396428Y-11055152D01*
X168396428Y-11055152D02*
X168434524Y-10902771D01*
X168434524Y-10902771D02*
X168472619Y-10826580D01*
X168472619Y-10826580D02*
X168548809Y-10750390D01*
X168548809Y-10750390D02*
X168663095Y-10712295D01*
X168663095Y-10712295D02*
X168739286Y-10712295D01*
X168739286Y-10712295D02*
X168853571Y-10750390D01*
X168853571Y-10750390D02*
X168891667Y-10788485D01*
X169577381Y-10978961D02*
X169577381Y-11512295D01*
X169386905Y-10674200D02*
X169196428Y-11245628D01*
X169196428Y-11245628D02*
X169691667Y-11245628D01*
X87036104Y-37064285D02*
X87074200Y-37102381D01*
X87074200Y-37102381D02*
X87112295Y-37216666D01*
X87112295Y-37216666D02*
X87112295Y-37292857D01*
X87112295Y-37292857D02*
X87074200Y-37407143D01*
X87074200Y-37407143D02*
X86998009Y-37483333D01*
X86998009Y-37483333D02*
X86921819Y-37521428D01*
X86921819Y-37521428D02*
X86769438Y-37559524D01*
X86769438Y-37559524D02*
X86655152Y-37559524D01*
X86655152Y-37559524D02*
X86502771Y-37521428D01*
X86502771Y-37521428D02*
X86426580Y-37483333D01*
X86426580Y-37483333D02*
X86350390Y-37407143D01*
X86350390Y-37407143D02*
X86312295Y-37292857D01*
X86312295Y-37292857D02*
X86312295Y-37216666D01*
X86312295Y-37216666D02*
X86350390Y-37102381D01*
X86350390Y-37102381D02*
X86388485Y-37064285D01*
X86388485Y-36759524D02*
X86350390Y-36721428D01*
X86350390Y-36721428D02*
X86312295Y-36645238D01*
X86312295Y-36645238D02*
X86312295Y-36454762D01*
X86312295Y-36454762D02*
X86350390Y-36378571D01*
X86350390Y-36378571D02*
X86388485Y-36340476D01*
X86388485Y-36340476D02*
X86464676Y-36302381D01*
X86464676Y-36302381D02*
X86540866Y-36302381D01*
X86540866Y-36302381D02*
X86655152Y-36340476D01*
X86655152Y-36340476D02*
X87112295Y-36797619D01*
X87112295Y-36797619D02*
X87112295Y-36302381D01*
X86312295Y-36035714D02*
X86312295Y-35502380D01*
X86312295Y-35502380D02*
X87112295Y-35845238D01*
X1085714Y-44562295D02*
X819047Y-44181342D01*
X628571Y-44562295D02*
X628571Y-43762295D01*
X628571Y-43762295D02*
X933333Y-43762295D01*
X933333Y-43762295D02*
X1009523Y-43800390D01*
X1009523Y-43800390D02*
X1047618Y-43838485D01*
X1047618Y-43838485D02*
X1085714Y-43914676D01*
X1085714Y-43914676D02*
X1085714Y-44028961D01*
X1085714Y-44028961D02*
X1047618Y-44105152D01*
X1047618Y-44105152D02*
X1009523Y-44143247D01*
X1009523Y-44143247D02*
X933333Y-44181342D01*
X933333Y-44181342D02*
X628571Y-44181342D01*
X1771428Y-44028961D02*
X1771428Y-44562295D01*
X1580952Y-43724200D02*
X1390475Y-44295628D01*
X1390475Y-44295628D02*
X1885714Y-44295628D01*
X2533333Y-44028961D02*
X2533333Y-44562295D01*
X2342857Y-43724200D02*
X2152380Y-44295628D01*
X2152380Y-44295628D02*
X2647619Y-44295628D01*
X154485714Y-13862295D02*
X154219047Y-13481342D01*
X154028571Y-13862295D02*
X154028571Y-13062295D01*
X154028571Y-13062295D02*
X154333333Y-13062295D01*
X154333333Y-13062295D02*
X154409523Y-13100390D01*
X154409523Y-13100390D02*
X154447618Y-13138485D01*
X154447618Y-13138485D02*
X154485714Y-13214676D01*
X154485714Y-13214676D02*
X154485714Y-13328961D01*
X154485714Y-13328961D02*
X154447618Y-13405152D01*
X154447618Y-13405152D02*
X154409523Y-13443247D01*
X154409523Y-13443247D02*
X154333333Y-13481342D01*
X154333333Y-13481342D02*
X154028571Y-13481342D01*
X154752380Y-13062295D02*
X155247618Y-13062295D01*
X155247618Y-13062295D02*
X154980952Y-13367057D01*
X154980952Y-13367057D02*
X155095237Y-13367057D01*
X155095237Y-13367057D02*
X155171428Y-13405152D01*
X155171428Y-13405152D02*
X155209523Y-13443247D01*
X155209523Y-13443247D02*
X155247618Y-13519438D01*
X155247618Y-13519438D02*
X155247618Y-13709914D01*
X155247618Y-13709914D02*
X155209523Y-13786104D01*
X155209523Y-13786104D02*
X155171428Y-13824200D01*
X155171428Y-13824200D02*
X155095237Y-13862295D01*
X155095237Y-13862295D02*
X154866666Y-13862295D01*
X154866666Y-13862295D02*
X154790475Y-13824200D01*
X154790475Y-13824200D02*
X154752380Y-13786104D01*
X155933333Y-13328961D02*
X155933333Y-13862295D01*
X155742857Y-13024200D02*
X155552380Y-13595628D01*
X155552380Y-13595628D02*
X156047619Y-13595628D01*
X162691667Y-19162295D02*
X162425000Y-18781342D01*
X162234524Y-19162295D02*
X162234524Y-18362295D01*
X162234524Y-18362295D02*
X162539286Y-18362295D01*
X162539286Y-18362295D02*
X162615476Y-18400390D01*
X162615476Y-18400390D02*
X162653571Y-18438485D01*
X162653571Y-18438485D02*
X162691667Y-18514676D01*
X162691667Y-18514676D02*
X162691667Y-18628961D01*
X162691667Y-18628961D02*
X162653571Y-18705152D01*
X162653571Y-18705152D02*
X162615476Y-18743247D01*
X162615476Y-18743247D02*
X162539286Y-18781342D01*
X162539286Y-18781342D02*
X162234524Y-18781342D01*
X163072619Y-19162295D02*
X163225000Y-19162295D01*
X163225000Y-19162295D02*
X163301190Y-19124200D01*
X163301190Y-19124200D02*
X163339286Y-19086104D01*
X163339286Y-19086104D02*
X163415476Y-18971819D01*
X163415476Y-18971819D02*
X163453571Y-18819438D01*
X163453571Y-18819438D02*
X163453571Y-18514676D01*
X163453571Y-18514676D02*
X163415476Y-18438485D01*
X163415476Y-18438485D02*
X163377381Y-18400390D01*
X163377381Y-18400390D02*
X163301190Y-18362295D01*
X163301190Y-18362295D02*
X163148809Y-18362295D01*
X163148809Y-18362295D02*
X163072619Y-18400390D01*
X163072619Y-18400390D02*
X163034524Y-18438485D01*
X163034524Y-18438485D02*
X162996428Y-18514676D01*
X162996428Y-18514676D02*
X162996428Y-18705152D01*
X162996428Y-18705152D02*
X163034524Y-18781342D01*
X163034524Y-18781342D02*
X163072619Y-18819438D01*
X163072619Y-18819438D02*
X163148809Y-18857533D01*
X163148809Y-18857533D02*
X163301190Y-18857533D01*
X163301190Y-18857533D02*
X163377381Y-18819438D01*
X163377381Y-18819438D02*
X163415476Y-18781342D01*
X163415476Y-18781342D02*
X163453571Y-18705152D01*
X163537295Y-17533332D02*
X163156342Y-17799999D01*
X163537295Y-17990475D02*
X162737295Y-17990475D01*
X162737295Y-17990475D02*
X162737295Y-17685713D01*
X162737295Y-17685713D02*
X162775390Y-17609523D01*
X162775390Y-17609523D02*
X162813485Y-17571428D01*
X162813485Y-17571428D02*
X162889676Y-17533332D01*
X162889676Y-17533332D02*
X163003961Y-17533332D01*
X163003961Y-17533332D02*
X163080152Y-17571428D01*
X163080152Y-17571428D02*
X163118247Y-17609523D01*
X163118247Y-17609523D02*
X163156342Y-17685713D01*
X163156342Y-17685713D02*
X163156342Y-17990475D01*
X163080152Y-17076190D02*
X163042057Y-17152380D01*
X163042057Y-17152380D02*
X163003961Y-17190475D01*
X163003961Y-17190475D02*
X162927771Y-17228571D01*
X162927771Y-17228571D02*
X162889676Y-17228571D01*
X162889676Y-17228571D02*
X162813485Y-17190475D01*
X162813485Y-17190475D02*
X162775390Y-17152380D01*
X162775390Y-17152380D02*
X162737295Y-17076190D01*
X162737295Y-17076190D02*
X162737295Y-16923809D01*
X162737295Y-16923809D02*
X162775390Y-16847618D01*
X162775390Y-16847618D02*
X162813485Y-16809523D01*
X162813485Y-16809523D02*
X162889676Y-16771428D01*
X162889676Y-16771428D02*
X162927771Y-16771428D01*
X162927771Y-16771428D02*
X163003961Y-16809523D01*
X163003961Y-16809523D02*
X163042057Y-16847618D01*
X163042057Y-16847618D02*
X163080152Y-16923809D01*
X163080152Y-16923809D02*
X163080152Y-17076190D01*
X163080152Y-17076190D02*
X163118247Y-17152380D01*
X163118247Y-17152380D02*
X163156342Y-17190475D01*
X163156342Y-17190475D02*
X163232533Y-17228571D01*
X163232533Y-17228571D02*
X163384914Y-17228571D01*
X163384914Y-17228571D02*
X163461104Y-17190475D01*
X163461104Y-17190475D02*
X163499200Y-17152380D01*
X163499200Y-17152380D02*
X163537295Y-17076190D01*
X163537295Y-17076190D02*
X163537295Y-16923809D01*
X163537295Y-16923809D02*
X163499200Y-16847618D01*
X163499200Y-16847618D02*
X163461104Y-16809523D01*
X163461104Y-16809523D02*
X163384914Y-16771428D01*
X163384914Y-16771428D02*
X163232533Y-16771428D01*
X163232533Y-16771428D02*
X163156342Y-16809523D01*
X163156342Y-16809523D02*
X163118247Y-16847618D01*
X163118247Y-16847618D02*
X163080152Y-16923809D01*
X76812295Y-37039285D02*
X76431342Y-37305952D01*
X76812295Y-37496428D02*
X76012295Y-37496428D01*
X76012295Y-37496428D02*
X76012295Y-37191666D01*
X76012295Y-37191666D02*
X76050390Y-37115476D01*
X76050390Y-37115476D02*
X76088485Y-37077381D01*
X76088485Y-37077381D02*
X76164676Y-37039285D01*
X76164676Y-37039285D02*
X76278961Y-37039285D01*
X76278961Y-37039285D02*
X76355152Y-37077381D01*
X76355152Y-37077381D02*
X76393247Y-37115476D01*
X76393247Y-37115476D02*
X76431342Y-37191666D01*
X76431342Y-37191666D02*
X76431342Y-37496428D01*
X76278961Y-36353571D02*
X76812295Y-36353571D01*
X75974200Y-36544047D02*
X76545628Y-36734524D01*
X76545628Y-36734524D02*
X76545628Y-36239285D01*
X76812295Y-35515476D02*
X76812295Y-35972619D01*
X76812295Y-35744047D02*
X76012295Y-35744047D01*
X76012295Y-35744047D02*
X76126580Y-35820238D01*
X76126580Y-35820238D02*
X76202771Y-35896428D01*
X76202771Y-35896428D02*
X76240866Y-35972619D01*
X169192295Y-22014285D02*
X168811342Y-22280952D01*
X169192295Y-22471428D02*
X168392295Y-22471428D01*
X168392295Y-22471428D02*
X168392295Y-22166666D01*
X168392295Y-22166666D02*
X168430390Y-22090476D01*
X168430390Y-22090476D02*
X168468485Y-22052381D01*
X168468485Y-22052381D02*
X168544676Y-22014285D01*
X168544676Y-22014285D02*
X168658961Y-22014285D01*
X168658961Y-22014285D02*
X168735152Y-22052381D01*
X168735152Y-22052381D02*
X168773247Y-22090476D01*
X168773247Y-22090476D02*
X168811342Y-22166666D01*
X168811342Y-22166666D02*
X168811342Y-22471428D01*
X169192295Y-21252381D02*
X169192295Y-21709524D01*
X169192295Y-21480952D02*
X168392295Y-21480952D01*
X168392295Y-21480952D02*
X168506580Y-21557143D01*
X168506580Y-21557143D02*
X168582771Y-21633333D01*
X168582771Y-21633333D02*
X168620866Y-21709524D01*
X168392295Y-20985714D02*
X168392295Y-20452380D01*
X168392295Y-20452380D02*
X169192295Y-20795238D01*
X168636104Y-9858332D02*
X168674200Y-9896428D01*
X168674200Y-9896428D02*
X168712295Y-10010713D01*
X168712295Y-10010713D02*
X168712295Y-10086904D01*
X168712295Y-10086904D02*
X168674200Y-10201190D01*
X168674200Y-10201190D02*
X168598009Y-10277380D01*
X168598009Y-10277380D02*
X168521819Y-10315475D01*
X168521819Y-10315475D02*
X168369438Y-10353571D01*
X168369438Y-10353571D02*
X168255152Y-10353571D01*
X168255152Y-10353571D02*
X168102771Y-10315475D01*
X168102771Y-10315475D02*
X168026580Y-10277380D01*
X168026580Y-10277380D02*
X167950390Y-10201190D01*
X167950390Y-10201190D02*
X167912295Y-10086904D01*
X167912295Y-10086904D02*
X167912295Y-10010713D01*
X167912295Y-10010713D02*
X167950390Y-9896428D01*
X167950390Y-9896428D02*
X167988485Y-9858332D01*
X168255152Y-9401190D02*
X168217057Y-9477380D01*
X168217057Y-9477380D02*
X168178961Y-9515475D01*
X168178961Y-9515475D02*
X168102771Y-9553571D01*
X168102771Y-9553571D02*
X168064676Y-9553571D01*
X168064676Y-9553571D02*
X167988485Y-9515475D01*
X167988485Y-9515475D02*
X167950390Y-9477380D01*
X167950390Y-9477380D02*
X167912295Y-9401190D01*
X167912295Y-9401190D02*
X167912295Y-9248809D01*
X167912295Y-9248809D02*
X167950390Y-9172618D01*
X167950390Y-9172618D02*
X167988485Y-9134523D01*
X167988485Y-9134523D02*
X168064676Y-9096428D01*
X168064676Y-9096428D02*
X168102771Y-9096428D01*
X168102771Y-9096428D02*
X168178961Y-9134523D01*
X168178961Y-9134523D02*
X168217057Y-9172618D01*
X168217057Y-9172618D02*
X168255152Y-9248809D01*
X168255152Y-9248809D02*
X168255152Y-9401190D01*
X168255152Y-9401190D02*
X168293247Y-9477380D01*
X168293247Y-9477380D02*
X168331342Y-9515475D01*
X168331342Y-9515475D02*
X168407533Y-9553571D01*
X168407533Y-9553571D02*
X168559914Y-9553571D01*
X168559914Y-9553571D02*
X168636104Y-9515475D01*
X168636104Y-9515475D02*
X168674200Y-9477380D01*
X168674200Y-9477380D02*
X168712295Y-9401190D01*
X168712295Y-9401190D02*
X168712295Y-9248809D01*
X168712295Y-9248809D02*
X168674200Y-9172618D01*
X168674200Y-9172618D02*
X168636104Y-9134523D01*
X168636104Y-9134523D02*
X168559914Y-9096428D01*
X168559914Y-9096428D02*
X168407533Y-9096428D01*
X168407533Y-9096428D02*
X168331342Y-9134523D01*
X168331342Y-9134523D02*
X168293247Y-9172618D01*
X168293247Y-9172618D02*
X168255152Y-9248809D01*
X153387295Y-23314285D02*
X153006342Y-23580952D01*
X153387295Y-23771428D02*
X152587295Y-23771428D01*
X152587295Y-23771428D02*
X152587295Y-23466666D01*
X152587295Y-23466666D02*
X152625390Y-23390476D01*
X152625390Y-23390476D02*
X152663485Y-23352381D01*
X152663485Y-23352381D02*
X152739676Y-23314285D01*
X152739676Y-23314285D02*
X152853961Y-23314285D01*
X152853961Y-23314285D02*
X152930152Y-23352381D01*
X152930152Y-23352381D02*
X152968247Y-23390476D01*
X152968247Y-23390476D02*
X153006342Y-23466666D01*
X153006342Y-23466666D02*
X153006342Y-23771428D01*
X152663485Y-23009524D02*
X152625390Y-22971428D01*
X152625390Y-22971428D02*
X152587295Y-22895238D01*
X152587295Y-22895238D02*
X152587295Y-22704762D01*
X152587295Y-22704762D02*
X152625390Y-22628571D01*
X152625390Y-22628571D02*
X152663485Y-22590476D01*
X152663485Y-22590476D02*
X152739676Y-22552381D01*
X152739676Y-22552381D02*
X152815866Y-22552381D01*
X152815866Y-22552381D02*
X152930152Y-22590476D01*
X152930152Y-22590476D02*
X153387295Y-23047619D01*
X153387295Y-23047619D02*
X153387295Y-22552381D01*
X152587295Y-21866666D02*
X152587295Y-22019047D01*
X152587295Y-22019047D02*
X152625390Y-22095238D01*
X152625390Y-22095238D02*
X152663485Y-22133333D01*
X152663485Y-22133333D02*
X152777771Y-22209523D01*
X152777771Y-22209523D02*
X152930152Y-22247619D01*
X152930152Y-22247619D02*
X153234914Y-22247619D01*
X153234914Y-22247619D02*
X153311104Y-22209523D01*
X153311104Y-22209523D02*
X153349200Y-22171428D01*
X153349200Y-22171428D02*
X153387295Y-22095238D01*
X153387295Y-22095238D02*
X153387295Y-21942857D01*
X153387295Y-21942857D02*
X153349200Y-21866666D01*
X153349200Y-21866666D02*
X153311104Y-21828571D01*
X153311104Y-21828571D02*
X153234914Y-21790476D01*
X153234914Y-21790476D02*
X153044438Y-21790476D01*
X153044438Y-21790476D02*
X152968247Y-21828571D01*
X152968247Y-21828571D02*
X152930152Y-21866666D01*
X152930152Y-21866666D02*
X152892057Y-21942857D01*
X152892057Y-21942857D02*
X152892057Y-22095238D01*
X152892057Y-22095238D02*
X152930152Y-22171428D01*
X152930152Y-22171428D02*
X152968247Y-22209523D01*
X152968247Y-22209523D02*
X153044438Y-22247619D01*
X89086104Y-44589285D02*
X89124200Y-44627381D01*
X89124200Y-44627381D02*
X89162295Y-44741666D01*
X89162295Y-44741666D02*
X89162295Y-44817857D01*
X89162295Y-44817857D02*
X89124200Y-44932143D01*
X89124200Y-44932143D02*
X89048009Y-45008333D01*
X89048009Y-45008333D02*
X88971819Y-45046428D01*
X88971819Y-45046428D02*
X88819438Y-45084524D01*
X88819438Y-45084524D02*
X88705152Y-45084524D01*
X88705152Y-45084524D02*
X88552771Y-45046428D01*
X88552771Y-45046428D02*
X88476580Y-45008333D01*
X88476580Y-45008333D02*
X88400390Y-44932143D01*
X88400390Y-44932143D02*
X88362295Y-44817857D01*
X88362295Y-44817857D02*
X88362295Y-44741666D01*
X88362295Y-44741666D02*
X88400390Y-44627381D01*
X88400390Y-44627381D02*
X88438485Y-44589285D01*
X88438485Y-44284524D02*
X88400390Y-44246428D01*
X88400390Y-44246428D02*
X88362295Y-44170238D01*
X88362295Y-44170238D02*
X88362295Y-43979762D01*
X88362295Y-43979762D02*
X88400390Y-43903571D01*
X88400390Y-43903571D02*
X88438485Y-43865476D01*
X88438485Y-43865476D02*
X88514676Y-43827381D01*
X88514676Y-43827381D02*
X88590866Y-43827381D01*
X88590866Y-43827381D02*
X88705152Y-43865476D01*
X88705152Y-43865476D02*
X89162295Y-44322619D01*
X89162295Y-44322619D02*
X89162295Y-43827381D01*
X89162295Y-43065476D02*
X89162295Y-43522619D01*
X89162295Y-43294047D02*
X88362295Y-43294047D01*
X88362295Y-43294047D02*
X88476580Y-43370238D01*
X88476580Y-43370238D02*
X88552771Y-43446428D01*
X88552771Y-43446428D02*
X88590866Y-43522619D01*
X150560714Y-14624795D02*
X150294047Y-14243842D01*
X150103571Y-14624795D02*
X150103571Y-13824795D01*
X150103571Y-13824795D02*
X150408333Y-13824795D01*
X150408333Y-13824795D02*
X150484523Y-13862890D01*
X150484523Y-13862890D02*
X150522618Y-13900985D01*
X150522618Y-13900985D02*
X150560714Y-13977176D01*
X150560714Y-13977176D02*
X150560714Y-14091461D01*
X150560714Y-14091461D02*
X150522618Y-14167652D01*
X150522618Y-14167652D02*
X150484523Y-14205747D01*
X150484523Y-14205747D02*
X150408333Y-14243842D01*
X150408333Y-14243842D02*
X150103571Y-14243842D01*
X150865475Y-13900985D02*
X150903571Y-13862890D01*
X150903571Y-13862890D02*
X150979761Y-13824795D01*
X150979761Y-13824795D02*
X151170237Y-13824795D01*
X151170237Y-13824795D02*
X151246428Y-13862890D01*
X151246428Y-13862890D02*
X151284523Y-13900985D01*
X151284523Y-13900985D02*
X151322618Y-13977176D01*
X151322618Y-13977176D02*
X151322618Y-14053366D01*
X151322618Y-14053366D02*
X151284523Y-14167652D01*
X151284523Y-14167652D02*
X150827380Y-14624795D01*
X150827380Y-14624795D02*
X151322618Y-14624795D01*
X151589285Y-13824795D02*
X152122619Y-13824795D01*
X152122619Y-13824795D02*
X151779761Y-14624795D01*
%TO.C,U6*%
D11*
X156185000Y-16586932D02*
X156185000Y-18952500D01*
X153815000Y-18952500D02*
X153815000Y-16432500D01*
X156380000Y-16432500D02*
X156190000Y-16292500D01*
X156380000Y-16152500D01*
X156380000Y-16432500D01*
G36*
X156380000Y-16432500D02*
G01*
X156190000Y-16292500D01*
X156380000Y-16152500D01*
X156380000Y-16432500D01*
G37*
%TO.C,D124*%
X7490000Y-41700000D02*
X7490000Y-42900000D01*
X9450000Y-41700000D02*
X7490000Y-41700000D01*
X9450000Y-42900000D02*
X7490000Y-42900000D01*
%TO.C,C2*%
X111615000Y-17988748D02*
X111615000Y-19411252D01*
X113435000Y-17988748D02*
X113435000Y-19411252D01*
%TO.C,JP1*%
X236125000Y-22050000D02*
X236125000Y-19250000D01*
X236825000Y-18600000D02*
X237425000Y-18600000D01*
X237425000Y-22700000D02*
X236825000Y-22700000D01*
X238125000Y-19250000D02*
X238125000Y-22050000D01*
X238325000Y-21850000D02*
X238625000Y-21550000D01*
X238325000Y-21850000D02*
X238625000Y-22150000D01*
X238625000Y-22150000D02*
X238625000Y-21550000D01*
X236125000Y-19300000D02*
G75*
G02*
X236825000Y-18600000I700000J0D01*
G01*
X236825000Y-22700000D02*
G75*
G02*
X236125000Y-22000000I-1J699999D01*
G01*
X237425000Y-18600000D02*
G75*
G02*
X238125000Y-19300000I0J-700000D01*
G01*
X238125000Y-22000000D02*
G75*
G02*
X237425000Y-22700000I-699999J-1D01*
G01*
%TO.C,LED28*%
D12*
X16055195Y-32529774D02*
G75*
G02*
X15855195Y-32529774I-100000J0D01*
G01*
X15855195Y-32529774D02*
G75*
G02*
X16055195Y-32529774I100000J0D01*
G01*
%TO.C,C15*%
D11*
X243590000Y-35257836D02*
X243590000Y-35042164D01*
X244310000Y-35257836D02*
X244310000Y-35042164D01*
%TO.C,R11*%
X162798641Y-14532500D02*
X162491359Y-14532500D01*
X162798641Y-15292500D02*
X162491359Y-15292500D01*
%TO.C,L4*%
X163215000Y-5760000D02*
X163215000Y-3540000D01*
X165335000Y-3540000D02*
X165335000Y-5760000D01*
%TO.C,C6*%
X170940000Y-17713748D02*
X170940000Y-18236252D01*
X172410000Y-17713748D02*
X172410000Y-18236252D01*
%TO.C,R46*%
X12945000Y-42703641D02*
X12945000Y-42396359D01*
X13705000Y-42703641D02*
X13705000Y-42396359D01*
%TO.C,R31*%
X153321359Y-20620000D02*
X153628641Y-20620000D01*
X153321359Y-21380000D02*
X153628641Y-21380000D01*
%TO.C,R16*%
X143296359Y-9545000D02*
X143603641Y-9545000D01*
X143296359Y-10305000D02*
X143603641Y-10305000D01*
%TO.C,LED25*%
D12*
X70059695Y-32529774D02*
G75*
G02*
X69859695Y-32529774I-100000J0D01*
G01*
X69859695Y-32529774D02*
G75*
G02*
X70059695Y-32529774I100000J0D01*
G01*
%TO.C,J6*%
D13*
X7300000Y-45175000D02*
X7300000Y-45655000D01*
X7300000Y-49375000D02*
X12800000Y-49375000D01*
X8085000Y-45175000D02*
X7300000Y-45175000D01*
X12015000Y-45175000D02*
X12800000Y-45175000D01*
X12800000Y-45175000D02*
X12800000Y-45655000D01*
D12*
X7900000Y-44575000D02*
G75*
G02*
X7700000Y-44575000I-100000J0D01*
G01*
X7700000Y-44575000D02*
G75*
G02*
X7900000Y-44575000I100000J0D01*
G01*
%TO.C,J4*%
D13*
X177925000Y-21500000D02*
X177925000Y-21020000D01*
X178710000Y-21500000D02*
X177925000Y-21500000D01*
X182640000Y-21500000D02*
X183425000Y-21500000D01*
X183425000Y-17300000D02*
X177925000Y-17300000D01*
X183425000Y-21500000D02*
X183425000Y-21020000D01*
D12*
X183025000Y-22100000D02*
G75*
G02*
X182825000Y-22100000I-100000J0D01*
G01*
X182825000Y-22100000D02*
G75*
G02*
X183025000Y-22100000I100000J0D01*
G01*
%TO.C,R39*%
D11*
X239895000Y-35278641D02*
X239895000Y-34971359D01*
X240655000Y-35278641D02*
X240655000Y-34971359D01*
%TO.C,U7*%
X237740000Y-45110000D02*
X237740000Y-44660000D01*
X238190000Y-45110000D02*
X237740000Y-45110000D01*
X238202500Y-38630000D02*
X238537500Y-38295000D01*
X244510000Y-37890000D02*
X244960000Y-37890000D01*
X244960000Y-37890000D02*
X244960000Y-38340000D01*
X244960000Y-44660000D02*
X244960000Y-45110000D01*
X244960000Y-45110000D02*
X244510000Y-45110000D01*
%TO.C,R40*%
X80170000Y-35278641D02*
X80170000Y-34971359D01*
X80930000Y-35278641D02*
X80930000Y-34971359D01*
%TO.C,L3*%
X171538748Y-10240000D02*
X172061252Y-10240000D01*
X171538748Y-12460000D02*
X172061252Y-12460000D01*
%TO.C,R22*%
X151096359Y-19422500D02*
X151403641Y-19422500D01*
X151096359Y-20182500D02*
X151403641Y-20182500D01*
%TO.C,R29*%
X166678641Y-7820000D02*
X166371359Y-7820000D01*
X166678641Y-8580000D02*
X166371359Y-8580000D01*
%TO.C,C10*%
X172290000Y-5686252D02*
X172290000Y-5163748D01*
X173760000Y-5686252D02*
X173760000Y-5163748D01*
%TO.C,R20*%
X148853641Y-16707500D02*
X148546359Y-16707500D01*
X148853641Y-17467500D02*
X148546359Y-17467500D01*
%TO.C,R25*%
X170671359Y-7820000D02*
X170978641Y-7820000D01*
X170671359Y-8580000D02*
X170978641Y-8580000D01*
%TO.C,U2*%
X165765000Y-13390000D02*
X166240000Y-13390000D01*
X165765000Y-13865000D02*
X165765000Y-13390000D01*
X165765000Y-17610000D02*
X165765000Y-17135000D01*
X166240000Y-17610000D02*
X165765000Y-17610000D01*
X169510000Y-13390000D02*
X169985000Y-13390000D01*
X169985000Y-13390000D02*
X169985000Y-13865000D01*
X169985000Y-17135000D02*
X169985000Y-17610000D01*
X169985000Y-17610000D02*
X169510000Y-17610000D01*
X165235000Y-14250000D02*
X164905000Y-14490000D01*
X164905000Y-14010000D01*
X165235000Y-14250000D01*
G36*
X165235000Y-14250000D02*
G01*
X164905000Y-14490000D01*
X164905000Y-14010000D01*
X165235000Y-14250000D01*
G37*
%TO.C,C16*%
X242390000Y-35257836D02*
X242390000Y-35042164D01*
X243110000Y-35257836D02*
X243110000Y-35042164D01*
%TO.C,D20*%
X177735000Y-40850000D02*
X173875000Y-40850000D01*
X177735000Y-42850000D02*
X173875000Y-42850000D01*
X177735000Y-42850000D02*
X177735000Y-40850000D01*
%TO.C,J5*%
D13*
X7050000Y-40250000D02*
X7050000Y-37920000D01*
X7930000Y-40250000D02*
X7050000Y-40250000D01*
X11930000Y-36000000D02*
X8170000Y-36000000D01*
X13050000Y-37920000D02*
X13050000Y-40250000D01*
X13050000Y-40250000D02*
X12170000Y-40250000D01*
D12*
X12380000Y-40755000D02*
G75*
G02*
X12180000Y-40755000I-100000J0D01*
G01*
X12180000Y-40755000D02*
G75*
G02*
X12380000Y-40755000I100000J0D01*
G01*
%TO.C,R49*%
D11*
X78970000Y-34971359D02*
X78970000Y-35278641D01*
X79730000Y-34971359D02*
X79730000Y-35278641D01*
%TO.C,D22*%
X133135000Y-40850000D02*
X129275000Y-40850000D01*
X133135000Y-42850000D02*
X129275000Y-42850000D01*
X133135000Y-42850000D02*
X133135000Y-40850000D01*
%TO.C,C23*%
X87140000Y-41332836D02*
X87140000Y-41117164D01*
X87860000Y-41332836D02*
X87860000Y-41117164D01*
%TO.C,C29*%
X4715580Y-42240000D02*
X4434420Y-42240000D01*
X4715580Y-43260000D02*
X4434420Y-43260000D01*
%TO.C,R21*%
X148853641Y-17907500D02*
X148546359Y-17907500D01*
X148853641Y-18667500D02*
X148546359Y-18667500D01*
%TO.C,R2*%
X118528641Y-4570000D02*
X118221359Y-4570000D01*
X118528641Y-5330000D02*
X118221359Y-5330000D01*
%TO.C,R14*%
X168420000Y-19096359D02*
X168420000Y-19403641D01*
X169180000Y-19096359D02*
X169180000Y-19403641D01*
%TO.C,D27*%
X19650000Y-35460000D02*
X19650000Y-31600000D01*
X19650000Y-35460000D02*
X21650000Y-35460000D01*
X21650000Y-35460000D02*
X21650000Y-31600000D01*
%TO.C,D21*%
X158685000Y-40850000D02*
X154825000Y-40850000D01*
X158685000Y-42850000D02*
X154825000Y-42850000D01*
X158685000Y-42850000D02*
X158685000Y-40850000D01*
%TO.C,J7*%
D13*
X140905000Y-4210000D02*
X140905000Y-2620000D01*
X149845000Y-4210000D02*
X149845000Y-2620000D01*
%TO.C,R1*%
D11*
X118528641Y-5770000D02*
X118221359Y-5770000D01*
X118528641Y-6530000D02*
X118221359Y-6530000D01*
%TO.C,JP2*%
X241575000Y-22050000D02*
X241575000Y-19250000D01*
X242275000Y-18600000D02*
X242875000Y-18600000D01*
X242875000Y-22700000D02*
X242275000Y-22700000D01*
X243575000Y-19250000D02*
X243575000Y-22050000D01*
X243775000Y-21850000D02*
X244075000Y-21550000D01*
X243775000Y-21850000D02*
X244075000Y-22150000D01*
X244075000Y-22150000D02*
X244075000Y-21550000D01*
X241575000Y-19300000D02*
G75*
G02*
X242275000Y-18600000I700000J0D01*
G01*
X242275000Y-22700000D02*
G75*
G02*
X241575000Y-22000000I-1J699999D01*
G01*
X242875000Y-18600000D02*
G75*
G02*
X243575000Y-19300000I0J-700000D01*
G01*
X243575000Y-22000000D02*
G75*
G02*
X242875000Y-22700000I-699999J-1D01*
G01*
%TO.C,J1*%
X223950000Y-19920000D02*
X223950000Y-19285000D01*
X224585000Y-19920000D02*
X223950000Y-19920000D01*
%TO.C,D123*%
X10650000Y-41700000D02*
X12610000Y-41700000D01*
X10650000Y-42900000D02*
X12610000Y-42900000D01*
X12610000Y-42900000D02*
X12610000Y-41700000D01*
%TO.C,D26*%
X37650000Y-35460000D02*
X37650000Y-31600000D01*
X37650000Y-35460000D02*
X39650000Y-35460000D01*
X39650000Y-35460000D02*
X39650000Y-31600000D01*
%TO.C,R5*%
X118171359Y-8995000D02*
X118478641Y-8995000D01*
X118171359Y-9755000D02*
X118478641Y-9755000D01*
%TO.C,R30*%
X151403641Y-20622500D02*
X151096359Y-20622500D01*
X151403641Y-21382500D02*
X151096359Y-21382500D01*
%TO.C,U3*%
D13*
X143955000Y-8750000D02*
X143955000Y-7750000D01*
X146795000Y-7750000D02*
X146795000Y-8750000D01*
D12*
X143595000Y-8670000D02*
G75*
G02*
X143395000Y-8670000I-100000J0D01*
G01*
X143395000Y-8670000D02*
G75*
G02*
X143595000Y-8670000I100000J0D01*
G01*
%TO.C,D18*%
D11*
X215835000Y-40850000D02*
X211975000Y-40850000D01*
X215835000Y-42850000D02*
X211975000Y-42850000D01*
X215835000Y-42850000D02*
X215835000Y-40850000D01*
%TO.C,R15*%
X147453641Y-9545000D02*
X147146359Y-9545000D01*
X147453641Y-10305000D02*
X147146359Y-10305000D01*
%TO.C,C12*%
X166392164Y-2915000D02*
X166607836Y-2915000D01*
X166392164Y-3635000D02*
X166607836Y-3635000D01*
%TO.C,LED27*%
D12*
X34055195Y-32529774D02*
G75*
G02*
X33855195Y-32529774I-100000J0D01*
G01*
X33855195Y-32529774D02*
G75*
G02*
X34055195Y-32529774I100000J0D01*
G01*
%TO.C,R43*%
D11*
X13621359Y-43820000D02*
X13928641Y-43820000D01*
X13621359Y-44580000D02*
X13928641Y-44580000D01*
%TO.C,U8*%
X77990000Y-37890000D02*
X78440000Y-37890000D01*
X77990000Y-38340000D02*
X77990000Y-37890000D01*
X77990000Y-45110000D02*
X77990000Y-44660000D01*
X78440000Y-45110000D02*
X77990000Y-45110000D01*
X84760000Y-37890000D02*
X85210000Y-37890000D01*
X85210000Y-37890000D02*
X85210000Y-38340000D01*
X85210000Y-44660000D02*
X85210000Y-45110000D01*
X85210000Y-45110000D02*
X84760000Y-45110000D01*
X77350000Y-38340000D02*
X77010000Y-37870000D01*
X77690000Y-37870000D01*
X77350000Y-38340000D01*
G36*
X77350000Y-38340000D02*
G01*
X77010000Y-37870000D01*
X77690000Y-37870000D01*
X77350000Y-38340000D01*
G37*
%TO.C,R42*%
X87120000Y-38996359D02*
X87120000Y-39303641D01*
X87880000Y-38996359D02*
X87880000Y-39303641D01*
%TO.C,C1*%
X103865000Y-12734420D02*
X103865000Y-13015580D01*
X104885000Y-12734420D02*
X104885000Y-13015580D01*
%TO.C,R4*%
X118528641Y-12570000D02*
X118221359Y-12570000D01*
X118528641Y-13330000D02*
X118221359Y-13330000D01*
%TO.C,R3*%
X118528641Y-13770000D02*
X118221359Y-13770000D01*
X118528641Y-14530000D02*
X118221359Y-14530000D01*
%TO.C,U4*%
X150290000Y-18597500D02*
X150290000Y-18247500D01*
X152210000Y-16777500D02*
X152210000Y-17127500D01*
X152210000Y-18247500D02*
X152210000Y-18597500D01*
X150200000Y-17117500D02*
X150060000Y-16927500D01*
X150340000Y-16927500D01*
X150200000Y-17117500D01*
G36*
X150200000Y-17117500D02*
G01*
X150060000Y-16927500D01*
X150340000Y-16927500D01*
X150200000Y-17117500D01*
G37*
%TO.C,D24*%
X95035000Y-40850000D02*
X91175000Y-40850000D01*
X95035000Y-42850000D02*
X91175000Y-42850000D01*
X95035000Y-42850000D02*
X95035000Y-40850000D01*
%TO.C,L2*%
D14*
X145825000Y-9275000D02*
G75*
G02*
X145725000Y-9275000I-50000J0D01*
G01*
X145725000Y-9275000D02*
G75*
G02*
X145825000Y-9275000I50000J0D01*
G01*
%TO.C,C5*%
D11*
X164165000Y-12290580D02*
X164165000Y-12009420D01*
X165185000Y-12290580D02*
X165185000Y-12009420D01*
%TO.C,R24*%
X164246359Y-6245000D02*
X164553641Y-6245000D01*
X164246359Y-7005000D02*
X164553641Y-7005000D01*
%TO.C,R28*%
X152645000Y-16121141D02*
X152645000Y-15813859D01*
X153405000Y-16121141D02*
X153405000Y-15813859D01*
%TO.C,R12*%
X162798641Y-15732500D02*
X162491359Y-15732500D01*
X162798641Y-16492500D02*
X162491359Y-16492500D01*
%TO.C,C9*%
X170940000Y-14811252D02*
X170940000Y-14288748D01*
X172410000Y-14811252D02*
X172410000Y-14288748D01*
%TO.C,R38*%
X238695000Y-34971359D02*
X238695000Y-35278641D01*
X239455000Y-34971359D02*
X239455000Y-35278641D01*
%TO.C,TP3*%
X237300000Y-37350000D02*
G75*
G02*
X235900000Y-37350000I-700000J0D01*
G01*
X235900000Y-37350000D02*
G75*
G02*
X237300000Y-37350000I700000J0D01*
G01*
%TO.C,Q1*%
X148365000Y-19202500D02*
X148365000Y-19512500D01*
X148365000Y-19202500D02*
X149525000Y-19202500D01*
X148365000Y-21122500D02*
X148365000Y-20812500D01*
X148365000Y-21122500D02*
X149525000Y-21122500D01*
D10*
X150250000Y-20662500D02*
G75*
G02*
X150100000Y-20662500I-75000J0D01*
G01*
X150100000Y-20662500D02*
G75*
G02*
X150250000Y-20662500I75000J0D01*
G01*
%TO.C,R48*%
D11*
X19918641Y-44045000D02*
X19611359Y-44045000D01*
X19918641Y-44805000D02*
X19611359Y-44805000D01*
%TO.C,U5*%
X167065000Y-4115000D02*
X170285000Y-4115000D01*
X167065000Y-4240000D02*
X167065000Y-4115000D01*
X167065000Y-7335000D02*
X167065000Y-7210000D01*
X170285000Y-4115000D02*
X170285000Y-4240000D01*
X170285000Y-7210000D02*
X170285000Y-7335000D01*
X170285000Y-7335000D02*
X167065000Y-7335000D01*
X166515000Y-4235000D02*
X166275000Y-3905000D01*
X166755000Y-3905000D01*
X166515000Y-4235000D01*
G36*
X166515000Y-4235000D02*
G01*
X166275000Y-3905000D01*
X166755000Y-3905000D01*
X166515000Y-4235000D01*
G37*
%TO.C,D125*%
X16615000Y-43825000D02*
X18575000Y-43825000D01*
X16615000Y-45025000D02*
X18575000Y-45025000D01*
X18575000Y-45025000D02*
X18575000Y-43825000D01*
%TO.C,J3*%
D12*
X176825000Y-4600000D02*
X176825000Y-7400000D01*
X176825000Y-4600000D02*
X177525000Y-4600000D01*
X176825000Y-10000000D02*
X176825000Y-10800000D01*
X176825000Y-10800000D02*
X184525000Y-10800000D01*
X177525000Y-4600000D02*
X177525000Y-5600000D01*
X177525000Y-5600000D02*
X178525000Y-5600000D01*
X182825000Y-5600000D02*
X183825000Y-5600000D01*
X183825000Y-4600000D02*
X184525000Y-4600000D01*
X183825000Y-5600000D02*
X183825000Y-4600000D01*
X184525000Y-4600000D02*
X184525000Y-7400000D01*
X184525000Y-10800000D02*
X184525000Y-10000000D01*
X178425000Y-4750000D02*
G75*
G02*
X178225000Y-4750000I-100000J0D01*
G01*
X178225000Y-4750000D02*
G75*
G02*
X178425000Y-4750000I100000J0D01*
G01*
%TO.C,R10*%
D11*
X167220000Y-19096359D02*
X167220000Y-19403641D01*
X167980000Y-19096359D02*
X167980000Y-19403641D01*
%TO.C,C28*%
X15384420Y-42240000D02*
X15665580Y-42240000D01*
X15384420Y-43260000D02*
X15665580Y-43260000D01*
%TO.C,R47*%
X6395000Y-42703641D02*
X6395000Y-42396359D01*
X7155000Y-42703641D02*
X7155000Y-42396359D01*
%TO.C,D25*%
X55650000Y-35460000D02*
X55650000Y-31600000D01*
X55650000Y-35460000D02*
X57650000Y-35460000D01*
X57650000Y-35460000D02*
X57650000Y-31600000D01*
%TO.C,D19*%
X196785000Y-40850000D02*
X192925000Y-40850000D01*
X196785000Y-42850000D02*
X192925000Y-42850000D01*
X196785000Y-42850000D02*
X196785000Y-40850000D01*
%TO.C,R45*%
X19918641Y-42895000D02*
X19611359Y-42895000D01*
X19918641Y-43655000D02*
X19611359Y-43655000D01*
%TO.C,C14*%
X244890000Y-36442164D02*
X244890000Y-36657836D01*
X245610000Y-36442164D02*
X245610000Y-36657836D01*
%TO.C,C3*%
X114215000Y-17988748D02*
X114215000Y-19411252D01*
X116035000Y-17988748D02*
X116035000Y-19411252D01*
%TO.C,R23*%
X164246359Y-7445000D02*
X164553641Y-7445000D01*
X164246359Y-8205000D02*
X164553641Y-8205000D01*
%TO.C,C26*%
X82640000Y-35257836D02*
X82640000Y-35042164D01*
X83360000Y-35257836D02*
X83360000Y-35042164D01*
%TO.C,D23*%
X114085000Y-40850000D02*
X110225000Y-40850000D01*
X114085000Y-42850000D02*
X110225000Y-42850000D01*
X114085000Y-42850000D02*
X114085000Y-40850000D01*
%TO.C,R6*%
X118171359Y-10195000D02*
X118478641Y-10195000D01*
X118171359Y-10955000D02*
X118478641Y-10955000D01*
%TO.C,TP2*%
X78375000Y-34200000D02*
G75*
G02*
X76975000Y-34200000I-700000J0D01*
G01*
X76975000Y-34200000D02*
G75*
G02*
X78375000Y-34200000I700000J0D01*
G01*
%TO.C,LED26*%
D12*
X52057445Y-32529774D02*
G75*
G02*
X51857445Y-32529774I-100000J0D01*
G01*
X51857445Y-32529774D02*
G75*
G02*
X52057445Y-32529774I100000J0D01*
G01*
%TO.C,R36*%
D11*
X237045000Y-35346359D02*
X237045000Y-35653641D01*
X237805000Y-35346359D02*
X237805000Y-35653641D01*
%TO.C,C25*%
X83840000Y-35257836D02*
X83840000Y-35042164D01*
X84560000Y-35257836D02*
X84560000Y-35042164D01*
%TO.C,R35*%
X166020000Y-19403641D02*
X166020000Y-19096359D01*
X166780000Y-19403641D02*
X166780000Y-19096359D01*
%TO.C,C30*%
X22274420Y-43865000D02*
X22555580Y-43865000D01*
X22274420Y-44885000D02*
X22555580Y-44885000D01*
%TO.C,C13*%
X155657836Y-20315000D02*
X155442164Y-20315000D01*
X155657836Y-21035000D02*
X155442164Y-21035000D01*
%TO.C,C17*%
X246890000Y-41252836D02*
X246890000Y-41037164D01*
X247610000Y-41252836D02*
X247610000Y-41037164D01*
%TO.C,R37*%
X246895000Y-38996359D02*
X246895000Y-39303641D01*
X247655000Y-38996359D02*
X247655000Y-39303641D01*
%TO.C,SW1*%
D13*
X16925000Y-48425000D02*
X16925000Y-47825000D01*
X17375000Y-49425000D02*
X23175000Y-49425000D01*
X18675000Y-46825000D02*
X20375000Y-46825000D01*
X23625000Y-47825000D02*
X23625000Y-48425000D01*
D15*
X17175000Y-45625000D02*
G75*
G02*
X16975000Y-45625000I-100000J0D01*
G01*
X16975000Y-45625000D02*
G75*
G02*
X17175000Y-45625000I100000J0D01*
G01*
%TO.C,C19*%
D11*
X246890000Y-43222164D02*
X246890000Y-43437836D01*
X247610000Y-43222164D02*
X247610000Y-43437836D01*
%TO.C,U1*%
X106000000Y-14550000D02*
X106000000Y-15650000D01*
X106000000Y-15650000D02*
X107100000Y-15650000D01*
X116700000Y-14550000D02*
X116700000Y-15650000D01*
X116700000Y-15650000D02*
X115600000Y-15650000D01*
X105975000Y-4050000D02*
X105639000Y-4290000D01*
X105639000Y-3810000D01*
X105975000Y-4050000D01*
G36*
X105975000Y-4050000D02*
G01*
X105639000Y-4290000D01*
X105639000Y-3810000D01*
X105975000Y-4050000D01*
G37*
%TO.C,C11*%
X149042164Y-15552500D02*
X149257836Y-15552500D01*
X149042164Y-16272500D02*
X149257836Y-16272500D01*
%TO.C,C4*%
X168592164Y-11865000D02*
X168807836Y-11865000D01*
X168592164Y-12585000D02*
X168807836Y-12585000D01*
%TO.C,C27*%
X85140000Y-36442164D02*
X85140000Y-36657836D01*
X85860000Y-36442164D02*
X85860000Y-36657836D01*
%TO.C,R44*%
X6478641Y-43820000D02*
X6171359Y-43820000D01*
X6478641Y-44580000D02*
X6171359Y-44580000D01*
%TO.C,R34*%
X154846359Y-14295000D02*
X155153641Y-14295000D01*
X154846359Y-15055000D02*
X155153641Y-15055000D01*
%TO.C,R9*%
X164596359Y-18420000D02*
X164903641Y-18420000D01*
X164596359Y-19180000D02*
X164903641Y-19180000D01*
%TO.C,R8*%
X163920000Y-17353641D02*
X163920000Y-17046359D01*
X164680000Y-17353641D02*
X164680000Y-17046359D01*
%TO.C,R41*%
X77295000Y-36371359D02*
X77295000Y-36678641D01*
X78055000Y-36371359D02*
X78055000Y-36678641D01*
%TO.C,R17*%
X169620000Y-19403641D02*
X169620000Y-19096359D01*
X170380000Y-19403641D02*
X170380000Y-19096359D01*
%TO.C,C8*%
X165890000Y-11236252D02*
X165890000Y-10713748D01*
X167360000Y-11236252D02*
X167360000Y-10713748D01*
%TO.C,R26*%
X152645000Y-19263859D02*
X152645000Y-19571141D01*
X153405000Y-19263859D02*
X153405000Y-19571141D01*
%TO.C,C21*%
X87140000Y-43167164D02*
X87140000Y-43382836D01*
X87860000Y-43167164D02*
X87860000Y-43382836D01*
%TO.C,R27*%
X151403641Y-15070000D02*
X151096359Y-15070000D01*
X151403641Y-15830000D02*
X151096359Y-15830000D01*
%TD*%
%LPC*%
%TO.C,JP1*%
G36*
X236375000Y-19900000D02*
G01*
X237875000Y-19900000D01*
X237875000Y-21400000D01*
X236375000Y-21400000D01*
X236375000Y-19900000D01*
G37*
%TO.C,JP2*%
G36*
X241825000Y-19900000D02*
G01*
X243325000Y-19900000D01*
X243325000Y-21400000D01*
X241825000Y-21400000D01*
X241825000Y-19900000D01*
G37*
%TD*%
D16*
%TO.C,U6*%
X155750000Y-16292500D03*
X155250000Y-16292500D03*
X154750000Y-16292500D03*
X154250000Y-16292500D03*
X154250000Y-19092500D03*
X154750000Y-19092500D03*
X155250000Y-19092500D03*
X155750000Y-19092500D03*
%TD*%
D17*
%TO.C,*%
X239850000Y-17150000D03*
%TD*%
D18*
%TO.C,D124*%
X8050000Y-42300000D03*
X9450000Y-42300000D03*
%TD*%
D19*
%TO.C,C2*%
X112525000Y-17225000D03*
X112525000Y-20175000D03*
%TD*%
D17*
%TO.C,*%
X4650000Y-26250000D03*
%TD*%
D20*
%TO.C,JP1*%
X237125000Y-21950000D03*
D21*
X237125000Y-20650000D03*
D22*
X237125000Y-19350000D03*
%TD*%
D23*
%TO.C,LED28*%
X11655195Y-33254774D03*
D24*
X14255195Y-32529774D03*
X9055195Y-32529774D03*
X9055195Y-33979774D03*
X14255195Y-33979774D03*
%TD*%
D25*
%TO.C,C15*%
X243950000Y-35630000D03*
X243950000Y-34670000D03*
%TD*%
D26*
%TO.C,R11*%
X163155000Y-14912500D03*
X162135000Y-14912500D03*
%TD*%
D27*
%TO.C,L4*%
X164275000Y-5375000D03*
X164275000Y-3925000D03*
%TD*%
D28*
%TO.C,C6*%
X171675000Y-17025000D03*
X171675000Y-18925000D03*
%TD*%
D17*
%TO.C,REF\u002A\u002A*%
X38650000Y-26250000D03*
%TD*%
D29*
%TO.C,R46*%
X13325000Y-43060000D03*
X13325000Y-42040000D03*
%TD*%
D30*
%TO.C,R31*%
X152965000Y-21000000D03*
X153985000Y-21000000D03*
%TD*%
%TO.C,R16*%
X142940000Y-9925000D03*
X143960000Y-9925000D03*
%TD*%
D23*
%TO.C,LED25*%
X65659695Y-33254774D03*
D24*
X68259695Y-32529774D03*
X63059695Y-32529774D03*
X63059695Y-33979774D03*
X68259695Y-33979774D03*
%TD*%
D31*
%TO.C,J6*%
X8800000Y-44575000D03*
X10050000Y-44575000D03*
X11300000Y-44575000D03*
D32*
X6250000Y-47475000D03*
X13850000Y-47475000D03*
%TD*%
D31*
%TO.C,J4*%
X181925000Y-22100000D03*
X180675000Y-22100000D03*
X179425000Y-22100000D03*
D32*
X184475000Y-19200000D03*
X176875000Y-19200000D03*
%TD*%
D29*
%TO.C,R39*%
X240275000Y-35635000D03*
X240275000Y-34615000D03*
%TD*%
D33*
%TO.C,U7*%
X237187500Y-38750000D03*
X237187500Y-39250000D03*
X237187500Y-39750000D03*
X237187500Y-40250000D03*
X237187500Y-40750000D03*
X237187500Y-41250000D03*
X237187500Y-41750000D03*
X237187500Y-42250000D03*
X237187500Y-42750000D03*
X237187500Y-43250000D03*
X237187500Y-43750000D03*
X237187500Y-44250000D03*
D34*
X238600000Y-45662500D03*
X239100000Y-45662500D03*
X239600000Y-45662500D03*
X240100000Y-45662500D03*
X240600000Y-45662500D03*
X241100000Y-45662500D03*
X241600000Y-45662500D03*
X242100000Y-45662500D03*
X242600000Y-45662500D03*
X243100000Y-45662500D03*
X243600000Y-45662500D03*
X244100000Y-45662500D03*
D33*
X245512500Y-44250000D03*
X245512500Y-43750000D03*
X245512500Y-43250000D03*
X245512500Y-42750000D03*
X245512500Y-42250000D03*
X245512500Y-41750000D03*
X245512500Y-41250000D03*
X245512500Y-40750000D03*
X245512500Y-40250000D03*
X245512500Y-39750000D03*
X245512500Y-39250000D03*
X245512500Y-38750000D03*
D34*
X244100000Y-37337500D03*
X243600000Y-37337500D03*
X243100000Y-37337500D03*
X242600000Y-37337500D03*
X242100000Y-37337500D03*
X241600000Y-37337500D03*
X241100000Y-37337500D03*
X240600000Y-37337500D03*
X240100000Y-37337500D03*
X239600000Y-37337500D03*
X239100000Y-37337500D03*
X238600000Y-37337500D03*
D35*
X241350000Y-41500000D03*
%TD*%
D29*
%TO.C,R40*%
X80550000Y-35635000D03*
X80550000Y-34615000D03*
%TD*%
D36*
%TO.C,L3*%
X170725000Y-11350000D03*
X172875000Y-11350000D03*
%TD*%
D30*
%TO.C,R22*%
X150740000Y-19802500D03*
X151760000Y-19802500D03*
%TD*%
D26*
%TO.C,R29*%
X167035000Y-8200000D03*
X166015000Y-8200000D03*
%TD*%
D37*
%TO.C,C10*%
X173025000Y-6375000D03*
X173025000Y-4475000D03*
%TD*%
D26*
%TO.C,R20*%
X149210000Y-17087500D03*
X148190000Y-17087500D03*
%TD*%
D30*
%TO.C,R25*%
X170315000Y-8200000D03*
X171335000Y-8200000D03*
%TD*%
D38*
%TO.C,U2*%
X165912500Y-14250000D03*
X165912500Y-14750000D03*
X165912500Y-15250000D03*
X165912500Y-15750000D03*
X165912500Y-16250000D03*
X165912500Y-16750000D03*
D39*
X166625000Y-17462500D03*
X167125000Y-17462500D03*
X167625000Y-17462500D03*
X168125000Y-17462500D03*
X168625000Y-17462500D03*
X169125000Y-17462500D03*
D38*
X169837500Y-16750000D03*
X169837500Y-16250000D03*
X169837500Y-15750000D03*
X169837500Y-15250000D03*
X169837500Y-14750000D03*
X169837500Y-14250000D03*
D39*
X169125000Y-13537500D03*
X168625000Y-13537500D03*
X168125000Y-13537500D03*
X167625000Y-13537500D03*
X167125000Y-13537500D03*
X166625000Y-13537500D03*
D40*
X167875000Y-15500000D03*
%TD*%
D25*
%TO.C,C16*%
X242750000Y-35630000D03*
X242750000Y-34670000D03*
%TD*%
D41*
%TO.C,D20*%
X176925000Y-41850000D03*
X174125000Y-41850000D03*
%TD*%
D42*
%TO.C,J5*%
X11550000Y-40575000D03*
X10550000Y-40575000D03*
X9550000Y-40575000D03*
X8550000Y-40575000D03*
D43*
X12850000Y-36700000D03*
X7250000Y-36700000D03*
%TD*%
D44*
%TO.C,R49*%
X79350000Y-34615000D03*
X79350000Y-35635000D03*
%TD*%
D41*
%TO.C,D22*%
X132325000Y-41850000D03*
X129525000Y-41850000D03*
%TD*%
D25*
%TO.C,C23*%
X87500000Y-41705000D03*
X87500000Y-40745000D03*
%TD*%
D45*
%TO.C,C29*%
X5350000Y-42750000D03*
X3800000Y-42750000D03*
%TD*%
D26*
%TO.C,R21*%
X149210000Y-18287500D03*
X148190000Y-18287500D03*
%TD*%
%TO.C,R2*%
X118885000Y-4950000D03*
X117865000Y-4950000D03*
%TD*%
D44*
%TO.C,R14*%
X168800000Y-18740000D03*
X168800000Y-19760000D03*
%TD*%
D46*
%TO.C,D27*%
X20650000Y-34650000D03*
X20650000Y-31850000D03*
%TD*%
D17*
%TO.C,*%
X72650000Y-40250000D03*
%TD*%
D41*
%TO.C,D21*%
X157875000Y-41850000D03*
X155075000Y-41850000D03*
%TD*%
D47*
%TO.C,J7*%
X148265000Y-5080000D03*
X142485000Y-5080000D03*
D48*
X148575000Y-6150000D03*
X147775000Y-6150000D03*
D49*
X146625000Y-6150000D03*
X145625000Y-6150000D03*
X145125000Y-6150000D03*
X144125000Y-6150000D03*
D48*
X142175000Y-6150000D03*
X142975000Y-6150000D03*
D49*
X143625000Y-6150000D03*
X144625000Y-6150000D03*
X146125000Y-6150000D03*
X147125000Y-6150000D03*
D50*
X149695000Y-5580000D03*
D51*
X149695000Y-1400000D03*
D50*
X141055000Y-5580000D03*
D51*
X141055000Y-1400000D03*
%TD*%
D26*
%TO.C,R1*%
X118885000Y-6150000D03*
X117865000Y-6150000D03*
%TD*%
D20*
%TO.C,JP2*%
X242575000Y-21950000D03*
D21*
X242575000Y-20650000D03*
D22*
X242575000Y-19350000D03*
%TD*%
D52*
%TO.C,J1*%
X223315000Y-16110000D03*
D53*
X223315000Y-18650000D03*
D52*
X223315000Y-21190000D03*
X229030000Y-16110000D03*
X229030000Y-21190000D03*
D53*
X230935000Y-17634000D03*
X230935000Y-19666000D03*
D54*
X224585000Y-19285000D03*
X225855000Y-19285000D03*
X227125000Y-19285000D03*
X228395000Y-19285000D03*
X229665000Y-19285000D03*
X229665000Y-18015000D03*
X228395000Y-18015000D03*
X227125000Y-18015000D03*
X225855000Y-18015000D03*
X224585000Y-18015000D03*
%TD*%
D55*
%TO.C,D123*%
X12050000Y-42300000D03*
X10650000Y-42300000D03*
%TD*%
D46*
%TO.C,D26*%
X38650000Y-34650000D03*
X38650000Y-31850000D03*
%TD*%
D30*
%TO.C,R5*%
X117815000Y-9375000D03*
X118835000Y-9375000D03*
%TD*%
D26*
%TO.C,R30*%
X151760000Y-21002500D03*
X150740000Y-21002500D03*
%TD*%
D56*
%TO.C,U3*%
X144375000Y-8667500D03*
X144875000Y-8667500D03*
D57*
X145375000Y-8667500D03*
D56*
X145875000Y-8667500D03*
X146375000Y-8667500D03*
X146375000Y-7832500D03*
X145875000Y-7832500D03*
D57*
X145375000Y-7832500D03*
D56*
X144875000Y-7832500D03*
X144375000Y-7832500D03*
%TD*%
D17*
%TO.C,*%
X38650000Y-38200000D03*
%TD*%
D41*
%TO.C,D18*%
X215025000Y-41850000D03*
X212225000Y-41850000D03*
%TD*%
D26*
%TO.C,R15*%
X147810000Y-9925000D03*
X146790000Y-9925000D03*
%TD*%
D58*
%TO.C,C12*%
X166020000Y-3275000D03*
X166980000Y-3275000D03*
%TD*%
D23*
%TO.C,LED27*%
X29655195Y-33254774D03*
D24*
X32255195Y-32529774D03*
X27055195Y-32529774D03*
X27055195Y-33979774D03*
X32255195Y-33979774D03*
%TD*%
D30*
%TO.C,R43*%
X13265000Y-44200000D03*
X14285000Y-44200000D03*
%TD*%
D33*
%TO.C,U8*%
X77437500Y-38750000D03*
X77437500Y-39250000D03*
X77437500Y-39750000D03*
X77437500Y-40250000D03*
X77437500Y-40750000D03*
X77437500Y-41250000D03*
X77437500Y-41750000D03*
X77437500Y-42250000D03*
X77437500Y-42750000D03*
X77437500Y-43250000D03*
X77437500Y-43750000D03*
X77437500Y-44250000D03*
D34*
X78850000Y-45662500D03*
X79350000Y-45662500D03*
X79850000Y-45662500D03*
X80350000Y-45662500D03*
X80850000Y-45662500D03*
X81350000Y-45662500D03*
X81850000Y-45662500D03*
X82350000Y-45662500D03*
X82850000Y-45662500D03*
X83350000Y-45662500D03*
X83850000Y-45662500D03*
X84350000Y-45662500D03*
D33*
X85762500Y-44250000D03*
X85762500Y-43750000D03*
X85762500Y-43250000D03*
X85762500Y-42750000D03*
X85762500Y-42250000D03*
X85762500Y-41750000D03*
X85762500Y-41250000D03*
X85762500Y-40750000D03*
X85762500Y-40250000D03*
X85762500Y-39750000D03*
X85762500Y-39250000D03*
X85762500Y-38750000D03*
D34*
X84350000Y-37337500D03*
X83850000Y-37337500D03*
X83350000Y-37337500D03*
X82850000Y-37337500D03*
X82350000Y-37337500D03*
X81850000Y-37337500D03*
X81350000Y-37337500D03*
X80850000Y-37337500D03*
X80350000Y-37337500D03*
X79850000Y-37337500D03*
X79350000Y-37337500D03*
X78850000Y-37337500D03*
D35*
X81600000Y-41500000D03*
%TD*%
D44*
%TO.C,R42*%
X87500000Y-38640000D03*
X87500000Y-39660000D03*
%TD*%
D59*
%TO.C,C1*%
X104375000Y-12100000D03*
X104375000Y-13650000D03*
%TD*%
D26*
%TO.C,R4*%
X118885000Y-12950000D03*
X117865000Y-12950000D03*
%TD*%
%TO.C,R3*%
X118885000Y-14150000D03*
X117865000Y-14150000D03*
%TD*%
D60*
%TO.C,U4*%
X150525000Y-17487500D03*
X150525000Y-17887500D03*
D61*
X150650000Y-18512500D03*
X151050000Y-18512500D03*
X151450000Y-18512500D03*
X151850000Y-18512500D03*
D60*
X151975000Y-17887500D03*
X151975000Y-17487500D03*
D61*
X151850000Y-16862500D03*
X151450000Y-16862500D03*
X151050000Y-16862500D03*
X150650000Y-16862500D03*
%TD*%
D41*
%TO.C,D24*%
X94225000Y-41850000D03*
X91425000Y-41850000D03*
%TD*%
D62*
%TO.C,L2*%
X145775000Y-10050000D03*
X144975000Y-10050000D03*
X144975000Y-11900000D03*
X145775000Y-11900000D03*
%TD*%
D63*
%TO.C,C5*%
X164675000Y-12925000D03*
X164675000Y-11375000D03*
%TD*%
D30*
%TO.C,R24*%
X163890000Y-6625000D03*
X164910000Y-6625000D03*
%TD*%
D29*
%TO.C,R28*%
X153025000Y-16477500D03*
X153025000Y-15457500D03*
%TD*%
D26*
%TO.C,R12*%
X163155000Y-16112500D03*
X162135000Y-16112500D03*
%TD*%
D37*
%TO.C,C9*%
X171675000Y-15500000D03*
X171675000Y-13600000D03*
%TD*%
D44*
%TO.C,R38*%
X239075000Y-34615000D03*
X239075000Y-35635000D03*
%TD*%
D64*
%TO.C,TP3*%
X236600000Y-37350000D03*
%TD*%
D65*
%TO.C,Q1*%
X148225000Y-20162500D03*
X149525000Y-20662500D03*
X149525000Y-19662500D03*
%TD*%
D26*
%TO.C,R48*%
X20275000Y-44425000D03*
X19255000Y-44425000D03*
%TD*%
D66*
%TO.C,U5*%
X166525000Y-4750000D03*
D67*
X166525000Y-5400000D03*
X166525000Y-6050000D03*
X166525000Y-6700000D03*
X170825000Y-6700000D03*
X170825000Y-6050000D03*
X170825000Y-5400000D03*
X170825000Y-4750000D03*
D68*
X168675000Y-5725000D03*
%TD*%
D55*
%TO.C,D125*%
X18015000Y-44425000D03*
X16615000Y-44425000D03*
%TD*%
D69*
%TO.C,J3*%
X179175000Y-5050000D03*
X180675000Y-5050000D03*
X182175000Y-5050000D03*
D70*
X177225000Y-8700000D03*
X184125000Y-8700000D03*
%TD*%
D44*
%TO.C,R10*%
X167600000Y-18740000D03*
X167600000Y-19760000D03*
%TD*%
D71*
%TO.C,C28*%
X14750000Y-42750000D03*
X16300000Y-42750000D03*
%TD*%
D29*
%TO.C,R47*%
X6775000Y-43060000D03*
X6775000Y-42040000D03*
%TD*%
D46*
%TO.C,D25*%
X56650000Y-34650000D03*
X56650000Y-31850000D03*
%TD*%
D17*
%TO.C,*%
X4650000Y-40250000D03*
%TD*%
D41*
%TO.C,D19*%
X195975000Y-41850000D03*
X193175000Y-41850000D03*
%TD*%
D26*
%TO.C,R45*%
X20275000Y-43275000D03*
X19255000Y-43275000D03*
%TD*%
D17*
%TO.C,*%
X239850000Y-3200000D03*
%TD*%
D72*
%TO.C,C14*%
X245250000Y-36070000D03*
X245250000Y-37030000D03*
%TD*%
D19*
%TO.C,C3*%
X115125000Y-17225000D03*
X115125000Y-20175000D03*
%TD*%
D30*
%TO.C,R23*%
X163890000Y-7825000D03*
X164910000Y-7825000D03*
%TD*%
D25*
%TO.C,C26*%
X83000000Y-35630000D03*
X83000000Y-34670000D03*
%TD*%
D41*
%TO.C,D23*%
X113275000Y-41850000D03*
X110475000Y-41850000D03*
%TD*%
D30*
%TO.C,R6*%
X117815000Y-10575000D03*
X118835000Y-10575000D03*
%TD*%
D64*
%TO.C,TP2*%
X77675000Y-34200000D03*
%TD*%
D23*
%TO.C,LED26*%
X47657445Y-33254774D03*
D24*
X50257445Y-32529774D03*
X45057445Y-32529774D03*
X45057445Y-33979774D03*
X50257445Y-33979774D03*
%TD*%
D44*
%TO.C,R36*%
X237425000Y-34990000D03*
X237425000Y-36010000D03*
%TD*%
D25*
%TO.C,C25*%
X84200000Y-35630000D03*
X84200000Y-34670000D03*
%TD*%
D29*
%TO.C,R35*%
X166400000Y-19760000D03*
X166400000Y-18740000D03*
%TD*%
D71*
%TO.C,C30*%
X21640000Y-44375000D03*
X23190000Y-44375000D03*
%TD*%
D73*
%TO.C,C13*%
X156030000Y-20675000D03*
X155070000Y-20675000D03*
%TD*%
D25*
%TO.C,C17*%
X247250000Y-41625000D03*
X247250000Y-40665000D03*
%TD*%
D44*
%TO.C,R37*%
X247275000Y-38640000D03*
X247275000Y-39660000D03*
%TD*%
D74*
%TO.C,SW1*%
X18775000Y-48125000D03*
X21775000Y-48125000D03*
D75*
X18025000Y-46375000D03*
X21025000Y-46375000D03*
X22525000Y-46375000D03*
D76*
X16625000Y-47160000D03*
X16625000Y-49090000D03*
X23925000Y-47160000D03*
X23925000Y-49090000D03*
%TD*%
D72*
%TO.C,C19*%
X247250000Y-42850000D03*
X247250000Y-43810000D03*
%TD*%
D77*
%TO.C,U1*%
X106700000Y-4050000D03*
X106700000Y-5150000D03*
X106700000Y-5950000D03*
X106700000Y-7550000D03*
X107600000Y-7950000D03*
X106700000Y-8350000D03*
X107600000Y-8750000D03*
X106700000Y-9150000D03*
X107600000Y-9550000D03*
X106700000Y-9950000D03*
X107600000Y-10350000D03*
X106700000Y-10750000D03*
X107600000Y-11150000D03*
X106700000Y-11550000D03*
D78*
X106550000Y-14950000D03*
X107350000Y-14950000D03*
X108150000Y-14950000D03*
X108950000Y-14950000D03*
X109350000Y-14050000D03*
X109750000Y-14950000D03*
X110150000Y-14050000D03*
X110550000Y-14950000D03*
X110950000Y-14050000D03*
X111350000Y-14950000D03*
X111750000Y-14050000D03*
X112150000Y-14950000D03*
X112550000Y-14050000D03*
X112950000Y-14950000D03*
X113350000Y-14050000D03*
X113750000Y-14950000D03*
X114550000Y-14950000D03*
X115350000Y-14950000D03*
X116150000Y-14950000D03*
D77*
X116000000Y-13950000D03*
X116000000Y-13150000D03*
X115100000Y-12750000D03*
X116000000Y-12350000D03*
X115100000Y-11950000D03*
X116000000Y-11550000D03*
X115100000Y-11150000D03*
X116000000Y-10750000D03*
X115100000Y-10350000D03*
X115100000Y-9550000D03*
X116000000Y-9150000D03*
X115100000Y-8750000D03*
X116000000Y-8350000D03*
X115100000Y-7950000D03*
X116000000Y-7550000D03*
X115100000Y-7150000D03*
X115100000Y-6350000D03*
X116000000Y-5950000D03*
X115100000Y-5550000D03*
X116000000Y-5150000D03*
X115100000Y-4750000D03*
X116000000Y-4050000D03*
D78*
X109350000Y-8350000D03*
X110150000Y-8350000D03*
X110950000Y-8350000D03*
X111750000Y-8350000D03*
X112550000Y-8350000D03*
X113350000Y-8350000D03*
%TD*%
D58*
%TO.C,C11*%
X148670000Y-15912500D03*
X149630000Y-15912500D03*
%TD*%
%TO.C,C4*%
X168220000Y-12225000D03*
X169180000Y-12225000D03*
%TD*%
D72*
%TO.C,C27*%
X85500000Y-36070000D03*
X85500000Y-37030000D03*
%TD*%
D26*
%TO.C,R44*%
X6835000Y-44200000D03*
X5815000Y-44200000D03*
%TD*%
D17*
%TO.C,*%
X72650000Y-26250000D03*
%TD*%
D30*
%TO.C,R34*%
X154490000Y-14675000D03*
X155510000Y-14675000D03*
%TD*%
%TO.C,R9*%
X164240000Y-18800000D03*
X165260000Y-18800000D03*
%TD*%
D29*
%TO.C,R8*%
X164300000Y-17710000D03*
X164300000Y-16690000D03*
%TD*%
D44*
%TO.C,R41*%
X77675000Y-36015000D03*
X77675000Y-37035000D03*
%TD*%
D29*
%TO.C,R17*%
X170000000Y-19760000D03*
X170000000Y-18740000D03*
%TD*%
D37*
%TO.C,C8*%
X166625000Y-11925000D03*
X166625000Y-10025000D03*
%TD*%
D44*
%TO.C,R26*%
X153025000Y-18907500D03*
X153025000Y-19927500D03*
%TD*%
D72*
%TO.C,C21*%
X87500000Y-42795000D03*
X87500000Y-43755000D03*
%TD*%
D26*
%TO.C,R27*%
X151760000Y-15450000D03*
X150740000Y-15450000D03*
%TD*%
D79*
%TO.C,*%
X229550000Y-33450000D03*
%TD*%
D80*
%TO.C,MX21*%
X161972950Y-33254774D03*
D81*
X156472950Y-33254774D03*
D80*
X150972950Y-33254774D03*
D82*
X156472950Y-39154774D03*
X161472950Y-37054774D03*
%TD*%
D80*
%TO.C,MX18*%
X219122950Y-33254774D03*
D81*
X213622950Y-33254774D03*
D80*
X208122950Y-33254774D03*
D82*
X213622950Y-39154774D03*
X218622950Y-37054774D03*
%TD*%
D79*
%TO.C,*%
X29050000Y-45600000D03*
%TD*%
D80*
%TO.C,MX20*%
X181022950Y-33254774D03*
D81*
X175522950Y-33254774D03*
D80*
X170022950Y-33254774D03*
D82*
X175522950Y-39154774D03*
X180522950Y-37054774D03*
%TD*%
D80*
%TO.C,MX22*%
X136424995Y-33254774D03*
D81*
X130924995Y-33254774D03*
D80*
X125424995Y-33254774D03*
D82*
X130924995Y-39154774D03*
X135924995Y-37054774D03*
%TD*%
D80*
%TO.C,MX19*%
X200072950Y-33254774D03*
D81*
X194572950Y-33254774D03*
D80*
X189072950Y-33254774D03*
D82*
X194572950Y-39154774D03*
X199572950Y-37054774D03*
%TD*%
D80*
%TO.C,MX24*%
X98324995Y-33254774D03*
D81*
X92824995Y-33254774D03*
D80*
X87324995Y-33254774D03*
D82*
X92824995Y-39154774D03*
X97824995Y-37054774D03*
%TD*%
D80*
%TO.C,MX23*%
X117374995Y-33254774D03*
D81*
X111874995Y-33254774D03*
D80*
X106374995Y-33254774D03*
D82*
X111874995Y-39154774D03*
X116874995Y-37054774D03*
%TD*%
%LPD*%
M02*
