M48
; DRILL file KiCad 10.0.1 date 2026-04-22T17:25:46
; FORMAT={-:-/ absolute / metric / decimal}
; #@! TF.CreationDate,2026-04-22T17:25:46-04:00
; #@! TF.GenerationSoftware,Kicad,Pcbnew,10.0.1
; #@! TF.FileFunction,NonPlated,1,4,NPTH
FMAT,2
METRIC
; #@! TA.AperFunction,NonPlated,NPTH,ComponentDrill
T1C0.650
; #@! TA.AperFunction,NonPlated,NPTH,ComponentDrill
T2C0.900
; #@! TA.AperFunction,NonPlated,NPTH,ComponentDrill
T3C0.991
; #@! TA.AperFunction,NonPlated,NPTH,ComponentDrill
T4C1.702
; #@! TA.AperFunction,NonPlated,NPTH,ComponentDrill
T5C2.375
; #@! TA.AperFunction,NonPlated,NPTH,ComponentDrill
T6C2.400
; #@! TA.AperFunction,NonPlated,NPTH,ComponentDrill
T7C2.500
; #@! TA.AperFunction,NonPlated,NPTH,ComponentDrill
T8C3.429
%
G90
G05
T1
X142.485Y-5.08
X148.265Y-5.08
T2
X18.775Y-48.125
X21.775Y-48.125
T3
X223.315Y-18.65
X230.935Y-17.634
X230.935Y-19.666
T4
X87.325Y-33.255
X98.325Y-33.255
X106.375Y-33.255
X117.375Y-33.255
X125.425Y-33.255
X136.425Y-33.255
X150.973Y-33.255
X161.973Y-33.255
X170.023Y-33.255
X181.023Y-33.255
X189.073Y-33.255
X200.073Y-33.255
X208.123Y-33.255
X219.123Y-33.255
T5
X223.315Y-16.11
X223.315Y-21.19
X229.03Y-16.11
X229.03Y-21.19
T6
X11.655Y-33.255
X29.655Y-33.255
X47.657Y-33.255
X65.66Y-33.255
T7
X4.65Y-26.25
X4.65Y-40.25
X38.65Y-26.25
X38.65Y-38.2
X72.65Y-26.25
X72.65Y-40.25
X239.85Y-3.2
X239.85Y-17.15
T8
X92.825Y-33.255
X111.875Y-33.255
X130.925Y-33.255
X156.473Y-33.255
X175.523Y-33.255
X194.573Y-33.255
X213.623Y-33.255
M30
